<?xml version="1.0" standalone="no"?>
<!DOCTYPE svg PUBLIC "-//W3C//DTD SVG 1.1//EN" "http://www.w3.org/Graphics/SVG/1.1/DTD/svg11.dtd" >
<svg xmlns="http://www.w3.org/2000/svg">
<metadata>
This is a custom SVG webfont generated by Font Squirrel.
Copyright   :  2011 Bernd Montag
Designer    : Bernd Montag
</metadata>
<defs>
<font id="SansationRegular" horiz-adv-x="1205" >
<font-face units-per-em="2048" ascent="1638" descent="-410" />
<missing-glyph horiz-adv-x="500" />
<glyph unicode="ffi" horiz-adv-x="1050" d="M0 1050h1050v-1050h-1050v1050z" />
<glyph unicode="ffl" horiz-adv-x="1821" d="M150 0v1111q0 381 382 381q89 0 174 -40v-150q-79 40 -175 40q-196 0 -196 -213v-79h452v51q0 401 492 401q179 0 382 -72v-1430h-185v1333q-110 19 -198 19q-306 0 -306 -243v-59h315v-140h-315v-910h-185v910h-452v-910h-185z" />
<glyph unicode="ff" horiz-adv-x="1268" d="M150 0v1101q0 381 382 381q89 0 174 -40v-150q-79 40 -175 40q-196 0 -196 -213v-69h452v61q0 381 412 381q119 0 214 -40v-150q-89 40 -215 40q-226 0 -226 -223v-69h315v-140h-315v-910h-185v910h-452v-910h-185z" />
<glyph unicode="fj" horiz-adv-x="1131" d="M150 0v1101q0 401 442 401q139 0 294 -60v-150q-149 60 -295 60q-256 0 -256 -233v-69h626v-970q0 -318 -155 -478l-155 105q125 135 125 373v830h-441v-910h-185z" />
<glyph unicode="ffj" horiz-adv-x="1778" d="M150 0v1111q0 381 382 381q89 0 174 -40v-150q-79 40 -175 40q-196 0 -196 -213v-79h452v51q0 401 442 401q139 0 294 -60v-150q-149 60 -295 60q-256 0 -256 -233v-69h636v-970q0 -318 -155 -478l-155 105q125 135 125 373v830h-451v-910h-185v910h-452v-910h-185z" />
<glyph unicode="fb" horiz-adv-x="1877" d="M150 0v1101q0 401 492 401q179 0 382 -72v-430q119 50 255 50q498 0 498 -504q0 -546 -523 -546q-226 0 -415 43v1290q-110 19 -198 19q-306 0 -306 -243v-59h315v-150h-315v-900h-185zM1024 183q91 -29 221 -29q350 0 350 399q0 337 -317 337q-144 0 -254 -54v-653z" />
<glyph unicode="ffb" horiz-adv-x="2514" d="M150 0v1111q0 381 382 381q89 0 174 -40v-150q-79 40 -175 40q-196 0 -196 -213v-79h452v51q0 401 492 401q179 0 382 -72v-430q119 50 255 50q498 0 498 -504q0 -546 -523 -546q-226 0 -415 43v1290q-110 19 -198 19q-306 0 -306 -243v-59h315v-140h-315v-910h-185v910 h-452v-910h-185zM1661 183q91 -29 221 -29q350 0 350 399q0 337 -317 337q-144 0 -254 -54v-653z" />
<glyph unicode="fh" horiz-adv-x="1894" d="M150 0v1101q0 401 492 401q179 0 382 -72v-494q134 114 327 114q393 0 393 -391v-659h-185v662q0 234 -233 234q-159 0 -302 -133v-763h-185v1333q-110 19 -198 19q-306 0 -306 -243v-59h315v-150h-315v-900h-185z" />
<glyph unicode="ffh" horiz-adv-x="2531" d="M150 0v1111q0 381 382 381q89 0 174 -40v-150q-79 40 -175 40q-196 0 -196 -213v-79h452v51q0 401 492 401q179 0 382 -72v-494q134 114 327 114q393 0 393 -391v-659h-185v662q0 234 -233 234q-159 0 -302 -133v-763h-185v1333q-110 19 -198 19q-306 0 -306 -243v-59 h315v-140h-315v-910h-185v910h-452v-910h-185z" />
<glyph unicode="fk" horiz-adv-x="1870" d="M150 0v1101q0 401 492 401q179 0 382 -72v-462q153 82 353 82q392 0 392 -303q0 -220 -300 -304l336 -443h-234l-334 445v83q347 31 347 220q0 152 -220 152q-173 0 -340 -94v-806h-185v1333q-110 19 -198 19q-306 0 -306 -243v-59h315v-150h-315v-900h-185z" />
<glyph unicode="ffk" horiz-adv-x="2507" d="M150 0v1111q0 381 382 381q89 0 174 -40v-150q-79 40 -175 40q-196 0 -196 -213v-79h452v51q0 401 492 401q179 0 382 -72v-462q153 82 353 82q392 0 392 -303q0 -220 -300 -304l336 -443h-234l-334 445v83q347 31 347 220q0 152 -220 152q-173 0 -340 -94v-806h-185 v1333q-110 19 -198 19q-306 0 -306 -243v-59h315v-140h-315v-910h-185v910h-452v-910h-185z" />
<glyph unicode="&#xfb01;" horiz-adv-x="1131" d="M150 0v1101q0 401 442 401q139 0 294 -60v-150q-149 60 -295 60q-256 0 -256 -233v-69h626v-1050h-185v910h-441v-910h-185z" />
<glyph unicode="&#xfb02;" horiz-adv-x="1184" d="M150 0v1101q0 401 492 401q179 0 382 -72v-1430h-185v1333q-110 19 -198 19q-306 0 -306 -243v-59h315v-150h-315v-900h-185z" />
<glyph unicode=" "  horiz-adv-x="500" />
<glyph unicode="&#x09;" horiz-adv-x="500" />
<glyph unicode="&#xa0;" horiz-adv-x="500" />
<glyph unicode="!" horiz-adv-x="485" d="M150 0v185h185v-185h-185zM150 370v1060h185v-1060h-185z" />
<glyph unicode="&#x22;" horiz-adv-x="755" d="M100 1430h185l-30 -435h-125zM470 1430h185l-30 -435h-125z" />
<glyph unicode="#" horiz-adv-x="1893" d="M100 344l30 154h402l89 378h-401l30 154h412l100 395h180l-100 -395h378l102 400h180l-101 -400h392l-30 -154h-402l-89 -378h401l-30 -154h-412l-90 -349h-180l90 349h-378l-90 -349h-180l89 349h-392zM713 498h377l90 378h-377z" />
<glyph unicode="$" horiz-adv-x="1050" d="M100 940q0 276 369 298v192h175v-194q134 -10 266 -46v-160q-185 60 -373 60q-262 0 -262 -150q0 -140 165 -140h150q360 0 360 -310q0 -251 -306 -292v-198h-175v191q-166 5 -329 49v160q185 -60 374 -60q251 0 251 150q0 140 -175 140h-150q-340 0 -340 310z" />
<glyph unicode="%" horiz-adv-x="1422" d="M100 0l1017 1430h205l-1017 -1430h-205zM100 1180q0 260 278 260q274 0 274 -260q0 -259 -274 -259q-278 0 -278 259zM230 1182q0 -147 148 -147q144 0 144 147q0 144 -144 144q-148 0 -148 -144zM770 249q0 260 278 260q274 0 274 -260q0 -259 -274 -259 q-278 0 -278 259zM900 251q0 -147 148 -147q144 0 144 147q0 144 -144 144q-148 0 -148 -144z" />
<glyph unicode="&#x26;" horiz-adv-x="1275" d="M100 394q0 247 193 333q-193 85 -193 318q0 385 510 385q185 0 360 -50v-150q-175 50 -347 50q-338 0 -338 -230q0 -250 255 -250h388v142h63l102 -142h182v-150h-162v-160q0 -493 -518 -493q-495 0 -495 397zM285 399q0 -249 301 -249q342 0 342 342v158h-386 q-257 0 -257 -251z" />
<glyph unicode="'" horiz-adv-x="385" d="M100 1430h185l-30 -435h-125z" />
<glyph unicode="(" horiz-adv-x="585" d="M100 525q0 453 200 905h185q-200 -452 -200 -905t200 -905h-185q-200 452 -200 905z" />
<glyph unicode=")" horiz-adv-x="585" d="M100 -380q200 452 200 905t-200 905h185q200 -452 200 -905t-200 -905h-185z" />
<glyph unicode="*" horiz-adv-x="810" d="M100 1150l48 150l211 -103l-31 233h156l-30 -232l209 101l48 -147l-228 -43l159 -170l-123 -92l-113 205l-113 -204l-124 89l161 171z" />
<glyph unicode="+" horiz-adv-x="950" d="M100 450v150h300v300h150v-300h300v-150h-300v-300h-150v300h-300z" />
<glyph unicode="," horiz-adv-x="385" d="M25 -250l150 435h185l-150 -435h-185z" />
<glyph unicode="-" horiz-adv-x="700" d="M100 450v150h500v-150h-500z" />
<glyph unicode="." horiz-adv-x="385" d="M100 0v185h185v-185h-185z" />
<glyph unicode="/" horiz-adv-x="980" d="M25 0l725 1430h205l-725 -1430h-205z" />
<glyph unicode="0" horiz-adv-x="1445" d="M110 713q0 727 618 727q607 0 607 -727q0 -723 -607 -723q-618 0 -618 723zM305 719q0 -579 423 -579q412 0 412 579q0 571 -412 571q-423 0 -423 -571z" />
<glyph unicode="1" horiz-adv-x="645" d="M100 1251v89l335 100v-1440h-185v1251h-150z" />
<glyph unicode="2" horiz-adv-x="1145" d="M60 0v150q795 547 795 870q0 270 -340 270q-220 0 -415 -110v160q195 100 415 100q525 0 525 -420q0 -370 -715 -870h715v-150h-980z" />
<glyph unicode="3" horiz-adv-x="1150" d="M100 50v160q200 -70 400 -70q330 0 330 260q0 250 -252 250h-328v150h325q255 0 255 250q0 240 -330 240q-200 0 -400 -70v160q200 60 400 60q515 0 515 -390q0 -236 -188 -325q188 -85 188 -325q0 -410 -515 -410q-200 0 -400 60z" />
<glyph unicode="4" horiz-adv-x="1220" d="M60 340v150l575 940h194l-576 -940h559v508h185v-508l148 -76v-74h-148v-340h-185v340h-752z" />
<glyph unicode="5" horiz-adv-x="1175" d="M125 50v160q200 -70 400 -70q365 0 365 310q0 260 -355 260q-225 0 -410 -40l30 760h864v-150h-706l-24 -442q117 22 246 22q540 0 540 -410q0 -460 -560 -460q-190 0 -390 60z" />
<glyph unicode="6" horiz-adv-x="1260" d="M100 550q0 556 658 923l96 -127q-362 -176 -514 -479q131 53 316 53q514 0 514 -450q0 -480 -543 -480q-527 0 -527 560zM275 556q0 -416 361 -416q353 0 353 330q0 300 -342 300q-214 0 -344 -48q-28 -60 -28 -166z" />
<glyph unicode="7" horiz-adv-x="1090" d="M65 1280v150h950v-150l-602 -1280h-201l622 1280h-769z" />
<glyph unicode="8" horiz-adv-x="1240" d="M100 424q0 223 212 321q-172 105 -172 333q0 366 480 366t480 -366q0 -228 -177 -333q217 -98 217 -321q0 -434 -520 -434t-520 434zM285 418q0 -278 340 -278q330 0 330 278q0 252 -343 252q-327 0 -327 -252zM325 1058q0 -238 300 -238q290 0 290 238q0 232 -303 232 q-287 0 -287 -232z" />
<glyph unicode="9" horiz-adv-x="1260" d="M100 953q0 480 543 480q527 0 527 -560q0 -556 -658 -923l-96 127q362 176 514 479q-131 -63 -316 -63q-514 0 -514 460zM281 953q0 -300 342 -300q214 0 344 48q28 60 28 166q0 416 -361 416q-353 0 -353 -330z" />
<glyph unicode=":" horiz-adv-x="435" d="M150 0v185h185v-185h-185zM150 865v185h185v-185h-185z" />
<glyph unicode=";" horiz-adv-x="535" d="M100 -250l150 435h185l-150 -435h-185zM250 865v185h185v-185h-185z" />
<glyph unicode="&#x3c;" horiz-adv-x="1100" d="M100 450v150l900 400v-150l-743 -329l743 -321v-150z" />
<glyph unicode="=" horiz-adv-x="950" d="M100 300v150h750v-150h-750zM100 600v150h750v-150h-750z" />
<glyph unicode="&#x3e;" horiz-adv-x="1100" d="M100 50v150l743 321l-743 329v150l900 -400v-150z" />
<glyph unicode="?" horiz-adv-x="1115" d="M100 1230v150q210 50 400 50q515 0 515 -390t-497 -390h-83v-280h-185v430h265q315 0 315 240t-330 240q-190 0 -400 -50zM250 0v185h185v-185h-185z" />
<glyph unicode="@" horiz-adv-x="2150" d="M150 540q0 900 924 900q926 0 926 -900q0 -690 -427 -690q-241 0 -241 244q-147 -94 -332 -94q-375 0 -375 317q0 323 426 323q157 0 274 -20v109q0 171 -283 171q-162 0 -332 -50v150q170 50 332 50q468 0 468 -336v-626q0 -88 100 -88q205 0 205 540q0 750 -726 750 q-754 0 -754 -750q0 -770 685 -770v-150q-870 0 -870 920zM810 320q0 -170 190 -170q192 0 325 102v218q-110 20 -274 20q-241 0 -241 -170z" />
<glyph unicode="A" horiz-adv-x="1472" d="M25 0l607 1430h205l610 -1430h-205l-185 450h-473l51 150h360l-267 648l-511 -1248h-192z" />
<glyph unicode="B" horiz-adv-x="1330" d="M170 0v1430h610q408 0 408 -333q0 -244 -266 -349q284 -53 284 -325q0 -423 -447 -423h-589zM355 150h393q256 0 256 260q0 253 -343 253h-80v121q410 55 410 296q0 200 -228 200h-408v-1130z" />
<glyph unicode="C" horiz-adv-x="1385" d="M100 735q0 705 750 705q215 0 400 -60v-160q-185 70 -380 70q-585 0 -585 -555q0 -595 585 -595q195 0 380 70v-160q-185 -60 -400 -60q-750 0 -750 745z" />
<glyph unicode="D" horiz-adv-x="1500" d="M170 0v1430h520q710 0 710 -676q0 -754 -710 -754h-520zM355 150h335q525 0 525 604q0 526 -525 526h-335v-1130z" />
<glyph unicode="E" horiz-adv-x="1230" d="M170 0v1430h935v-150h-750v-480h715v-150h-715v-500h765v-150h-950z" />
<glyph unicode="F" horiz-adv-x="1155" d="M170 0v1430h935v-150h-750v-480h715v-150h-715v-650h-185z" />
<glyph unicode="G" horiz-adv-x="1385" d="M100 735q0 705 750 705q215 0 400 -60v-160q-185 70 -380 70q-585 0 -585 -555q0 -595 576 -595q92 0 204 24v486h185v-594q-173 -66 -373 -66q-777 0 -777 745z" />
<glyph unicode="H" horiz-adv-x="1555" d="M170 0v1430h185v-630h845v630h185v-1430h-185v650h-845v-650h-185z" />
<glyph unicode="I" horiz-adv-x="585" d="M200 0v1430h185v-1430h-185z" />
<glyph unicode="J" horiz-adv-x="690" d="M25 0v150q300 0 300 262v1018h185v-1018q0 -412 -485 -412z" />
<glyph unicode="K" horiz-adv-x="1400" d="M170 0v1430h185v-1430h-185zM535 688v112l592 630h234l-644 -675l658 -755h-257z" />
<glyph unicode="L" horiz-adv-x="1153" d="M170 0v1430h185v-1280h748v-150h-933z" />
<glyph unicode="M" horiz-adv-x="1840" d="M170 0v1430h235l525 -1193l515 1193h225v-1430h-165v1173l-508 -1173h-146l-516 1173v-1173h-165z" />
<glyph unicode="N" horiz-adv-x="1575" d="M170 0v1430h185l875 -1152v1152h175v-1430h-185l-875 1162v-1162h-175z" />
<glyph unicode="O" horiz-adv-x="1665" d="M120 713q0 727 718 727q707 0 707 -727q0 -723 -707 -723q-718 0 -718 723zM315 719q0 -579 523 -579q512 0 512 579q0 571 -512 571q-523 0 -523 -571z" />
<glyph unicode="P" horiz-adv-x="1263" d="M170 0v1430h580q438 0 438 -383q0 -417 -599 -509l-38 156q440 65 440 345q0 238 -258 238h-378v-1277h-185z" />
<glyph unicode="Q" horiz-adv-x="1665" d="M120 713q0 727 718 727q707 0 707 -727q0 -598 -485 -706l232 -270l-144 -108l-310 361q-718 0 -718 723zM315 719q0 -579 523 -579q512 0 512 579q0 571 -512 571q-523 0 -523 -571z" />
<glyph unicode="R" horiz-adv-x="1305" d="M170 0v1430h610q408 0 408 -343q0 -279 -399 -413l491 -674h-244l-455 643v121q410 65 410 315q0 198 -228 198h-408v-1277h-185z" />
<glyph unicode="S" horiz-adv-x="1290" d="M100 1030q0 410 575 410q250 0 465 -60v-170q-215 80 -465 80q-390 0 -390 -260q0 -230 264 -230h184q457 0 457 -390q0 -420 -554 -420q-261 0 -486 60v170q225 -80 486 -80q369 0 369 270q0 230 -272 230h-184q-449 0 -449 390z" />
<glyph unicode="T" horiz-adv-x="1185" d="M50 1280v150h1085v-150h-450v-1280h-185v1280h-450z" />
<glyph unicode="U" horiz-adv-x="1510" d="M160 552v878h185v-878q0 -412 410 -412t410 412v878h185v-878q0 -562 -595 -562t-595 562z" />
<glyph unicode="V" horiz-adv-x="1472" d="M25 1430h195l524 -1238l511 1238h192l-607 -1430h-205z" />
<glyph unicode="W" horiz-adv-x="1900" d="M50 1430h179l201 -1244l404 1244h185l433 -1244l227 1244h171l-269 -1430h-252l-404 1198l-391 -1198h-249z" />
<glyph unicode="X" horiz-adv-x="1410" d="M25 0l563 715l-563 715h225l450 -572l450 572h225l-562 -715l562 -715h-225l-450 572l-450 -572h-225z" />
<glyph unicode="Y" horiz-adv-x="1300" d="M25 1430h205l412 -747l418 747h215l-546 -930v-500h-185v500z" />
<glyph unicode="Z" horiz-adv-x="1330" d="M125 0v150l884 1130h-864v150h1060v-150l-857 -1130h837v-150h-1060z" />
<glyph unicode="[" horiz-adv-x="650" d="M150 -380v1810h450v-150h-265v-1510h265v-150h-450z" />
<glyph unicode="\" horiz-adv-x="980" d="M25 1430h205l725 -1430h-205z" />
<glyph unicode="]" horiz-adv-x="650" d="M50 -230h265v1510h-265v150h450v-1810h-450v150z" />
<glyph unicode="^" horiz-adv-x="1050" d="M50 700l400 730h150l400 -730h-150l-329 603l-321 -603h-150z" />
<glyph unicode="_" horiz-adv-x="1050" d="M25 0h1000v-150h-1000v150z" />
<glyph unicode="`" horiz-adv-x="603" d="M100 1430h239l164 -239h-164z" />
<glyph unicode="a" horiz-adv-x="1135" d="M100 317q0 323 426 323q137 0 274 -20v99q0 181 -283 181q-162 0 -332 -50v150q170 50 332 50q468 0 468 -326v-724h-104l-64 104q-157 -104 -342 -104q-375 0 -375 317zM285 320q0 -170 190 -170q192 0 325 102v218q-137 20 -274 20q-241 0 -241 -170z" />
<glyph unicode="b" horiz-adv-x="1188" d="M150 43v1387h185v-430q119 50 255 50q498 0 498 -504q0 -546 -523 -546q-226 0 -415 43zM335 183q91 -29 221 -29q350 0 350 399q0 337 -317 337q-144 0 -254 -54v-653z" />
<glyph unicode="c" horiz-adv-x="1025" d="M100 545q0 505 560 505q150 0 280 -30v-150q-130 30 -290 30q-365 0 -365 -355q0 -395 365 -395q160 0 290 30v-150q-130 -30 -280 -30q-560 0 -560 545z" />
<glyph unicode="d" horiz-adv-x="1190" d="M100 546q0 504 498 504q136 0 257 -50v430h185v-1367q-191 -63 -471 -63q-469 0 -469 546zM282 553q0 -399 317 -399q144 0 256 39v643q-112 54 -256 54q-317 0 -317 -337z" />
<glyph unicode="e" horiz-adv-x="1130" d="M100 537q0 513 483 513q448 0 448 -443q0 -63 -9 -135h-737q0 -322 376 -322q179 0 318 40v-150q-139 -40 -338 -40q-541 0 -541 537zM285 626h568q-6 276 -270 276q-280 0 -298 -276z" />
<glyph unicode="f" horiz-adv-x="661" d="M150 0v1101q0 381 432 381q119 0 224 -40v-150q-99 40 -225 40q-246 0 -246 -223v-59h325v-150h-325v-900h-185z" />
<glyph unicode="g" horiz-adv-x="1187" d="M100 531q0 519 525 519q213 0 412 -43v-1007q0 -380 -483 -380q-194 0 -344 50v150q153 -50 346 -50q296 0 296 230v50q-118 -50 -254 -50q-498 0 -498 531zM282 533q0 -373 317 -373q144 0 253 54v658q-95 24 -235 24q-335 0 -335 -363z" />
<glyph unicode="h" d="M150 0v1430h185v-494q134 114 327 114q393 0 393 -391v-659h-185v662q0 234 -233 234q-159 0 -302 -133v-763h-185z" />
<glyph unicode="i" horiz-adv-x="525" d="M170 0v1050h185v-1050h-185zM170 1255v175h185v-175h-185z" />
<glyph unicode="j" horiz-adv-x="525" d="M45 -293q125 135 125 373v970h185v-970q0 -318 -155 -478zM170 1255v175h185v-175h-185z" />
<glyph unicode="k" horiz-adv-x="1181" d="M150 0v1430h185v-462q153 82 353 82q392 0 392 -303q0 -220 -300 -304l336 -443h-234l-334 445v83q347 31 347 220q0 152 -220 152q-173 0 -340 -94v-806h-185z" />
<glyph unicode="l" horiz-adv-x="505" d="M160 0v1430h185v-1430h-185z" />
<glyph unicode="m" horiz-adv-x="1805" d="M150 0v1050h125l31 -132q151 132 329 132q228 0 311 -144q171 144 347 144q362 0 362 -399v-651h-185v661q0 235 -198 235q-148 0 -277 -136v-760h-185v658q0 238 -196 238q-156 0 -279 -136v-760h-185z" />
<glyph unicode="n" d="M150 0v1050h125l33 -134q161 134 354 134q393 0 393 -391v-659h-185v662q0 234 -233 234q-159 0 -302 -133v-763h-185z" />
<glyph unicode="o" horiz-adv-x="1200" d="M100 525q0 525 500 525t500 -525q0 -524 -500 -524q-498 0 -500 524zM285 529q0 -379 315 -379t315 379q0 371 -315 371t-315 -371z" />
<glyph unicode="p" horiz-adv-x="1187" d="M150 -380v1387q209 43 432 43q505 0 505 -499q0 -551 -508 -551q-126 0 -244 50v-430h-185zM335 214q109 -54 243 -54q327 0 327 393q0 343 -325 343q-140 0 -245 -24v-658z" />
<glyph unicode="q" horiz-adv-x="1187" d="M100 531q0 519 525 519q213 0 412 -43v-1387h-185v430q-118 -50 -254 -50q-498 0 -498 531zM282 533q0 -373 317 -373q144 0 253 54v658q-95 24 -235 24q-335 0 -335 -363z" />
<glyph unicode="r" horiz-adv-x="675" d="M150 0v1050h125l33 -134q138 134 332 134v-154q-188 0 -305 -133v-763h-185z" />
<glyph unicode="s" horiz-adv-x="1050" d="M100 750q0 300 437 300q188 0 373 -50v-160q-185 60 -373 60q-262 0 -262 -150q0 -140 165 -140h150q360 0 360 -310q0 -300 -436 -300q-189 0 -374 50v160q185 -60 374 -60q251 0 251 150q0 140 -175 140h-150q-340 0 -340 310z" />
<glyph unicode="t" horiz-adv-x="675" d="M150 283v937h116l40 -170h284v-150h-255v-603q0 -147 127 -147h128v-150h-176q-264 0 -264 283z" />
<glyph unicode="u" d="M150 391v659h185v-662q0 -234 232 -234q159 0 303 133v763h185v-1050h-127l-32 134q-191 -134 -384 -134q-362 0 -362 391z" />
<glyph unicode="v" horiz-adv-x="1000" d="M0 1050h200l301 -823l299 823h200l-427 -1050h-172z" />
<glyph unicode="w" horiz-adv-x="1539" d="M35 1050h187l186 -823l273 823h167l292 -823l168 823h196l-274 -1050h-169l-301 785l-286 -785h-173z" />
<glyph unicode="x" horiz-adv-x="1050" d="M25 0l393 525l-393 525h215l285 -381l285 381h215l-392 -525l392 -525h-215l-285 381l-285 -381h-215z" />
<glyph unicode="y" horiz-adv-x="1050" d="M25 1050h201l297 -820l307 820h196l-436 -1081q-116 -286 -348 -357l-71 131q176 77 256 251z" />
<glyph unicode="z" horiz-adv-x="1040" d="M100 0v140l635 760h-615v150h820v-150l-627 -760h607v-140h-820z" />
<glyph unicode="{" horiz-adv-x="675" d="M100 450v150q210 0 210 352q0 302 130 478h185q-130 -176 -130 -478q0 -352 -210 -427q210 -75 210 -427q0 -302 130 -478h-185q-130 176 -130 478q0 352 -210 352z" />
<glyph unicode="|" horiz-adv-x="485" d="M150 -380v1810h185v-1810h-185z" />
<glyph unicode="}" horiz-adv-x="675" d="M50 -380q130 176 130 478q0 352 210 427q-210 75 -210 427q0 302 -130 478h185q130 -176 130 -478q0 -352 210 -352v-150q-210 0 -210 -352q0 -302 -130 -478h-185z" />
<glyph unicode="~" horiz-adv-x="950" d="M100 430v150q58 61 162 61q86 0 203 -41q117 -40 207 -40q109 0 178 60v-150q-58 -60 -162 -60q-86 0 -203 40q-117 41 -207 41q-109 0 -178 -61z" />
<glyph unicode="&#xa1;" horiz-adv-x="485" d="M150 -380v1060h185v-1060h-185zM150 865v185h185v-185h-185z" />
<glyph unicode="&#xa2;" horiz-adv-x="1050" d="M100 735q0 459 470 501v194h175v-192q108 -6 205 -28v-150q-130 30 -260 30q-405 0 -405 -355q0 -395 405 -395q130 0 260 30v-150q-97 -22 -205 -28v-192h-175v195q-470 45 -470 540z" />
<glyph unicode="&#xa3;" horiz-adv-x="1217" d="M100 -30v152q186 75 186 291q0 117 -77 291t-77 323q0 413 558 413q270 0 427 -100v-180q-158 130 -434 130q-354 0 -354 -261q0 -144 45 -229h376v-150h-324q49 -134 49 -234q0 -137 -64 -238q22 4 51 4q91 0 251 -43q61 -17 121 -17q145 0 283 98v-170 q-120 -84 -284 -84q-94 0 -201 28q-129 32 -246 32q-153 0 -286 -56z" />
<glyph unicode="&#xa4;" horiz-adv-x="1139" d="M100 173l116 120q-57 103 -57 232q0 137 57 231l-116 120l109 112l125 -121q108 68 242 68q124 0 225 -68l128 121l110 -112l-118 -120q58 -83 58 -231q0 -139 -68 -232l128 -120l-110 -112l-128 123q-108 -60 -233 -60q-124 0 -243 60l-116 -123zM322 529 q0 -246 245 -246t245 246q0 244 -245 244t-245 -244z" />
<glyph unicode="&#xa5;" horiz-adv-x="1250" d="M50 1430h205l362 -627l368 627h215l-433 -700h313v-150h-376v-111h376v-150h-376v-319h-185v319h-349v150h349v111h-349v150h287z" />
<glyph unicode="&#xa6;" horiz-adv-x="485" d="M150 350h185v-730h-185v730zM150 700v730h184v-730h-184z" />
<glyph unicode="&#xa7;" horiz-adv-x="1050" d="M100 720q0 138 122 196q-122 80 -122 224q0 300 457 300q168 0 343 -50v-160q-175 60 -343 60q-292 0 -292 -150q0 -130 195 -130h110q380 0 380 -297q0 -130 -120 -202q120 -64 120 -221q0 -300 -436 -300q-189 0 -364 50v160q175 -60 364 -60q251 0 251 150 q0 130 -195 130h-110q-360 0 -360 300zM275 717q0 -149 195 -149h110q195 0 195 136q0 157 -195 157h-110q-195 0 -195 -144z" />
<glyph unicode="&#xa8;" horiz-adv-x="755" d="M100 1260v170h185v-170h-185zM470 1260v170h185v-170h-185z" />
<glyph unicode="&#xa9;" horiz-adv-x="1785" d="M150 723q0 717 748 717q737 0 737 -717q0 -733 -737 -733q-748 0 -748 733zM255 719q0 -639 623 -639q652 0 652 639q0 631 -632 631q-643 0 -643 -631zM477 728q0 416 416 416q165 0 290 -51v-98q-125 58 -276 58q-325 0 -325 -325q0 -352 325 -352q151 0 276 58v-98 q-125 -51 -290 -51q-416 0 -416 443z" />
<glyph unicode="&#xaa;" horiz-adv-x="642" d="M100 1069q0 161 213 161q79 0 137 -10v50q0 86 -142 86q-80 0 -166 -26v76q86 24 166 24q234 0 234 -168v-356h-46l-38 36q-68 -36 -160 -36q-198 0 -198 163zM192 1070q0 -90 106 -90q96 0 152 42v124q-55 10 -137 10q-121 0 -121 -86z" />
<glyph unicode="&#xab;" horiz-adv-x="1009" d="M100 525l258 375h202l-258 -375l258 -375h-202zM499 525l258 375h202l-258 -375l258 -375h-202z" />
<glyph unicode="&#xac;" horiz-adv-x="1085" d="M100 900v150h885v-400h-150v250h-735z" />
<glyph unicode="&#xad;" horiz-adv-x="950" d="M100 450v150h750v-150h-750z" />
<glyph unicode="&#x2212;" horiz-adv-x="950" d="M100 450v150h750v-150h-750z" />
<glyph unicode="&#xae;" horiz-adv-x="1163" d="M150 1023q0 427 430 427q433 0 433 -427q0 -415 -433 -415q-418 0 -430 415zM223 1025q0 -361 357 -361q360 0 360 361q0 369 -360 369q-357 0 -357 -369zM404 756v536h229q153 0 153 -128q0 -105 -150 -155l184 -253h-91l-171 241v45q154 25 154 119q0 74 -86 74h-153 v-479h-69z" />
<glyph unicode="&#xaf;" horiz-adv-x="700" d="M100 1280v150h500v-150h-500z" />
<glyph unicode="&#x2c9;" horiz-adv-x="700" d="M100 1280v150h500v-150h-500z" />
<glyph unicode="&#xb0;" horiz-adv-x="752" d="M100 1170q0 260 278 260q274 0 274 -260q0 -259 -274 -259q-278 0 -278 259zM230 1172q0 -147 148 -147q144 0 144 147q0 144 -144 144q-148 0 -148 -144z" />
<glyph unicode="&#xb1;" horiz-adv-x="950" d="M100 0v150h750v-150h-750zM100 600v150h300v300h150v-300h300v-150h-300v-300h-150v300h-300z" />
<glyph unicode="&#xb2;" horiz-adv-x="590" d="M50 710v135q337 213 337 365q0 85 -110 85t-207 -55v140q97 50 207 50q263 0 263 -220q0 -175 -287 -365h287v-135h-490z" />
<glyph unicode="&#xb3;" horiz-adv-x="578" d="M50 736v140q100 -36 200 -36q126 0 126 90q0 76 -86 76h-164v134h162q88 0 88 76q0 80 -126 80q-100 0 -200 -36v140q100 30 200 30q278 0 278 -214q0 -98 -94 -143q94 -43 94 -143q0 -224 -278 -224q-100 0 -200 30z" />
<glyph unicode="&#xb4;" horiz-adv-x="603" d="M100 1191l164 239h239l-239 -239h-164z" />
<glyph unicode="&#xb5;" d="M150 -380v1430h185v-612q0 -284 232 -284q159 0 303 133v763h185v-1050h-127l-32 134q-191 -134 -364 -134q-130 0 -197 80v-460h-185z" />
<glyph unicode="&#x3bc;" d="M150 -380v1430h185v-612q0 -284 232 -284q159 0 303 133v763h185v-1050h-127l-32 134q-191 -134 -364 -134q-130 0 -197 80v-460h-185z" />
<glyph unicode="&#xb6;" horiz-adv-x="953" d="M0 986q0 444 443 444h510v-90h-150v-1774h-100v1774h-160v-1774h-100v972q-443 0 -443 448z" />
<glyph unicode="&#xb7;" horiz-adv-x="450" d="M100 525q0 125 125 125t125 -125t-125 -125t-125 125z" />
<glyph unicode="&#x2219;" horiz-adv-x="450" d="M100 525q0 125 125 125t125 -125t-125 -125t-125 125z" />
<glyph unicode="&#xb8;" horiz-adv-x="457" d="M0 -264q108 -50 216 -50t108 65q0 64 -83 64h-183l131 260h135l-81 -152q214 0 214 -172q0 -173 -241 -173q-108 0 -216 50v108z" />
<glyph unicode="&#xb9;" horiz-adv-x="328" d="M50 1261v75l228 90v-716h-152v551h-76z" />
<glyph unicode="&#xba;" horiz-adv-x="700" d="M100 1168q0 262 250 262t250 -262t-250 -262q-248 0 -250 262zM193 1170q0 -190 157 -190q158 0 158 190q0 186 -158 186q-157 0 -157 -186z" />
<glyph unicode="&#xbb;" horiz-adv-x="1009" d="M50 150l258 375l-258 375h202l258 -375l-258 -375h-202zM449 150l258 375l-258 375h202l258 -375l-258 -375h-202z" />
<glyph unicode="&#xbc;" horiz-adv-x="1449" d="M100 0l885 1430h185l-885 -1430h-185zM124 1261v75l227 90v-716h-153v551h-74zM872 26v140q100 -36 200 -36q124 0 124 90q0 76 -86 76h-164v134h163q87 0 87 76q0 80 -124 80q-100 0 -200 -36v140q100 30 200 30q277 0 277 -214q0 -98 -94 -143q94 -43 94 -143 q0 -224 -277 -224q-100 0 -200 30z" />
<glyph unicode="&#xbd;" horiz-adv-x="1442" d="M100 0l885 1430h185l-885 -1430h-185zM124 1261v75l227 90v-716h-153v551h-74zM852 0v135q338 213 338 365q0 85 -110 85t-208 -55v140q98 50 208 50q262 0 262 -220q0 -175 -288 -365h288v-135h-490z" />
<glyph unicode="&#xbe;" horiz-adv-x="1490" d="M100 736v140q100 -36 200 -36q124 0 124 90q0 76 -86 76h-164v134h163q87 0 87 76q0 80 -124 80q-100 0 -200 -36v140q100 30 200 30q277 0 277 -214q0 -98 -94 -143q94 -43 94 -143q0 -224 -277 -224q-100 0 -200 30zM191 0l885 1430h185l-885 -1430h-185zM822 150v134 l218 430h162l-213 -430h175v264h152v-264l74 -38v-96h-74v-150h-152v150h-342z" />
<glyph unicode="&#xbf;" horiz-adv-x="1115" d="M100 10q0 390 497 390h83v280h185v-430h-265q-315 0 -315 -240t330 -240q190 0 400 50v-150q-210 -50 -400 -50q-515 0 -515 390zM680 865v185h185v-185h-185z" />
<glyph unicode="&#xc0;" horiz-adv-x="1472" d="M25 0l607 1430h205l610 -1430h-205l-185 450h-473l51 150h360l-267 648l-511 -1248h-192zM467 1810h239l164 -239h-164z" />
<glyph unicode="&#xc1;" horiz-adv-x="1472" d="M25 0l607 1430h205l610 -1430h-205l-185 450h-473l51 150h360l-267 648l-511 -1248h-192zM602 1571l164 239h239l-239 -239h-164z" />
<glyph unicode="&#xc2;" horiz-adv-x="1472" d="M25 0l607 1430h205l610 -1430h-205l-185 450h-473l51 150h360l-267 648l-511 -1248h-192zM486 1550l175 260h150l175 -260h-150l-100 160l-100 -160h-150z" />
<glyph unicode="&#xc3;" horiz-adv-x="1472" d="M25 0l607 1430h205l610 -1430h-205l-185 450h-473l51 150h360l-267 648l-511 -1248h-192zM486 1614v150q60 46 130 46q52 0 110 -26t114 -26q75 0 146 46v-150q-60 -46 -130 -46q-52 0 -110 26t-114 26q-75 0 -146 -46z" />
<glyph unicode="&#xc4;" horiz-adv-x="1472" d="M25 0l607 1430h205l610 -1430h-205l-185 450h-473l51 150h360l-267 648l-511 -1248h-192zM459 1640v170h185v-170h-185zM829 1640v170h185v-170h-185z" />
<glyph unicode="&#xc5;" horiz-adv-x="1472" d="M25 0l607 1430h3q-125 40 -125 195q0 210 228 210q224 0 224 -210q0 -156 -125 -196l610 -1429h-205l-185 450h-473l51 150h360l-267 648l-511 -1248h-192zM600 1627q0 -137 138 -137q134 0 134 137q0 134 -134 134q-138 0 -138 -134z" />
<glyph unicode="&#xc6;" horiz-adv-x="1925" d="M25 0l607 1430h1148v-150h-888l210 -480h643v-150h-574l226 -500h403v-150h-548l-524 1238l-266 -638h350l58 -150h-459l-194 -450h-192z" />
<glyph unicode="&#xc7;" horiz-adv-x="1385" d="M100 735q0 705 750 705q215 0 400 -60v-160q-185 70 -380 70q-585 0 -585 -555q0 -595 585 -595q195 0 380 70v-160q-185 -60 -400 -60h-16l-36 -67q214 0 214 -172q0 -173 -241 -173q-108 0 -216 50v108q108 -50 216 -50t108 65q0 64 -83 64h-183l92 183 q-605 68 -605 737z" />
<glyph unicode="&#xc8;" horiz-adv-x="1230" d="M170 0v1430h935v-150h-750v-480h715v-150h-715v-500h765v-150h-950zM376 1810h239l164 -239h-164z" />
<glyph unicode="&#xc9;" horiz-adv-x="1230" d="M170 0v1430h935v-150h-750v-480h715v-150h-715v-500h765v-150h-950zM511 1571l164 239h239l-239 -239h-164z" />
<glyph unicode="&#xca;" horiz-adv-x="1230" d="M170 0v1430h935v-150h-750v-480h715v-150h-715v-500h765v-150h-950zM395 1550l175 260h150l175 -260h-150l-100 160l-100 -160h-150z" />
<glyph unicode="&#xcb;" horiz-adv-x="1230" d="M170 0v1430h935v-150h-750v-480h715v-150h-715v-500h765v-150h-950zM368 1640v170h185v-170h-185zM738 1640v170h185v-170h-185z" />
<glyph unicode="&#xcc;" horiz-adv-x="585" d="M200 0v1430h185v-1430h-185zM24 1810h239l164 -239h-164z" />
<glyph unicode="&#xcd;" horiz-adv-x="585" d="M200 0v1430h185v-1430h-185zM158 1571l164 239h239l-239 -239h-164z" />
<glyph unicode="&#xce;" horiz-adv-x="585" d="M201 0v1430h185v-1430h-185zM43 1550l175 260h150l175 -260h-150l-100 160l-100 -160h-150z" />
<glyph unicode="&#xcf;" horiz-adv-x="585" d="M200 0v1430h185v-1430h-185zM15 1640v170h185v-170h-185zM385 1640v170h185v-170h-185z" />
<glyph unicode="&#xd0;" horiz-adv-x="1500" d="M-30 650v150h200v630h520q710 0 710 -676q0 -754 -710 -754h-520v650h-200zM355 150h335q525 0 525 604q0 526 -525 526h-335v-480h365v-150h-365v-500z" />
<glyph unicode="&#xd1;" horiz-adv-x="1575" d="M170 0v1430h185l875 -1152v1152h175v-1430h-185l-875 1162v-1162h-175zM538 1614v150q60 46 130 46q52 0 110 -26t114 -26q75 0 146 46v-150q-60 -46 -130 -46q-52 0 -110 26t-114 26q-75 0 -146 -46z" />
<glyph unicode="&#xd2;" horiz-adv-x="1665" d="M120 713q0 727 718 727q707 0 707 -727q0 -723 -707 -723q-718 0 -718 723zM315 719q0 -579 523 -579q512 0 512 579q0 571 -512 571q-523 0 -523 -571zM564 1810h239l164 -239h-164z" />
<glyph unicode="&#xd3;" horiz-adv-x="1665" d="M120 713q0 727 718 727q707 0 707 -727q0 -723 -707 -723q-718 0 -718 723zM315 719q0 -579 523 -579q512 0 512 579q0 571 -512 571q-523 0 -523 -571zM698 1571l164 239h239l-239 -239h-164z" />
<glyph unicode="&#xd4;" horiz-adv-x="1665" d="M120 713q0 727 718 727q707 0 707 -727q0 -723 -707 -723q-718 0 -718 723zM315 719q0 -579 523 -579q512 0 512 579q0 571 -512 571q-523 0 -523 -571zM583 1550l175 260h150l175 -260h-150l-100 160l-100 -160h-150z" />
<glyph unicode="&#xd5;" horiz-adv-x="1665" d="M120 713q0 727 718 727q707 0 707 -727q0 -723 -707 -723q-718 0 -718 723zM315 719q0 -579 523 -579q512 0 512 579q0 571 -512 571q-523 0 -523 -571zM583 1614v150q60 46 130 46q52 0 110 -26t114 -26q75 0 146 46v-150q-60 -46 -130 -46q-52 0 -110 26t-114 26 q-75 0 -146 -46z" />
<glyph unicode="&#xd6;" horiz-adv-x="1665" d="M120 713q0 727 718 727q707 0 707 -727q0 -723 -707 -723q-718 0 -718 723zM315 719q0 -579 523 -579q512 0 512 579q0 571 -512 571q-523 0 -523 -571zM555 1640v170h185v-170h-185zM925 1640v170h185v-170h-185z" />
<glyph unicode="&#xd7;" horiz-adv-x="950" d="M100 313l212 212l-212 212l106 106l212 -212l212 212l106 -106l-212 -212l212 -212l-106 -106l-212 212l-212 -212z" />
<glyph unicode="&#xd8;" horiz-adv-x="1625" d="M100 713q0 727 718 727q228 0 383 -76l50 66h198l-118 -155q194 -182 194 -562q0 -723 -707 -723q-240 0 -399 81l-54 -71h-197l122 161q-190 180 -190 552zM295 719q0 -264 109 -408l695 918q-113 61 -281 61q-523 0 -523 -571zM522 207q118 -67 296 -67q512 0 512 579 q0 266 -111 408z" />
<glyph unicode="&#xd9;" horiz-adv-x="1510" d="M160 552v878h185v-878q0 -412 410 -412t410 412v878h185v-878q0 -562 -595 -562t-595 562zM486 1810h239l164 -239h-164z" />
<glyph unicode="&#xda;" horiz-adv-x="1510" d="M160 552v878h185v-878q0 -412 410 -412t410 412v878h185v-878q0 -562 -595 -562t-595 562zM621 1571l164 239h239l-239 -239h-164z" />
<glyph unicode="&#xdb;" horiz-adv-x="1510" d="M160 552v878h185v-878q0 -412 410 -412t410 412v878h185v-878q0 -562 -595 -562t-595 562zM505 1550l175 260h150l175 -260h-150l-100 160l-100 -160h-150z" />
<glyph unicode="&#xdc;" horiz-adv-x="1510" d="M160 552v878h185v-878q0 -412 410 -412t410 412v878h185v-878q0 -562 -595 -562t-595 562zM478 1640v170h185v-170h-185zM848 1640v170h185v-170h-185z" />
<glyph unicode="&#xdd;" horiz-adv-x="1300" d="M25 1430h205l412 -747l418 747h215l-546 -930v-500h-185v500zM516 1571l164 239h239l-239 -239h-164z" />
<glyph unicode="&#xde;" horiz-adv-x="1243" d="M150 0v1430h185v-308h425q408 0 408 -343q0 -387 -569 -479l-38 156q410 65 410 315q0 198 -228 198h-408v-969h-185z" />
<glyph unicode="&#xdf;" horiz-adv-x="1191" d="M150 0v959q0 468 464 468q430 0 430 -377v-85q-304 -103 -304 -238q0 -91 185.5 -162.5t185.5 -262.5q0 -302 -394 -302h-182v150h184q197 0 197 152q0 101 -175.5 162.5t-175.5 259.5q0 208 288 326q0 227 -246 227q-272 0 -272 -321v-956h-185z" />
<glyph unicode="&#xe0;" horiz-adv-x="1135" d="M100 317q0 323 426 323q137 0 274 -20v99q0 181 -283 181q-162 0 -332 -50v150q170 50 332 50q468 0 468 -326v-724h-104l-64 104q-157 -104 -342 -104q-375 0 -375 317zM285 320q0 -170 190 -170q192 0 325 102v218q-137 20 -274 20q-241 0 -241 -170zM294 1430h239 l164 -239h-164z" />
<glyph unicode="&#xe1;" horiz-adv-x="1135" d="M100 317q0 323 426 323q137 0 274 -20v99q0 181 -283 181q-162 0 -332 -50v150q170 50 332 50q468 0 468 -326v-724h-104l-64 104q-157 -104 -342 -104q-375 0 -375 317zM285 320q0 -170 190 -170q192 0 325 102v218q-137 20 -274 20q-241 0 -241 -170zM408 1191l164 239 h239l-239 -239h-164z" />
<glyph unicode="&#xe2;" horiz-adv-x="1135" d="M100 317q0 323 426 323q137 0 274 -20v99q0 181 -283 181q-162 0 -332 -50v150q170 50 332 50q468 0 468 -326v-724h-104l-64 104q-157 -104 -342 -104q-375 0 -375 317zM285 320q0 -170 190 -170q192 0 325 102v218q-137 20 -274 20q-241 0 -241 -170zM323 1170l175 260 h150l175 -260h-150l-100 160l-100 -160h-150z" />
<glyph unicode="&#xe3;" horiz-adv-x="1135" d="M100 317q0 323 426 323q137 0 274 -20v99q0 181 -283 181q-162 0 -332 -50v150q170 50 332 50q468 0 468 -326v-724h-104l-64 104q-157 -104 -342 -104q-375 0 -375 317zM285 320q0 -170 190 -170q192 0 325 102v218q-137 20 -274 20q-241 0 -241 -170zM293 1234v150 q60 46 130 46q52 0 110 -26t114 -26q75 0 146 46v-150q-60 -46 -130 -46q-52 0 -110 26t-114 26q-75 0 -146 -46z" />
<glyph unicode="&#xe4;" horiz-adv-x="1135" d="M100 317q0 323 426 323q137 0 274 -20v99q0 181 -283 181q-162 0 -332 -50v150q170 50 332 50q468 0 468 -326v-724h-104l-64 104q-157 -104 -342 -104q-375 0 -375 317zM285 320q0 -170 190 -170q192 0 325 102v218q-137 20 -274 20q-241 0 -241 -170zM285 1260v170h185 v-170h-185zM655 1260v170h185v-170h-185z" />
<glyph unicode="&#xe5;" horiz-adv-x="1135" d="M100 317q0 323 426 323q137 0 274 -20v99q0 181 -283 181q-162 0 -332 -50v150q170 50 332 50q468 0 468 -326v-724h-104l-64 104q-157 -104 -342 -104q-375 0 -375 317zM285 320q0 -170 190 -170q192 0 325 102v218q-137 20 -274 20q-241 0 -241 -170zM337 1361 q0 210 228 210q224 0 224 -210q0 -209 -224 -209q-228 0 -228 209zM427 1363q0 -137 138 -137q134 0 134 137q0 134 -134 134q-138 0 -138 -134z" />
<glyph unicode="&#xe6;" horiz-adv-x="1833" d="M100 317q0 323 426 323q137 0 274 -20v99q0 181 -283 181q-162 0 -332 -50v150q170 50 332 50q296 0 405 -130q121 130 364 130q448 0 448 -443q0 -63 -9 -135h-737q0 -322 376 -322q169 0 318 40v-150q-139 -40 -338 -40q-280 0 -421 148q-223 -148 -448 -148 q-375 0 -375 317zM285 320q0 -170 190 -170q192 0 325 102v218q-137 20 -274 20q-241 0 -241 -170zM988 626h568q-6 276 -270 276q-280 0 -298 -276z" />
<glyph unicode="&#xe7;" horiz-adv-x="1025" d="M100 545q0 505 570 505q150 0 280 -30v-150q-130 30 -260 30q-405 0 -405 -355q0 -395 405 -395q130 0 260 30v-150q-130 -30 -280 -30h-12l-41 -77q214 0 214 -172q0 -173 -241 -173q-108 0 -216 50v108q108 -50 216 -50t108 65q0 64 -83 64h-183l98 194 q-430 63 -430 536z" />
<glyph unicode="&#xe8;" horiz-adv-x="1130" d="M100 537q0 513 483 513q448 0 448 -443q0 -63 -9 -135h-737q0 -322 376 -322q179 0 318 40v-150q-139 -40 -338 -40q-541 0 -541 537zM285 626h568q-6 276 -270 276q-280 0 -298 -276zM297 1430h239l164 -239h-164z" />
<glyph unicode="&#xe9;" horiz-adv-x="1130" d="M100 537q0 513 483 513q448 0 448 -443q0 -63 -9 -135h-737q0 -322 376 -322q179 0 318 40v-150q-139 -40 -338 -40q-541 0 -541 537zM285 626h568q-6 276 -270 276q-280 0 -298 -276zM431 1191l164 239h239l-239 -239h-164z" />
<glyph unicode="&#xea;" horiz-adv-x="1130" d="M100 537q0 513 483 513q448 0 448 -443q0 -63 -9 -135h-737q0 -322 376 -322q179 0 318 40v-150q-139 -40 -338 -40q-541 0 -541 537zM285 626h568q-6 276 -270 276q-280 0 -298 -276zM325 1170l175 260h150l175 -260h-150l-100 160l-100 -160h-150z" />
<glyph unicode="&#xeb;" horiz-adv-x="1130" d="M100 537q0 513 483 513q448 0 448 -443q0 -63 -9 -135h-737q0 -322 376 -322q179 0 318 40v-150q-139 -40 -338 -40q-541 0 -541 537zM285 626h568q-6 276 -270 276q-280 0 -298 -276zM298 1260v170h185v-170h-185zM668 1260v170h185v-170h-185z" />
<glyph unicode="&#xec;" horiz-adv-x="525" d="M170 0v1050h185v-1050h-185zM-6 1430h239l164 -239h-164z" />
<glyph unicode="&#xed;" horiz-adv-x="525" d="M170 0v1050h185v-1050h-185zM128 1191l164 239h239l-239 -239h-164z" />
<glyph unicode="&#xee;" horiz-adv-x="525" d="M171 0v1050h185v-1050h-185zM13 1170l175 260h150l175 -260h-150l-100 160l-100 -160h-150z" />
<glyph unicode="&#xef;" horiz-adv-x="525" d="M170 0v1050h185v-1050h-185zM-15 1260v170h185v-170h-185zM355 1260v170h185v-170h-185z" />
<glyph unicode="&#xf0;" horiz-adv-x="1190" d="M100 540q0 510 464 510q177 0 296 -90q-49 141 -147 220l-283 -119v119l161 68q-90 32 -205 32h-206v150h208q241 0 399 -100l240 100v-119l-143 -60q206 -211 206 -671q0 -590 -497 -590q-493 0 -493 550zM281 540q0 -400 313 -400q311 0 311 436q0 126 -18 244 q-80 90 -294 90q-312 0 -312 -370z" />
<glyph unicode="&#xf1;" d="M150 0v1050h125l33 -134q161 134 354 134q393 0 393 -391v-659h-185v662q0 234 -233 234q-159 0 -302 -133v-763h-185zM353 1234v150q60 46 130 46q52 0 110 -26t114 -26q75 0 146 46v-150q-60 -46 -130 -46q-52 0 -110 26t-114 26q-75 0 -146 -46z" />
<glyph unicode="&#xf2;" horiz-adv-x="1200" d="M100 525q0 525 500 525t500 -525q0 -524 -500 -524q-498 0 -500 524zM285 529q0 -379 315 -379t315 379q0 371 -315 371t-315 -371zM331 1430h239l164 -239h-164z" />
<glyph unicode="&#xf3;" horiz-adv-x="1200" d="M100 525q0 525 500 525t500 -525q0 -524 -500 -524q-498 0 -500 524zM285 529q0 -379 315 -379t315 379q0 371 -315 371t-315 -371zM466 1191l164 239h239l-239 -239h-164z" />
<glyph unicode="&#xf4;" horiz-adv-x="1200" d="M100 525q0 525 500 525t500 -525q0 -524 -500 -524q-498 0 -500 524zM285 529q0 -379 315 -379t315 379q0 371 -315 371t-315 -371zM350 1170l175 260h150l175 -260h-150l-100 160l-100 -160h-150z" />
<glyph unicode="&#xf5;" horiz-adv-x="1200" d="M100 525q0 525 500 525t500 -525q0 -524 -500 -524q-498 0 -500 524zM285 529q0 -379 315 -379t315 379q0 371 -315 371t-315 -371zM350 1234v150q60 46 130 46q52 0 110 -26t114 -26q75 0 146 46v-150q-60 -46 -130 -46q-52 0 -110 26t-114 26q-75 0 -146 -46z" />
<glyph unicode="&#xf6;" horiz-adv-x="1200" d="M100 525q0 525 500 525t500 -525q0 -524 -500 -524q-498 0 -500 524zM285 529q0 -379 315 -379t315 379q0 371 -315 371t-315 -371zM323 1260v170h185v-170h-185zM693 1260v170h185v-170h-185z" />
<glyph unicode="&#xf7;" horiz-adv-x="985" d="M100 450v150h785v-150h-785zM400 150v150h185v-150h-185zM400 750v150h185v-150h-185z" />
<glyph unicode="&#xf8;" horiz-adv-x="1200" d="M100 525q0 525 500 525q163 0 273 -56l42 56h198l-118 -154q105 -131 105 -371q0 -524 -500 -524q-148 0 -252 46l-36 -47h-197l105 138q-119 131 -120 387zM285 529q0 -150 49 -241l437 573q-69 39 -171 39q-315 0 -315 -371zM449 179q63 -29 151 -29q315 0 315 379 q0 128 -38 212z" />
<glyph unicode="&#xf9;" d="M150 391v659h185v-662q0 -234 232 -234q159 0 303 133v763h185v-1050h-127l-32 134q-191 -134 -384 -134q-362 0 -362 391zM334 1430h239l164 -239h-164z" />
<glyph unicode="&#xfa;" d="M150 391v659h185v-662q0 -234 232 -234q159 0 303 133v763h185v-1050h-127l-32 134q-191 -134 -384 -134q-362 0 -362 391zM468 1191l164 239h239l-239 -239h-164z" />
<glyph unicode="&#xfb;" d="M150 391v659h185v-662q0 -234 232 -234q159 0 303 133v763h185v-1050h-127l-32 134q-191 -134 -384 -134q-362 0 -362 391zM353 1170l175 260h150l175 -260h-150l-100 160l-100 -160h-150z" />
<glyph unicode="&#xfc;" d="M150 391v659h185v-662q0 -234 232 -234q159 0 303 133v763h185v-1050h-127l-32 134q-191 -134 -384 -134q-362 0 -362 391zM325 1260v170h185v-170h-185zM695 1260v170h185v-170h-185z" />
<glyph unicode="&#xfd;" horiz-adv-x="1050" d="M25 1050h201l297 -820l307 820h196l-436 -1081q-116 -286 -348 -357l-71 131q176 77 256 251zM391 1191l164 239h239l-239 -239h-164z" />
<glyph unicode="&#xfe;" horiz-adv-x="1187" d="M150 -380v1810h185v-399q96 19 247 19q505 0 505 -499q0 -551 -508 -551q-126 0 -244 50v-430h-185zM335 214q109 -54 243 -54q327 0 327 393q0 343 -325 343q-140 0 -245 -24v-658z" />
<glyph unicode="&#xff;" horiz-adv-x="1050" d="M25 1050h201l297 -820l307 820h196l-436 -1081q-116 -286 -348 -357l-71 131q176 77 256 251zM248 1260v170h185v-170h-185zM618 1260v170h185v-170h-185z" />
<glyph unicode="&#x100;" horiz-adv-x="1472" d="M25 0l607 1430h205l610 -1430h-205l-185 450h-473l51 150h360l-267 648l-511 -1248h-192zM486 1660v150h500v-150h-500z" />
<glyph unicode="&#x101;" horiz-adv-x="1135" d="M100 317q0 323 426 323q137 0 274 -20v99q0 181 -283 181q-162 0 -332 -50v150q170 50 332 50q468 0 468 -326v-724h-104l-64 104q-157 -104 -342 -104q-375 0 -375 317zM285 320q0 -170 190 -170q192 0 325 102v218q-137 20 -274 20q-241 0 -241 -170zM293 1280v150h500 v-150h-500z" />
<glyph unicode="&#x102;" horiz-adv-x="1472" d="M25 0l607 1430h205l610 -1430h-205l-185 450h-473l51 150h360l-267 648l-511 -1248h-192zM471 1810h135q0 -150 130 -150t130 150h135q0 -260 -265 -260t-265 260z" />
<glyph unicode="&#x103;" horiz-adv-x="1135" d="M100 317q0 323 426 323q137 0 274 -20v99q0 181 -283 181q-162 0 -332 -50v150q170 50 332 50q468 0 468 -326v-724h-104l-64 104q-157 -104 -342 -104q-375 0 -375 317zM285 320q0 -170 190 -170q192 0 325 102v218q-137 20 -274 20q-241 0 -241 -170zM298 1430h135 q0 -150 130 -150t130 150h135q0 -260 -265 -260t-265 260z" />
<glyph unicode="&#x104;" horiz-adv-x="1472" d="M25 0l607 1430h205l610 -1430q-202 -126 -202 -228q0 -68 85 -68t137 20v-130q-61 -20 -149 -20q-231 0 -231 173q0 131 155 253l-185 450h-473l51 150h360l-267 648l-511 -1248h-192z" />
<glyph unicode="&#x105;" horiz-adv-x="1135" d="M100 317q0 323 426 323q137 0 274 -20v99q0 181 -283 181q-162 0 -332 -50v150q170 50 332 50q468 0 468 -326v-724q-202 -126 -202 -228q0 -68 85 -68t137 20v-130q-61 -20 -149 -20q-231 0 -231 173q0 131 192 253v104q-157 -104 -342 -104q-375 0 -375 317zM285 320 q0 -170 190 -170q192 0 325 102v218q-137 20 -274 20q-241 0 -241 -170z" />
<glyph unicode="&#x106;" horiz-adv-x="1385" d="M100 735q0 705 750 705q215 0 400 -60v-160q-185 70 -380 70q-585 0 -585 -555q0 -595 585 -595q195 0 380 70v-160q-185 -60 -400 -60q-750 0 -750 745zM541 1571l164 239h239l-239 -239h-164z" />
<glyph unicode="&#x107;" horiz-adv-x="1025" d="M100 545q0 505 560 505q150 0 280 -30v-150q-130 30 -290 30q-365 0 -365 -355q0 -395 365 -395q160 0 290 30v-150q-130 -30 -280 -30q-560 0 -560 545zM391 1191l164 239h239l-239 -239h-164z" />
<glyph unicode="&#x108;" horiz-adv-x="1385" d="M100 735q0 705 750 705q215 0 400 -60v-160q-185 70 -380 70q-585 0 -585 -555q0 -595 585 -595q195 0 380 70v-160q-185 -60 -400 -60q-750 0 -750 745zM555 1550l175 260h150l175 -260h-150l-100 160l-100 -160h-150z" />
<glyph unicode="&#x109;" horiz-adv-x="1025" d="M100 545q0 505 560 505q150 0 280 -30v-150q-130 30 -290 30q-365 0 -365 -355q0 -395 365 -395q160 0 290 30v-150q-130 -30 -280 -30q-560 0 -560 545zM365 1170l175 260h150l175 -260h-150l-100 160l-100 -160h-150z" />
<glyph unicode="&#x10a;" horiz-adv-x="1385" d="M100 735q0 705 750 705q215 0 400 -60v-160q-185 70 -380 70q-585 0 -585 -555q0 -595 585 -595q195 0 380 70v-160q-185 -60 -400 -60q-750 0 -750 745zM733 1620v190h205v-190h-205z" />
<glyph unicode="&#x10b;" horiz-adv-x="1025" d="M100 545q0 505 560 505q150 0 280 -30v-150q-130 30 -290 30q-365 0 -365 -355q0 -395 365 -395q160 0 290 30v-150q-130 -30 -280 -30q-560 0 -560 545zM543 1240v190h205v-190h-205z" />
<glyph unicode="&#x10c;" horiz-adv-x="1385" d="M100 735q0 705 750 705q215 0 400 -60v-160q-185 70 -380 70q-585 0 -585 -555q0 -595 585 -595q195 0 380 70v-160q-185 -60 -400 -60q-750 0 -750 745zM516 1810h150l100 -160l100 160h150l-175 -260h-150z" />
<glyph unicode="&#x10d;" horiz-adv-x="1025" d="M100 545q0 505 560 505q150 0 280 -30v-150q-130 30 -290 30q-365 0 -365 -355q0 -395 365 -395q160 0 290 30v-150q-130 -30 -280 -30q-560 0 -560 545zM338 1430h150l100 -160l100 160h150l-175 -260h-150z" />
<glyph unicode="&#x10e;" horiz-adv-x="1500" d="M170 0v1430h520q710 0 710 -676q0 -754 -710 -754h-520zM355 150h335q525 0 525 604q0 526 -525 526h-335v-1130zM475 1810h150l100 -160l100 160h150l-175 -260h-150z" />
<glyph unicode="&#x10f;" horiz-adv-x="1190" d="M100 546q0 504 498 504q136 0 257 -50v430h185v-1367q-191 -63 -471 -63q-469 0 -469 546zM282 553q0 -399 317 -399q144 0 256 39v643q-112 54 -256 54q-317 0 -317 -337zM1140 995l150 435h185l-150 -435h-185z" />
<glyph unicode="&#x110;" horiz-adv-x="1500" d="M-50 650v150h200v630h520q710 0 710 -676q0 -754 -710 -754h-520v650h-200zM335 150h335q525 0 525 604q0 526 -525 526h-335v-480h365v-150h-365v-500z" />
<glyph unicode="&#x111;" horiz-adv-x="1190" d="M100 546q0 504 498 504q136 0 257 -50v140h-735v150h735v140h185v-1367q-191 -63 -471 -63q-469 0 -469 546zM282 553q0 -399 317 -399q144 0 256 39v643q-112 54 -256 54q-317 0 -317 -337z" />
<glyph unicode="&#x112;" horiz-adv-x="1230" d="M170 0v1430h935v-150h-750v-480h715v-150h-715v-500h765v-150h-950zM395 1660v150h500v-150h-500z" />
<glyph unicode="&#x113;" horiz-adv-x="1130" d="M100 537q0 513 483 513q448 0 448 -443q0 -63 -9 -135h-737q0 -322 376 -322q179 0 318 40v-150q-139 -40 -338 -40q-541 0 -541 537zM285 626h568q-6 276 -270 276q-280 0 -298 -276zM316 1280v150h500v-150h-500z" />
<glyph unicode="&#x114;" horiz-adv-x="1230" d="M170 0v1430h935v-150h-750v-480h715v-150h-715v-500h765v-150h-950zM380 1810h135q0 -150 130 -150t130 150h135q0 -260 -265 -260t-265 260z" />
<glyph unicode="&#x115;" horiz-adv-x="1130" d="M100 537q0 513 483 513q448 0 448 -443q0 -63 -9 -135h-737q0 -322 376 -322q179 0 318 40v-150q-139 -40 -338 -40q-541 0 -541 537zM285 626h568q-6 276 -270 276q-280 0 -298 -276zM301 1430h135q0 -150 130 -150t130 150h135q0 -260 -265 -260t-265 260z" />
<glyph unicode="&#x116;" horiz-adv-x="1230" d="M170 0v1430h935v-150h-750v-480h715v-150h-715v-500h765v-150h-950zM543 1620v190h205v-190h-205z" />
<glyph unicode="&#x117;" horiz-adv-x="1130" d="M100 537q0 513 483 513q448 0 448 -443q0 -63 -9 -135h-737q0 -322 376 -322q179 0 318 40v-150q-139 -40 -338 -40q-541 0 -541 537zM285 626h568q-6 276 -270 276q-280 0 -298 -276zM483 1240v190h205v-190h-205z" />
<glyph unicode="&#x118;" horiz-adv-x="1230" d="M170 0v1430h935v-150h-750v-480h715v-150h-715v-500h765v-150q-202 -126 -202 -228q0 -68 85 -68t137 20v-130q-61 -20 -149 -20q-231 0 -231 173q0 131 165 253h-755z" />
<glyph unicode="&#x119;" horiz-adv-x="1130" d="M100 537q0 513 473 513q458 0 458 -445q0 -62 -9 -133h-737q0 -322 376 -322q179 0 318 40v-150q-202 -166 -202 -268q0 -68 85 -68t137 20v-130q-61 -20 -149 -20q-231 0 -231 173q0 123 155 267q-63 -14 -133 -14q-541 0 -541 537zM285 626h568q-6 276 -280 276 q-270 0 -288 -276z" />
<glyph unicode="&#x11a;" horiz-adv-x="1230" d="M170 0v1430h935v-150h-750v-480h715v-150h-715v-500h765v-150h-950zM395 1810h150l100 -160l100 160h150l-175 -260h-150z" />
<glyph unicode="&#x11b;" horiz-adv-x="1130" d="M100 537q0 513 483 513q448 0 448 -443q0 -63 -9 -135h-737q0 -322 376 -322q179 0 318 40v-150q-139 -40 -338 -40q-541 0 -541 537zM285 626h568q-6 276 -270 276q-280 0 -298 -276zM335 1430h150l100 -160l100 160h150l-175 -260h-150z" />
<glyph unicode="&#x11c;" horiz-adv-x="1385" d="M100 735q0 705 750 705q215 0 400 -60v-160q-185 70 -380 70q-585 0 -585 -555q0 -595 576 -595q92 0 204 24v486h185v-594q-173 -66 -373 -66q-777 0 -777 745zM535 1550l175 260h150l175 -260h-150l-100 160l-100 -160h-150z" />
<glyph unicode="&#x11d;" horiz-adv-x="1187" d="M100 531q0 519 525 519q213 0 412 -43v-1007q0 -380 -483 -380q-194 0 -344 50v150q153 -50 346 -50q296 0 296 230v50q-118 -50 -254 -50q-498 0 -498 531zM282 533q0 -373 317 -373q144 0 253 54v658q-95 24 -235 24q-335 0 -335 -363zM369 1170l175 260h150l175 -260 h-150l-100 160l-100 -160h-150z" />
<glyph unicode="&#x11e;" horiz-adv-x="1385" d="M100 735q0 705 750 705q215 0 400 -60v-160q-185 70 -380 70q-585 0 -585 -555q0 -595 576 -595q92 0 204 24v486h185v-594q-173 -66 -373 -66q-777 0 -777 745zM520 1810h135q0 -150 130 -150t130 150h135q0 -260 -265 -260t-265 260z" />
<glyph unicode="&#x11f;" horiz-adv-x="1187" d="M100 531q0 519 525 519q213 0 412 -43v-1007q0 -380 -483 -380q-194 0 -344 50v150q153 -50 346 -50q296 0 296 230v50q-118 -50 -254 -50q-498 0 -498 531zM282 533q0 -373 317 -373q144 0 253 54v658q-95 24 -235 24q-335 0 -335 -363zM344 1430h135q0 -150 130 -150 t130 150h135q0 -260 -265 -260t-265 260z" />
<glyph unicode="&#x120;" horiz-adv-x="1385" d="M100 735q0 705 750 705q215 0 400 -60v-160q-185 70 -380 70q-585 0 -585 -555q0 -595 576 -595q92 0 204 24v486h185v-594q-173 -66 -373 -66q-777 0 -777 745zM733 1620v190h205v-190h-205z" />
<glyph unicode="&#x121;" horiz-adv-x="1187" d="M100 531q0 519 525 519q213 0 412 -43v-1007q0 -380 -483 -380q-194 0 -344 50v150q153 -50 346 -50q296 0 296 230v50q-118 -50 -254 -50q-498 0 -498 531zM282 533q0 -373 317 -373q144 0 253 54v658q-95 24 -235 24q-335 0 -335 -363zM526 1240v190h205v-190h-205z " />
<glyph unicode="&#x122;" horiz-adv-x="1385" d="M100 735q0 705 750 705q215 0 400 -60v-160q-185 70 -380 70q-585 0 -585 -555q0 -595 576 -595q92 0 204 24v486h185v-594q-173 -66 -373 -66q-777 0 -777 745zM508 -380l150 280h185l-150 -280h-185z" />
<glyph unicode="&#x123;" horiz-adv-x="1187" d="M100 531q0 519 525 519q213 0 412 -43v-1007q0 -380 -483 -380q-194 0 -344 50v150q153 -50 346 -50q296 0 296 230v50q-118 -50 -254 -50q-498 0 -498 531zM282 533q0 -373 317 -373q144 0 253 54v658q-95 24 -235 24q-335 0 -335 -363zM472 1150l150 280h185l-150 -280 h-185z" />
<glyph unicode="&#x124;" horiz-adv-x="1555" d="M170 0v1430h185v-630h845v630h185v-1430h-185v650h-845v-650h-185zM528 1550l175 260h150l175 -260h-150l-100 160l-100 -160h-150z" />
<glyph unicode="&#x125;" d="M150 0v1430h185v-494q134 114 327 114q393 0 393 -391v-659h-185v662q0 234 -233 234q-159 0 -302 -133v-763h-185zM3 1575l175 260h150l175 -260h-150l-100 160l-100 -160h-150z" />
<glyph unicode="&#x126;" horiz-adv-x="1555" d="M170 0v1430h185v-230h845v230h185v-1430h-185v650h-845v-650h-185zM355 800h845v250h-845v-250z" />
<glyph unicode="&#x127;" d="M150 0v1430h185v-140h720v-150h-720v-204q134 114 327 114q393 0 393 -391v-659h-185v662q0 234 -233 234q-159 0 -302 -133v-763h-185z" />
<glyph unicode="&#x128;" horiz-adv-x="585" d="M201 0v1430h185v-1430h-185zM43 1614v150q60 46 130 46q52 0 110 -26t114 -26q75 0 146 46v-150q-60 -46 -130 -46q-52 0 -110 26t-114 26q-75 0 -146 -46z" />
<glyph unicode="&#x129;" horiz-adv-x="525" d="M171 0v1050h185v-1050h-185zM13 1234v150q60 46 130 46q52 0 110 -26t114 -26q75 0 146 46v-150q-60 -46 -130 -46q-52 0 -110 26t-114 26q-75 0 -146 -46z" />
<glyph unicode="&#x12a;" horiz-adv-x="585" d="M201 0v1430h185v-1430h-185zM43 1660v150h500v-150h-500z" />
<glyph unicode="&#x12b;" horiz-adv-x="525" d="M171 0v1050h185v-1050h-185zM13 1280v150h500v-150h-500z" />
<glyph unicode="&#x12c;" horiz-adv-x="585" d="M201 0v1430h185v-1430h-185zM28 1810h135q0 -150 130 -150t130 150h135q0 -260 -265 -260t-265 260z" />
<glyph unicode="&#x12d;" horiz-adv-x="525" d="M171 0v1050h185v-1050h-185zM-2 1430h135q0 -150 130 -150t130 150h135q0 -260 -265 -260t-265 260z" />
<glyph unicode="&#x12e;" horiz-adv-x="585" d="M35 -253q0 131 165 253v1430h185v-1430q-192 -126 -192 -228q0 -68 85 -68t137 20v-130q-61 -20 -149 -20q-231 0 -231 173z" />
<glyph unicode="&#x12f;" horiz-adv-x="525" d="M5 -253q0 131 165 253v1050h185v-1050q-192 -126 -192 -228q0 -68 85 -68t137 20v-130q-61 -20 -149 -20q-231 0 -231 173zM170 1255v175h185v-175h-185z" />
<glyph unicode="&#x130;" horiz-adv-x="585" d="M200 0v1430h185v-1430h-185zM190 1620v190h205v-190h-205z" />
<glyph unicode="&#x131;" horiz-adv-x="525" d="M170 0v1050h185v-1050h-185z" />
<glyph unicode="&#x132;" horiz-adv-x="1245" d="M200 0v1430h185v-1430h-185zM610 0v150q300 0 300 262v1018h185v-1018q0 -412 -485 -412z" />
<glyph unicode="&#x133;" horiz-adv-x="1050" d="M170 0v1050h185v-1050h-185zM170 1255v175h185v-175h-185zM570 -293q125 135 125 373v970h185v-970q0 -318 -155 -478zM695 1255v175h185v-175h-185z" />
<glyph unicode="&#x134;" horiz-adv-x="690" d="M25 0v150q300 0 300 262v1018h185v-1018q0 -412 -485 -412zM168 1550l175 260h150l175 -260h-150l-100 160l-100 -160h-150z" />
<glyph unicode="&#x135;" horiz-adv-x="525" d="M10 1170l175 260h150l175 -260h-150l-100 160l-100 -160h-150zM45 -293q125 135 125 373v970h185v-970q0 -318 -155 -478z" />
<glyph unicode="&#x136;" horiz-adv-x="1400" d="M170 0v1430h185v-1430h-185zM535 688v112l592 630h234l-644 -675l658 -755h-257zM505 -380l150 280h185l-150 -280h-185z" />
<glyph unicode="&#x137;" horiz-adv-x="1181" d="M150 0v1430h185v-462q153 82 353 82q392 0 392 -303q0 -220 -300 -304l336 -443h-234l-334 445v83q347 31 347 220q0 152 -220 152q-173 0 -340 -94v-806h-185zM366 -380l150 280h185l-150 -280h-185z" />
<glyph unicode="&#x138;" horiz-adv-x="1082" d="M150 0v1050h185v-1050h-185zM451 505v103l397 442h228l-456 -489l462 -561h-237z" />
<glyph unicode="&#x139;" horiz-adv-x="1153" d="M170 0v1430h185v-1280h748v-150h-933zM172 1571l164 239h239l-239 -239h-164z" />
<glyph unicode="&#x13a;" horiz-adv-x="505" d="M160 0v1430h185v-1430h-185zM51 1596l164 239h239l-239 -239h-164z" />
<glyph unicode="&#x13b;" horiz-adv-x="1153" d="M170 0v1430h185v-1280h748v-150h-933zM419 -380l150 280h185l-150 -280h-185z" />
<glyph unicode="&#x13c;" horiz-adv-x="505" d="M160 0v1430h185v-1430h-185zM5 -380l150 280h185l-150 -280h-185z" />
<glyph unicode="&#x13d;" horiz-adv-x="1153" d="M170 0v1430h185v-1280h748v-150h-933zM545 995l150 435h185l-150 -435h-185z" />
<glyph unicode="&#x13e;" horiz-adv-x="505" d="M160 0v1430h185v-1430h-185zM445 995l150 435h185l-150 -435h-185z" />
<glyph unicode="&#x13f;" horiz-adv-x="1153" d="M170 0v1430h185v-1280h748v-150h-933zM578 715q0 125 125 125t125 -125t-125 -125t-125 125z" />
<glyph unicode="&#x140;" horiz-adv-x="505" d="M160 0v1430h185v-1430h-185zM485 585q0 125 125 125t125 -125t-125 -125t-125 125z" />
<glyph unicode="&#x141;" horiz-adv-x="1133" d="M0 422v180l150 110v718h185v-582l323 238v-180l-323 -238v-518h748v-150h-933v532z" />
<glyph unicode="&#x142;" horiz-adv-x="505" d="M10 422v180l150 111v717h185v-579l150 111v-180l-150 -111v-671h-185v533z" />
<glyph unicode="&#x143;" horiz-adv-x="1575" d="M170 0v1430h185l875 -1152v1152h175v-1430h-185l-875 1162v-1162h-175zM653 1571l164 239h239l-239 -239h-164z" />
<glyph unicode="&#x144;" d="M150 0v1050h125l33 -134q161 134 354 134q393 0 393 -391v-659h-185v662q0 234 -233 234q-159 0 -302 -133v-763h-185zM468 1191l164 239h239l-239 -239h-164z" />
<glyph unicode="&#x145;" horiz-adv-x="1575" d="M170 0v1430h185l875 -1152v1152h175v-1430h-185l-875 1162v-1162h-175zM570 -380l150 280h185l-150 -280h-185z" />
<glyph unicode="&#x146;" d="M150 0v1050h125l33 -134q161 134 354 134q393 0 393 -391v-659h-185v662q0 234 -233 234q-159 0 -302 -133v-763h-185zM385 -380l150 280h185l-150 -280h-185z" />
<glyph unicode="&#x147;" horiz-adv-x="1575" d="M170 0v1430h185l875 -1152v1152h175v-1430h-185l-875 1162v-1162h-175zM538 1810h150l100 -160l100 160h150l-175 -260h-150z" />
<glyph unicode="&#x148;" d="M150 0v1050h125l33 -134q161 134 354 134q393 0 393 -391v-659h-185v662q0 234 -233 234q-159 0 -302 -133v-763h-185zM353 1430h150l100 -160l100 160h150l-175 -260h-150z" />
<glyph unicode="&#x149;" horiz-adv-x="1305" d="M-150 995l150 435h185l-150 -435h-185zM250 0v1050h125l33 -134q161 134 354 134q393 0 393 -391v-659h-185v662q0 234 -233 234q-159 0 -302 -133v-763h-185z" />
<glyph unicode="&#x14a;" horiz-adv-x="1575" d="M170 0v1430h185l875 -1152v1152h175v-1350q0 -318 -155 -478l-155 105q104 113 122 297l-872 1158v-1162h-175z" />
<glyph unicode="&#x14b;" d="M150 0v1050h125l33 -134q161 134 354 134q393 0 393 -391v-579q0 -318 -155 -478l-155 105q125 135 125 373v582q0 234 -233 234q-159 0 -302 -133v-763h-185z" />
<glyph unicode="&#x14c;" horiz-adv-x="1665" d="M120 713q0 727 718 727q707 0 707 -727q0 -723 -707 -723q-718 0 -718 723zM315 719q0 -579 523 -579q512 0 512 579q0 571 -512 571q-523 0 -523 -571zM583 1660v150h500v-150h-500z" />
<glyph unicode="&#x14d;" horiz-adv-x="1200" d="M100 525q0 525 500 525t500 -525q0 -524 -500 -524q-498 0 -500 524zM285 529q0 -379 315 -379t315 379q0 371 -315 371t-315 -371zM350 1280v150h500v-150h-500z" />
<glyph unicode="&#x14e;" horiz-adv-x="1665" d="M120 713q0 727 718 727q707 0 707 -727q0 -723 -707 -723q-718 0 -718 723zM315 719q0 -579 523 -579q512 0 512 579q0 571 -512 571q-523 0 -523 -571zM568 1810h135q0 -150 130 -150t130 150h135q0 -260 -265 -260t-265 260z" />
<glyph unicode="&#x14f;" horiz-adv-x="1200" d="M100 525q0 525 500 525t500 -525q0 -524 -500 -524q-498 0 -500 524zM285 529q0 -379 315 -379t315 379q0 371 -315 371t-315 -371zM335 1430h135q0 -150 130 -150t130 150h135q0 -260 -265 -260t-265 260z" />
<glyph unicode="&#x150;" horiz-adv-x="1665" d="M120 713q0 727 718 727q707 0 707 -727q0 -723 -707 -723q-718 0 -718 723zM315 719q0 -579 523 -579q512 0 512 579q0 571 -512 571q-523 0 -523 -571zM503 1571l164 239h239l-239 -239h-164zM879 1571l164 239h239l-239 -239h-164z" />
<glyph unicode="&#x151;" horiz-adv-x="1200" d="M100 525q0 525 500 525t500 -525q0 -524 -500 -524q-498 0 -500 524zM285 529q0 -379 315 -379t315 379q0 371 -315 371t-315 -371zM271 1191l164 239h239l-239 -239h-164zM647 1191l164 239h239l-239 -239h-164z" />
<glyph unicode="&#x152;" horiz-adv-x="2215" d="M100 713q0 717 718 717h1257v-150h-775q195 -148 225 -480h515v-150h-515q-30 -357 -225 -500h790v-150h-1272q-718 0 -718 713zM295 719q0 -569 523 -569q512 0 512 569q0 561 -512 561q-523 0 -523 -561z" />
<glyph unicode="&#x153;" horiz-adv-x="1949" d="M100 525q0 525 500 525q284 0 407 -199q118 199 395 199q448 0 448 -443q0 -63 -9 -135h-737q0 -322 376 -322q179 0 318 40v-150q-139 -40 -338 -40q-317 0 -447 210q-121 -209 -413 -209q-498 0 -500 524zM285 529q0 -379 315 -379t315 379q0 371 -315 371t-315 -371z M1104 626h568q-6 276 -270 276q-280 0 -298 -276z" />
<glyph unicode="&#x154;" horiz-adv-x="1305" d="M170 0v1430h610q408 0 408 -343q0 -279 -399 -413l491 -674h-244l-455 643v121q410 65 410 315q0 198 -228 198h-408v-1277h-185zM491 1571l164 239h239l-239 -239h-164z" />
<glyph unicode="&#x155;" horiz-adv-x="675" d="M150 0v1050h125l33 -134q138 134 332 134v-154q-188 0 -305 -133v-763h-185zM261 1191l164 239h239l-239 -239h-164z" />
<glyph unicode="&#x156;" horiz-adv-x="1305" d="M170 0v1430h610q408 0 408 -343q0 -279 -399 -413l491 -674h-244l-455 643v121q410 65 410 315q0 198 -228 198h-408v-1277h-185zM468 -380l150 280h185l-150 -280h-185z" />
<glyph unicode="&#x157;" horiz-adv-x="675" d="M150 0v1050h125l33 -134q138 134 332 134v-154q-188 0 -305 -133v-763h-185zM-2 -380l150 280h185l-150 -280h-185z" />
<glyph unicode="&#x158;" horiz-adv-x="1305" d="M170 0v1430h610q408 0 408 -343q0 -279 -399 -413l491 -674h-244l-455 643v121q410 65 410 315q0 198 -228 198h-408v-1277h-185zM365 1810h150l100 -160l100 160h150l-175 -260h-150z" />
<glyph unicode="&#x159;" horiz-adv-x="675" d="M150 0v1050h125l33 -134q138 134 332 134v-154q-188 0 -305 -133v-763h-185zM145 1430h150l100 -160l100 160h150l-175 -260h-150z" />
<glyph unicode="&#x15a;" horiz-adv-x="1290" d="M100 1030q0 410 575 410q250 0 465 -60v-170q-215 80 -465 80q-390 0 -390 -260q0 -230 264 -230h184q457 0 457 -390q0 -420 -554 -420q-261 0 -486 60v170q225 -80 486 -80q369 0 369 270q0 230 -272 230h-184q-449 0 -449 390zM511 1571l164 239h239l-239 -239h-164z " />
<glyph unicode="&#x15b;" horiz-adv-x="1050" d="M100 750q0 300 437 300q188 0 373 -50v-160q-185 60 -373 60q-262 0 -262 -150q0 -140 165 -140h150q360 0 360 -310q0 -300 -436 -300q-189 0 -374 50v160q185 -60 374 -60q251 0 251 150q0 140 -175 140h-150q-340 0 -340 310zM391 1191l164 239h239l-239 -239h-164z " />
<glyph unicode="&#x15c;" horiz-adv-x="1290" d="M100 1030q0 410 575 410q250 0 465 -60v-170q-215 80 -465 80q-390 0 -390 -260q0 -230 264 -230h184q457 0 457 -390q0 -420 -554 -420q-261 0 -486 60v170q225 -80 486 -80q369 0 369 270q0 230 -272 230h-184q-449 0 -449 390zM395 1550l175 260h150l175 -260h-150 l-100 160l-100 -160h-150z" />
<glyph unicode="&#x15d;" horiz-adv-x="1050" d="M100 750q0 300 437 300q188 0 373 -50v-160q-185 60 -373 60q-262 0 -262 -150q0 -140 165 -140h150q360 0 360 -310q0 -300 -436 -300q-189 0 -374 50v160q185 -60 374 -60q251 0 251 150q0 140 -175 140h-150q-340 0 -340 310zM275 1170l175 260h150l175 -260h-150 l-100 160l-100 -160h-150z" />
<glyph unicode="&#x15e;" horiz-adv-x="1290" d="M100 1030q0 410 575 410q250 0 465 -60v-170q-215 80 -465 80q-390 0 -390 -260q0 -230 264 -230h184q457 0 457 -390q0 -420 -554 -420h-10l-36 -67q214 0 214 -172q0 -173 -241 -173q-108 0 -216 50v108q108 -50 216 -50t108 65q0 64 -83 64h-183l90 180 q-182 11 -345 55v170q225 -80 486 -80q369 0 369 270q0 230 -272 230h-184q-449 0 -449 390z" />
<glyph unicode="&#x15f;" horiz-adv-x="1050" d="M100 750q0 300 437 300q188 0 373 -50v-160q-185 60 -373 60q-262 0 -262 -150q0 -140 165 -140h150q360 0 360 -310q0 -287 -399 -299l-41 -78q214 0 214 -172q0 -173 -241 -173q-108 0 -216 50v108q108 -50 216 -50t108 65q0 64 -83 64h-183l95 188q-141 9 -280 47v160 q185 -60 374 -60q251 0 251 150q0 140 -175 140h-150q-340 0 -340 310z" />
<glyph unicode="&#x160;" horiz-adv-x="1290" d="M100 1030q0 410 575 410q250 0 465 -60v-170q-215 80 -465 80q-390 0 -390 -260q0 -230 264 -230h184q457 0 457 -390q0 -420 -554 -420q-261 0 -486 60v170q225 -80 486 -80q369 0 369 270q0 230 -272 230h-184q-449 0 -449 390zM395 1810h150l100 -160l100 160h150 l-175 -260h-150z" />
<glyph unicode="&#x161;" horiz-adv-x="1050" d="M100 750q0 300 437 300q188 0 373 -50v-160q-185 60 -373 60q-262 0 -262 -150q0 -140 165 -140h150q360 0 360 -310q0 -300 -436 -300q-189 0 -374 50v160q185 -60 374 -60q251 0 251 150q0 140 -175 140h-150q-340 0 -340 310zM275 1430h150l100 -160l100 160h150 l-175 -260h-150z" />
<glyph unicode="&#x162;" horiz-adv-x="1185" d="M50 1280v150h1085v-150h-450v-1280h-185v1280h-450zM343 -380l150 280h185l-150 -280h-185z" />
<glyph unicode="&#x21a;" horiz-adv-x="1185" d="M50 1280v150h1085v-150h-450v-1280h-185v1280h-450zM343 -380l150 280h185l-150 -280h-185z" />
<glyph unicode="&#x163;" horiz-adv-x="675" d="M150 283v937h116l40 -170h284v-150h-255v-603q0 -147 127 -147h128v-150h-176q-264 0 -264 283zM125 -380l150 280h185l-150 -280h-185z" />
<glyph unicode="&#x21b;" horiz-adv-x="675" d="M150 283v937h116l40 -170h284v-150h-255v-603q0 -147 127 -147h128v-150h-176q-264 0 -264 283zM125 -380l150 280h185l-150 -280h-185z" />
<glyph unicode="&#x164;" horiz-adv-x="1185" d="M50 1280v150h1085v-150h-450v-1280h-185v1280h-450zM343 1810h150l100 -160l100 160h150l-175 -260h-150z" />
<glyph unicode="&#x165;" horiz-adv-x="675" d="M150 283v937h116l40 -170h284v-150h-255v-603q0 -147 127 -147h128v-150h-176q-264 0 -264 283zM640 995l150 435h185l-150 -435h-185z" />
<glyph unicode="&#x166;" horiz-adv-x="1185" d="M50 640v150h450v490h-450v150h1085v-150h-450v-490h450v-150h-450v-640h-185v640h-450z" />
<glyph unicode="&#x167;" horiz-adv-x="675" d="M0 483v150h150v587h116l40 -170h284v-150h-255v-267h255v-150h-255v-186q0 -147 127 -147h128v-150h-176q-264 0 -264 283v200h-150z" />
<glyph unicode="&#x168;" horiz-adv-x="1510" d="M160 552v878h185v-878q0 -412 410 -412t410 412v878h185v-878q0 -562 -595 -562t-595 562zM505 1614v150q60 46 130 46q52 0 110 -26t114 -26q75 0 146 46v-150q-60 -46 -130 -46q-52 0 -110 26t-114 26q-75 0 -146 -46z" />
<glyph unicode="&#x169;" d="M150 391v659h185v-662q0 -234 232 -234q159 0 303 133v763h185v-1050h-127l-32 134q-191 -134 -384 -134q-362 0 -362 391zM353 1234v150q60 46 130 46q52 0 110 -26t114 -26q75 0 146 46v-150q-60 -46 -130 -46q-52 0 -110 26t-114 26q-75 0 -146 -46z" />
<glyph unicode="&#x16a;" horiz-adv-x="1510" d="M160 552v878h185v-878q0 -412 410 -412t410 412v878h185v-878q0 -562 -595 -562t-595 562zM505 1660v150h500v-150h-500z" />
<glyph unicode="&#x16b;" d="M150 391v659h185v-662q0 -234 232 -234q159 0 303 133v763h185v-1050h-127l-32 134q-191 -134 -384 -134q-362 0 -362 391zM353 1280v150h500v-150h-500z" />
<glyph unicode="&#x16c;" horiz-adv-x="1510" d="M160 552v878h185v-878q0 -412 410 -412t410 412v878h185v-878q0 -562 -595 -562t-595 562zM490 1810h135q0 -150 130 -150t130 150h135q0 -260 -265 -260t-265 260z" />
<glyph unicode="&#x16d;" d="M150 391v659h185v-662q0 -234 232 -234q159 0 303 133v763h185v-1050h-127l-32 134q-191 -134 -384 -134q-362 0 -362 391zM338 1430h135q0 -150 130 -150t130 150h135q0 -260 -265 -260t-265 260z" />
<glyph unicode="&#x16e;" horiz-adv-x="1510" d="M160 552v878h185v-878q0 -412 410 -412t410 412v878h185v-878q0 -562 -595 -562t-595 562zM529 1639q0 210 228 210q224 0 224 -210q0 -209 -224 -209q-228 0 -228 209zM619 1641q0 -137 138 -137q134 0 134 137q0 134 -134 134q-138 0 -138 -134z" />
<glyph unicode="&#x16f;" d="M150 391v659h185v-662q0 -234 232 -234q159 0 303 133v763h185v-1050h-127l-32 134q-191 -134 -384 -134q-362 0 -362 391zM377 1361q0 210 228 210q224 0 224 -210q0 -209 -224 -209q-228 0 -228 209zM467 1363q0 -137 138 -137q134 0 134 137q0 134 -134 134 q-138 0 -138 -134z" />
<glyph unicode="&#x170;" horiz-adv-x="1510" d="M160 552v878h185v-878q0 -412 410 -412t410 412v878h185v-878q0 -562 -595 -562t-595 562zM416 1571l164 239h239l-239 -239h-164zM792 1571l164 239h239l-239 -239h-164z" />
<glyph unicode="&#x171;" d="M150 391v659h185v-662q0 -234 232 -234q159 0 303 133v763h185v-1050h-127l-32 134q-191 -134 -384 -134q-362 0 -362 391zM263 1191l164 239h239l-239 -239h-164zM639 1191l164 239h239l-239 -239h-164z" />
<glyph unicode="&#x172;" horiz-adv-x="1510" d="M160 552v878h185v-878q0 -412 410 -412t410 412v878h185v-878q0 -487 -447 -552q-193 -126 -193 -228q0 -68 85 -68t137 20v-130q-61 -20 -149 -20q-231 0 -231 173q0 126 153 244q-545 23 -545 561z" />
<glyph unicode="&#x173;" d="M150 391v659h185v-662q0 -234 232 -234q159 0 303 133v763h185v-1050q-202 -126 -202 -228q0 -68 85 -68t137 20v-130q-61 -20 -149 -20q-231 0 -231 173q0 131 175 253v134q-165 -134 -358 -134q-362 0 -362 391z" />
<glyph unicode="&#x174;" horiz-adv-x="1900" d="M50 1430h179l201 -1244l404 1244h185l433 -1244l227 1244h171l-269 -1430h-252l-404 1198l-391 -1198h-249zM700 1550l175 260h150l175 -260h-150l-100 160l-100 -160h-150z" />
<glyph unicode="&#x175;" horiz-adv-x="1539" d="M35 1050h187l186 -823l273 823h167l292 -823l168 823h196l-274 -1050h-169l-301 785l-286 -785h-173zM520 1170l175 260h150l175 -260h-150l-100 160l-100 -160h-150z" />
<glyph unicode="&#x176;" horiz-adv-x="1300" d="M25 1430h205l412 -747l418 747h215l-546 -930v-500h-185v500zM400 1550l175 260h150l175 -260h-150l-100 160l-100 -160h-150z" />
<glyph unicode="&#x177;" horiz-adv-x="1050" d="M25 1050h201l297 -820l307 820h196l-436 -1081q-116 -286 -348 -357l-71 131q176 77 256 251zM276 1170l175 260h150l175 -260h-150l-100 160l-100 -160h-150z" />
<glyph unicode="&#x178;" horiz-adv-x="1300" d="M25 1430h205l412 -747l418 747h215l-546 -930v-500h-185v500zM373 1640v170h185v-170h-185zM743 1640v170h185v-170h-185z" />
<glyph unicode="&#x179;" horiz-adv-x="1330" d="M125 0v150l884 1130h-864v150h1060v-150l-857 -1130h837v-150h-1060zM531 1571l164 239h239l-239 -239h-164z" />
<glyph unicode="&#x17a;" horiz-adv-x="1040" d="M100 0v140l635 760h-615v150h820v-150l-627 -760h607v-140h-820zM386 1191l164 239h239l-239 -239h-164z" />
<glyph unicode="&#x17b;" horiz-adv-x="1330" d="M125 0v150l884 1130h-864v150h1060v-150l-857 -1130h837v-150h-1060zM563 1620v190h205v-190h-205z" />
<glyph unicode="&#x17c;" horiz-adv-x="1040" d="M100 0v140l635 760h-615v150h820v-150l-627 -760h607v-140h-820zM418 1240v190h205v-190h-205z" />
<glyph unicode="&#x17d;" horiz-adv-x="1330" d="M125 0v150l884 1130h-864v150h1060v-150l-857 -1130h837v-150h-1060zM415 1810h150l100 -160l100 160h150l-175 -260h-150z" />
<glyph unicode="&#x17e;" horiz-adv-x="1040" d="M100 0v140l635 760h-615v150h820v-150l-627 -760h607v-140h-820zM270 1430h150l100 -160l100 160h150l-175 -260h-150z" />
<glyph unicode="&#x17f;" horiz-adv-x="506" d="M150 0v1101q0 381 412 381q129 0 244 -40v-150q-109 40 -245 40q-226 0 -226 -223v-1109h-185z" />
<glyph unicode="&#x192;" horiz-adv-x="1047" d="M50 -230q31 -6 58 -6q171 0 214 216l164 820h-190l30 150h190l24 120q73 364 391 364q32 0 66 -4v-150q-31 6 -58 6q-171 0 -214 -216l-24 -120h210l-30 -150h-210l-164 -820q-73 -364 -391 -364q-32 0 -66 4v150z" />
<glyph unicode="&#x218;" horiz-adv-x="1290" d="M100 1030q0 410 575 410q250 0 465 -60v-170q-215 80 -465 80q-390 0 -390 -260q0 -230 264 -230h184q457 0 457 -390q0 -420 -554 -420q-261 0 -486 60v170q225 -80 486 -80q369 0 369 270q0 230 -272 230h-184q-449 0 -449 390zM428 -380l150 280h185l-150 -280h-185z " />
<glyph unicode="&#x219;" horiz-adv-x="1050" d="M100 750q0 300 437 300q188 0 373 -50v-160q-185 60 -373 60q-262 0 -262 -150q0 -140 165 -140h150q360 0 360 -310q0 -300 -436 -300q-189 0 -374 50v160q185 -60 374 -60q251 0 251 150q0 140 -175 140h-150q-340 0 -340 310zM308 -380l150 280h185l-150 -280h-185z " />
<glyph unicode="&#x2c6;" horiz-adv-x="700" d="M100 1170l175 260h150l175 -260h-150l-100 160l-100 -160h-150z" />
<glyph unicode="&#x2c7;" horiz-adv-x="700" d="M100 1430h150l100 -160l100 160h150l-175 -260h-150z" />
<glyph unicode="&#x2d8;" horiz-adv-x="730" d="M100 1430h135q0 -150 130 -150t130 150h135q0 -260 -265 -260t-265 260z" />
<glyph unicode="&#x2d9;" horiz-adv-x="405" d="M100 1240v190h205v-190h-205z" />
<glyph unicode="&#x2da;" horiz-adv-x="652" d="M100 1361q0 210 228 210q224 0 224 -210q0 -209 -224 -209q-228 0 -228 209zM190 1363q0 -137 138 -137q134 0 134 137q0 134 -134 134q-138 0 -138 -134z" />
<glyph unicode="&#x2db;" horiz-adv-x="580" d="M100 -253q0 131 165 253h195q-202 -126 -202 -228q0 -68 85 -68t137 20v-130q-61 -20 -149 -20q-231 0 -231 173z" />
<glyph unicode="&#x2dc;" horiz-adv-x="700" d="M100 1234v150q60 46 130 46q52 0 110 -26t114 -26q75 0 146 46v-150q-60 -46 -130 -46q-52 0 -110 26t-114 26q-75 0 -146 -46z" />
<glyph unicode="&#x2dd;" horiz-adv-x="979" d="M100 1191l164 239h239l-239 -239h-164zM476 1191l164 239h239l-239 -239h-164z" />
<glyph unicode="&#x326;" horiz-adv-x="385" d="M25 -380l150 280h185l-150 -280h-185z" />
<glyph unicode="&#x37e;" horiz-adv-x="535" d="M100 -250l150 435h185l-150 -435h-185zM250 865v185h185v-185h-185z" />
<glyph unicode="&#x384;" horiz-adv-x="603" d="M100 1191l164 239h239l-239 -239h-164z" />
<glyph unicode="&#x385;" horiz-adv-x="1045" d="M100 1260v170h185v-170h-185zM300 1191l164 239h239l-239 -239h-164zM760 1260v170h185v-170h-185z" />
<glyph unicode="&#x386;" horiz-adv-x="1472" d="M100 1191l164 239h239l-239 -239h-164zM25 0l607 1430h205l610 -1430h-205l-185 450h-473l51 150h360l-267 648l-511 -1248h-192z" />
<glyph unicode="&#x387;" horiz-adv-x="385" d="M100 865v185h185v-185h-185z" />
<glyph unicode="&#x388;" horiz-adv-x="1483" d="M-50 1191l164 239h239l-239 -239h-164zM423 0v1430h935v-150h-750v-480h715v-150h-715v-500h765v-150h-950z" />
<glyph unicode="&#x389;" horiz-adv-x="1808" d="M-50 1191l164 239h239l-239 -239h-164zM423 0v1430h185v-630h845v630h185v-1430h-185v650h-845v-650h-185z" />
<glyph unicode="&#x38a;" horiz-adv-x="838" d="M-50 1191l164 239h239l-239 -239h-164zM453 0v1430h185v-1430h-185z" />
<glyph unicode="&#x38c;" horiz-adv-x="1768" d="M-50 1191l164 239h239l-239 -239h-164zM223 713q0 727 718 727q707 0 707 -727q0 -723 -707 -723q-718 0 -718 723zM418 719q0 -579 523 -579q512 0 512 579q0 571 -512 571q-523 0 -523 -571z" />
<glyph unicode="&#x38e;" horiz-adv-x="1653" d="M-50 1191l164 239h239l-239 -239h-164zM378 1430h205l412 -747l418 747h215l-546 -930v-500h-185v500z" />
<glyph unicode="&#x38f;" horiz-adv-x="1713" d="M-50 1191l164 239h239l-239 -239h-164zM223 800q0 650 685 650t685 -650q0 -380 -320 -650h305v-150h-550v150q380 270 380 650q0 500 -500 500t-500 -500q0 -380 380 -650v-150h-550v150h305q-320 270 -320 650z" />
<glyph unicode="&#x390;" horiz-adv-x="525" d="M170 0v1050h185v-1050h-185zM-160 1260v170h185v-170h-185zM40 1191l164 239h239l-239 -239h-164zM500 1260v170h185v-170h-185z" />
<glyph unicode="&#x391;" horiz-adv-x="1472" d="M25 0l607 1430h205l610 -1430h-205l-185 450h-473l51 150h360l-267 648l-511 -1248h-192z" />
<glyph unicode="&#x392;" horiz-adv-x="1330" d="M170 0v1430h610q408 0 408 -333q0 -244 -266 -349q284 -53 284 -325q0 -423 -447 -423h-589zM355 150h393q256 0 256 260q0 253 -343 253h-80v121q410 55 410 296q0 200 -228 200h-408v-1130z" />
<glyph unicode="&#x393;" horiz-adv-x="1103" d="M170 0v1430h933v-150h-748v-1280h-185z" />
<glyph unicode="&#x394;" horiz-adv-x="1472" d="M25 0l607 1430h206l609 -1430h-1422zM279 150h902l-453 1088z" />
<glyph unicode="&#x2206;" horiz-adv-x="1472" d="M25 0l607 1430h206l609 -1430h-1422zM279 150h902l-453 1088z" />
<glyph unicode="&#x395;" horiz-adv-x="1230" d="M170 0v1430h935v-150h-750v-480h715v-150h-715v-500h765v-150h-950z" />
<glyph unicode="&#x396;" horiz-adv-x="1330" d="M125 0v150l884 1130h-864v150h1060v-150l-857 -1130h837v-150h-1060z" />
<glyph unicode="&#x397;" horiz-adv-x="1555" d="M170 0v1430h185v-630h845v630h185v-1430h-185v650h-845v-650h-185z" />
<glyph unicode="&#x398;" horiz-adv-x="1665" d="M120 713q0 727 718 727q707 0 707 -727q0 -723 -707 -723q-718 0 -718 723zM315 719q0 -579 523 -579q512 0 512 579q0 571 -512 571q-523 0 -523 -571zM493 663v150h675v-150h-675z" />
<glyph unicode="&#x399;" horiz-adv-x="585" d="M200 0v1430h185v-1430h-185z" />
<glyph unicode="&#x39a;" horiz-adv-x="1400" d="M170 0v1430h185v-1430h-185zM535 688v112l592 630h234l-644 -675l658 -755h-257z" />
<glyph unicode="&#x39b;" horiz-adv-x="1472" d="M25 0l607 1430h205l610 -1430h-205l-514 1238l-511 -1238h-192z" />
<glyph unicode="&#x39c;" horiz-adv-x="1840" d="M170 0v1430h235l525 -1193l515 1193h225v-1430h-165v1173l-508 -1173h-146l-516 1173v-1173h-165z" />
<glyph unicode="&#x39d;" horiz-adv-x="1575" d="M170 0v1430h185l875 -1152v1152h175v-1430h-185l-875 1162v-1162h-175z" />
<glyph unicode="&#x39e;" horiz-adv-x="1196" d="M100 0v160h996v-160h-996zM100 1270v160h996v-160h-996zM160 653v160h876v-160h-876z" />
<glyph unicode="&#x39f;" horiz-adv-x="1665" d="M120 713q0 727 718 727q707 0 707 -727q0 -723 -707 -723q-718 0 -718 723zM315 719q0 -579 523 -579q512 0 512 579q0 571 -512 571q-523 0 -523 -571z" />
<glyph unicode="&#x3a0;" horiz-adv-x="1525" d="M170 0v1430h1185v-1430h-185v1280h-815v-1280h-185z" />
<glyph unicode="&#x3a1;" horiz-adv-x="1263" d="M170 0v1430h580q438 0 438 -383q0 -417 -599 -509l-38 156q440 65 440 345q0 238 -258 238h-378v-1277h-185z" />
<glyph unicode="&#x3a3;" horiz-adv-x="1180" d="M100 0v150l405 600l-405 530v150h980v-150h-770l410 -530l-410 -600h770v-150h-980z" />
<glyph unicode="&#x3a4;" horiz-adv-x="1185" d="M50 1280v150h1085v-150h-450v-1280h-185v1280h-450z" />
<glyph unicode="&#x3a5;" horiz-adv-x="1300" d="M25 1430h205l412 -747l418 747h215l-546 -930v-500h-185v500z" />
<glyph unicode="&#x3a6;" horiz-adv-x="1724" d="M100 713q0 567 670 604v113h184v-112q670 -34 670 -605q0 -568 -670 -601v-112h-184v113q-670 37 -670 600zM294 719q0 -418 476 -455v902q-476 -36 -476 -447zM954 263q476 34 476 456q0 415 -476 448v-904z" />
<glyph unicode="&#x3a7;" horiz-adv-x="1410" d="M25 0l563 715l-563 715h225l450 -572l450 572h225l-562 -715l562 -715h-225l-450 572l-450 -572h-225z" />
<glyph unicode="&#x3a8;" horiz-adv-x="1690" d="M120 988v442h185v-442q0 -381 448 -415v857h184v-857q448 34 448 415v442h185v-442q0 -531 -633 -566v-422h-184v422q-633 35 -633 566z" />
<glyph unicode="&#x3a9;" horiz-adv-x="1610" d="M120 800q0 650 685 650t685 -650q0 -380 -320 -650h305v-150h-550v150q380 270 380 650q0 500 -500 500t-500 -500q0 -380 380 -650v-150h-550v150h305q-320 270 -320 650z" />
<glyph unicode="&#x2126;" horiz-adv-x="1610" d="M120 800q0 650 685 650t685 -650q0 -380 -320 -650h305v-150h-550v150q380 270 380 650q0 500 -500 500t-500 -500q0 -380 380 -650v-150h-550v150h305q-320 270 -320 650z" />
<glyph unicode="&#x3aa;" horiz-adv-x="585" d="M200 0v1430h185v-1430h-185zM15 1640v170h185v-170h-185zM385 1640v170h185v-170h-185z" />
<glyph unicode="&#x3ab;" horiz-adv-x="1300" d="M25 1430h205l412 -747l418 747h215l-546 -930v-500h-185v500zM373 1640v170h185v-170h-185zM743 1640v170h185v-170h-185z" />
<glyph unicode="&#x3ac;" horiz-adv-x="1369" d="M100 525q0 525 450 525q331 0 444 -324l108 324h187l-198 -528l184 -522h-190l-106 330q-126 -330 -429 -330q-448 0 -450 525zM285 529q0 -379 265 -379q235 0 355 379q-120 371 -355 371q-265 0 -265 -371zM520 1191l164 239h239l-239 -239h-164z" />
<glyph unicode="&#x3ad;" horiz-adv-x="925" d="M100 290q0 200 218 255q-208 59 -208 233q0 282 405 282q160 0 310 -50v-160q-150 60 -320 60q-210 0 -210 -132q0 -158 245 -158h195v-150h-198q-252 0 -252 -180q0 -150 220 -150q170 0 320 60v-160q-150 -50 -320 -50q-405 0 -405 300zM328 1191l164 239h239 l-239 -239h-164z" />
<glyph unicode="&#x3ae;" d="M150 0v1050h125l33 -134q191 134 384 134q363 0 363 -391v-1039h-185v1042q0 234 -233 234q-159 0 -302 -133v-763h-185zM468 1191l164 239h239l-239 -239h-164z" />
<glyph unicode="&#x3af;" horiz-adv-x="525" d="M170 0v1050h185v-1050h-185zM128 1191l164 239h239l-239 -239h-164z" />
<glyph unicode="&#x3b0;" horiz-adv-x="1210" d="M150 428v622h185v-622q0 -298 270 -298t270 298v622h185v-622q0 -448 -455 -448t-455 448zM183 1260v170h185v-170h-185zM383 1191l164 239h239l-239 -239h-164zM843 1260v170h185v-170h-185z" />
<glyph unicode="&#x3b1;" horiz-adv-x="1369" d="M100 525q0 525 450 525q331 0 444 -324l108 324h187l-198 -528l184 -522h-190l-106 330q-126 -330 -429 -330q-448 0 -450 525zM285 529q0 -379 265 -379q235 0 355 379q-120 371 -355 371q-265 0 -265 -371z" />
<glyph unicode="&#x3b2;" horiz-adv-x="1196" d="M150 -362v1233q0 559 494 559q410 0 410 -336q0 -262 -251 -325q318 -37 318 -388q0 -383 -414 -383q-136 0 -242 60v150q107 -60 244 -60q227 0 227 233q0 308 -371 309v118q318 54 318 286q0 186 -246 186q-302 0 -302 -412v-1230h-185z" />
<glyph unicode="&#x3b3;" horiz-adv-x="1080" d="M35 1050h195l302 -847l308 847h195l-416 -1050v-380h-185v380z" />
<glyph unicode="&#x3b4;" horiz-adv-x="1200" d="M100 530q0 510 515 510q-165 123 -401 240v150h785v-150h-497q585 -315 598 -740q0 -550 -507 -550q-493 0 -493 540zM281 530q0 -390 313 -390q321 0 321 396q0 364 -322 364q-312 0 -312 -370z" />
<glyph unicode="&#x3b5;" horiz-adv-x="925" d="M100 290q0 200 218 255q-208 59 -208 233q0 282 405 282q160 0 310 -50v-160q-150 60 -320 60q-210 0 -210 -132q0 -158 245 -158h195v-150h-198q-252 0 -252 -180q0 -150 220 -150q170 0 320 60v-160q-150 -50 -320 -50q-405 0 -405 300z" />
<glyph unicode="&#x3b6;" horiz-adv-x="1003" d="M100 417q0 449 611 863h-408v150h650v-150q-673 -433 -673 -859q0 -271 218 -271h181q264 0 264 -223q0 -206 -319 -327l-70 138q216 69 216 187q0 75 -86 75h-181q-403 0 -403 417z" />
<glyph unicode="&#x3b7;" d="M150 0v1050h125l33 -134q191 134 384 134q363 0 363 -391v-1039h-185v1042q0 234 -233 234q-159 0 -302 -133v-763h-185z" />
<glyph unicode="&#x3b8;" horiz-adv-x="1245" d="M120 713q0 727 508 727q497 0 497 -727q0 -723 -497 -723q-508 0 -508 723zM316 670q13 -530 312 -530q289 0 301 530h-613zM318 820h609q-25 470 -299 470q-284 0 -310 -470z" />
<glyph unicode="&#x3b9;" horiz-adv-x="525" d="M170 0v1050h185v-1050h-185z" />
<glyph unicode="&#x3ba;" horiz-adv-x="1082" d="M150 0v1050h185v-1050h-185zM451 505v103l397 442h228l-456 -489l462 -561h-237z" />
<glyph unicode="&#x3bb;" horiz-adv-x="1121" d="M40 0l422 1036q-90 194 -256 261l71 141q242 -71 358 -357l436 -1081h-206l-313 830l-311 -830h-201z" />
<glyph unicode="&#x3bd;" horiz-adv-x="1080" d="M40 1050h200l301 -823l299 823h200l-427 -1050h-172z" />
<glyph unicode="&#x3be;" horiz-adv-x="1018" d="M125 417q0 332 269 431q-179 54 -179 274q0 308 406 308h244v-150h-243q-222 0 -222 -164q0 -194 223 -194h232v-150h-222q-328 0 -328 -351q0 -271 218 -271h181q264 0 264 -223q0 -206 -319 -327l-70 138q216 69 216 187q0 75 -86 75h-181q-403 0 -403 417z" />
<glyph unicode="&#x3bf;" horiz-adv-x="1200" d="M100 525q0 525 500 525t500 -525q0 -524 -500 -524q-498 0 -500 524zM285 529q0 -379 315 -379t315 379q0 371 -315 371t-315 -371z" />
<glyph unicode="&#x3c0;" horiz-adv-x="1465" d="M25 840v150q140 60 290 60h1050v-150h-245v-580q0 -171 175 -171q15 0 30 1v-150q-41 -5 -78 -5q-312 0 -312 325v580h-435v-901h-185v901q-150 0 -290 -60z" />
<glyph unicode="&#x3c1;" horiz-adv-x="1212" d="M135 -380v930q0 500 482 500q495 0 495 -500q0 -550 -528 -550q-146 0 -264 60v-440h-185zM320 224q109 -64 263 -64q347 0 347 390q0 346 -315 346q-295 0 -295 -346v-326z" />
<glyph unicode="&#x3c2;" horiz-adv-x="993" d="M100 537q0 513 569 513q133 0 245 -50v-150q-112 50 -245 50q-389 0 -389 -359q0 -233 206 -297l157 -45q300 -74 300 -304q0 -275 -440 -275v150q257 0 257 121q0 96 -141 140l-199 61q-320 79 -320 445z" />
<glyph unicode="&#x3c3;" horiz-adv-x="1277" d="M100 525q0 525 510 525h617v-150h-261q134 -129 134 -375q0 -524 -500 -524q-498 0 -500 524zM285 529q0 -379 315 -379t315 379q0 371 -305 371q-325 0 -325 -371z" />
<glyph unicode="&#x3c4;" horiz-adv-x="849" d="M0 900v150h774v-150h-315v-530q0 -221 216 -221q14 0 29 1v-150q-41 -4 -77 -4q-353 0 -353 374v530h-274z" />
<glyph unicode="&#x3c5;" horiz-adv-x="1210" d="M150 428v622h185v-622q0 -298 270 -298t270 298v622h185v-622q0 -448 -455 -448t-455 448z" />
<glyph unicode="&#x3c6;" horiz-adv-x="1505" d="M100 550q0 275 180 500h205q-200 -225 -200 -500q0 -400 365 -420v525q0 395 364 395q391 0 391 -500q0 -550 -570 -570v-360h-185v360q-550 20 -550 570zM835 130q385 20 385 420q0 350 -203 350q-182 0 -182 -245v-525z" />
<glyph unicode="&#x3c7;" horiz-adv-x="1130" d="M40 -380l423 715l-423 715h205l320 -542l320 542h205l-422 -715l422 -715h-205l-320 542l-320 -542h-205z" />
<glyph unicode="&#x3c8;" horiz-adv-x="1610" d="M150 538v512h185v-512q0 -356 377 -394v906h186v-906q377 38 377 394v512h185v-512q0 -508 -562 -545v-373h-186v373q-562 37 -562 545z" />
<glyph unicode="&#x3c9;" horiz-adv-x="1675" d="M120 550q0 275 130 500h185q-130 -225 -130 -500q0 -400 215 -400q225 0 225 675h185q0 -675 225 -675q215 0 215 400q0 275 -130 500h185q130 -225 130 -500q0 -550 -400 -550q-235 0 -320 319q-80 -319 -315 -319q-400 0 -400 550z" />
<glyph unicode="&#x3ca;" horiz-adv-x="525" d="M170 0v1050h185v-1050h-185zM-15 1260v170h185v-170h-185zM355 1260v170h185v-170h-185z" />
<glyph unicode="&#x3cb;" horiz-adv-x="1210" d="M150 428v622h185v-622q0 -298 270 -298t270 298v622h185v-622q0 -448 -455 -448t-455 448zM328 1260v170h185v-170h-185zM698 1260v170h185v-170h-185z" />
<glyph unicode="&#x3cc;" horiz-adv-x="1200" d="M100 525q0 525 500 525t500 -525q0 -524 -500 -524q-498 0 -500 524zM285 529q0 -379 315 -379t315 379q0 371 -315 371t-315 -371zM466 1191l164 239h239l-239 -239h-164z" />
<glyph unicode="&#x3cd;" horiz-adv-x="1210" d="M150 428v622h185v-622q0 -298 270 -298t270 298v622h185v-622q0 -448 -455 -448t-455 448zM471 1191l164 239h239l-239 -239h-164z" />
<glyph unicode="&#x3ce;" horiz-adv-x="1675" d="M120 550q0 275 130 500h185q-130 -225 -130 -500q0 -400 215 -400q225 0 225 675h185q0 -675 225 -675q215 0 215 400q0 275 -130 500h185q130 -225 130 -500q0 -550 -400 -550q-235 0 -320 319q-80 -319 -315 -319q-400 0 -400 550zM703 1191l164 239h239l-239 -239 h-164z" />
<glyph unicode="&#x401;" horiz-adv-x="1230" d="M170 0v1430h935v-150h-750v-480h715v-150h-715v-500h765v-150h-950zM368 1640v170h185v-170h-185zM738 1640v170h185v-170h-185z" />
<glyph unicode="&#x410;" horiz-adv-x="1472" d="M25 0l607 1430h205l610 -1430h-205l-185 450h-473l51 150h360l-267 648l-511 -1248h-192z" />
<glyph unicode="&#x411;" horiz-adv-x="1311" d="M170 0v1430h1001v-150h-815v-1127h407q238 0 238 249q0 268 -292 268h-188v150h197q468 0 468 -407q0 -413 -406 -413h-610z" />
<glyph unicode="&#x412;" horiz-adv-x="1330" d="M170 0v1430h610q408 0 408 -333q0 -244 -266 -349q284 -53 284 -325q0 -423 -447 -423h-589zM355 150h393q256 0 256 260q0 253 -343 253h-80v121q410 55 410 296q0 200 -228 200h-408v-1130z" />
<glyph unicode="&#x413;" horiz-adv-x="1103" d="M170 0v1430h933v-150h-748v-1280h-185z" />
<glyph unicode="&#x414;" horiz-adv-x="1699" d="M0 150h184q415 0 415 1130v150h840v-1280h185v-530h-185v380h-1255v-380h-184v530zM498 150h756v1130h-470q0 -939 -286 -1130z" />
<glyph unicode="&#x415;" horiz-adv-x="1230" d="M170 0v1430h935v-150h-750v-480h715v-150h-715v-500h765v-150h-950z" />
<glyph unicode="&#x416;" horiz-adv-x="2109" d="M25 0q350 546 440 645.5t165 112.5q-115 39 -249 275.5t-242 236.5h-79v160h107q188 0 351.5 -302t323.5 -302v-133q-78 0 -166 -76.5t-427 -616.5h-224zM962 0v1430h185v-1430h-185zM1267 693v133q160 0 323.5 302t351.5 302h107v-160h-79q-108 0 -242 -236.5 t-249 -275.5q75 -13 165 -112.5t440 -645.5h-224q-339 540 -427 616.5t-166 76.5z" />
<glyph unicode="&#x417;" horiz-adv-x="1115" d="M100 50v160q200 -70 400 -70q330 0 330 260q0 250 -252 250h-328v150h325q255 0 255 250q0 240 -330 240q-200 0 -400 -70v160q200 60 400 60q515 0 515 -390q0 -236 -188 -325q188 -85 188 -325q0 -410 -515 -410q-200 0 -400 60z" />
<glyph unicode="&#x418;" horiz-adv-x="1525" d="M170 0v1430h175v-1182l825 1182h185v-1430h-175v1182l-825 -1182h-185z" />
<glyph unicode="&#x419;" horiz-adv-x="1525" d="M170 0v1430h175v-1182l825 1182h185v-1430h-175v1182l-825 -1182h-185zM490 1784h135q0 -160 140 -160t140 160h135q0 -270 -275 -270t-275 270z" />
<glyph unicode="&#x41a;" horiz-adv-x="1317" d="M170 0v1430h185v-1430h-185zM475 693v133q160 0 323.5 302t351.5 302h107v-160h-79q-108 0 -242 -236.5t-249 -275.5q75 -13 165 -112.5t440 -645.5h-224q-339 540 -427 616.5t-166 76.5z" />
<glyph unicode="&#x41b;" horiz-adv-x="1524" d="M0 0v150q414 0 414 650v630h940v-1430h-185v1280h-570v-480q0 -800 -599 -800z" />
<glyph unicode="&#x41c;" horiz-adv-x="1840" d="M170 0v1430h235l525 -1193l515 1193h225v-1430h-165v1173l-508 -1173h-146l-516 1173v-1173h-165z" />
<glyph unicode="&#x41d;" horiz-adv-x="1525" d="M170 0v1430h185v-620h815v620h185v-1430h-185v660h-815v-660h-185z" />
<glyph unicode="&#x41e;" horiz-adv-x="1665" d="M120 713q0 727 718 727q707 0 707 -727q0 -723 -707 -723q-718 0 -718 723zM315 719q0 -579 523 -579q512 0 512 579q0 571 -512 571q-523 0 -523 -571z" />
<glyph unicode="&#x41f;" horiz-adv-x="1525" d="M170 0v1430h1185v-1430h-185v1280h-815v-1280h-185z" />
<glyph unicode="&#x420;" horiz-adv-x="1263" d="M170 0v1430h580q438 0 438 -383q0 -417 -599 -509l-38 156q440 65 440 345q0 238 -258 238h-378v-1277h-185z" />
<glyph unicode="&#x421;" horiz-adv-x="1385" d="M100 735q0 705 750 705q215 0 400 -60v-160q-185 70 -380 70q-585 0 -585 -555q0 -595 585 -595q195 0 380 70v-160q-185 -60 -400 -60q-750 0 -750 745z" />
<glyph unicode="&#x422;" horiz-adv-x="1185" d="M50 1280v150h1085v-150h-450v-1280h-185v1280h-450z" />
<glyph unicode="&#x423;" horiz-adv-x="1307" d="M50 1430h195l463 -981l382 981h192l-493 -1162q-114 -268 -389 -268q-128 0 -236 70v150q106 -70 233 -70q154 0 217 121z" />
<glyph unicode="&#x424;" horiz-adv-x="1724" d="M100 713q0 567 670 604v113h184v-112q670 -34 670 -605q0 -568 -670 -601v-112h-184v113q-670 37 -670 600zM294 719q0 -418 476 -455v902q-476 -36 -476 -447zM954 263q476 34 476 456q0 415 -476 448v-904z" />
<glyph unicode="&#x425;" horiz-adv-x="1400" d="M25 0l562 715l-562 715h225l450 -572l450 572h225l-562 -715l562 -715h-225l-450 572l-450 -572h-225z" />
<glyph unicode="&#x426;" horiz-adv-x="1567" d="M170 0v1430h185v-1280h742v1280h185v-1280h185v-530h-185v380h-1112z" />
<glyph unicode="&#x427;" horiz-adv-x="1408" d="M125 1001v429h185v-432q0 -324 339 -324q229 0 404 133v623h185v-1430h-185v634q-196 -114 -429 -114q-499 0 -499 481z" />
<glyph unicode="&#x428;" horiz-adv-x="1875" d="M170 0v1430h185v-1280h490v1280h185v-1280h490v1280h185v-1430h-1535z" />
<glyph unicode="&#x429;" horiz-adv-x="1990" d="M170 0v1430h185v-1280h490v1280h185v-1280h490v1280h185v-1280h185v-530h-185v380h-1535z" />
<glyph unicode="&#x42a;" horiz-adv-x="1710" d="M0 1280v150h767v-1277h408q238 0 238 249q0 268 -292 268h-188v150h198q479 0 479 -407q0 -413 -418 -413h-610v1280h-582z" />
<glyph unicode="&#x42b;" horiz-adv-x="1755" d="M170 0v1430h185v-1277h408q238 0 238 249q0 268 -292 268h-188v150h198q479 0 479 -407q0 -413 -418 -413h-610zM1400 0v1430h185v-1430h-185z" />
<glyph unicode="&#x42c;" horiz-adv-x="1298" d="M170 0v1430h185v-1277h408q238 0 238 249q0 268 -292 268h-188v150h197q480 0 480 -407q0 -413 -418 -413h-610z" />
<glyph unicode="&#x42d;" horiz-adv-x="1375" d="M125 50v160q185 -70 380 -70q542 0 582 510h-890v150h891q-33 490 -583 490q-195 0 -380 -70v160q185 60 400 60q750 0 750 -705q0 -745 -750 -745q-215 0 -400 60z" />
<glyph unicode="&#x42e;" horiz-adv-x="2022" d="M170 0v1430h184v-630h405q34 640 586 640q577 0 577 -727q0 -723 -577 -723q-562 0 -587 660h-404v-650h-184zM952 719q0 -579 393 -579q382 0 382 579q0 571 -382 571q-393 0 -393 -571z" />
<glyph unicode="&#x42f;" horiz-adv-x="1305" d="M25 0l496 649q-404 139 -404 418q0 363 428 363h590v-1430h-185v1277h-408q-228 0 -228 -198q0 -250 410 -315v-131l-465 -633h-234z" />
<glyph unicode="&#x430;" horiz-adv-x="1135" d="M100 317q0 323 426 323q137 0 274 -20v99q0 181 -283 181q-162 0 -332 -50v150q170 50 332 50q468 0 468 -326v-724h-104l-64 104q-157 -104 -342 -104q-375 0 -375 317zM285 320q0 -170 190 -170q192 0 325 102v218q-137 20 -274 20q-241 0 -241 -170z" />
<glyph unicode="&#x431;" horiz-adv-x="1277" d="M125 520v325q0 585 544 585q292 0 463 109v-163q-153 -96 -466 -96q-351 0 -351 -425q129 195 343 195q508 0 508 -508v-22q0 -530 -518 -530q-523 0 -523 530zM315 520q0 -380 333 -380q332 0 332 380q0 374 -322 374q-343 0 -343 -374z" />
<glyph unicode="&#x432;" horiz-adv-x="1166" d="M150 0v1050h590q308 0 308 -263q0 -163 -196 -242q214 -53 214 -232q0 -313 -347 -313h-569zM335 150h373q156 0 156 160q0 150 -243 150h-80v121q310 35 310 209q0 110 -128 110h-388v-750z" />
<glyph unicode="&#x433;" horiz-adv-x="848" d="M150 0v1050h698v-150h-513v-900h-185z" />
<glyph unicode="&#x434;" horiz-adv-x="1428" d="M0 150h184q244 0 244 750v150h740v-900h185v-530h-185v380h-984v-380h-184v530zM454 150h529v750h-370q0 -559 -159 -750z" />
<glyph unicode="&#x435;" horiz-adv-x="1130" d="M100 537q0 513 483 513q448 0 448 -443q0 -63 -9 -135h-737q0 -322 376 -322q179 0 318 40v-150q-139 -40 -338 -40q-541 0 -541 537zM285 626h568q-6 276 -270 276q-280 0 -298 -276z" />
<glyph unicode="&#x436;" horiz-adv-x="1720" d="M25 0l166 264q165 263 283 284q-125 49 -176 195t-159 146h-79v166h107q188 0 266.5 -219.5t238.5 -219.5v-123q-138 0 -286 -247l-147 -246h-214zM766 0v1057h185v-1057h-185zM1048 493v123q160 0 238.5 219.5t266.5 219.5h107v-166h-79q-108 0 -159 -146t-176 -195 q118 -21 283 -284l166 -264h-214l-147 246q-148 247 -286 247z" />
<glyph unicode="&#x437;" horiz-adv-x="965" d="M100 50v160q200 -70 350 -70q230 0 230 170q0 150 -152 150h-328v150h325q155 0 155 158q0 142 -230 142q-150 0 -350 -70v160q200 60 350 60q415 0 415 -292q0 -154 -138 -233q138 -75 138 -225q0 -320 -415 -320q-150 0 -350 60z" />
<glyph unicode="&#x438;" horiz-adv-x="1225" d="M150 0v1050h175v-812l565 812h185v-1050h-175v812l-565 -812h-185z" />
<glyph unicode="&#x439;" horiz-adv-x="1225" d="M150 0v1050h175v-812l565 812h185v-1050h-175v812l-565 -812h-185zM348 1430h135q0 -150 130 -150t130 150h135q0 -260 -265 -260t-265 260z" />
<glyph unicode="&#x43a;" horiz-adv-x="1104" d="M150 0v1050h185v-1050h-185zM432 493v123q160 0 238.5 217t266.5 217h107v-160h-79q-108 0 -159 -146.5t-176 -195.5q118 -21 283 -284l166 -264h-214l-147 246q-148 247 -286 247z" />
<glyph unicode="&#x43b;" horiz-adv-x="1187" d="M0 0v150q237 0 237 270v630h800v-1050h-185v900h-430v-480q0 -420 -422 -420z" />
<glyph unicode="&#x43c;" horiz-adv-x="1460" d="M150 0v1050h235l355 -833l345 833h225v-1050h-165v803l-338 -803h-146l-346 803v-803h-165z" />
<glyph unicode="&#x43d;" horiz-adv-x="1225" d="M150 0v1050h185v-440h555v440h185v-1050h-185v460h-555v-460h-185z" />
<glyph unicode="&#x43e;" horiz-adv-x="1240" d="M100 525q0 535 520 535t520 -535t-520 -535q-518 0 -520 535zM285 529q0 -389 335 -389t335 389q0 381 -335 381t-335 -381z" />
<glyph unicode="&#x43f;" horiz-adv-x="1225" d="M150 0v1050h925v-1050h-185v900h-555v-900h-185z" />
<glyph unicode="&#x440;" horiz-adv-x="1217" d="M150 -380v1387q209 43 432 43q535 0 535 -499q0 -551 -538 -551q-126 0 -244 50v-430h-185zM335 214q109 -54 243 -54q357 0 357 393q0 343 -355 343q-140 0 -245 -24v-658z" />
<glyph unicode="&#x441;" horiz-adv-x="1025" d="M100 545q0 505 560 505q150 0 280 -30v-150q-130 30 -290 30q-365 0 -365 -355q0 -395 365 -395q160 0 290 30v-150q-130 -30 -280 -30q-560 0 -560 545z" />
<glyph unicode="&#x442;" horiz-adv-x="925" d="M0 900v150h925v-150h-370v-900h-185v900h-370z" />
<glyph unicode="&#x443;" horiz-adv-x="1050" d="M25 1050h201l297 -820l307 820h196l-436 -1081q-116 -286 -348 -357l-71 131q176 77 256 251z" />
<glyph unicode="&#x444;" horiz-adv-x="1644" d="M100 523q0 500 630 534v373h184v-372q630 -31 630 -535q0 -500 -630 -531v-372h-184v373q-630 34 -630 530zM294 529q0 -351 436 -385v762q-436 -33 -436 -377zM914 143q436 30 436 386q0 348 -436 378v-764z" />
<glyph unicode="&#x445;" horiz-adv-x="1100" d="M25 0l418 525l-418 525h215l310 -390l310 390h215l-418 -525l418 -525h-215l-310 390l-310 -390h-215z" />
<glyph unicode="&#x446;" horiz-adv-x="1386" d="M150 0v1050h185v-900h581v900h185v-900h185v-530h-185v380h-951z" />
<glyph unicode="&#x447;" horiz-adv-x="1218" d="M125 711v339h185v-342q0 -254 249 -254q199 0 324 133v463h185v-1050h-185v414q-146 -114 -349 -114q-409 0 -409 411z" />
<glyph unicode="&#x448;" horiz-adv-x="1635" d="M150 0v1050h185v-900h390v900h185v-900h390v900h185v-1050h-1335z" />
<glyph unicode="&#x449;" horiz-adv-x="1770" d="M150 0v1050h185v-900h390v900h185v-900h390v900h185v-900h185v-530h-185v380h-1335z" />
<glyph unicode="&#x44a;" horiz-adv-x="1352" d="M0 900v150h569v-897h298q198 0 198 169q0 137 -182 137h-178v150h188q359 0 359 -296q0 -313 -368 -313h-500v900h-384z" />
<glyph unicode="&#x44b;" horiz-adv-x="1510" d="M150 0v1050h185v-897h318q178 0 178 169q0 137 -182 137h-178v150h187q360 0 360 -296q0 -313 -348 -313h-520zM1175 0v1050h185v-1050h-185z" />
<glyph unicode="&#x44c;" horiz-adv-x="1168" d="M150 0v1050h185v-897h318q178 0 178 169q0 137 -182 137h-178v150h187q360 0 360 -296q0 -313 -348 -313h-520z" />
<glyph unicode="&#x44d;" horiz-adv-x="1050" d="M100 30v150q130 -30 260 -30q359 0 400 311h-596v150h597q-36 289 -401 289q-130 0 -260 -30v150q130 30 280 30q570 0 570 -505q0 -545 -570 -545q-150 0 -280 30z" />
<glyph unicode="&#x44e;" horiz-adv-x="1702" d="M150 0v1050h184v-440h346q37 450 465 450q457 0 457 -537q0 -533 -457 -533q-439 0 -466 470h-345v-460h-184zM872 529q0 -389 273 -389q262 0 262 389q0 381 -262 381q-273 0 -273 -381z" />
<glyph unicode="&#x44f;" horiz-adv-x="1145" d="M25 0l406 469q-314 97 -314 308q0 273 338 273h540v-1050h-185v897h-358q-138 0 -138 -118q0 -140 320 -205v-131l-375 -443h-234z" />
<glyph unicode="&#x451;" horiz-adv-x="1130" d="M100 537q0 513 483 513q448 0 448 -443q0 -63 -9 -135h-737q0 -322 376 -322q179 0 318 40v-150q-139 -40 -338 -40q-541 0 -541 537zM285 626h568q-6 276 -270 276q-280 0 -298 -276zM288 1260v170h185v-170h-185zM658 1260v170h185v-170h-185z" />
<glyph unicode="&#x2000;" horiz-adv-x="927" />
<glyph unicode="&#x2001;" horiz-adv-x="1854" />
<glyph unicode="&#x2002;" horiz-adv-x="927" />
<glyph unicode="&#x2003;" horiz-adv-x="1854" />
<glyph unicode="&#x2004;" horiz-adv-x="618" />
<glyph unicode="&#x2005;" horiz-adv-x="463" />
<glyph unicode="&#x2006;" horiz-adv-x="309" />
<glyph unicode="&#x2007;" horiz-adv-x="309" />
<glyph unicode="&#x2008;" horiz-adv-x="231" />
<glyph unicode="&#x2009;" horiz-adv-x="370" />
<glyph unicode="&#x200a;" horiz-adv-x="103" />
<glyph unicode="&#x2010;" horiz-adv-x="700" d="M100 450v150h500v-150h-500z" />
<glyph unicode="&#x2011;" horiz-adv-x="700" d="M100 450v150h500v-150h-500z" />
<glyph unicode="&#x2012;" horiz-adv-x="700" d="M100 450v150h500v-150h-500z" />
<glyph unicode="&#x2013;" horiz-adv-x="1200" d="M100 450v150h1000v-150h-1000z" />
<glyph unicode="&#x2014;" horiz-adv-x="1700" d="M100 450v150h1500v-150h-1500z" />
<glyph unicode="&#x2018;" horiz-adv-x="410" d="M50 995l150 435h185l-150 -435h-185z" />
<glyph unicode="&#x2019;" horiz-adv-x="435" d="M50 995l150 435h185l-150 -435h-185z" />
<glyph unicode="&#x201a;" horiz-adv-x="410" d="M25 -250l150 435h185l-150 -435h-185z" />
<glyph unicode="&#x201c;" horiz-adv-x="780" d="M50 995l150 435h185l-150 -435h-185zM420 995l150 435h185l-150 -435h-185z" />
<glyph unicode="&#x201d;" horiz-adv-x="780" d="M50 995l150 435h185l-150 -435h-185zM420 995l150 435h185l-150 -435h-185z" />
<glyph unicode="&#x201e;" horiz-adv-x="780" d="M25 -250l150 435h185l-150 -435h-185zM395 -250l150 435h185l-150 -435h-185z" />
<glyph unicode="&#x2020;" horiz-adv-x="1045" d="M50 900v150h380v380h185v-380h380v-150h-380v-1280h-185v1280h-380z" />
<glyph unicode="&#x2021;" horiz-adv-x="1045" d="M50 0v150h380v750h-380v150h380v380h185v-380h380v-150h-380v-750h380v-150h-380v-380h-185v380h-380z" />
<glyph unicode="&#x2022;" horiz-adv-x="630" d="M100 725q0 215 215 215t215 -215t-215 -215t-215 215z" />
<glyph unicode="&#x2026;" horiz-adv-x="1185" d="M100 0v185h185v-185h-185zM500 0v185h185v-185h-185zM900 0v185h185v-185h-185z" />
<glyph unicode="&#x202f;" horiz-adv-x="370" />
<glyph unicode="&#x2030;" horiz-adv-x="2107" d="M100 0l1017 1430h205l-1017 -1430h-205zM100 1180q0 260 278 260q274 0 274 -260q0 -259 -274 -259q-278 0 -278 259zM230 1182q0 -147 148 -147q144 0 144 147q0 144 -144 144q-148 0 -148 -144zM770 249q0 260 278 260q274 0 274 -260q0 -259 -274 -259 q-278 0 -278 259zM900 251q0 -147 148 -147q144 0 144 147q0 144 -144 144q-148 0 -148 -144zM1455 249q0 260 278 260q274 0 274 -260q0 -259 -274 -259q-278 0 -278 259zM1585 251q0 -147 148 -147q144 0 144 147q0 144 -144 144q-148 0 -148 -144z" />
<glyph unicode="&#x2039;" horiz-adv-x="610" d="M100 525l258 375h202l-258 -375l258 -375h-202z" />
<glyph unicode="&#x203a;" horiz-adv-x="610" d="M50 150l258 375l-258 375h202l258 -375l-258 -375h-202z" />
<glyph unicode="&#x2044;" horiz-adv-x="1270" d="M100 0l885 1430h185l-885 -1430h-185z" />
<glyph unicode="&#x205f;" horiz-adv-x="463" />
<glyph unicode="&#x20ac;" horiz-adv-x="1385" d="M100 735q0 705 750 705q215 0 400 -60v-160q-185 70 -380 70q-498 0 -585 -348h773v-150h-793v-110h793v-150h-773q77 -392 585 -392q195 0 380 70v-160q-185 -60 -400 -60q-750 0 -750 745z" />
<glyph unicode="&#x2122;" horiz-adv-x="1606" d="M150 1359v71h511v-71h-212v-602h-87v602h-212zM750 757v673h110l248 -561l242 561h106v-673h-78v543l-239 -543h-69l-243 543v-543h-77z" />
<glyph unicode="&#x2202;" horiz-adv-x="1217" d="M149 301q0 59 14 129q87 437 633 437h234q15 82 15 148q0 275 -251 275q-257 0 -441 -140v170q218 120 462 120q400 0 400 -446q0 -129 -33 -294q-142 -710 -642 -710q-391 0 -391 311zM338 340q0 -200 236 -200q301 0 423 560h-233q-362 0 -416 -270q-10 -49 -10 -90z " />
<glyph unicode="&#x220f;" horiz-adv-x="1650" d="M150 -380v1810h1350v-1810h-175v1660h-990v-1660h-185z" />
<glyph unicode="&#x2211;" horiz-adv-x="1350" d="M100 -230l535 790l-535 720v150h1150v-150h-950l540 -720l-540 -790h950v-150h-1150v150z" />
<glyph unicode="&#x221a;" horiz-adv-x="1350" d="M75 900v150h365l242 -806l488 1610h180l-600 -1861h-165l-280 907h-230z" />
<glyph unicode="&#x221e;" horiz-adv-x="1520" d="M100 525q0 295 320 295q200 0 340 -170q140 170 340 170q320 0 320 -295t-320 -295q-200 0 -340 170q-140 -170 -340 -170q-320 0 -320 295zM265 525q0 -145 155 -145q130 0 250 145q-120 145 -250 145q-155 0 -155 -145zM850 525q120 -145 250 -145q155 0 155 145 t-155 145q-130 0 -250 -145z" />
<glyph unicode="&#x222b;" horiz-adv-x="589" d="M0 0q222 0 222 326q0 26 -1 54l-38 750q-1 30 -1 59q0 471 407 471v-150q-222 0 -222 -326q0 -26 1 -54l38 -750q1 -30 1 -59q0 -471 -407 -471v150z" />
<glyph unicode="&#x2248;" horiz-adv-x="1050" d="M100 300v150q112 50 220 50q109 0 215 -50t210 -50t205 50v-150q-111 -50 -220 -50t-215 50t-210 50q-103 0 -205 -50zM100 600v150q112 50 220 50q109 0 215 -50t210 -50t205 50v-150q-111 -50 -220 -50t-215 50t-210 50q-103 0 -205 -50z" />
<glyph unicode="&#x22f2;" horiz-adv-x="1050" d="M100 300v150q112 50 220 50q109 0 215 -50t210 -50t205 50v-150q-111 -50 -220 -50t-215 50t-210 50q-103 0 -205 -50zM100 600v150q112 50 220 50q109 0 215 -50t210 -50t205 50v-150q-111 -50 -220 -50t-215 50t-210 50q-103 0 -205 -50z" />
<glyph unicode="&#x2260;" horiz-adv-x="950" d="M100 0l171 300h-171v150h257l86 150h-343v150h429l171 300h150l-171 -300h171v-150h-257l-86 -150h343v-150h-429l-171 -300h-150z" />
<glyph unicode="&#x2264;" horiz-adv-x="950" d="M100 0v150h750v-150h-750zM100 600v150l750 320v-160l-583 -239l583 -231v-160z" />
<glyph unicode="&#x2265;" horiz-adv-x="950" d="M100 0v150h750v-150h-750zM100 280v160l583 231l-583 239v160l750 -320v-150z" />
<glyph unicode="&#x25ca;" horiz-adv-x="1085" d="M50 715l400 715h185l400 -715l-400 -715h-185zM235 715l308 -565l307 565l-307 565z" />
<glyph unicode="&#xe012;" horiz-adv-x="1275" d="M115 523q0 537 528 537q517 0 517 -537q0 -533 -517 -533q-528 0 -528 533zM310 529q0 -389 333 -389q322 0 322 389q0 381 -322 381q-333 0 -333 -381z" />
<glyph unicode="&#xe013;" horiz-adv-x="854" d="M115 0v150h250v711h-250v99l435 90v-900h239v-150h-674z" />
<glyph unicode="&#xe014;" horiz-adv-x="1100" d="M115 0v150q665 337 665 580q0 180 -270 180q-200 0 -395 -110v160q195 100 395 100q455 0 455 -330q0 -290 -547 -580h597v-150h-900z" />
<glyph unicode="&#xe015;" horiz-adv-x="1110" d="M100 -60q200 -70 380 -70q300 0 300 250q0 200 -252 200h-278v150h275q255 0 255 200q0 230 -300 230q-180 0 -380 -70v160q200 60 380 60q485 0 485 -380q0 -186 -188 -275q188 -85 188 -275q0 -400 -485 -400q-180 0 -380 60v160z" />
<glyph unicode="&#xe016;" horiz-adv-x="1165" d="M60 29v150l545 870h194l-546 -870h519v478h185v-478l148 -76v-74h-148v-309h-185v309h-712z" />
<glyph unicode="&#xe017;" horiz-adv-x="1145" d="M155 -70q150 -70 340 -70q365 0 365 270q0 240 -315 240q-195 0 -390 -50l50 730h764v-150h-607l-33 -402q117 22 216 22q500 0 500 -390q0 -420 -560 -420q-180 0 -330 60v160z" />
<glyph unicode="&#xe018;" horiz-adv-x="1265" d="M120 520q0 506 658 853l96 -127q-342 -176 -494 -389q111 43 266 43q504 0 504 -440q0 -470 -523 -470q-507 0 -507 530zM295 526q0 -386 341 -386q333 0 333 320q0 290 -332 290q-184 0 -314 -48q-28 -40 -28 -176z" />
<glyph unicode="&#xe019;" horiz-adv-x="1060" d="M40 900v150h930v-150l-612 -1180h-211l632 1180h-739z" />
<glyph unicode="&#xe020;" horiz-adv-x="1250" d="M115 374q0 223 252 331q-212 95 -212 303q0 336 470 336t470 -336q0 -208 -217 -303q257 -108 257 -331q0 -384 -510 -384t-510 384zM300 378q0 -238 330 -238q320 0 320 238q0 242 -333 242q-317 0 -317 -242zM340 1008q0 -238 290 -238q280 0 280 238q0 182 -293 182 q-277 0 -277 -182z" />
<glyph unicode="&#xe021;" horiz-adv-x="1265" d="M115 588q0 470 523 470q507 0 507 -530q0 -506 -658 -853l-96 127q342 176 494 389q-111 -43 -266 -43q-504 0 -504 440zM296 588q0 -290 332 -290q184 0 314 48q28 40 28 176q0 386 -341 386q-333 0 -333 -320z" />
<glyph unicode="&#xe022;" horiz-adv-x="1130" d="M90 -140q214 -110 457 -110q323 0 323 155q0 95 -149 95h-363q-243 0 -243 184q0 124 120 227q-125 89 -125 267q0 372 447 372q133 0 230 -50l146 50h157v-150h-186q84 -79 85 -213q0 -372 -445 -372q-72 0 -184 30q-75 -63 -75 -124q0 -71 89 -71h344q337 0 337 -245 q0 -305 -512 -305q-242 0 -453 90v170zM295 685q0 -215 257 -215q252 0 252 215t-252 215q-257 0 -257 -215z" />
<glyph unicode="&#xe023;" horiz-adv-x="1130" d="M90 -140q214 -110 457 -110q323 0 323 155q0 95 -149 95h-363q-243 0 -243 184q0 124 120 227q-125 89 -125 267q0 372 447 372q133 0 230 -50l146 50h157v-150h-186q84 -79 85 -213q0 -372 -445 -372q-72 0 -184 30q-75 -63 -75 -124q0 -71 89 -71h344q337 0 337 -245 q0 -305 -512 -305q-242 0 -453 90v170zM295 685q0 -215 257 -215q252 0 252 215t-252 215q-257 0 -257 -215zM308 1170l175 260h150l175 -260h-150l-100 160l-100 -160h-150z" />
<glyph unicode="&#xe024;" horiz-adv-x="1130" d="M90 -140q214 -110 457 -110q323 0 323 155q0 95 -149 95h-363q-243 0 -243 184q0 124 120 227q-125 89 -125 267q0 372 447 372q133 0 230 -50l146 50h157v-150h-186q84 -79 85 -213q0 -372 -445 -372q-72 0 -184 30q-75 -63 -75 -124q0 -71 89 -71h344q337 0 337 -245 q0 -305 -512 -305q-242 0 -453 90v170zM285 1430h135q0 -150 130 -150t130 150h135q0 -260 -265 -260t-265 260zM295 685q0 -215 257 -215q252 0 252 215t-252 215q-257 0 -257 -215z" />
<glyph unicode="&#xe025;" horiz-adv-x="1130" d="M90 -140q214 -110 457 -110q323 0 323 155q0 95 -149 95h-363q-243 0 -243 184q0 124 120 227q-125 89 -125 267q0 372 447 372q133 0 230 -50l146 50h157v-150h-186q84 -79 85 -213q0 -372 -445 -372q-72 0 -184 30q-75 -63 -75 -124q0 -71 89 -71h344q337 0 337 -245 q0 -305 -512 -305q-242 0 -453 90v170zM295 685q0 -215 257 -215q252 0 252 215t-252 215q-257 0 -257 -215zM442 1240v190h205v-190h-205z" />
<glyph unicode="&#xe026;" horiz-adv-x="1130" d="M90 -140q214 -110 457 -110q323 0 323 155q0 95 -149 95h-363q-243 0 -243 184q0 124 120 227q-125 89 -125 267q0 372 447 372q133 0 230 -50l146 50h157v-150h-186q84 -79 85 -213q0 -372 -445 -372q-72 0 -184 30q-75 -63 -75 -124q0 -71 89 -71h344q337 0 337 -245 q0 -305 -512 -305q-242 0 -453 90v170zM295 685q0 -215 257 -215q252 0 252 215t-252 215q-257 0 -257 -215zM429 1150l150 280h185l-150 -280h-185z" />
<glyph unicode="&#xe027;" horiz-adv-x="1082" d="M150 0v1430h185v-1430h-185zM451 505v103l397 442h228l-456 -489l462 -561h-237z" />
<glyph unicode="&#xe028;" horiz-adv-x="1082" d="M150 0v1430h185v-1430h-185zM356 -380l150 280h185l-150 -280h-185zM451 505v103l397 442h228l-456 -489l462 -561h-237z" />
<glyph unicode="&#xe029;" horiz-adv-x="1541" d="M170 0v910q0 540 665 540q233 0 565 -80v-130l-436 -433q477 -5 477 -387q0 -422 -494 -422q-176 0 -332 70v160q157 -80 334 -80q297 0 297 272q0 251 -345 252h-136v128l438 460q-184 40 -368 40q-480 0 -480 -380v-920h-185z" />
<glyph unicode="&#xf000;" horiz-adv-x="1724" d="M100 716l69 67l-55 82l82 54l-37 88l89 37l-19 94l94 19v96h97l19 96l95 -19l37 89l89 -37l53 80l81 -53l68 67l68 -67l81 53l53 -80l89 37l37 -89l94 19l20 -96h97v-96l94 -19l-19 -94l89 -37l-36 -90l81 -52l-54 -82l68 -67l-69 -69l55 -82l-82 -52l37 -90l-89 -37 l19 -94l-94 -19v-96h-97l-20 -96l-94 19l-37 -89l-89 37l-53 -80l-81 53l-68 -67l-68 67l-81 -53l-53 80l-89 -37l-37 89l-95 -19l-19 96h-97v96l-95 19l19 94l-90 39l37 88l-80 53l55 81zM230 716q0 -263 185 -448t447 -185t447 185t185 448q0 261 -185 446t-447 185 t-447 -185t-185 -446zM285 716q0 238 169 407.5t408 169.5t408 -169.5t169 -407.5q0 -240 -169 -409.5t-408 -169.5t-408 169.5t-169 409.5zM495 587h114l51 400h136v-540l-253 -13v-102h638v102l-253 13v540h135l51 -400h115l-38 511h-249l-80 -43l-79 43h-250z" />
</font>
</defs>
</svg>
