<?xml version="1.0" standalone="no"?>
<!DOCTYPE svg PUBLIC "-//W3C//DTD SVG 1.1//EN" "http://www.w3.org/Graphics/SVG/1.1/DTD/svg11.dtd" >
<svg xmlns="http://www.w3.org/2000/svg">
<metadata>
This is a custom SVG webfont generated by Font Squirrel.
Copyright   :  2011 Bernd Montag
Designer    : Bernd Montag
</metadata>
<defs>
<font id="SansationLightLightItalic" horiz-adv-x="1165" >
<font-face units-per-em="2048" ascent="1638" descent="-410" />
<missing-glyph horiz-adv-x="500" />
<glyph unicode="ffi" horiz-adv-x="1050" d="M0 1050h1050v-1050h-1050v1050z" />
<glyph unicode="ffl" horiz-adv-x="1637" d="M-168 -303q142 85 202 383l206 1031q76 381 408 381q99 0 181 -40l-18 -90q-76 40 -182 40q-226 0 -283 -283l-13 -69h491l14 71q76 381 488 381q169 0 295 -70l-286 -1432h-105l275 1378q-72 34 -198 34q-306 0 -363 -283l-15 -79h315l-16 -80h-314l-178 -890 q-64 -318 -245 -448l-62 65q141 85 201 383l178 890h-491l-178 -890q-64 -318 -245 -448z" />
<glyph unicode="ff" horiz-adv-x="1209" d="M-168 -303q142 85 202 383l204 1021q76 381 408 381q99 0 181 -40l-18 -90q-76 40 -182 40q-226 0 -283 -283l-11 -59h492l10 51q76 381 448 381q129 0 226 -40l-18 -90q-91 40 -227 40q-266 0 -325 -293l-9 -49h395l-16 -80h-395l-178 -890q-64 -318 -245 -448l-62 65 q142 85 202 383l178 890h-492l-178 -890q-64 -318 -245 -448z" />
<glyph unicode="fj" horiz-adv-x="1021" d="M-168 -303q142 85 202 383l208 1041q76 381 468 381q149 0 265 -70l-18 -90q-110 70 -266 70q-286 0 -343 -283l-15 -79h586l-194 -970q-64 -318 -245 -448l-62 65q142 85 202 383l178 890h-481l-178 -890q-64 -318 -245 -448z" />
<glyph unicode="ffj" horiz-adv-x="1618" d="M-168 -303q142 85 202 383l206 1031q76 381 408 381q99 0 181 -40l-18 -90q-76 40 -182 40q-226 0 -283 -283l-13 -69h491l14 71q77 381 469 381q149 0 265 -70l-18 -90q-110 70 -266 70q-286 0 -343 -283l-15 -79h586l-194 -970q-64 -318 -245 -448l-62 65 q142 85 202 383l178 890h-481l-178 -890q-64 -318 -245 -448l-62 65q141 85 201 383l178 890h-491l-178 -890q-64 -318 -245 -448z" />
<glyph unicode="fb" horiz-adv-x="1744" d="M-168 -303q142 85 202 383l208 1041q76 381 488 381q169 0 295 -70l-126 -632q249 250 465 250q338 0 239 -494q-111 -556 -554 -556q-226 0 -407 43l267 1335q-72 34 -198 34q-306 0 -363 -283l-15 -79h315l-18 -90h-315l-176 -880q-64 -318 -245 -448zM763 123 q165 -29 295 -29q350 0 444 469q78 387 -169 387q-214 0 -455 -254z" />
<glyph unicode="ffb" horiz-adv-x="2340" d="M-168 -303q142 85 202 383l206 1031q76 381 408 381q99 0 181 -40l-18 -90q-76 40 -182 40q-226 0 -283 -283l-13 -69h491l14 71q76 381 488 381q169 0 295 -70l-126 -632q249 250 465 250q338 0 239 -494q-111 -556 -554 -556q-226 0 -407 43l267 1335q-72 34 -198 34 q-306 0 -363 -283l-15 -79h315l-16 -80h-314l-178 -890q-64 -318 -245 -448l-62 65q141 85 201 383l178 890h-491l-178 -890q-64 -318 -245 -448zM1359 123q165 -29 295 -29q350 0 444 469q78 387 -169 387q-214 0 -455 -254z" />
<glyph unicode="fh" horiz-adv-x="1781" d="M-168 -303q142 85 202 383l208 1041q76 381 488 381q169 0 295 -70l-139 -696q247 314 510 314q293 0 232 -305l-149 -745h-105l149 745q42 211 -151 211q-259 0 -509 -333l-124 -623h-105l275 1378q-72 34 -198 34q-306 0 -363 -283l-15 -79h315l-18 -90h-315l-176 -880 q-64 -318 -245 -448z" />
<glyph unicode="ffh" horiz-adv-x="2377" d="M-168 -303q142 85 202 383l206 1031q76 381 408 381q99 0 181 -40l-18 -90q-76 40 -182 40q-226 0 -283 -283l-13 -69h491l14 71q76 381 488 381q169 0 295 -70l-139 -696q247 314 510 314q293 0 232 -305l-149 -745h-105l149 745q42 211 -151 211q-259 0 -509 -333 l-124 -623h-105l275 1378q-72 34 -198 34q-306 0 -363 -283l-15 -79h315l-16 -80h-314l-178 -890q-64 -318 -245 -448l-62 65q141 85 201 383l178 890h-491l-178 -890q-64 -318 -245 -448z" />
<glyph unicode="fk" horiz-adv-x="1737" d="M-168 -303q142 85 202 383l208 1041q76 381 488 381q169 0 295 -70l-133 -664q250 282 520 282q292 0 237 -273q-46 -230 -423 -364l294 -413h-129l-265 395l12 63q364 111 404 310q39 192 -171 192q-243 0 -499 -294l-133 -666h-105l275 1378q-72 34 -198 34 q-306 0 -363 -283l-15 -79h315l-18 -90h-315l-176 -880q-64 -318 -245 -448z" />
<glyph unicode="ffk" horiz-adv-x="2333" d="M-168 -303q142 85 202 383l206 1031q76 381 408 381q99 0 181 -40l-18 -90q-76 40 -182 40q-226 0 -283 -283l-13 -69h491l14 71q76 381 488 381q169 0 295 -70l-133 -664q250 282 520 282q292 0 237 -273q-46 -230 -423 -364l294 -413h-129l-265 395l12 63 q364 111 404 310q39 192 -171 192q-243 0 -499 -294l-133 -666h-105l275 1378q-72 34 -198 34q-306 0 -363 -283l-15 -79h315l-16 -80h-314l-178 -890q-64 -318 -245 -448l-62 65q142 85 202 383l24 120h-1l154 770h-491l-178 -890q-64 -318 -245 -448z" />
<glyph unicode="&#xfb01;" horiz-adv-x="1021" d="M-168 -303q142 85 202 383l208 1041q76 381 468 381q149 0 265 -70l-18 -90q-110 70 -266 70q-286 0 -343 -283l-15 -79h586l-210 -1050h-105l194 970h-481l-178 -890q-64 -318 -245 -448z" />
<glyph unicode="&#xfb02;" horiz-adv-x="1041" d="M-168 -303q142 85 202 383l208 1041q76 381 488 381q169 0 295 -70l-286 -1432h-105l275 1378q-72 34 -198 34q-306 0 -363 -283l-15 -79h315l-18 -90h-315l-176 -880q-64 -318 -245 -448z" />
<glyph unicode=" "  horiz-adv-x="500" />
<glyph unicode="&#x09;" horiz-adv-x="500" />
<glyph unicode="&#xa0;" horiz-adv-x="500" />
<glyph unicode="!" horiz-adv-x="425" d="M18 0l21 105h105l-21 -105h-105zM92 370l212 1060h105l-212 -1060h-105z" />
<glyph unicode="&#x22;" horiz-adv-x="625" d="M197 995l57 435h115l-117 -435h-55zM487 995l57 435h115l-117 -435h-55z" />
<glyph unicode="#" horiz-adv-x="1903" d="M43 374l39 94h392l196 438h-401l39 94h402l195 425h100l-195 -425h458l198 430h100l-197 -430h482l-39 -94h-482l-196 -438h491l-39 -94h-492l-176 -379h-100l176 379h-458l-176 -379h-100l175 379h-392zM575 468h457l197 438h-457z" />
<glyph unicode="$" horiz-adv-x="1030" d="M46 240l20 100q163 -60 332 -60q331 0 373 210q34 170 -211 170h-130q-330 0 -274 280q55 276 429 298l38 192h95l-38 -190q154 -4 306 -50l-20 -100q-163 60 -331 60q-332 0 -374 -210q-36 -180 189 -180h130q350 0 296 -270q-53 -267 -405 -296l-39 -194h-95l38 190 q-167 1 -329 50z" />
<glyph unicode="%" horiz-adv-x="1362" d="M-32 0l1303 1430h125l-1303 -1430h-125zM204 1180q52 260 330 260q274 0 222 -260q-52 -259 -326 -259q-278 0 -226 259zM304 1182q-35 -177 143 -177q174 0 209 177q35 174 -139 174q-178 0 -213 -174zM608 249q52 260 330 260q274 0 222 -260q-52 -259 -326 -259 q-278 0 -226 259zM708 251q-35 -177 143 -177q174 0 209 177q35 174 -139 174q-178 0 -213 -174z" />
<glyph unicode="&#x26;" horiz-adv-x="1295" d="M46 394q50 247 290 333q-210 65 -159 318q77 385 587 385q185 0 350 -50l-18 -90q-175 50 -347 50q-408 0 -466 -290q-56 -280 279 -280h468l34 172h73l-12 -172h172l-18 -90h-162l-38 -190q-99 -493 -617 -493q-495 0 -416 397zM152 399q-61 -309 320 -309 q422 0 502 402l38 188h-466q-337 0 -394 -281z" />
<glyph unicode="'" horiz-adv-x="335" d="M197 995l57 435h115l-117 -435h-55z" />
<glyph unicode="(" horiz-adv-x="525" d="M73 525q90 453 381 905h105q-291 -452 -381 -905q-91 -453 19 -905h-105q-110 452 -19 905z" />
<glyph unicode=")" horiz-adv-x="525" d="M-108 -380q290 452 381 905t-19 905h105q110 -452 19 -905t-381 -905h-105z" />
<glyph unicode="*" horiz-adv-x="830" d="M198 1150l78 150l190 -103l16 233h156l-76 -232l229 101l18 -147l-236 -43l125 -170l-142 -92l-72 205l-153 -204l-107 89l196 171z" />
<glyph unicode="+" horiz-adv-x="970" d="M64 480l18 90h330l66 330h100l-66 -330h320l-18 -90h-320l-66 -330h-100l66 330h-330z" />
<glyph unicode="," horiz-adv-x="305" d="M-167 -250l237 435h105l-237 -435h-105z" />
<glyph unicode="-" horiz-adv-x="720" d="M64 480l18 90h500l-18 -90h-500z" />
<glyph unicode="." horiz-adv-x="355" d="M-32 0l25 125h135l-25 -125h-135z" />
<glyph unicode="/" horiz-adv-x="985" d="M-107 0l1011 1430h115l-1011 -1430h-115z" />
<glyph unicode="0" horiz-adv-x="1445" d="M111 713q145 727 763 727q607 0 462 -727q-145 -723 -752 -723q-586 0 -473 723zM227 719q-128 -639 375 -639q492 0 620 639q126 631 -366 631q-503 0 -629 -631z" />
<glyph unicode="1" horiz-adv-x="605" d="M118 0l262 1311h-150l12 59l269 70l-288 -1440h-105z" />
<glyph unicode="2" horiz-adv-x="1230" d="M-32 0l18 90q996 607 1061 930q66 330 -354 330q-220 0 -437 -110l20 100q215 100 435 100q525 0 441 -420q-74 -370 -1010 -930h824l-18 -90h-980z" />
<glyph unicode="3" horiz-adv-x="1160" d="M-22 50l20 100q186 -70 386 -70q410 0 474 320q56 280 -276 280h-328l18 90h325q335 0 391 280q60 300 -350 300q-200 0 -414 -70l20 100q212 60 412 60q515 0 437 -390q-51 -256 -303 -325q225 -65 173 -325q-82 -410 -597 -410q-200 0 -388 60z" />
<glyph unicode="4" horiz-adv-x="1220" d="M-14 340l18 90l825 1000h114l-826 -1000h709l114 568h105l-114 -568l151 -36l-11 -54h-158l-68 -340h-105l68 340h-822z" />
<glyph unicode="5" horiz-adv-x="1145" d="M-17 50l20 100q186 -70 396 -70q415 0 487 360q62 310 -343 310q-225 0 -430 -50l196 730h824l-18 -90h-736l-138 -522q191 22 320 22q510 0 430 -400q-90 -450 -620 -450q-200 0 -388 60z" />
<glyph unicode="6" horiz-adv-x="1250" d="M78 550q111 556 843 923l30 -77q-491 -263 -652 -539q194 63 369 63q524 0 434 -450q-96 -480 -609 -480q-527 0 -415 560zM174 556q-95 -476 346 -476q403 0 481 390q72 360 -350 360q-214 0 -398 -68q-52 -70 -79 -206z" />
<glyph unicode="7" horiz-adv-x="1135" d="M155 0l940 1340h-859l18 90h970l-18 -90l-930 -1340h-121z" />
<glyph unicode="8" horiz-adv-x="1260" d="M53 424q48 243 316 321q-195 85 -145 333q73 366 553 366t407 -366q-50 -248 -284 -333q241 -78 193 -321q-87 -434 -607 -434t-433 434zM157 418q-68 -338 352 -338q410 0 478 338q56 282 -367 282q-407 0 -463 -282zM325 1058q-54 -268 326 -268q370 0 424 268 q58 292 -325 292q-367 0 -425 -292z" />
<glyph unicode="9" horiz-adv-x="1210" d="M161 963q96 480 609 480q527 0 415 -560q-111 -556 -843 -923l-40 77q501 263 662 539q-194 -63 -369 -63q-524 0 -434 450zM262 963q-72 -360 350 -360q214 0 398 68q52 70 79 206q95 476 -346 476q-403 0 -481 -390z" />
<glyph unicode=":" horiz-adv-x="395" d="M8 0l25 125h135l-25 -125h-135zM193 925l25 125h135l-25 -125h-135z" />
<glyph unicode=";" horiz-adv-x="545" d="M-82 -250l237 435h105l-237 -435h-105zM293 925l25 125h135l-25 -125h-135z" />
<glyph unicode="&#x3c;" horiz-adv-x="1120" d="M62 470l22 110l984 420l-22 -110l-887 -369l741 -361l-22 -110z" />
<glyph unicode="=" horiz-adv-x="970" d="M34 330l18 90h750l-18 -90h-750zM94 630l18 90h750l-18 -90h-750z" />
<glyph unicode="&#x3e;" horiz-adv-x="1120" d="M-22 50l22 110l885 361l-739 369l22 110l816 -420l-22 -110z" />
<glyph unicode="?" horiz-adv-x="1135" d="M158 0l21 105h105l-21 -105h-105zM226 1290l18 90q220 50 410 50q515 0 437 -390t-575 -390h-123l-56 -280h-105l74 370h225q395 0 455 300t-350 300q-190 0 -410 -50z" />
<glyph unicode="@" horiz-adv-x="2170" d="M126 540q180 900 1104 900q926 0 746 -900q-138 -690 -525 -690q-248 0 -203 224l35 176q-208 -250 -444 -250q-358 0 -254 521q106 529 591 529q213 0 363 -43l-183 -919q-30 -148 110 -148q285 0 405 600q162 810 -644 810q-834 0 -996 -810q-166 -830 599 -830 l-18 -90q-870 0 -686 920zM688 523q-85 -423 172 -423q244 0 444 254l115 578q-130 24 -270 24q-375 0 -461 -433z" />
<glyph unicode="A" horiz-adv-x="1492" d="M-107 0l933 1430h125l364 -1430h-118l-116 480h-601l49 90h531l-187 778l-861 -1348h-119z" />
<glyph unicode="B" horiz-adv-x="1330" d="M18 0l286 1430h610q350 0 350 -246q0 -40 -9 -87q-48 -244 -365 -349q256 -45 256 -253q0 -38 -9 -82q-83 -413 -530 -413h-589zM141 90h473q346 0 410 320q7 33 7 62q0 221 -383 221h-80l14 71q509 45 565 326q7 35 7 65q0 185 -265 185h-498z" />
<glyph unicode="C" horiz-adv-x="1405" d="M115 735q141 705 891 705q205 0 388 -60l-18 -90q-183 60 -368 60q-665 0 -788 -615q-22 -108 -22 -198q0 -457 556 -457q185 0 392 60l-18 -90q-207 -60 -412 -60q-626 0 -626 519q0 103 25 226z" />
<glyph unicode="D" horiz-adv-x="1470" d="M18 0l286 1430h510q587 0 587 -475q0 -92 -22 -201q-151 -754 -861 -754h-500zM141 90h395q595 0 728 664q19 96 19 177q0 409 -497 409h-395z" />
<glyph unicode="E" horiz-adv-x="1248" d="M18 0l286 1430h939l-18 -90h-834l-114 -570h800l-18 -90h-800l-118 -590h848l-18 -90h-953z" />
<glyph unicode="F" horiz-adv-x="1174" d="M18 0l286 1430h939l-18 -90h-834l-114 -570h800l-18 -90h-800l-136 -680h-105z" />
<glyph unicode="G" horiz-adv-x="1405" d="M115 735q141 705 891 705q205 0 388 -60l-18 -90q-183 60 -368 60q-665 0 -788 -615q-22 -110 -22 -202q0 -453 537 -453q132 0 303 44l105 526h105l-119 -594q-196 -66 -396 -66q-642 0 -642 522q0 102 24 223z" />
<glyph unicode="H" horiz-adv-x="1505" d="M18 0l286 1430h105l-132 -660h975l132 660h105l-286 -1430h-105l136 680h-975l-136 -680h-105z" />
<glyph unicode="I" horiz-adv-x="525" d="M68 0l286 1430h105l-286 -1430h-105z" />
<glyph unicode="J" horiz-adv-x="650" d="M-107 0l18 90q350 0 414 322l204 1018h105l-204 -1018q-82 -412 -537 -412z" />
<glyph unicode="K" horiz-adv-x="1325" d="M18 0l286 1430h105l-286 -1430h-105zM448 698l14 72l774 660h154l-833 -701l601 -729h-147z" />
<glyph unicode="L" horiz-adv-x="1143" d="M18 0l286 1430h105l-268 -1340h828l-18 -90h-933z" />
<glyph unicode="M" horiz-adv-x="1770" d="M18 0l286 1430h105l384 -1307l866 1307h95l-286 -1430h-95l247 1237l-815 -1237h-86l-357 1247l-249 -1247h-95z" />
<glyph unicode="N" horiz-adv-x="1505" d="M18 0l286 1430h115l720 -1276l255 1276h95l-286 -1430h-85l-743 1312l-262 -1312h-95z" />
<glyph unicode="O" horiz-adv-x="1645" d="M111 713q145 727 863 727q587 0 587 -501q0 -103 -25 -226q-145 -723 -852 -723q-597 0 -597 500q0 102 24 223zM227 719q-22 -112 -22 -204q0 -435 497 -435q592 0 720 639q22 111 22 202q0 429 -488 429q-603 0 -729 -631z" />
<glyph unicode="P" horiz-adv-x="1263" d="M18 0l286 1430h600q352 0 352 -278q0 -53 -13 -115q-77 -387 -767 -493l1 96q586 79 648 389q10 50 10 91q0 217 -267 217h-478l-267 -1337h-105z" />
<glyph unicode="Q" horiz-adv-x="1645" d="M110 713q146 727 864 727q586 0 586 -499q0 -104 -25 -228q-141 -704 -814 -723q44 -286 342 -290q100 0 186 30l-18 -90q-86 -30 -186 -30q-405 0 -432 382q-527 29 -527 499q0 101 24 222zM226 719q-22 -111 -22 -203q0 -436 498 -436q592 0 719 639q22 111 22 203 q0 428 -487 428q-603 0 -730 -631z" />
<glyph unicode="R" horiz-adv-x="1235" d="M18 0l286 1430h590q329 0 330 -247q0 -44 -11 -96q-64 -318 -505 -421l350 -666h-124l-342 663l14 73q433 63 489 343q8 39 8 72q0 186 -245 186h-468l-267 -1337h-105z" />
<glyph unicode="S" horiz-adv-x="1310" d="M18 50l22 110q209 -80 480 -80q449 0 517 340q7 37 7 68q0 182 -249 182h-294q-338 0 -338 258q0 47 11 102q82 410 667 410q240 0 453 -60l-20 -100q-211 70 -451 70q-480 0 -544 -320q-8 -39 -8 -72q0 -188 250 -188h294q337 0 337 -253q0 -45 -10 -97 q-86 -430 -640 -430q-271 0 -484 60z" />
<glyph unicode="T" horiz-adv-x="1095" d="M136 1340l18 90h1075l-18 -90h-490l-268 -1340h-105l268 1340h-480z" />
<glyph unicode="U" horiz-adv-x="1470" d="M128 552l176 878h105l-176 -878q-16 -79 -15 -144q0 -328 391 -328q470 0 564 472l176 878h105l-176 -878q-112 -562 -687 -562q-481 0 -481 394q0 76 18 168z" />
<glyph unicode="V" horiz-adv-x="1492" d="M179 1430h108l331 -1349l864 1349h119l-913 -1430h-165z" />
<glyph unicode="W" horiz-adv-x="1869" d="M148 0l31 1430h99l-23 -1329l728 1329h105l207 -1342l543 1342h91l-575 -1430h-152l-191 1306l-714 -1306h-149z" />
<glyph unicode="X" horiz-adv-x="1320" d="M-107 0l706 715l-420 715h120l373 -636l627 636h130l-705 -715l419 -715h-119l-373 636l-627 -636h-131z" />
<glyph unicode="Y" horiz-adv-x="1250" d="M179 1430h125l297 -830l643 830h115l-722 -930l-100 -500h-105l100 500z" />
<glyph unicode="Z" horiz-adv-x="1270" d="M-7 0l16 80l1136 1260h-864l18 90h980l-18 -90l-1117 -1250h847l-18 -90h-980z" />
<glyph unicode="[" horiz-adv-x="565" d="M-58 -380l362 1810h370l-18 -90h-275l-326 -1630h275l-18 -90h-370z" />
<glyph unicode="\" horiz-adv-x="975" d="M179 1430h105l439 -1430h-105z" />
<glyph unicode="]" horiz-adv-x="565" d="M-183 -380l18 90h275l326 1630h-275l18 90h370l-362 -1810h-370z" />
<glyph unicode="^" horiz-adv-x="1070" d="M58 700l546 730h150l254 -730h-110l-234 673l-496 -673h-110z" />
<glyph unicode="_" horiz-adv-x="1070" d="M-125 -90l18 90h1000l-18 -90h-1000z" />
<glyph unicode="`" horiz-adv-x="523" d="M244 1430h159l116 -239h-84z" />
<glyph unicode="a" horiz-adv-x="1127" d="M72 521q106 529 591 529q213 0 363 -43l-201 -1007h-85l30 250q-208 -250 -444 -250q-277 0 -277 313q0 91 23 208zM175 523q-21 -105 -21 -184q0 -239 193 -239q244 0 444 254l115 578q-130 24 -270 24q-375 0 -461 -433z" />
<glyph unicode="b" horiz-adv-x="1128" d="M27 43l277 1387h105l-126 -630q249 250 465 250q262 0 262 -297q0 -86 -22 -197q-112 -556 -555 -556q-226 0 -406 43zM148 123q165 -29 295 -29q350 0 444 469q18 92 18 162q0 225 -188 225q-214 0 -454 -254z" />
<glyph unicode="c" horiz-adv-x="970" d="M75 535q103 515 593 515q150 0 274 -30l-18 -90q-134 30 -264 30q-385 0 -470 -425q-19 -93 -19 -167q0 -278 265 -278q180 0 348 140l-20 -100q-156 -130 -356 -130q-354 0 -354 346q0 84 21 189z" />
<glyph unicode="d" horiz-adv-x="1127" d="M72 521q106 529 591 529q146 0 263 -20l80 400h105l-286 -1430h-85l30 250q-208 -250 -444 -250q-277 0 -277 313q0 91 23 208zM175 523q-21 -105 -21 -184q0 -239 193 -239q244 0 444 254l115 578q-130 24 -270 24q-375 0 -461 -433z" />
<glyph unicode="e" horiz-adv-x="1075" d="M75 537q103 513 576 513q334 0 334 -209q0 -30 -7 -65q-57 -284 -427 -284h-380q-14 -71 -14 -129q0 -273 310 -273q209 0 376 140l-20 -100q-165 -130 -374 -130q-393 0 -393 359q0 80 19 178zM190 586h378q267 0 306 193q4 21 4 40q0 143 -245 143q-350 0 -443 -376z " />
<glyph unicode="f" horiz-adv-x="612" d="M-168 -303q142 85 202 383l204 1021q76 381 448 381q129 0 226 -40l-18 -90q-91 40 -227 40q-266 0 -325 -293l-9 -49h395l-18 -90h-395l-176 -880q-64 -318 -245 -448z" />
<glyph unicode="g" horiz-adv-x="1127" d="M-48 -330l18 90q143 -50 336 -50q356 0 414 290l50 250q-208 -250 -444 -250q-277 0 -277 313q0 91 23 208q106 529 591 529q213 0 363 -43l-201 -1007q-76 -380 -539 -380q-194 0 -334 50zM175 523q-21 -105 -21 -184q0 -239 193 -239q244 0 444 254l115 578 q-130 24 -270 24q-375 0 -461 -433z" />
<glyph unicode="h" d="M18 0l286 1430h105l-139 -694q247 314 510 314q243 0 243 -209q0 -44 -11 -96l-149 -745h-105l149 745q8 38 8 69q0 142 -159 142q-259 0 -508 -333l-125 -623h-105z" />
<glyph unicode="i" horiz-adv-x="465" d="M38 0l210 1050h105l-210 -1050h-105zM290 1310l24 120h125l-24 -120h-125z" />
<glyph unicode="j" horiz-adv-x="465" d="M-148 -303q142 85 202 383l194 970h105l-194 -970q-64 -318 -245 -448zM290 1310l24 120h125l-24 -120h-125z" />
<glyph unicode="k" horiz-adv-x="1111" d="M8 0l286 1430h105l-132 -662q249 282 519 282q246 0 246 -193q0 -36 -9 -80q-46 -230 -422 -364l293 -413h-129l-265 395l13 63q364 111 404 310q6 29 6 54q0 138 -178 138q-243 0 -499 -294l-133 -666h-105z" />
<glyph unicode="l" horiz-adv-x="465" d="M38 0l286 1430h105l-286 -1430h-105z" />
<glyph unicode="m" horiz-adv-x="1795" d="M18 0l210 1050h85l-42 -312q204 312 452 312q240 0 239 -208q0 -44 -10 -96q213 304 459 304q238 0 238 -222q0 -51 -13 -113l-143 -715h-105l143 715q10 49 10 88q0 153 -150 153q-258 0 -454 -336l-124 -620h-105l143 715q9 47 9 85q0 156 -157 156q-246 0 -456 -336 l-124 -620h-105z" />
<glyph unicode="n" d="M18 0l210 1050h85l-43 -314q247 314 510 314q243 0 243 -209q0 -44 -11 -96l-149 -745h-105l149 745q8 38 8 69q0 142 -159 142q-259 0 -508 -333l-125 -623h-105z" />
<glyph unicode="o" horiz-adv-x="1160" d="M73 525q107 535 577 535q383 0 383 -355q0 -81 -20 -180q-107 -534 -577 -534q-382 0 -382 356q0 80 19 178zM179 529q-18 -89 -18 -160q0 -289 293 -289q365 0 455 449q17 86 17 155q0 286 -294 286q-365 0 -453 -441z" />
<glyph unicode="p" horiz-adv-x="1128" d="M-58 -380l286 1429h85l-30 -249q249 250 465 250q261 0 261 -296q0 -86 -22 -198q-111 -556 -554 -556q-165 0 -305 23l-81 -403h-105zM148 123q165 -29 295 -29q350 0 444 469q18 92 18 162q0 225 -188 225q-214 0 -455 -254z" />
<glyph unicode="q" horiz-adv-x="1127" d="M72 521q106 529 591 529q213 0 363 -43l-277 -1387h-105l126 630q-208 -250 -444 -250q-277 0 -277 313q0 91 23 208zM175 523q-21 -105 -21 -184q0 -239 193 -239q244 0 444 254l115 578q-130 24 -270 24q-375 0 -461 -433z" />
<glyph unicode="r" horiz-adv-x="685" d="M18 0l210 1050h85l-55 -374q216 374 460 374l-21 -104q-238 0 -457 -363l-117 -583h-105z" />
<glyph unicode="s" horiz-adv-x="1030" d="M8 50l20 100q163 -60 332 -60q331 0 373 210q4 21 4 39q0 131 -215 131h-130q-282 0 -282 205q0 35 8 75q60 300 497 300q168 0 333 -50l-20 -100q-163 60 -331 60q-332 0 -374 -210q-5 -25 -5 -46q0 -134 194 -134h130q303 0 303 -203q0 -31 -7 -67q-60 -300 -496 -300 q-169 0 -334 50z" />
<glyph unicode="t" horiz-adv-x="627" d="M71 283l187 937h64l-15 -170h305l-18 -90h-286l-133 -663q-9 -44 -8 -79q0 -128 119 -128h134l-18 -90h-132q-209 0 -209 189q0 42 10 94z" />
<glyph unicode="u" d="M79 305l149 745h105l-149 -745q-8 -41 -8 -74q0 -137 139 -137q279 0 528 333l125 623h105l-210 -1050h-85l43 314q-247 -314 -530 -314q-223 0 -223 204q0 45 11 101z" />
<glyph unicode="v" horiz-adv-x="1030" d="M78 1050h120l192 -959l578 959h120l-657 -1050h-122z" />
<glyph unicode="w" horiz-adv-x="1675" d="M82 520q61 305 206 530h105q-145 -225 -206 -530q-22 -108 -21 -190q0 -240 190 -240q305 0 397 460l100 500h105l-100 -500q-21 -107 -22 -188q0 -272 235 -272q255 0 341 430q32 160 32 299q0 125 -26 231h105q26 -107 26 -231q0 -138 -32 -299q-104 -520 -464 -520 q-293 0 -293 312q0 13 1 27q-118 -339 -423 -339q-279 0 -279 313q0 90 23 207z" />
<glyph unicode="x" horiz-adv-x="1010" d="M-107 0l513 525l-303 525h120l256 -444l434 444h130l-512 -525l302 -525h-120l-256 444l-434 -444h-130z" />
<glyph unicode="y" d="M-10 -330l18 90q143 -50 336 -50q356 0 414 290l63 314q-247 -314 -530 -314q-223 0 -223 204q0 45 11 101l149 745h105l-149 -745q-8 -41 -8 -74q0 -137 139 -137q279 0 528 333l125 623h105l-210 -1050q-76 -380 -539 -380q-194 0 -334 50z" />
<glyph unicode="z" horiz-adv-x="990" d="M-32 0l18 90l819 870h-625l18 90h750l-18 -90l-821 -870h627l-18 -90h-750z" />
<glyph unicode="{" horiz-adv-x="590" d="M64 480l18 90q210 0 286 382q61 302 226 478h105q-165 -176 -226 -478q-70 -352 -275 -427q175 -75 105 -427q-61 -302 34 -478h-105q-95 176 -34 478q76 382 -134 382z" />
<glyph unicode="|" horiz-adv-x="425" d="M-58 -380l362 1810h105l-362 -1810h-105z" />
<glyph unicode="}" horiz-adv-x="590" d="M-183 -380q165 176 226 478q70 352 275 427q-175 75 -105 427q61 302 -34 478h105q95 -176 34 -478q-76 -382 134 -382l-18 -90q-210 0 -286 -382q-61 -302 -226 -478h-105z" />
<glyph unicode="~" horiz-adv-x="970" d="M60 460l18 90q70 61 174 61q86 0 195 -41q109 -40 199 -40q109 0 190 60l-18 -90q-70 -60 -174 -60q-86 0 -195 40q-109 41 -199 41q-109 0 -190 -61z" />
<glyph unicode="&#xa1;" horiz-adv-x="425" d="M-58 -380l212 1060h105l-212 -1060h-105zM207 945l21 105h105l-21 -105h-105z" />
<glyph unicode="&#xa2;" horiz-adv-x="970" d="M103 726q95 472 514 511l38 193h115l-38 -189q130 -4 238 -30l-18 -90q-134 30 -264 30q-385 0 -470 -425q-89 -445 246 -445q180 0 348 140l-20 -100q-121 -101 -268 -123l-40 -198h-115l39 192q-408 17 -305 534z" />
<glyph unicode="&#xa3;" horiz-adv-x="1237" d="M-38 -30l18 92q201 75 257 351q23 117 -19 291t-13 323q83 413 621 413q290 0 427 -100l-24 -120q-132 130 -418 130q-424 0 -488 -321q-29 -144 3 -259h446l-18 -90h-414q26 -164 6 -264q-27 -137 -123 -298q41 4 85 4q137 0 289 -43q57 -17 117 -17q145 0 303 98 l-22 -110q-137 -84 -301 -84q-94 0 -195 28q-123 32 -240 32q-153 0 -297 -56z" />
<glyph unicode="&#xa4;" horiz-adv-x="1119" d="M-1 153l160 120q-56 103 -27 252q32 157 130 261l-112 120l83 72l97 -141q123 74 277 74t234 -77l152 138l56 -66l-168 -126q61 -107 33 -245q-33 -169 -130 -262l116 -110l-84 -72l-92 133q-134 -80 -279 -80q-144 0 -247 80l-142 -133zM216 529q-61 -306 244 -306 t366 306q61 304 -244 304t-366 -304z" />
<glyph unicode="&#xa5;" horiz-adv-x="1270" d="M114 379l18 90h389l34 171h-389l18 90h347l-327 700h125l310 -661l580 661h135l-633 -700h373l-18 -90h-416l-34 -171h416l-18 -90h-416l-76 -379h-105l76 379h-389z" />
<glyph unicode="&#xa6;" horiz-adv-x="425" d="M-58 -380l146 730h105l-146 -730h-105zM158 700l146 730h104l-146 -730h-104z" />
<glyph unicode="&#xa7;" horiz-adv-x="1070" d="M26 40l20 100q163 -60 352 -60q331 0 371 200q34 170 -241 170h-110q-360 0 -306 270q30 148 203 206q-152 50 -117 224q58 290 515 290q168 0 333 -50l-20 -100q-163 60 -331 60q-352 0 -392 -200q-34 -170 221 -170h110q380 0 327 -267q-32 -160 -208 -214 q152 -62 121 -219q-58 -290 -494 -290q-189 0 -354 50zM216 717q-35 -179 230 -179h110q265 0 298 166q37 187 -228 187h-110q-265 0 -300 -174z" />
<glyph unicode="&#xa8;" horiz-adv-x="635" d="M204 1280l26 130h135l-26 -130h-135zM524 1280l26 130h135l-26 -130h-135z" />
<glyph unicode="&#xa9;" horiz-adv-x="1785" d="M153 723q143 717 891 717q737 0 594 -717q-147 -733 -884 -733q-748 0 -601 733zM257 719q-128 -639 495 -639q652 0 780 639q126 631 -506 631q-643 0 -769 -631zM481 728q83 416 499 416q165 0 280 -51l-20 -98q-113 58 -264 58q-325 0 -390 -325q-71 -352 254 -352 q151 0 288 58l-20 -98q-135 -51 -300 -51q-416 0 -327 443z" />
<glyph unicode="&#xaa;" horiz-adv-x="629" d="M190 1161q54 270 307 270q106 0 171 -22l-100 -503h-73l15 125q-84 -125 -202 -125q-169 0 -118 255zM271 1162q-35 -176 69 -176q107 0 186 127l46 229q-25 12 -95 12q-167 0 -206 -192z" />
<glyph unicode="&#xab;" horiz-adv-x="869" d="M73 525l333 375h122l-333 -375l183 -375h-122zM392 525l333 375h122l-333 -375l183 -375h-122z" />
<glyph unicode="&#xac;" horiz-adv-x="1105" d="M160 960l18 90h885l-68 -340h-90l50 250h-795z" />
<glyph unicode="&#xad;" horiz-adv-x="970" d="M64 480l18 90h750l-18 -90h-750z" />
<glyph unicode="&#x2212;" horiz-adv-x="970" d="M64 480l18 90h750l-18 -90h-750z" />
<glyph unicode="&#xae;" horiz-adv-x="1183" d="M223 1023q85 427 515 427q433 0 348 -427q-83 -415 -516 -415q-418 0 -347 415zM296 1025q-72 -361 285 -361q360 0 432 361q74 369 -286 369q-357 0 -431 -369zM424 756l107 536h229q153 0 127 -128q-21 -105 -181 -155l134 -253h-91l-123 241l9 45q159 25 178 119 q14 74 -72 74h-153l-95 -479h-69z" />
<glyph unicode="&#xaf;" horiz-adv-x="700" d="M226 1340l18 90h500l-18 -90h-500z" />
<glyph unicode="&#x2c9;" horiz-adv-x="700" d="M226 1340l18 90h500l-18 -90h-500z" />
<glyph unicode="&#xb0;" horiz-adv-x="772" d="M202 1170q52 260 330 260q274 0 222 -260q-52 -259 -326 -259q-278 0 -226 259zM292 1172q-37 -187 151 -187q184 0 221 187q37 184 -147 184q-188 0 -225 -184z" />
<glyph unicode="&#xb1;" horiz-adv-x="970" d="M-32 0l18 90h750l-18 -90h-750zM94 630l18 90h320l66 330h110l-66 -330h320l-18 -90h-320l-66 -330h-110l66 330h-320z" />
<glyph unicode="&#xb2;" horiz-adv-x="610" d="M60 710l19 95q438 253 468 405q25 125 -135 125q-110 0 -218 -55l20 100q107 50 217 50q263 0 219 -220q-35 -175 -418 -405h337l-19 -95h-490z" />
<glyph unicode="&#xb3;" horiz-adv-x="598" d="M65 736l20 100q93 -36 193 -36q176 0 200 120q21 106 -115 106h-164l19 94h162q138 0 159 106q22 110 -154 110q-100 0 -207 -36l20 100q106 30 206 30q278 0 237 -204q-22 -108 -125 -153q86 -43 64 -153q-43 -214 -321 -214q-100 0 -194 30z" />
<glyph unicode="&#xb4;" horiz-adv-x="523" d="M196 1191l212 239h159l-287 -239h-84z" />
<glyph unicode="&#xb5;" d="M-58 -380l286 1430h105l-149 -745q-42 -211 131 -211q279 0 528 333l125 623h105l-210 -1050h-85l43 314q-247 -314 -500 -314q-134 0 -180 93l-94 -473h-105z" />
<glyph unicode="&#x3bc;" d="M-58 -380l286 1430h105l-149 -745q-42 -211 131 -211q279 0 528 333l125 623h105l-210 -1050h-85l43 314q-247 -314 -500 -314q-134 0 -180 93l-94 -473h-105z" />
<glyph unicode="&#xb6;" horiz-adv-x="973" d="M66 986q88 444 531 444h510l-18 -90h-150l-354 -1774h-100l354 1774h-160l-354 -1774h-100l194 972q-443 0 -353 448z" />
<glyph unicode="&#xb7;" horiz-adv-x="430" d="M83 525q19 95 114 95t76 -95t-114 -95t-76 95z" />
<glyph unicode="&#x2219;" horiz-adv-x="430" d="M83 525q19 95 114 95t76 -95t-114 -95t-76 95z" />
<glyph unicode="&#xb8;" horiz-adv-x="657" d="M-116 -372l18 88q96 -60 204 -60q148 0 167 95q18 94 -105 94h-153l177 230h95l-111 -152q224 0 190 -172q-35 -173 -276 -173q-108 0 -206 50z" />
<glyph unicode="&#xb9;" horiz-adv-x="348" d="M136 710l120 601h-76l11 55l190 60l-143 -716h-102z" />
<glyph unicode="&#xba;" horiz-adv-x="680" d="M191 1168q53 262 293 262t187 -262q-52 -262 -292 -262q-238 0 -188 262zM275 1170q-38 -190 119 -190q158 0 196 190q37 186 -121 186q-157 0 -194 -186z" />
<glyph unicode="&#xbb;" horiz-adv-x="869" d="M-52 150l333 375l-183 375h122l183 -375l-333 -375h-122zM267 150l333 375l-183 375h122l183 -375l-333 -375h-122z" />
<glyph unicode="&#xbc;" horiz-adv-x="1469" d="M-32 0l1231 1430h125l-1231 -1430h-125zM239 710l120 601h-76l11 55l190 60l-143 -716h-102zM745 26l20 100q93 -36 193 -36q174 0 198 120q21 106 -115 106h-164l19 94h163q137 0 158 106q22 110 -152 110q-100 0 -207 -36l20 100q106 30 206 30q277 0 236 -204 q-21 -108 -124 -153q85 -43 63 -153q-43 -214 -320 -214q-100 0 -194 30z" />
<glyph unicode="&#xbd;" horiz-adv-x="1462" d="M-32 0l1231 1430h125l-1231 -1430h-125zM239 710l120 601h-76l11 55l190 60l-143 -716h-102zM720 0l19 95q439 253 469 405q25 125 -135 125q-110 0 -219 -55l20 100q108 50 218 50q262 0 218 -220q-35 -175 -419 -405h338l-19 -95h-490z" />
<glyph unicode="&#xbe;" horiz-adv-x="1510" d="M59 0l1231 1430h125l-1231 -1430h-125zM115 736l20 100q93 -36 193 -36q174 0 198 120q21 106 -115 106h-164l19 94h163q137 0 158 106q22 110 -152 110q-100 0 -207 -36l20 100q106 30 206 30q277 0 236 -204q-21 -108 -124 -153q85 -43 63 -153q-43 -214 -320 -214 q-100 0 -194 30zM700 150l19 94l332 470h102l-327 -470h255l61 304h102l-61 -304l66 -38l-11 -56h-74l-30 -150h-102l30 150h-362z" />
<glyph unicode="&#xbf;" horiz-adv-x="1135" d="M-30 10q78 390 575 390h123l56 280h105l-74 -370h-225q-395 0 -455 -300t350 -300q190 0 410 50l-18 -90q-220 -50 -410 -50q-515 0 -437 390zM777 945l21 105h105l-21 -105h-105z" />
<glyph unicode="&#xc0;" horiz-adv-x="1492" d="M-107 0l933 1430h125l364 -1430h-118l-116 480h-601l49 90h531l-187 778l-861 -1348h-119zM675 1810h159l116 -239h-84z" />
<glyph unicode="&#xc1;" horiz-adv-x="1492" d="M-107 0l933 1430h125l364 -1430h-118l-116 480h-601l49 90h531l-187 778l-861 -1348h-119zM794 1571l212 239h159l-287 -239h-84z" />
<glyph unicode="&#xc2;" horiz-adv-x="1492" d="M-107 0l933 1430h125l364 -1430h-118l-116 480h-601l49 90h531l-187 778l-861 -1348h-119zM648 1550l247 260h110l143 -260h-100l-113 194l-187 -194h-100z" />
<glyph unicode="&#xc3;" horiz-adv-x="1492" d="M-107 0l933 1430h125l364 -1430h-118l-116 480h-601l49 90h531l-187 778l-861 -1348h-119zM673 1674l18 90q69 46 139 46q52 0 105 -26t109 -26q75 0 155 46l-18 -90q-69 -46 -139 -46q-52 0 -105 26t-109 26q-75 0 -155 -46z" />
<glyph unicode="&#xc4;" horiz-adv-x="1492" d="M-107 0l933 1430h125l364 -1430h-118l-116 480h-601l49 90h531l-187 778l-861 -1348h-119zM693 1660l26 130h135l-26 -130h-135zM1013 1660l26 130h135l-26 -130h-135z" />
<glyph unicode="&#xc5;" horiz-adv-x="1492" d="M-107 0l929 1424q-144 28 -111 193q40 200 258 200q214 0 174 -200q-33 -168 -190 -194l362 -1423h-115l-116 480h-601l49 90h531l-187 778l-861 -1348h-122zM792 1619q-28 -137 110 -137q134 0 162 137q27 134 -107 134q-138 0 -165 -134z" />
<glyph unicode="&#xc6;" horiz-adv-x="1895" d="M-107 0l893 1430h1098l-18 -90h-918l126 -570h643l-18 -90h-604l138 -590h403l-18 -90h-491l-286 1353l-460 -783h471l10 -90h-557l-283 -480h-129z" />
<glyph unicode="&#xc7;" horiz-adv-x="1405" d="M115 735q141 705 891 705q205 0 388 -60l-18 -90q-183 60 -368 60q-665 0 -788 -615q-131 -655 534 -655q185 0 392 60l-18 -90q-202 -59 -402 -60l-49 -67q224 0 189 -172q-34 -173 -275 -173q-108 0 -206 50l17 88q96 -60 204 -60q148 0 167 95q19 94 -104 94h-153 l114 148q-655 41 -515 742z" />
<glyph unicode="&#xc8;" horiz-adv-x="1248" d="M18 0l286 1430h939l-18 -90h-834l-114 -570h800l-18 -90h-800l-118 -590h848l-18 -90h-953zM625 1810h159l116 -239h-84z" />
<glyph unicode="&#xc9;" horiz-adv-x="1248" d="M18 0l286 1430h939l-18 -90h-834l-114 -570h800l-18 -90h-800l-118 -590h848l-18 -90h-953zM685 1571l212 239h159l-287 -239h-84z" />
<glyph unicode="&#xca;" horiz-adv-x="1248" d="M18 0l286 1430h939l-18 -90h-834l-114 -570h800l-18 -90h-800l-118 -590h848l-18 -90h-953zM539 1550l247 260h110l143 -260h-100l-113 194l-187 -194h-100z" />
<glyph unicode="&#xcb;" horiz-adv-x="1248" d="M18 0l286 1430h939l-18 -90h-834l-114 -570h800l-18 -90h-800l-118 -590h848l-18 -90h-953zM583 1660l26 130h135l-26 -130h-135zM903 1660l26 130h135l-26 -130h-135z" />
<glyph unicode="&#xcc;" horiz-adv-x="525" d="M68 0l286 1430h105l-286 -1430h-105zM211 1810h159l116 -239h-84z" />
<glyph unicode="&#xcd;" horiz-adv-x="525" d="M68 0l286 1430h105l-286 -1430h-105zM351 1571l212 239h159l-287 -239h-84z" />
<glyph unicode="&#xce;" horiz-adv-x="525" d="M69 0l286 1430h105l-286 -1430h-105zM185 1550l247 260h110l143 -260h-100l-113 194l-187 -194h-100z" />
<glyph unicode="&#xcf;" horiz-adv-x="525" d="M78 0l286 1430h105l-286 -1430h-105zM229 1660l26 130h135l-26 -130h-135zM549 1660l26 130h135l-26 -130h-135z" />
<glyph unicode="&#xd0;" horiz-adv-x="1470" d="M-46 680l18 90h200l132 660h510q700 0 565 -676q-151 -754 -861 -754h-500l136 680h-200zM141 90h395q595 0 728 664q117 586 -478 586h-395l-114 -570h445l-18 -90h-445z" />
<glyph unicode="&#xd1;" horiz-adv-x="1505" d="M18 0l286 1430h115l720 -1276l255 1276h95l-286 -1430h-85l-743 1312l-262 -1312h-95zM680 1674l18 90q69 46 139 46q52 0 105 -26t109 -26q75 0 155 46l-18 -90q-69 -46 -139 -46q-52 0 -105 26t-109 26q-75 0 -155 -46z" />
<glyph unicode="&#xd2;" horiz-adv-x="1645" d="M111 713q145 727 863 727q587 0 587 -501q0 -103 -25 -226q-145 -723 -852 -723q-597 0 -597 500q0 102 24 223zM227 719q-22 -112 -22 -204q0 -435 497 -435q592 0 720 639q22 111 22 202q0 429 -488 429q-603 0 -729 -631zM831 1810h159l116 -239h-84z" />
<glyph unicode="&#xd3;" horiz-adv-x="1645" d="M111 713q145 727 863 727q587 0 587 -501q0 -103 -25 -226q-145 -723 -852 -723q-597 0 -597 500q0 102 24 223zM227 719q-22 -112 -22 -204q0 -435 497 -435q592 0 720 639q22 111 22 202q0 429 -488 429q-603 0 -729 -631zM891 1571l212 239h159l-287 -239h-84z" />
<glyph unicode="&#xd4;" horiz-adv-x="1645" d="M111 713q145 727 863 727q587 0 587 -501q0 -103 -25 -226q-145 -723 -852 -723q-597 0 -597 500q0 102 24 223zM227 719q-22 -112 -22 -204q0 -435 497 -435q592 0 720 639q22 111 22 202q0 429 -488 429q-603 0 -729 -631zM745 1550l247 260h110l143 -260h-100 l-113 194l-187 -194h-100z" />
<glyph unicode="&#xd5;" horiz-adv-x="1645" d="M111 713q145 727 863 727q587 0 587 -501q0 -103 -25 -226q-145 -723 -852 -723q-597 0 -597 500q0 102 24 223zM227 719q-22 -112 -22 -204q0 -435 497 -435q592 0 720 639q22 111 22 202q0 429 -488 429q-603 0 -729 -631zM770 1674l18 90q69 46 139 46q52 0 105 -26 t109 -26q75 0 155 46l-18 -90q-69 -46 -139 -46q-52 0 -105 26t-109 26q-75 0 -155 -46z" />
<glyph unicode="&#xd6;" horiz-adv-x="1645" d="M111 713q145 727 863 727q587 0 587 -501q0 -103 -25 -226q-145 -723 -852 -723q-597 0 -597 500q0 102 24 223zM227 719q-22 -112 -22 -204q0 -435 497 -435q592 0 720 639q22 111 22 202q0 429 -488 429q-603 0 -729 -631zM779 1660l26 130h135l-26 -130h-135z M1099 1660l26 130h135l-26 -130h-135z" />
<glyph unicode="&#xd7;" horiz-adv-x="821" d="M26 292l280 233l-187 233l85 71l187 -233l271 226l51 -64l-271 -226l186 -233l-85 -71l-186 233l-280 -233z" />
<glyph unicode="&#xd8;" horiz-adv-x="1645" d="M66 0l138 145q-171 179 -93 568q145 727 863 727q245 0 388 -87l73 77h138l-134 -139q176 -180 97 -578q-145 -723 -852 -723q-256 0 -402 92l-79 -82h-137zM227 719q-66 -328 61 -487l996 1040q-120 78 -328 78q-603 0 -729 -631zM361 164q122 -84 341 -84 q592 0 720 639q66 329 -64 487z" />
<glyph unicode="&#xd9;" horiz-adv-x="1470" d="M128 552l176 878h105l-176 -878q-16 -79 -15 -144q0 -328 391 -328q470 0 564 472l176 878h105l-176 -878q-112 -562 -687 -562q-481 0 -481 394q0 76 18 168zM724 1810h159l116 -239h-84z" />
<glyph unicode="&#xda;" horiz-adv-x="1470" d="M128 552l176 878h105l-176 -878q-16 -79 -15 -144q0 -328 391 -328q470 0 564 472l176 878h105l-176 -878q-112 -562 -687 -562q-481 0 -481 394q0 76 18 168zM773 1571l212 239h159l-287 -239h-84z" />
<glyph unicode="&#xdb;" horiz-adv-x="1470" d="M128 552l176 878h105l-176 -878q-16 -79 -15 -144q0 -328 391 -328q470 0 564 472l176 878h105l-176 -878q-112 -562 -687 -562q-481 0 -481 394q0 76 18 168zM637 1550l247 260h110l143 -260h-100l-113 194l-187 -194h-100z" />
<glyph unicode="&#xdc;" horiz-adv-x="1470" d="M128 552l176 878h105l-176 -878q-16 -79 -15 -144q0 -328 391 -328q470 0 564 472l176 878h105l-176 -878q-112 -562 -687 -562q-481 0 -481 394q0 76 18 168zM692 1660l26 130h135l-26 -130h-135zM1012 1660l26 130h135l-26 -130h-135z" />
<glyph unicode="&#xdd;" horiz-adv-x="1250" d="M179 1430h125l297 -830l643 830h115l-722 -930l-100 -500h-105l100 500zM673 1571l212 239h159l-287 -239h-84z" />
<glyph unicode="&#xde;" horiz-adv-x="1263" d="M18 0l286 1430h105l-62 -308h505q408 0 340 -343q-78 -387 -665 -479l-11 86q497 85 557 385q52 258 -256 258h-488l-206 -1029h-105z" />
<glyph unicode="&#xdf;" horiz-adv-x="1166" d="M-168 -303q142 85 202 383l175 879q94 468 548 468q400 0 325 -377l-11 -55q-345 -103 -376 -258q-24 -121 157 -192.5t143 -262.5q-56 -282 -430 -282h-202l18 90h204q257 0 295 192q28 141 -149 207.5t-142 244.5q42 208 382 316q57 287 -239 287q-342 0 -418 -381 l-177 -886q-65 -325 -243 -438z" />
<glyph unicode="&#xe0;" horiz-adv-x="1127" d="M72 521q106 529 591 529q213 0 363 -43l-201 -1007h-85l30 250q-208 -250 -444 -250q-277 0 -277 313q0 91 23 208zM175 523q-21 -105 -21 -184q0 -239 193 -239q244 0 444 254l115 578q-130 24 -270 24q-375 0 -461 -433zM517 1430h159l116 -239h-84z" />
<glyph unicode="&#xe1;" horiz-adv-x="1127" d="M72 521q106 529 591 529q213 0 363 -43l-201 -1007h-85l30 250q-208 -250 -444 -250q-277 0 -277 313q0 91 23 208zM175 523q-21 -105 -21 -184q0 -239 193 -239q244 0 444 254l115 578q-130 24 -270 24q-375 0 -461 -433zM577 1191l212 239h159l-287 -239h-84z" />
<glyph unicode="&#xe2;" horiz-adv-x="1127" d="M72 521q106 529 591 529q213 0 363 -43l-201 -1007h-85l30 250q-208 -250 -444 -250q-277 0 -277 313q0 91 23 208zM175 523q-21 -105 -21 -184q0 -239 193 -239q244 0 444 254l115 578q-130 24 -270 24q-375 0 -461 -433zM431 1170l247 260h110l143 -260h-100l-113 194 l-187 -194h-100z" />
<glyph unicode="&#xe3;" horiz-adv-x="1127" d="M72 521q106 529 591 529q213 0 363 -43l-201 -1007h-85l30 250q-208 -250 -444 -250q-277 0 -277 313q0 91 23 208zM175 523q-21 -105 -21 -184q0 -239 193 -239q244 0 444 254l115 578q-130 24 -270 24q-375 0 -461 -433zM456 1294l18 90q69 46 139 46q52 0 105 -26 t109 -26q75 0 155 46l-18 -90q-69 -46 -139 -46q-52 0 -105 26t-109 26q-75 0 -155 -46z" />
<glyph unicode="&#xe4;" horiz-adv-x="1127" d="M72 521q106 529 591 529q213 0 363 -43l-201 -1007h-85l30 250q-208 -250 -444 -250q-277 0 -277 313q0 91 23 208zM175 523q-21 -105 -21 -184q0 -239 193 -239q244 0 444 254l115 578q-130 24 -270 24q-375 0 -461 -433zM475 1280l26 130h135l-26 -130h-135zM795 1280 l26 130h135l-26 -130h-135z" />
<glyph unicode="&#xe5;" horiz-adv-x="1127" d="M72 521q106 529 591 529q213 0 363 -43l-201 -1007h-85l30 250q-208 -250 -444 -250q-277 0 -277 313q0 91 23 208zM175 523q-21 -105 -21 -184q0 -239 193 -239q244 0 444 254l115 578q-130 24 -270 24q-375 0 -461 -433zM503 1361q40 200 258 200q214 0 174 -200 q-40 -199 -254 -199q-218 0 -178 199zM583 1363q-27 -137 111 -137q134 0 161 137q27 134 -107 134q-138 0 -165 -134z" />
<glyph unicode="&#xe6;" horiz-adv-x="1775" d="M17 297q61 303 467 303q147 0 310 -20l28 139q48 241 -255 241q-162 0 -342 -50l18 90q180 50 342 50q296 0 333 -195q131 195 433 195q382 0 327 -274q-57 -284 -427 -284h-380q-80 -402 296 -402q209 0 376 140l-20 -100q-165 -130 -374 -130q-258 0 -335 155 q-256 -155 -501 -155q-355 0 -296 297zM123 300q-42 -210 208 -210q192 0 385 102l60 298q-163 20 -310 20q-301 0 -343 -210zM890 586h378q267 0 306 193q36 183 -241 183q-350 0 -443 -376z" />
<glyph unicode="&#xe7;" horiz-adv-x="970" d="M75 535q103 515 593 515q150 0 274 -30l-18 -90q-134 30 -264 30q-385 0 -470 -425q-89 -445 246 -445q180 0 348 140l-20 -100q-139 -116 -314 -129l-57 -78q224 0 189 -172q-34 -173 -275 -173q-108 0 -206 50l17 88q96 -60 204 -60q148 0 167 95q19 94 -104 94h-153 l121 157q-378 33 -278 533z" />
<glyph unicode="&#xe8;" horiz-adv-x="1075" d="M75 537q103 513 576 513q334 0 334 -209q0 -30 -7 -65q-57 -284 -427 -284h-380q-14 -71 -14 -129q0 -273 310 -273q209 0 376 140l-20 -100q-165 -130 -374 -130q-393 0 -393 359q0 80 19 178zM190 586h378q267 0 306 193q4 21 4 40q0 143 -245 143q-350 0 -443 -376z M516 1430h159l116 -239h-84z" />
<glyph unicode="&#xe9;" horiz-adv-x="1075" d="M75 537q103 513 576 513q334 0 334 -209q0 -30 -7 -65q-57 -284 -427 -284h-380q-14 -71 -14 -129q0 -273 310 -273q209 0 376 140l-20 -100q-165 -130 -374 -130q-393 0 -393 359q0 80 19 178zM190 586h378q267 0 306 193q4 21 4 40q0 143 -245 143q-350 0 -443 -376z M536 1191l212 239h159l-287 -239h-84z" />
<glyph unicode="&#xea;" horiz-adv-x="1075" d="M75 537q103 513 576 513q334 0 334 -209q0 -30 -7 -65q-57 -284 -427 -284h-380q-14 -71 -14 -129q0 -273 310 -273q209 0 376 140l-20 -100q-165 -130 -374 -130q-393 0 -393 359q0 80 19 178zM190 586h378q267 0 306 193q4 21 4 40q0 143 -245 143q-350 0 -443 -376z M390 1170l247 260h110l143 -260h-100l-113 194l-187 -194h-100z" />
<glyph unicode="&#xeb;" horiz-adv-x="1075" d="M75 537q103 513 576 513q334 0 334 -209q0 -30 -7 -65q-57 -284 -427 -284h-380q-14 -71 -14 -129q0 -273 310 -273q209 0 376 140l-20 -100q-165 -130 -374 -130q-393 0 -393 359q0 80 19 178zM190 586h378q267 0 306 193q4 21 4 40q0 143 -245 143q-350 0 -443 -376z M444 1280l26 130h135l-26 -130h-135zM764 1280l26 130h135l-26 -130h-135z" />
<glyph unicode="&#xec;" horiz-adv-x="445" d="M28 0l210 1050h105l-210 -1050h-105zM151 1430h159l116 -239h-84z" />
<glyph unicode="&#xed;" horiz-adv-x="445" d="M28 0l210 1050h105l-210 -1050h-105zM211 1191l212 239h159l-287 -239h-84z" />
<glyph unicode="&#xee;" horiz-adv-x="445" d="M29 0l210 1050h105l-210 -1050h-105zM65 1170l247 260h110l143 -260h-100l-113 194l-187 -194h-100z" />
<glyph unicode="&#xef;" horiz-adv-x="445" d="M38 0l210 1050h105l-210 -1050h-105zM119 1280l26 130h135l-26 -130h-135zM439 1280l26 130h135l-26 -130h-135z" />
<glyph unicode="&#xf0;" horiz-adv-x="1140" d="M76 540q102 510 556 510q207 0 316 -100q-21 186 -116 283l-272 -122l18 89l188 84q-94 56 -234 56h-216l18 90h218q210 0 331 -93l208 93l-18 -89l-132 -59q172 -205 75 -692q-120 -600 -587 -600q-463 0 -353 550zM177 540q-92 -460 271 -460q361 0 462 506 q23 116 33 254q-94 130 -318 130q-362 0 -448 -430z" />
<glyph unicode="&#xf1;" d="M18 0l210 1050h85l-43 -314q247 314 510 314q243 0 243 -209q0 -44 -11 -96l-149 -745h-105l149 745q8 38 8 69q0 142 -159 142q-259 0 -508 -333l-125 -623h-105zM450 1294l18 90q69 46 139 46q52 0 105 -26t109 -26q75 0 155 46l-18 -90q-69 -46 -139 -46 q-52 0 -105 26t-109 26q-75 0 -155 -46z" />
<glyph unicode="&#xf2;" horiz-adv-x="1160" d="M73 525q107 535 577 535q383 0 383 -355q0 -81 -20 -180q-107 -534 -577 -534q-382 0 -382 356q0 80 19 178zM179 529q-18 -89 -18 -160q0 -289 293 -289q365 0 455 449q17 86 17 155q0 286 -294 286q-365 0 -453 -441zM509 1430h159l116 -239h-84z" />
<glyph unicode="&#xf3;" horiz-adv-x="1160" d="M73 525q107 535 577 535q383 0 383 -355q0 -81 -20 -180q-107 -534 -577 -534q-382 0 -382 356q0 80 19 178zM179 529q-18 -89 -18 -160q0 -289 293 -289q365 0 455 449q17 86 17 155q0 286 -294 286q-365 0 -453 -441zM568 1191l212 239h159l-287 -239h-84z" />
<glyph unicode="&#xf4;" horiz-adv-x="1160" d="M73 525q107 535 577 535q383 0 383 -355q0 -81 -20 -180q-107 -534 -577 -534q-382 0 -382 356q0 80 19 178zM179 529q-18 -89 -18 -160q0 -289 293 -289q365 0 455 449q17 86 17 155q0 286 -294 286q-365 0 -453 -441zM422 1170l247 260h110l143 -260h-100l-113 194 l-187 -194h-100z" />
<glyph unicode="&#xf5;" horiz-adv-x="1160" d="M73 525q107 535 577 535q383 0 383 -355q0 -81 -20 -180q-107 -534 -577 -534q-382 0 -382 356q0 80 19 178zM179 529q-18 -89 -18 -160q0 -289 293 -289q365 0 455 449q17 86 17 155q0 286 -294 286q-365 0 -453 -441zM447 1294l18 90q69 46 139 46q52 0 105 -26 t109 -26q75 0 155 46l-18 -90q-69 -46 -139 -46q-52 0 -105 26t-109 26q-75 0 -155 -46z" />
<glyph unicode="&#xf6;" horiz-adv-x="1160" d="M73 525q107 535 577 535q383 0 383 -355q0 -81 -20 -180q-107 -534 -577 -534q-382 0 -382 356q0 80 19 178zM179 529q-18 -89 -18 -160q0 -289 293 -289q365 0 455 449q17 86 17 155q0 286 -294 286q-365 0 -453 -441zM467 1280l26 130h135l-26 -130h-135zM787 1280 l26 130h135l-26 -130h-135z" />
<glyph unicode="&#xf7;" horiz-adv-x="1005" d="M64 480l18 90h785l-18 -90h-785zM318 150l26 130h145l-26 -130h-145zM442 770l26 130h145l-26 -130h-145z" />
<glyph unicode="&#xf8;" horiz-adv-x="1160" d="M-27 0l131 136q-81 133 -31 389q107 535 577 535q176 0 271 -75l62 65h138l-135 -140q77 -133 27 -385q-107 -534 -577 -534q-171 0 -265 72l-61 -63h-137zM179 529q-39 -196 9 -306l656 683q-73 64 -212 64q-365 0 -453 -441zM246 141q73 -61 208 -61q365 0 455 449 q37 186 -6 294z" />
<glyph unicode="&#xf9;" d="M79 305l149 745h105l-149 -745q-8 -41 -8 -74q0 -137 139 -137q279 0 528 333l125 623h105l-210 -1050h-85l43 314q-247 -314 -530 -314q-223 0 -223 204q0 45 11 101zM511 1430h159l116 -239h-84z" />
<glyph unicode="&#xfa;" d="M79 305l149 745h105l-149 -745q-8 -41 -8 -74q0 -137 139 -137q279 0 528 333l125 623h105l-210 -1050h-85l43 314q-247 -314 -530 -314q-223 0 -223 204q0 45 11 101zM571 1191l212 239h159l-287 -239h-84z" />
<glyph unicode="&#xfb;" d="M79 305l149 745h105l-149 -745q-8 -41 -8 -74q0 -137 139 -137q279 0 528 333l125 623h105l-210 -1050h-85l43 314q-247 -314 -530 -314q-223 0 -223 204q0 45 11 101zM425 1170l247 260h110l143 -260h-100l-113 194l-187 -194h-100z" />
<glyph unicode="&#xfc;" d="M79 305l149 745h105l-149 -745q-8 -41 -8 -74q0 -137 139 -137q279 0 528 333l125 623h105l-210 -1050h-85l43 314q-247 -314 -530 -314q-223 0 -223 204q0 45 11 101zM469 1280l26 130h135l-26 -130h-135zM789 1280l26 130h135l-26 -130h-135z" />
<glyph unicode="&#xfd;" d="M-10 -330l18 90q143 -50 336 -50q356 0 414 290l63 314q-247 -314 -530 -314q-223 0 -223 204q0 45 11 101l149 745h105l-149 -745q-8 -41 -8 -74q0 -137 139 -137q279 0 528 333l125 623h105l-210 -1050q-76 -380 -539 -380q-194 0 -334 50zM571 1191l212 239h159 l-287 -239h-84z" />
<glyph unicode="&#xfe;" horiz-adv-x="1128" d="M-58 -380l362 1810h105l-126 -630q249 250 465 250q338 0 239 -494q-111 -556 -554 -556q-165 0 -305 23l-81 -403h-105zM148 123q165 -29 295 -29q350 0 444 469q77 387 -170 387q-214 0 -455 -254z" />
<glyph unicode="&#xff;" d="M-10 -330l18 90q143 -50 336 -50q356 0 414 290l63 314q-247 -314 -530 -314q-223 0 -223 204q0 45 11 101l149 745h105l-149 -745q-8 -41 -8 -74q0 -137 139 -137q279 0 528 333l125 623h105l-210 -1050q-76 -380 -539 -380q-194 0 -334 50zM469 1280l26 130h135 l-26 -130h-135zM789 1280l26 130h135l-26 -130h-135z" />
<glyph unicode="&#x100;" horiz-adv-x="1492" d="M-107 0l933 1430h125l364 -1430h-118l-116 480h-601l49 90h531l-187 778l-861 -1348h-119zM682 1720l18 90h500l-18 -90h-500z" />
<glyph unicode="&#x101;" horiz-adv-x="1127" d="M72 521q106 529 591 529q213 0 363 -43l-201 -1007h-85l30 250q-208 -250 -444 -250q-277 0 -277 313q0 91 23 208zM175 523q-21 -105 -21 -184q0 -239 193 -239q244 0 444 254l115 578q-130 24 -270 24q-375 0 -461 -433zM465 1340l18 90h500l-18 -90h-500z" />
<glyph unicode="&#x102;" horiz-adv-x="1492" d="M-107 0l933 1430h125l364 -1430h-118l-116 480h-601l49 90h531l-187 778l-861 -1348h-119zM695 1810h85q-36 -180 134 -180t206 180h85q-52 -260 -307 -260t-203 260z" />
<glyph unicode="&#x103;" horiz-adv-x="1127" d="M72 521q106 529 591 529q213 0 363 -43l-201 -1007h-85l30 250q-208 -250 -444 -250q-277 0 -277 313q0 91 23 208zM175 523q-21 -105 -21 -184q0 -239 193 -239q244 0 444 254l115 578q-130 24 -270 24q-375 0 -461 -433zM478 1430h85q-36 -180 134 -180t206 180h85 q-52 -260 -307 -260t-203 260z" />
<glyph unicode="&#x104;" horiz-adv-x="1492" d="M-107 0l933 1430h125l364 -1430q-267 -126 -288 -228q-23 -118 102 -118q85 0 141 20l-16 -80q-65 -20 -153 -20q-211 0 -177 173q31 151 273 253l-116 480h-601l49 90h531l-187 778l-861 -1348h-119z" />
<glyph unicode="&#x105;" horiz-adv-x="1127" d="M72 521q106 529 591 529q213 0 363 -43l-201 -1007q-267 -126 -288 -228q-23 -118 102 -118q85 0 141 20l-16 -80q-65 -20 -153 -20q-211 0 -177 173q31 151 300 273l36 230q-208 -250 -444 -250q-358 0 -254 521zM175 523q-85 -423 172 -423q244 0 444 254l115 578 q-130 24 -270 24q-375 0 -461 -433z" />
<glyph unicode="&#x106;" horiz-adv-x="1405" d="M115 735q141 705 891 705q205 0 388 -60l-18 -90q-183 60 -368 60q-665 0 -788 -615q-22 -108 -22 -198q0 -457 556 -457q185 0 392 60l-18 -90q-207 -60 -412 -60q-626 0 -626 519q0 103 25 226zM823 1571l212 239h159l-287 -239h-84z" />
<glyph unicode="&#x107;" horiz-adv-x="970" d="M75 535q103 515 593 515q150 0 274 -30l-18 -90q-134 30 -264 30q-385 0 -470 -425q-19 -93 -19 -167q0 -278 265 -278q180 0 348 140l-20 -100q-156 -130 -356 -130q-354 0 -354 346q0 84 21 189zM513 1191l212 239h159l-287 -239h-84z" />
<glyph unicode="&#x108;" horiz-adv-x="1405" d="M115 735q141 705 891 705q205 0 388 -60l-18 -90q-183 60 -368 60q-665 0 -788 -615q-22 -108 -22 -198q0 -457 556 -457q185 0 392 60l-18 -90q-207 -60 -412 -60q-626 0 -626 519q0 103 25 226zM737 1550l247 260h110l143 -260h-100l-113 194l-187 -194h-100z" />
<glyph unicode="&#x109;" horiz-adv-x="970" d="M75 535q103 515 593 515q150 0 274 -30l-18 -90q-134 30 -264 30q-385 0 -470 -425q-19 -93 -19 -167q0 -278 265 -278q180 0 348 140l-20 -100q-156 -130 -356 -130q-354 0 -354 346q0 84 21 189zM377 1170l247 260h110l143 -260h-100l-113 194l-187 -194h-100z" />
<glyph unicode="&#x10a;" horiz-adv-x="1405" d="M115 735q141 705 891 705q205 0 388 -60l-18 -90q-183 60 -368 60q-665 0 -788 -615q-22 -108 -22 -198q0 -457 556 -457q185 0 392 60l-18 -90q-207 -60 -412 -60q-626 0 -626 519q0 103 25 226zM907 1660l30 150h165l-30 -150h-165z" />
<glyph unicode="&#x10b;" horiz-adv-x="970" d="M75 535q103 515 593 515q150 0 274 -30l-18 -90q-134 30 -264 30q-385 0 -470 -425q-19 -93 -19 -167q0 -278 265 -278q180 0 348 140l-20 -100q-156 -130 -356 -130q-354 0 -354 346q0 84 21 189zM567 1280l30 150h165l-30 -150h-165z" />
<glyph unicode="&#x10c;" horiz-adv-x="1405" d="M115 735q141 705 891 705q205 0 388 -60l-18 -90q-183 60 -368 60q-665 0 -788 -615q-22 -108 -22 -198q0 -457 556 -457q185 0 392 60l-18 -90q-207 -60 -412 -60q-626 0 -626 519q0 103 25 226zM750 1810h100l109 -194l191 194h100l-247 -260h-110z" />
<glyph unicode="&#x10d;" horiz-adv-x="970" d="M75 535q103 515 593 515q150 0 274 -30l-18 -90q-134 30 -264 30q-385 0 -470 -425q-19 -93 -19 -167q0 -278 265 -278q180 0 348 140l-20 -100q-156 -130 -356 -130q-354 0 -354 346q0 84 21 189zM429 1430h100l109 -194l191 194h100l-247 -260h-110z" />
<glyph unicode="&#x10e;" horiz-adv-x="1470" d="M18 0l286 1430h510q587 0 587 -475q0 -92 -22 -201q-151 -754 -861 -754h-500zM141 90h395q595 0 728 664q19 96 19 177q0 409 -497 409h-395zM659 1810h100l109 -194l191 194h100l-247 -260h-110z" />
<glyph unicode="&#x10f;" horiz-adv-x="1127" d="M72 521q106 529 591 529q146 0 263 -20l80 400h105l-286 -1430h-85l30 250q-208 -250 -444 -250q-358 0 -254 521zM175 523q-85 -423 172 -423q244 0 444 254l115 578q-130 24 -270 24q-375 0 -461 -433zM1124 995l237 435h115l-237 -435h-115z" />
<glyph unicode="&#x110;" horiz-adv-x="1520" d="M-46 680l18 90h200l132 660h510q700 0 565 -676q-151 -754 -861 -754h-500l136 680h-200zM141 90h395q595 0 728 664q117 586 -478 586h-395l-114 -570h445l-18 -90h-445z" />
<glyph unicode="&#x111;" horiz-adv-x="1127" d="M72 521q106 529 591 529q146 0 263 -20l28 140h-722l18 90h722l34 170h105l-286 -1430h-85l30 250q-208 -250 -444 -250q-358 0 -254 521zM175 523q-85 -423 172 -423q244 0 444 254l115 578q-130 24 -270 24q-375 0 -461 -433z" />
<glyph unicode="&#x112;" horiz-adv-x="1248" d="M18 0l286 1430h939l-18 -90h-834l-114 -570h800l-18 -90h-800l-118 -590h848l-18 -90h-953zM573 1720l18 90h500l-18 -90h-500z" />
<glyph unicode="&#x113;" horiz-adv-x="1075" d="M75 537q103 513 576 513q334 0 334 -209q0 -30 -7 -65q-57 -284 -427 -284h-380q-14 -71 -14 -129q0 -273 310 -273q209 0 376 140l-20 -100q-165 -130 -374 -130q-393 0 -393 359q0 80 19 178zM190 586h378q267 0 306 193q4 21 4 40q0 143 -245 143q-350 0 -443 -376z M424 1340l18 90h500l-18 -90h-500z" />
<glyph unicode="&#x114;" horiz-adv-x="1248" d="M18 0l286 1430h939l-18 -90h-834l-114 -570h800l-18 -90h-800l-118 -590h848l-18 -90h-953zM586 1810h85q-36 -180 134 -180t206 180h85q-52 -260 -307 -260t-203 260z" />
<glyph unicode="&#x115;" horiz-adv-x="1075" d="M75 537q103 513 576 513q334 0 334 -209q0 -30 -7 -65q-57 -284 -427 -284h-380q-14 -71 -14 -129q0 -273 310 -273q209 0 376 140l-20 -100q-165 -130 -374 -130q-393 0 -393 359q0 80 19 178zM190 586h378q267 0 306 193q4 21 4 40q0 143 -245 143q-350 0 -443 -376z M437 1430h85q-36 -180 134 -180t206 180h85q-52 -260 -307 -260t-203 260z" />
<glyph unicode="&#x116;" horiz-adv-x="1248" d="M18 0l286 1430h939l-18 -90h-834l-114 -570h800l-18 -90h-800l-118 -590h848l-18 -90h-953zM728 1660l30 150h165l-30 -150h-165z" />
<glyph unicode="&#x117;" horiz-adv-x="1075" d="M75 537q103 513 576 513q334 0 334 -209q0 -30 -7 -65q-57 -284 -427 -284h-380q-14 -71 -14 -129q0 -273 310 -273q209 0 376 140l-20 -100q-165 -130 -374 -130q-393 0 -393 359q0 80 19 178zM190 586h378q267 0 306 193q4 21 4 40q0 143 -245 143q-350 0 -443 -376z M579 1280l30 150h165l-30 -150h-165z" />
<glyph unicode="&#x118;" horiz-adv-x="1248" d="M18 0l286 1430h939l-18 -90h-834l-114 -570h800l-18 -90h-800l-118 -590h848l-18 -90q-267 -126 -288 -228q-23 -118 102 -118q85 0 141 20l-16 -80q-65 -20 -153 -20q-211 0 -177 173q31 151 266 253h-828z" />
<glyph unicode="&#x119;" horiz-adv-x="1075" d="M75 537q103 513 576 513q382 0 327 -274q-57 -284 -427 -284h-380q-80 -402 296 -402q209 0 376 140l-24 -120q-285 -216 -310 -338q-23 -118 102 -118q85 0 141 20l-16 -80q-65 -20 -153 -20q-211 0 -177 173q28 137 245 296q-97 -43 -202 -43q-481 0 -374 537zM190 586 h378q267 0 306 193q36 183 -241 183q-350 0 -443 -376z" />
<glyph unicode="&#x11a;" horiz-adv-x="1248" d="M18 0l286 1430h939l-18 -90h-834l-114 -570h800l-18 -90h-800l-118 -590h848l-18 -90h-953zM591 1810h100l109 -194l191 194h100l-247 -260h-110z" />
<glyph unicode="&#x11b;" horiz-adv-x="1075" d="M75 537q103 513 576 513q334 0 334 -209q0 -30 -7 -65q-57 -284 -427 -284h-380q-14 -71 -14 -129q0 -273 310 -273q209 0 376 140l-20 -100q-165 -130 -374 -130q-393 0 -393 359q0 80 19 178zM190 586h378q267 0 306 193q4 21 4 40q0 143 -245 143q-350 0 -443 -376z M452 1430h100l109 -194l191 194h100l-247 -260h-110z" />
<glyph unicode="&#x11c;" horiz-adv-x="1405" d="M115 735q141 705 891 705q205 0 388 -60l-18 -90q-183 60 -368 60q-665 0 -788 -615q-22 -110 -22 -202q0 -453 537 -453q132 0 303 44l105 526h105l-119 -594q-196 -66 -396 -66q-642 0 -642 522q0 102 24 223zM677 1550l247 260h110l143 -260h-100l-113 194l-187 -194 h-100z" />
<glyph unicode="&#x11d;" horiz-adv-x="1127" d="M-48 -330l18 90q143 -50 336 -50q356 0 414 290l50 250q-208 -250 -444 -250q-277 0 -277 313q0 91 23 208q106 529 591 529q213 0 363 -43l-201 -1007q-76 -380 -539 -380q-194 0 -334 50zM175 523q-21 -105 -21 -184q0 -239 193 -239q244 0 444 254l115 578 q-130 24 -270 24q-375 0 -461 -433zM411 1170l247 260h110l143 -260h-100l-113 194l-187 -194h-100z" />
<glyph unicode="&#x11e;" horiz-adv-x="1405" d="M115 735q141 705 891 705q205 0 388 -60l-18 -90q-183 60 -368 60q-665 0 -788 -615q-22 -110 -22 -202q0 -453 537 -453q132 0 303 44l105 526h105l-119 -594q-196 -66 -396 -66q-642 0 -642 522q0 102 24 223zM754 1810h85q-36 -180 134 -180t206 180h85 q-52 -260 -307 -260t-203 260z" />
<glyph unicode="&#x11f;" horiz-adv-x="1127" d="M-48 -330l18 90q143 -50 336 -50q356 0 414 290l50 250q-208 -250 -444 -250q-277 0 -277 313q0 91 23 208q106 529 591 529q213 0 363 -43l-201 -1007q-76 -380 -539 -380q-194 0 -334 50zM175 523q-21 -105 -21 -184q0 -239 193 -239q244 0 444 254l115 578 q-130 24 -270 24q-375 0 -461 -433zM458 1430h85q-36 -180 134 -180t206 180h85q-52 -260 -307 -260t-203 260z" />
<glyph unicode="&#x120;" horiz-adv-x="1405" d="M115 735q141 705 891 705q205 0 388 -60l-18 -90q-183 60 -368 60q-665 0 -788 -615q-22 -110 -22 -202q0 -453 537 -453q132 0 303 44l105 526h105l-119 -594q-196 -66 -396 -66q-642 0 -642 522q0 102 24 223zM907 1660l30 150h165l-30 -150h-165z" />
<glyph unicode="&#x121;" horiz-adv-x="1127" d="M-48 -330l18 90q143 -50 336 -50q356 0 414 290l50 250q-208 -250 -444 -250q-277 0 -277 313q0 91 23 208q106 529 591 529q213 0 363 -43l-201 -1007q-76 -380 -539 -380q-194 0 -334 50zM175 523q-21 -105 -21 -184q0 -239 193 -239q244 0 444 254l115 578 q-130 24 -270 24q-375 0 -461 -433zM600 1280l30 150h165l-30 -150h-165z" />
<glyph unicode="&#x122;" horiz-adv-x="1405" d="M115 735q141 705 891 705q205 0 388 -60l-18 -90q-183 60 -368 60q-665 0 -788 -615q-22 -110 -22 -202q0 -453 537 -453q132 0 303 44l105 526h105l-119 -594q-196 -66 -396 -66q-642 0 -642 522q0 102 24 223zM340 -380l206 280h105l-206 -280h-105z" />
<glyph unicode="&#x123;" horiz-adv-x="1127" d="M-48 -330l18 90q143 -50 336 -50q356 0 414 290l50 250q-208 -250 -444 -250q-358 0 -254 521q106 529 591 529q213 0 363 -43l-201 -1007q-76 -380 -539 -380q-194 0 -334 50zM175 523q-85 -423 172 -423q244 0 444 254l115 578q-130 24 -270 24q-375 0 -461 -433z M577 1150l206 280h105l-206 -280h-105z" />
<glyph unicode="&#x124;" horiz-adv-x="1505" d="M18 0l286 1430h105l-132 -660h975l132 660h105l-286 -1430h-105l136 680h-975l-136 -680h-105zM655 1550l247 260h110l143 -260h-100l-113 194l-187 -194h-100z" />
<glyph unicode="&#x125;" d="M19 0l286 1430h105l-139 -694q247 314 510 314q243 0 243 -209q0 -44 -11 -96l-149 -745h-105l149 745q8 38 8 69q0 142 -159 142q-259 0 -508 -333l-125 -623h-105zM125 1575l247 260h110l143 -260h-100l-113 194l-187 -194h-100z" />
<glyph unicode="&#x126;" horiz-adv-x="1505" d="M18 0l286 1430h105l-58 -290h975l58 290h105l-286 -1430h-105l136 680h-975l-136 -680h-105zM277 770h975l56 280h-975z" />
<glyph unicode="&#x127;" d="M18 0l286 1430h105l-34 -170h730l-18 -90h-730l-87 -434q247 314 510 314q293 0 232 -305l-149 -745h-105l149 745q42 211 -151 211q-259 0 -508 -333l-125 -623h-105z" />
<glyph unicode="&#x128;" horiz-adv-x="525" d="M69 0l286 1430h105l-286 -1430h-105zM200 1674l18 90q69 46 139 46q52 0 105 -26t109 -26q75 0 155 46l-18 -90q-69 -46 -139 -46q-52 0 -105 26t-109 26q-75 0 -155 -46z" />
<glyph unicode="&#x129;" horiz-adv-x="445" d="M29 0l210 1050h105l-210 -1050h-105zM90 1294l18 90q69 46 139 46q52 0 105 -26t109 -26q75 0 155 46l-18 -90q-69 -46 -139 -46q-52 0 -105 26t-109 26q-75 0 -155 -46z" />
<glyph unicode="&#x12a;" horiz-adv-x="525" d="M69 0l286 1430h105l-286 -1430h-105zM209 1720l18 90h500l-18 -90h-500z" />
<glyph unicode="&#x12b;" horiz-adv-x="445" d="M29 0l210 1050h105l-210 -1050h-105zM99 1340l18 90h500l-18 -90h-500z" />
<glyph unicode="&#x12c;" horiz-adv-x="525" d="M69 0l286 1430h105l-286 -1430h-105zM222 1810h85q-36 -180 134 -180t206 180h85q-52 -260 -307 -260t-203 260z" />
<glyph unicode="&#x12d;" horiz-adv-x="445" d="M29 0l210 1050h105l-210 -1050h-105zM112 1430h85q-36 -180 134 -180t206 180h85q-52 -260 -307 -260t-203 260z" />
<glyph unicode="&#x12e;" horiz-adv-x="525" d="M-197 -253q30 151 265 253l286 1430h105l-286 -1430q-247 -126 -267 -228q-24 -118 101 -118q85 0 141 20l-16 -80q-65 -20 -153 -20q-211 0 -176 173z" />
<glyph unicode="&#x12f;" horiz-adv-x="465" d="M-227 -253q30 151 265 253l210 1050h105l-210 -1050q-247 -126 -267 -228q-24 -118 101 -118q85 0 141 20l-16 -80q-65 -20 -153 -20q-211 0 -176 173zM290 1310l24 120h125l-24 -120h-125z" />
<glyph unicode="&#x130;" horiz-adv-x="525" d="M68 0l286 1430h105l-286 -1430h-105zM364 1660l30 150h165l-30 -150h-165z" />
<glyph unicode="&#x131;" horiz-adv-x="445" d="M28 0l210 1050h105l-210 -1050h-105z" />
<glyph unicode="&#x132;" horiz-adv-x="1175" d="M68 0l286 1430h105l-286 -1430h-105zM418 0l18 90q350 0 414 322l204 1018h105l-204 -1018q-82 -412 -537 -412z" />
<glyph unicode="&#x133;" horiz-adv-x="930" d="M38 0l210 1050h105l-210 -1050h-105zM290 1310l24 120h125l-24 -120h-125zM317 -303q142 85 202 383l194 970h105l-194 -970q-64 -318 -245 -448zM755 1310l24 120h125l-24 -120h-125z" />
<glyph unicode="&#x134;" horiz-adv-x="650" d="M-106 0l18 90q350 0 414 322l204 1018h105l-204 -1018q-82 -412 -537 -412zM345 1550l247 260h110l143 -260h-100l-113 194l-187 -194h-100z" />
<glyph unicode="&#x135;" horiz-adv-x="465" d="M-148 -303q142 85 202 383l194 970h105l-194 -970q-64 -318 -245 -448zM72 1170l247 260h110l143 -260h-100l-114 194l-186 -194h-100z" />
<glyph unicode="&#x136;" horiz-adv-x="1325" d="M18 0l286 1430h105l-286 -1430h-105zM448 698l14 72l774 660h154l-833 -701l601 -729h-147zM285 -380l206 280h105l-206 -280h-105z" />
<glyph unicode="&#x137;" horiz-adv-x="1101" d="M8 0l286 1430h105l-132 -662q249 282 519 282q246 0 246 -193q0 -36 -9 -80q-46 -230 -422 -364l293 -413h-129l-265 395l13 63q364 111 404 310q6 29 6 54q0 138 -178 138q-243 0 -499 -294l-133 -666h-105zM163 -380l206 280h105l-206 -280h-105z" />
<glyph unicode="&#x138;" horiz-adv-x="996" d="M8 0l210 1050h105l-210 -1050h-105zM364 525l15 73l537 452h138l-590 -502l386 -548h-127z" />
<glyph unicode="&#x139;" horiz-adv-x="1143" d="M18 0l286 1430h105l-268 -1340h828l-18 -90h-933zM325 1571l212 239h159l-287 -239h-84z" />
<glyph unicode="&#x13a;" horiz-adv-x="465" d="M38 0l286 1430h105l-286 -1430h-105zM367 1596l212 239h159l-287 -239h-84z" />
<glyph unicode="&#x13b;" horiz-adv-x="1143" d="M18 0l286 1430h105l-268 -1340h828l-18 -90h-933zM231 -380l206 280h105l-206 -280h-105z" />
<glyph unicode="&#x13c;" horiz-adv-x="465" d="M38 0l286 1430h105l-286 -1430h-105zM-193 -380l206 280h105l-206 -280h-105z" />
<glyph unicode="&#x13d;" horiz-adv-x="1143" d="M18 0l286 1430h105l-268 -1340h828l-18 -90h-933zM542 995l237 435h115l-237 -435h-115z" />
<glyph unicode="&#x13e;" horiz-adv-x="465" d="M38 0l286 1430h105l-286 -1430h-105zM442 995l237 435h115l-237 -435h-115z" />
<glyph unicode="&#x13f;" horiz-adv-x="1143" d="M18 0l286 1430h105l-268 -1340h828l-18 -90h-933zM533 715q19 95 114 95t76 -95t-114 -95t-76 95z" />
<glyph unicode="&#x140;" horiz-adv-x="465" d="M38 0l286 1430h105l-286 -1430h-105zM377 566q19 95 114 95t76 -95t-114 -95t-76 95z" />
<glyph unicode="&#x141;" horiz-adv-x="1143" d="M-36 482l22 110l172 110l146 728h105l-130 -650l462 296l-22 -110l-462 -296l-116 -580h828l-18 -90h-933l118 592z" />
<glyph unicode="&#x142;" horiz-adv-x="465" d="M-16 482l22 110l172 111l146 727h105l-130 -649l172 111l-22 -110l-172 -111l-134 -671h-105l118 593z" />
<glyph unicode="&#x143;" horiz-adv-x="1505" d="M18 0l286 1430h115l720 -1276l255 1276h95l-286 -1430h-85l-743 1312l-262 -1312h-95zM801 1571l212 239h159l-287 -239h-84z" />
<glyph unicode="&#x144;" d="M18 0l210 1050h85l-43 -314q247 314 510 314q243 0 243 -209q0 -44 -11 -96l-149 -745h-105l149 745q8 38 8 69q0 142 -159 142q-259 0 -508 -333l-125 -623h-105zM571 1191l212 239h159l-287 -239h-84z" />
<glyph unicode="&#x145;" horiz-adv-x="1505" d="M18 0l286 1430h115l720 -1276l255 1276h95l-286 -1430h-85l-743 1312l-262 -1312h-95zM357 -380l206 280h105l-206 -280h-105z" />
<glyph unicode="&#x146;" d="M18 0l210 1050h85l-43 -314q247 314 510 314q243 0 243 -209q0 -44 -11 -96l-149 -745h-105l149 745q8 38 8 69q0 142 -159 142q-259 0 -508 -333l-125 -623h-105zM237 -380l206 280h105l-206 -280h-105z" />
<glyph unicode="&#x147;" horiz-adv-x="1505" d="M18 0l286 1430h115l720 -1276l255 1276h95l-286 -1430h-85l-743 1312l-262 -1312h-95zM707 1810h100l109 -194l191 194h100l-247 -260h-110z" />
<glyph unicode="&#x148;" d="M18 0l210 1050h85l-43 -314q247 314 510 314q243 0 243 -209q0 -44 -11 -96l-149 -745h-105l149 745q8 38 8 69q0 142 -159 142q-259 0 -508 -333l-125 -623h-105zM477 1430h100l109 -194l191 194h100l-247 -260h-110z" />
<glyph unicode="&#x149;" d="M-93 995l237 435h115l-237 -435h-115zM18 0l210 1050h85l-43 -314q247 314 510 314q293 0 232 -305l-149 -745h-105l149 745q42 211 -151 211q-259 0 -508 -333l-125 -623h-105z" />
<glyph unicode="&#x14a;" horiz-adv-x="1505" d="M18 0l286 1430h115l720 -1276l255 1276h95l-270 -1350q-64 -318 -245 -448l-62 65q135 75 197 318l-734 1297l-262 -1312h-95z" />
<glyph unicode="&#x14b;" d="M18 0l210 1050h85l-43 -314q247 314 510 314q293 0 232 -305l-133 -665q-64 -318 -245 -448l-62 65q142 85 202 383l133 665q42 211 -151 211q-259 0 -508 -333l-125 -623h-105z" />
<glyph unicode="&#x14c;" horiz-adv-x="1645" d="M111 713q145 727 863 727q587 0 587 -501q0 -103 -25 -226q-145 -723 -852 -723q-597 0 -597 500q0 102 24 223zM227 719q-22 -112 -22 -204q0 -435 497 -435q592 0 720 639q22 111 22 202q0 429 -488 429q-603 0 -729 -631zM799 1720l18 90h500l-18 -90h-500z" />
<glyph unicode="&#x14d;" horiz-adv-x="1160" d="M73 525q107 535 577 535q383 0 383 -355q0 -81 -20 -180q-107 -534 -577 -534q-382 0 -382 356q0 80 19 178zM179 529q-18 -89 -18 -160q0 -289 293 -289q365 0 455 449q17 86 17 155q0 286 -294 286q-365 0 -453 -441zM456 1340l18 90h500l-18 -90h-500z" />
<glyph unicode="&#x14e;" horiz-adv-x="1645" d="M111 713q145 727 863 727q587 0 587 -501q0 -103 -25 -226q-145 -723 -852 -723q-597 0 -597 500q0 102 24 223zM227 719q-22 -112 -22 -204q0 -435 497 -435q592 0 720 639q22 111 22 202q0 429 -488 429q-603 0 -729 -631zM812 1810h85q-36 -180 134 -180t206 180h85 q-52 -260 -307 -260t-203 260z" />
<glyph unicode="&#x14f;" horiz-adv-x="1160" d="M73 525q107 535 577 535q383 0 383 -355q0 -81 -20 -180q-107 -534 -577 -534q-382 0 -382 356q0 80 19 178zM179 529q-18 -89 -18 -160q0 -289 293 -289q365 0 455 449q17 86 17 155q0 286 -294 286q-365 0 -453 -441zM469 1430h85q-36 -180 134 -180t206 180h85 q-52 -260 -307 -260t-203 260z" />
<glyph unicode="&#x150;" horiz-adv-x="1645" d="M111 713q145 727 863 727q587 0 587 -501q0 -103 -25 -226q-145 -723 -852 -723q-597 0 -597 500q0 102 24 223zM227 719q-22 -112 -22 -204q0 -435 497 -435q592 0 720 639q22 111 22 202q0 429 -488 429q-603 0 -729 -631zM767 1571l212 239h159l-287 -239h-84z M1048 1571l212 239h159l-287 -239h-84z" />
<glyph unicode="&#x151;" horiz-adv-x="1160" d="M73 525q107 535 577 535q383 0 383 -355q0 -81 -20 -180q-107 -534 -577 -534q-382 0 -382 356q0 80 19 178zM179 529q-18 -89 -18 -160q0 -289 293 -289q365 0 455 449q17 86 17 155q0 286 -294 286q-365 0 -453 -441zM454 1191l212 239h159l-287 -239h-84zM735 1191 l212 239h159l-287 -239h-84z" />
<glyph unicode="&#x152;" horiz-adv-x="2235" d="M111 713q143 717 861 717h1257l-18 -90h-855q248 -137 191 -570h515l-18 -90h-515q-119 -447 -435 -590h882l-18 -90h-1272q-718 0 -575 713zM227 719q-126 -629 477 -629q592 0 718 629q124 621 -468 621q-603 0 -727 -621z" />
<glyph unicode="&#x153;" horiz-adv-x="1910" d="M73 525q107 535 577 535q313 0 366 -258q155 248 470 248q382 0 327 -274q-57 -284 -427 -284h-380q-80 -402 296 -402q209 0 376 140l-20 -100q-165 -130 -374 -130q-328 0 -385 254q-156 -263 -463 -263q-468 0 -363 534zM179 529q-90 -449 275 -449t455 449 q88 441 -277 441t-453 -441zM1025 586h378q267 0 306 193q36 183 -241 183q-350 0 -443 -376z" />
<glyph unicode="&#x154;" horiz-adv-x="1235" d="M18 0l286 1430h590q329 0 330 -247q0 -44 -11 -96q-64 -318 -505 -421l350 -666h-124l-342 663l14 73q433 63 489 343q8 39 8 72q0 186 -245 186h-468l-267 -1337h-105zM628 1571l212 239h159l-287 -239h-84z" />
<glyph unicode="&#x155;" horiz-adv-x="685" d="M18 0l210 1050h85l-55 -374q216 374 460 374l-21 -104q-238 0 -457 -363l-117 -583h-105zM393 1191l212 239h159l-287 -239h-84z" />
<glyph unicode="&#x156;" horiz-adv-x="1235" d="M18 0l286 1430h590q329 0 330 -247q0 -44 -11 -96q-64 -318 -505 -421l350 -666h-124l-342 663l14 73q433 63 489 343q8 39 8 72q0 186 -245 186h-468l-267 -1337h-105zM235 -380l206 280h105l-206 -280h-105z" />
<glyph unicode="&#x157;" horiz-adv-x="685" d="M19 0l210 1050h85l-55 -374q216 374 460 374l-21 -104q-238 0 -457 -363l-117 -583h-105zM-210 -380l206 280h105l-206 -280h-105z" />
<glyph unicode="&#x158;" horiz-adv-x="1235" d="M18 0l286 1430h590q329 0 330 -247q0 -44 -11 -96q-64 -318 -505 -421l350 -666h-124l-342 663l14 73q433 63 489 343q8 39 8 72q0 186 -245 186h-468l-267 -1337h-105zM552 1810h100l109 -194l191 194h100l-247 -260h-110z" />
<glyph unicode="&#x159;" horiz-adv-x="685" d="M18 0l210 1050h85l-55 -374q216 374 460 374l-21 -104q-238 0 -457 -363l-117 -583h-105zM299 1430h100l109 -194l191 194h100l-247 -260h-110z" />
<glyph unicode="&#x15a;" horiz-adv-x="1310" d="M18 50l22 110q209 -80 480 -80q449 0 517 340q7 37 7 68q0 182 -249 182h-294q-338 0 -338 258q0 47 11 102q82 410 667 410q240 0 453 -60l-20 -100q-211 70 -451 70q-480 0 -544 -320q-8 -39 -8 -72q0 -188 250 -188h294q337 0 337 -253q0 -45 -10 -97 q-86 -430 -640 -430q-271 0 -484 60zM703 1571l212 239h159l-287 -239h-84z" />
<glyph unicode="&#x15b;" horiz-adv-x="1030" d="M8 50l20 100q163 -60 332 -60q331 0 373 210q4 21 4 39q0 131 -215 131h-130q-282 0 -282 205q0 35 8 75q60 300 497 300q168 0 333 -50l-20 -100q-163 60 -331 60q-332 0 -374 -210q-5 -25 -5 -46q0 -134 194 -134h130q303 0 303 -203q0 -31 -7 -67q-60 -300 -496 -300 q-169 0 -334 50zM503 1191l212 239h159l-287 -239h-84z" />
<glyph unicode="&#x15c;" horiz-adv-x="1310" d="M18 50l22 110q209 -80 480 -80q449 0 517 340q7 37 7 68q0 182 -249 182h-294q-338 0 -338 258q0 47 11 102q82 410 667 410q240 0 453 -60l-20 -100q-211 70 -451 70q-480 0 -544 -320q-8 -39 -8 -72q0 -188 250 -188h294q337 0 337 -253q0 -45 -10 -97 q-86 -430 -640 -430q-271 0 -484 60zM587 1550l247 260h110l143 -260h-100l-113 194l-187 -194h-100z" />
<glyph unicode="&#x15d;" horiz-adv-x="1030" d="M8 50l20 100q163 -60 332 -60q331 0 373 210q4 21 4 39q0 131 -215 131h-130q-282 0 -282 205q0 35 8 75q60 300 497 300q168 0 333 -50l-20 -100q-163 60 -331 60q-332 0 -374 -210q-5 -25 -5 -46q0 -134 194 -134h130q303 0 303 -203q0 -31 -7 -67q-60 -300 -496 -300 q-169 0 -334 50zM367 1170l247 260h110l143 -260h-100l-113 194l-187 -194h-100z" />
<glyph unicode="&#x15e;" horiz-adv-x="1310" d="M18 50l22 110q209 -80 480 -80q449 0 517 340q50 250 -242 250h-294q-399 0 -327 360q82 410 667 410q240 0 453 -60l-20 -100q-211 70 -451 70q-480 0 -544 -320q-52 -260 242 -260h294q397 0 327 -350q-84 -422 -620 -430l-49 -67q224 0 189 -172q-34 -173 -275 -173 q-108 0 -206 50l17 88q96 -60 204 -60q148 0 167 95q19 94 -104 94h-153l112 146q-224 8 -406 59z" />
<glyph unicode="&#x15f;" horiz-adv-x="1030" d="M8 50l20 100q163 -60 332 -60q331 0 373 210q34 170 -211 170h-130q-330 0 -274 280q60 300 497 300q168 0 333 -50l-20 -100q-163 60 -331 60q-332 0 -374 -210q-36 -180 189 -180h130q350 0 296 -270q-54 -272 -417 -297l-58 -80q224 0 189 -172q-34 -173 -275 -173 q-108 0 -206 50l17 88q96 -60 204 -60q148 0 167 95q19 94 -104 94h-153l119 155q-158 3 -313 50z" />
<glyph unicode="&#x160;" horiz-adv-x="1310" d="M18 50l22 110q209 -80 480 -80q449 0 517 340q7 37 7 68q0 182 -249 182h-294q-338 0 -338 258q0 47 11 102q82 410 667 410q240 0 453 -60l-20 -100q-211 70 -451 70q-480 0 -544 -320q-8 -39 -8 -72q0 -188 250 -188h294q337 0 337 -253q0 -45 -10 -97 q-86 -430 -640 -430q-271 0 -484 60zM609 1810h100l109 -194l191 194h100l-247 -260h-110z" />
<glyph unicode="&#x161;" horiz-adv-x="1030" d="M8 50l20 100q163 -60 332 -60q331 0 373 210q4 21 4 39q0 131 -215 131h-130q-282 0 -282 205q0 35 8 75q60 300 497 300q168 0 333 -50l-20 -100q-163 60 -331 60q-332 0 -374 -210q-5 -25 -5 -46q0 -134 194 -134h130q303 0 303 -203q0 -31 -7 -67q-60 -300 -496 -300 q-169 0 -334 50zM409 1430h100l109 -194l191 194h100l-247 -260h-110z" />
<glyph unicode="&#x162;" horiz-adv-x="1095" d="M136 1340l18 90h1075l-18 -90h-490l-268 -1340h-105l268 1340h-480zM113 -380l206 280h105l-206 -280h-105z" />
<glyph unicode="&#x21a;" horiz-adv-x="1095" d="M136 1340l18 90h1075l-18 -90h-490l-268 -1340h-105l268 1340h-480zM113 -380l206 280h105l-206 -280h-105z" />
<glyph unicode="&#x163;" horiz-adv-x="627" d="M71 283l187 937h64l-15 -170h305l-18 -90h-286l-133 -663q-9 -44 -8 -79q0 -128 119 -128h134l-18 -90h-132q-209 0 -209 189q0 42 10 94zM-93 -380l206 280h105l-206 -280h-105z" />
<glyph unicode="&#x21b;" horiz-adv-x="627" d="M71 283l187 937h64l-15 -170h305l-18 -90h-286l-133 -663q-9 -44 -8 -79q0 -128 119 -128h134l-18 -90h-132q-209 0 -209 189q0 42 10 94zM-93 -380l206 280h105l-206 -280h-105z" />
<glyph unicode="&#x164;" horiz-adv-x="1095" d="M136 1340l18 90h1075l-18 -90h-490l-268 -1340h-105l268 1340h-480zM502 1810h100l109 -194l191 194h100l-247 -260h-110z" />
<glyph unicode="&#x165;" horiz-adv-x="627" d="M71 283l187 937h64l-15 -170h305l-18 -90h-286l-133 -663q-41 -207 111 -207h134l-18 -90h-132q-256 0 -199 283zM651 995l237 435h115l-237 -435h-115z" />
<glyph unicode="&#x166;" horiz-adv-x="1095" d="M2 670l18 90h480l116 580h-480l18 90h1075l-18 -90h-490l-116 -580h490l-18 -90h-490l-134 -670h-105l134 670h-480z" />
<glyph unicode="&#x167;" horiz-adv-x="627" d="M-41 503l18 90h156l125 627h64l-15 -170h305l-18 -90h-286l-73 -367h286l-18 -90h-286l-41 -206q-42 -207 110 -207h134l-18 -90h-132q-256 0 -199 283l44 220h-156z" />
<glyph unicode="&#x168;" horiz-adv-x="1470" d="M128 552l176 878h105l-176 -878q-16 -79 -15 -144q0 -328 391 -328q470 0 564 472l176 878h105l-176 -878q-112 -562 -687 -562q-481 0 -481 394q0 76 18 168zM662 1674l18 90q69 46 139 46q52 0 105 -26t109 -26q75 0 155 46l-18 -90q-69 -46 -139 -46q-52 0 -105 26 t-109 26q-75 0 -155 -46z" />
<glyph unicode="&#x169;" d="M79 305l149 745h105l-149 -745q-8 -41 -8 -74q0 -137 139 -137q279 0 528 333l125 623h105l-210 -1050h-85l43 314q-247 -314 -530 -314q-223 0 -223 204q0 45 11 101zM450 1294l18 90q69 46 139 46q52 0 105 -26t109 -26q75 0 155 46l-18 -90q-69 -46 -139 -46 q-52 0 -105 26t-109 26q-75 0 -155 -46z" />
<glyph unicode="&#x16a;" horiz-adv-x="1470" d="M128 552l176 878h105l-176 -878q-16 -79 -15 -144q0 -328 391 -328q470 0 564 472l176 878h105l-176 -878q-112 -562 -687 -562q-481 0 -481 394q0 76 18 168zM671 1720l18 90h500l-18 -90h-500z" />
<glyph unicode="&#x16b;" d="M79 305l149 745h105l-149 -745q-8 -41 -8 -74q0 -137 139 -137q279 0 528 333l125 623h105l-210 -1050h-85l43 314q-247 -314 -530 -314q-223 0 -223 204q0 45 11 101zM459 1340l18 90h500l-18 -90h-500z" />
<glyph unicode="&#x16c;" horiz-adv-x="1470" d="M128 552l176 878h105l-176 -878q-16 -79 -15 -144q0 -328 391 -328q470 0 564 472l176 878h105l-176 -878q-112 -562 -687 -562q-481 0 -481 394q0 76 18 168zM684 1810h85q-36 -180 134 -180t206 180h85q-52 -260 -307 -260t-203 260z" />
<glyph unicode="&#x16d;" d="M79 305l149 745h105l-149 -745q-8 -41 -8 -74q0 -137 139 -137q279 0 528 333l125 623h105l-210 -1050h-85l43 314q-247 -314 -530 -314q-223 0 -223 204q0 45 11 101zM472 1430h85q-36 -180 134 -180t206 180h85q-52 -260 -307 -260t-203 260z" />
<glyph unicode="&#x16e;" horiz-adv-x="1470" d="M128 552l176 878h105l-176 -878q-16 -79 -15 -144q0 -328 391 -328q470 0 564 472l176 878h105l-176 -878q-112 -562 -687 -562q-481 0 -481 394q0 76 18 168zM689 1643q40 200 258 200q214 0 174 -200q-40 -199 -254 -199q-218 0 -178 199zM769 1645q-27 -137 111 -137 q134 0 161 137q27 134 -107 134q-138 0 -165 -134z" />
<glyph unicode="&#x16f;" d="M79 305l149 745h105l-149 -745q-8 -41 -8 -74q0 -137 139 -137q279 0 528 333l125 623h105l-210 -1050h-85l43 314q-247 -314 -530 -314q-223 0 -223 204q0 45 11 101zM497 1361q40 200 258 200q214 0 174 -200q-40 -199 -254 -199q-218 0 -178 199zM577 1363 q-27 -137 111 -137q134 0 161 137q27 134 -107 134q-138 0 -165 -134z" />
<glyph unicode="&#x170;" horiz-adv-x="1470" d="M128 552l176 878h105l-176 -878q-16 -79 -15 -144q0 -328 391 -328q470 0 564 472l176 878h105l-176 -878q-112 -562 -687 -562q-481 0 -481 394q0 76 18 168zM629 1571l212 239h159l-287 -239h-84zM910 1571l212 239h159l-287 -239h-84z" />
<glyph unicode="&#x171;" d="M79 305l149 745h105l-149 -745q-8 -41 -8 -74q0 -137 139 -137q279 0 528 333l125 623h105l-210 -1050h-85l43 314q-247 -314 -530 -314q-223 0 -223 204q0 45 11 101zM427 1191l212 239h159l-287 -239h-84zM708 1191l212 239h159l-287 -239h-84z" />
<glyph unicode="&#x172;" horiz-adv-x="1470" d="M128 552l176 878h105l-176 -878q-94 -472 376 -472t564 472l176 878h105l-176 -878q-101 -508 -580 -557q-239 -123 -259 -223q-23 -118 102 -118q85 0 141 20l-16 -80q-65 -20 -153 -20q-211 0 -177 173q29 144 244 243q-563 6 -452 562z" />
<glyph unicode="&#x173;" d="M79 305l149 745h105l-149 -745q-42 -211 131 -211q279 0 528 333l125 623h105l-210 -1050q-267 -126 -288 -228q-23 -118 102 -118q85 0 141 20l-16 -80q-65 -20 -153 -20q-211 0 -177 173q31 151 308 263l41 304q-247 -314 -530 -314q-273 0 -212 305z" />
<glyph unicode="&#x174;" horiz-adv-x="1869" d="M148 0l31 1430h99l-23 -1329l728 1329h105l207 -1342l543 1342h91l-575 -1430h-152l-191 1306l-714 -1306h-149zM812 1550l247 260h110l143 -260h-100l-113 194l-187 -194h-100z" />
<glyph unicode="&#x175;" horiz-adv-x="1675" d="M82 520q61 305 206 530h105q-145 -225 -206 -530q-22 -108 -21 -190q0 -240 190 -240q305 0 397 460l100 500h105l-100 -500q-21 -107 -22 -188q0 -272 235 -272q255 0 341 430q32 160 32 299q0 125 -26 231h105q26 -107 26 -231q0 -138 -32 -299q-104 -520 -464 -520 q-293 0 -293 312q0 13 1 27q-118 -339 -423 -339q-279 0 -279 313q0 90 23 207zM680 1170l247 260h110l143 -260h-100l-113 194l-187 -194h-100z" />
<glyph unicode="&#x176;" horiz-adv-x="1250" d="M179 1430h125l297 -830l643 830h115l-722 -930l-100 -500h-105l100 500zM527 1550l247 260h110l143 -260h-100l-113 194l-187 -194h-100z" />
<glyph unicode="&#x177;" d="M-10 -330l18 90q143 -50 336 -50q356 0 414 290l63 314q-247 -314 -530 -314q-223 0 -223 204q0 45 11 101l149 745h105l-149 -745q-8 -41 -8 -74q0 -137 139 -137q279 0 528 333l125 623h105l-210 -1050q-76 -380 -539 -380q-194 0 -334 50zM425 1170l247 260h110 l143 -260h-100l-113 194l-187 -194h-100z" />
<glyph unicode="&#x178;" horiz-adv-x="1250" d="M179 1430h125l297 -830l643 830h115l-722 -930l-100 -500h-105l100 500zM562 1660l26 130h135l-26 -130h-135zM882 1660l26 130h135l-26 -130h-135z" />
<glyph unicode="&#x179;" horiz-adv-x="1270" d="M-7 0l16 80l1136 1260h-864l18 90h980l-18 -90l-1117 -1250h847l-18 -90h-980zM683 1571l212 239h159l-287 -239h-84z" />
<glyph unicode="&#x17a;" horiz-adv-x="990" d="M-32 0l18 90l819 870h-625l18 90h750l-18 -90l-821 -870h627l-18 -90h-750zM483 1191l212 239h159l-287 -239h-84z" />
<glyph unicode="&#x17b;" horiz-adv-x="1270" d="M-7 0l16 80l1136 1260h-864l18 90h980l-18 -90l-1117 -1250h847l-18 -90h-980zM727 1660l30 150h165l-30 -150h-165z" />
<glyph unicode="&#x17c;" horiz-adv-x="990" d="M-32 0l18 90l819 870h-625l18 90h750l-18 -90l-821 -870h627l-18 -90h-750zM527 1280l30 150h165l-30 -150h-165z" />
<glyph unicode="&#x17d;" horiz-adv-x="1270" d="M-7 0l16 80l1146 1260h-874l18 90h980l-18 -90l-1117 -1250h847l-18 -90h-980zM644 1831h100l109 -194l191 194h100l-247 -260h-110z" />
<glyph unicode="&#x17e;" horiz-adv-x="990" d="M-32 0l18 90l819 870h-625l18 90h750l-18 -90l-821 -870h627l-18 -90h-750zM389 1430h100l109 -194l191 194h100l-247 -260h-110z" />
<glyph unicode="&#x17f;" horiz-adv-x="486" d="M-168 -303q148 115 202 383l204 1021q76 381 498 381q129 0 226 -40l-18 -90q-91 40 -227 40q-316 0 -375 -293l-203 -1019q-64 -318 -245 -448z" />
<glyph unicode="&#x192;" horiz-adv-x="987" d="M-158 -380l18 90q23 -5 45 -5q173 0 281 275l334 850h-180l38 90h180l64 150q146 364 398 364q25 0 51 -4l-18 -90q-23 5 -45 5q-173 0 -281 -275l-64 -150h210l-38 -90h-210l-334 -850q-146 -364 -398 -364q-25 0 -51 4z" />
<glyph unicode="&#x218;" horiz-adv-x="1310" d="M18 50l22 110q209 -80 480 -80q449 0 517 340q7 37 7 68q0 182 -249 182h-294q-338 0 -338 258q0 47 11 102q82 410 667 410q240 0 453 -60l-20 -100q-211 70 -451 70q-480 0 -544 -320q-8 -39 -8 -72q0 -188 250 -188h294q337 0 337 -253q0 -45 -10 -97 q-86 -430 -640 -430q-271 0 -484 60zM260 -380l206 280h105l-206 -280h-105z" />
<glyph unicode="&#x219;" horiz-adv-x="1030" d="M8 50l20 100q163 -60 332 -60q331 0 373 210q4 21 4 39q0 131 -215 131h-130q-282 0 -282 205q0 35 8 75q60 300 497 300q168 0 333 -50l-20 -100q-163 60 -331 60q-332 0 -374 -210q-5 -25 -5 -46q0 -134 194 -134h130q303 0 303 -203q0 -31 -7 -67q-60 -300 -496 -300 q-169 0 -334 50zM170 -380l206 280h105l-206 -280h-105z" />
<glyph unicode="&#x2c6;" horiz-adv-x="700" d="M192 1170l247 260h110l143 -260h-100l-113 194l-187 -194h-100z" />
<glyph unicode="&#x2c7;" horiz-adv-x="700" d="M244 1430h100l109 -194l191 194h100l-247 -260h-110z" />
<glyph unicode="&#x2d8;" horiz-adv-x="710" d="M244 1430h85q-36 -180 134 -180t206 180h85q-52 -260 -307 -260t-203 260z" />
<glyph unicode="&#x2d9;" horiz-adv-x="365" d="M214 1280l30 150h165l-30 -150h-165z" />
<glyph unicode="&#x2da;" horiz-adv-x="632" d="M230 1361q40 200 258 200q214 0 174 -200q-40 -199 -254 -199q-218 0 -178 199zM310 1363q-27 -137 111 -137q134 0 161 137q27 134 -107 134q-138 0 -165 -134z" />
<glyph unicode="&#x2db;" horiz-adv-x="560" d="M-92 -253q30 151 265 253h125q-267 -126 -287 -228q-24 -118 101 -118q85 0 141 20l-16 -80q-65 -20 -153 -20q-211 0 -176 173z" />
<glyph unicode="&#x2dc;" horiz-adv-x="700" d="M217 1294l18 90q69 46 139 46q52 0 105 -26t109 -26q75 0 155 46l-18 -90q-69 -46 -139 -46q-52 0 -105 26t-109 26q-75 0 -155 -46z" />
<glyph unicode="&#x2dd;" horiz-adv-x="804" d="M196 1191l212 239h159l-287 -239h-84zM477 1191l212 239h159l-287 -239h-84z" />
<glyph unicode="&#x326;" horiz-adv-x="305" d="M-193 -380l206 280h105l-206 -280h-105z" />
<glyph unicode="&#x37e;" horiz-adv-x="545" d="M-82 -250l237 435h105l-237 -435h-105zM293 925l25 125h135l-25 -125h-135z" />
<glyph unicode="&#x384;" horiz-adv-x="523" d="M196 1191l212 239h159l-287 -239h-84z" />
<glyph unicode="&#x385;" horiz-adv-x="855" d="M214 1280l26 130h135l-26 -130h-135zM346 1191l212 239h159l-287 -239h-84zM734 1280l26 130h135l-26 -130h-135z" />
<glyph unicode="&#x386;" horiz-adv-x="1492" d="M196 1191l212 239h159l-287 -239h-84zM-107 0l933 1430h125l364 -1430h-118l-116 480h-601l49 90h531l-187 778l-861 -1348h-119z" />
<glyph unicode="&#x387;" horiz-adv-x="355" d="M154 925l25 125h135l-25 -125h-135z" />
<glyph unicode="&#x388;" horiz-adv-x="1421" d="M46 1191l212 239h159l-287 -239h-84zM191 0l286 1430h939l-18 -90h-834l-114 -570h800l-18 -90h-800l-118 -590h848l-18 -90h-953z" />
<glyph unicode="&#x389;" horiz-adv-x="1678" d="M46 1191l212 239h159l-287 -239h-84zM191 0l286 1430h105l-132 -660h975l132 660h105l-286 -1430h-105l136 680h-975l-136 -680h-105z" />
<glyph unicode="&#x38a;" horiz-adv-x="698" d="M46 1191l212 239h159l-287 -239h-84zM241 0l286 1430h105l-286 -1430h-105z" />
<glyph unicode="&#x38c;" horiz-adv-x="1668" d="M46 1191l212 239h159l-287 -239h-84zM134 713q145 727 863 727q707 0 562 -727q-145 -723 -852 -723q-718 0 -573 723zM250 719q-128 -639 475 -639q592 0 720 639q126 631 -466 631q-603 0 -729 -631z" />
<glyph unicode="&#x38e;" horiz-adv-x="1523" d="M46 1191l212 239h159l-287 -239h-84zM452 1430h125l297 -830l643 830h115l-722 -930l-100 -500h-105l100 500z" />
<glyph unicode="&#x38f;" horiz-adv-x="1633" d="M16 0l18 90h355q-308 310 -224 730q126 630 811 630t559 -630q-84 -420 -516 -730h355l-18 -90h-500l18 90q476 330 556 730q108 540 -472 540t-688 -540q-80 -400 264 -730l-18 -90h-500zM46 1191l212 239h159l-287 -239h-84z" />
<glyph unicode="&#x390;" horiz-adv-x="465" d="M38 0l210 1050h105l-210 -1050h-105zM79 1280l26 130h135l-26 -130h-135zM211 1191l212 239h159l-287 -239h-84zM599 1280l26 130h135l-26 -130h-135z" />
<glyph unicode="&#x391;" horiz-adv-x="1492" d="M-107 0l933 1430h125l364 -1430h-118l-116 480h-601l49 90h531l-187 778l-861 -1348h-119z" />
<glyph unicode="&#x392;" horiz-adv-x="1330" d="M18 0l286 1430h610q350 0 350 -246q0 -40 -9 -87q-48 -244 -365 -349q256 -45 256 -253q0 -38 -9 -82q-83 -413 -530 -413h-589zM141 90h473q346 0 410 320q7 33 7 62q0 221 -383 221h-80l14 71q509 45 565 326q7 35 7 65q0 185 -265 185h-498z" />
<glyph unicode="&#x393;" horiz-adv-x="1013" d="M18 0l286 1430h853l-18 -90h-748l-268 -1340h-105z" />
<glyph unicode="&#x394;" horiz-adv-x="1492" d="M-107 0l933 1430h126l363 -1430h-1422zM72 90h1102l-301 1258z" />
<glyph unicode="&#x2206;" horiz-adv-x="1492" d="M-107 0l933 1430h126l363 -1430h-1422zM72 90h1102l-301 1258z" />
<glyph unicode="&#x395;" horiz-adv-x="1248" d="M18 0l286 1430h939l-18 -90h-834l-114 -570h800l-18 -90h-800l-118 -590h848l-18 -90h-953z" />
<glyph unicode="&#x396;" horiz-adv-x="1270" d="M-7 0l16 80l1136 1260h-864l18 90h980l-18 -90l-1117 -1250h847l-18 -90h-980z" />
<glyph unicode="&#x397;" horiz-adv-x="1505" d="M18 0l286 1430h105l-132 -660h975l132 660h105l-286 -1430h-105l136 680h-975l-136 -680h-105z" />
<glyph unicode="&#x398;" horiz-adv-x="1645" d="M111 713q145 727 863 727q707 0 562 -727q-145 -723 -852 -723q-718 0 -573 723zM227 719q-128 -639 475 -639q592 0 720 639q126 631 -466 631q-603 0 -729 -631zM478 683l20 100h675l-20 -100h-675z" />
<glyph unicode="&#x399;" horiz-adv-x="525" d="M68 0l286 1430h105l-286 -1430h-105z" />
<glyph unicode="&#x39a;" horiz-adv-x="1325" d="M18 0l286 1430h105l-286 -1430h-105zM448 698l14 72l774 660h154l-833 -701l601 -729h-147z" />
<glyph unicode="&#x39b;" horiz-adv-x="1492" d="M-107 0l933 1430h125l364 -1430h-118l-324 1348l-861 -1348h-119z" />
<glyph unicode="&#x39c;" horiz-adv-x="1770" d="M18 0l286 1430h105l384 -1307l866 1307h95l-286 -1430h-95l247 1237l-815 -1237h-86l-357 1247l-249 -1247h-95z" />
<glyph unicode="&#x39d;" horiz-adv-x="1505" d="M18 0l286 1430h115l720 -1276l255 1276h95l-286 -1430h-85l-743 1312l-262 -1312h-95z" />
<glyph unicode="&#x39e;" horiz-adv-x="1196" d="M-42 0l20 100h996l-20 -100h-996zM155 683l20 100h876l-20 -100h-876zM224 1330l20 100h996l-20 -100h-996z" />
<glyph unicode="&#x39f;" horiz-adv-x="1645" d="M111 713q145 727 863 727q587 0 587 -501q0 -103 -25 -226q-145 -723 -852 -723q-597 0 -597 500q0 102 24 223zM227 719q-22 -112 -22 -204q0 -435 497 -435q592 0 720 639q22 111 22 202q0 429 -488 429q-603 0 -729 -631z" />
<glyph unicode="&#x3a0;" horiz-adv-x="1425" d="M18 0l286 1430h1105l-286 -1430h-105l268 1340h-895l-268 -1340h-105z" />
<glyph unicode="&#x3a1;" horiz-adv-x="1263" d="M18 0l286 1430h600q352 0 352 -278q0 -53 -13 -115q-77 -387 -767 -493l1 96q586 79 648 389q10 50 10 91q0 217 -267 217h-478l-267 -1337h-105z" />
<glyph unicode="&#x3a3;" horiz-adv-x="1180" d="M-42 0l18 90l627 660l-377 590l18 90h980l-18 -90h-870l392 -590l-612 -660h840l-18 -90h-980z" />
<glyph unicode="&#x3a4;" horiz-adv-x="1095" d="M136 1340l18 90h1075l-18 -90h-490l-268 -1340h-105l268 1340h-480z" />
<glyph unicode="&#x3a5;" horiz-adv-x="1250" d="M179 1430h125l297 -830l643 830h115l-722 -930l-100 -500h-105l100 500z" />
<glyph unicode="&#x3a6;" horiz-adv-x="1644" d="M103 723q111 557 788 594l23 113h104l-22 -112q663 -34 551 -595q-116 -578 -793 -611l-22 -112h-104l23 113q-663 37 -548 610zM216 719q-96 -478 453 -515l204 1022q-563 -36 -657 -507zM773 203q562 34 659 516q95 475 -455 508z" />
<glyph unicode="&#x3a7;" horiz-adv-x="1320" d="M-107 0l706 715l-420 715h125l373 -636l627 636h125l-705 -715l419 -715h-125l-373 636l-627 -636h-125z" />
<glyph unicode="&#x3a8;" horiz-adv-x="1650" d="M215 988l89 442h105l-89 -442q-85 -427 419 -447l178 889h104l-178 -889q512 20 597 447l89 442h105l-89 -442q-103 -517 -720 -537l-90 -451h-104l90 451q-609 20 -506 537z" />
<glyph unicode="&#x3a9;" horiz-adv-x="1610" d="M-7 0l18 90h355q-308 310 -224 730q126 630 811 630t559 -630q-84 -420 -516 -730h355l-18 -90h-500l18 90q476 330 556 730q108 540 -472 540t-688 -540q-80 -400 264 -730l-18 -90h-500z" />
<glyph unicode="&#x2126;" horiz-adv-x="1610" d="M-7 0l18 90h355q-308 310 -224 730q126 630 811 630t559 -630q-84 -420 -516 -730h355l-18 -90h-500l18 90q476 330 556 730q108 540 -472 540t-688 -540q-80 -400 264 -730l-18 -90h-500z" />
<glyph unicode="&#x3aa;" horiz-adv-x="525" d="M68 0l286 1430h105l-286 -1430h-105zM209 1660l26 130h135l-26 -130h-135zM529 1660l26 130h135l-26 -130h-135z" />
<glyph unicode="&#x3ab;" horiz-adv-x="1250" d="M179 1430h125l297 -830l643 830h115l-722 -930l-100 -500h-105l100 500zM572 1660l26 130h135l-26 -130h-135zM892 1660l26 130h135l-26 -130h-135z" />
<glyph unicode="&#x3ac;" horiz-adv-x="1379" d="M63 525q105 525 545 525q331 0 392 -425l240 425h107l-314 -528l90 -522h-110l-59 406q-260 -406 -556 -406q-438 0 -335 525zM169 529q-88 -439 247 -439q245 0 513 439q-84 431 -339 431q-335 0 -421 -431zM658 1191l212 239h159l-287 -239h-84z" />
<glyph unicode="&#x3ad;" horiz-adv-x="925" d="M16 290q40 200 269 255q-196 59 -161 233q56 282 461 282q160 0 300 -50l-20 -100q-138 60 -308 60q-290 0 -328 -192q-38 -188 287 -188h195l-18 -90h-198q-332 0 -374 -210t258 -210q170 0 332 60l-20 -100q-160 -50 -330 -50q-405 0 -345 300zM451 1191l212 239h159 l-287 -239h-84z" />
<glyph unicode="&#x3ae;" horiz-adv-x="1185" d="M18 0l210 1050h85l-43 -314q247 314 510 314q293 0 232 -305l-225 -1125h-105l225 1125q42 211 -151 211q-259 0 -508 -333l-125 -623h-105zM581 1191l212 239h159l-287 -239h-84z" />
<glyph unicode="&#x3af;" horiz-adv-x="465" d="M38 0l210 1050h105l-210 -1050h-105zM221 1191l212 239h159l-287 -239h-84z" />
<glyph unicode="&#x3b0;" horiz-adv-x="1210" d="M96 438l122 612h105l-122 -612q-72 -358 278 -358t422 358l122 612h105l-122 -612q-90 -448 -545 -448t-365 448zM392 1280l26 130h135l-26 -130h-135zM524 1191l212 239h159l-287 -239h-84zM912 1280l26 130h135l-26 -130h-135z" />
<glyph unicode="&#x3b1;" horiz-adv-x="1379" d="M63 525q105 525 545 525q331 0 392 -425l240 425h107l-314 -528l90 -522h-110l-59 406q-260 -406 -556 -406q-438 0 -335 525zM169 529q-88 -439 247 -439q245 0 513 439q-84 431 -339 431q-335 0 -421 -431z" />
<glyph unicode="&#x3b2;" horiz-adv-x="1196" d="M-64 -362l247 1233q111 559 605 559q410 0 343 -336q-52 -262 -316 -325q311 -37 241 -388q-77 -383 -491 -383q-136 0 -280 60l18 90q145 -60 282 -60q307 0 366 293q67 338 -384 339l12 58q409 54 461 316q49 246 -277 246q-382 0 -476 -472l-246 -1230h-105z" />
<glyph unicode="&#x3b3;" horiz-adv-x="1080" d="M103 1050h115l197 -927l573 927h115l-666 -1050l-76 -380h-105l76 380z" />
<glyph unicode="&#x3b4;" horiz-adv-x="1200" d="M64 530q102 510 595 510q86 0 176 -30q-217 213 -493 340l16 80h785l-16 -80h-597q622 -315 536 -810q-110 -550 -617 -550q-493 0 -385 540zM165 530q-90 -450 303 -450q401 0 492 456q85 424 -317 424q-392 0 -478 -430z" />
<glyph unicode="&#x3b5;" horiz-adv-x="925" d="M16 290q40 200 269 255q-196 59 -161 233q56 282 461 282q160 0 300 -50l-20 -100q-138 60 -308 60q-290 0 -328 -192q-38 -188 287 -188h195l-18 -90h-198q-332 0 -374 -210t258 -210q170 0 332 60l-20 -100q-160 -50 -330 -50q-405 0 -345 300z" />
<glyph unicode="&#x3b6;" horiz-adv-x="1003" d="M41 417q90 449 886 923h-498l18 90h650l-18 -90q-852 -493 -937 -919q-66 -331 232 -331h201q244 0 211 -163q-41 -206 -384 -327l-24 78q285 99 315 247q15 75 -131 75h-201q-403 0 -320 417z" />
<glyph unicode="&#x3b7;" d="M18 0l210 1050h85l-43 -314q247 314 510 314q293 0 232 -305l-225 -1125h-105l225 1125q42 211 -151 211q-259 0 -508 -333l-125 -623h-105z" />
<glyph unicode="&#x3b8;" horiz-adv-x="1245" d="M121 713q145 727 653 727q497 0 352 -727q-145 -723 -642 -723q-508 0 -363 723zM233 700q-118 -620 269 -620q376 0 506 620h-775zM252 790h773q91 560 -269 560q-370 0 -504 -560z" />
<glyph unicode="&#x3b9;" horiz-adv-x="465" d="M38 0l210 1050h105l-210 -1050h-105z" />
<glyph unicode="&#x3ba;" horiz-adv-x="996" d="M8 0l210 1050h105l-210 -1050h-105zM364 525l15 73l537 452h138l-590 -502l386 -548h-127z" />
<glyph unicode="&#x3bb;" horiz-adv-x="1091" d="M-102 0l663 1051q-47 237 -216 303l48 84q217 -71 276 -357l240 -1081h-116l-199 945l-575 -945h-121z" />
<glyph unicode="&#x3bd;" horiz-adv-x="1030" d="M78 1050h120l192 -959l578 959h120l-657 -1050h-122z" />
<glyph unicode="&#x3be;" horiz-adv-x="1018" d="M66 417q67 332 356 431q-169 54 -125 274q62 308 468 308h244l-18 -90h-243q-302 0 -347 -224t258 -224h232l-18 -90h-222q-408 0 -484 -381q-66 -331 232 -331h221q224 0 189 -173q-39 -196 -382 -317l-26 68q289 119 315 247q17 85 -109 85h-221q-403 0 -320 417z" />
<glyph unicode="&#x3bf;" horiz-adv-x="1200" d="M63 525q105 525 605 525t395 -525q-105 -524 -605 -524q-498 0 -395 524zM169 529q-88 -439 307 -439t483 439q86 431 -309 431t-481 -431z" />
<glyph unicode="&#x3c0;" horiz-adv-x="1385" d="M63 900l18 90q152 60 302 60h970l-18 -90h-245l-128 -640q-46 -231 136 -231q11 0 23 1l-18 -90q-34 -5 -63 -5q-248 0 -183 325l128 640h-515l-192 -961h-105l192 961q-150 0 -302 -60z" />
<glyph unicode="&#x3c1;" horiz-adv-x="1212" d="M-83 -380l186 930q100 500 582 500q495 0 395 -500q-110 -550 -638 -550q-146 0 -332 60l-88 -440h-105zM131 164q176 -64 330 -64q427 0 517 450q81 406 -314 406q-375 0 -456 -406z" />
<glyph unicode="&#x3c2;" horiz-adv-x="993" d="M71 567q97 483 646 483q153 0 255 -50l-18 -90q-102 50 -255 50q-449 0 -527 -389q-57 -283 215 -357l148 -45q285 -74 245 -274q-55 -275 -495 -275l18 90q337 0 373 181q27 136 -183 190l-187 61q-304 79 -235 425z" />
<glyph unicode="&#x3c3;" horiz-adv-x="1277" d="M63 525q105 525 615 525h617l-18 -90h-311q158 -129 97 -435q-105 -524 -605 -524q-498 0 -395 524zM169 529q-88 -439 307 -439t483 439q86 431 -299 431q-405 0 -491 -431z" />
<glyph unicode="&#x3c4;" horiz-adv-x="769" d="M50 960l18 90h694l-18 -90h-315l-118 -590q-56 -281 166 -281q11 0 23 1l-18 -90q-34 -4 -64 -4q-287 0 -212 374l118 590h-274z" />
<glyph unicode="&#x3c5;" horiz-adv-x="1210" d="M96 438l122 612h105l-122 -612q-72 -358 278 -358t422 358l122 612h105l-122 -612q-90 -448 -545 -448t-365 448z" />
<glyph unicode="&#x3c6;" horiz-adv-x="1505" d="M68 550q55 275 280 500h125q-245 -225 -300 -500q-92 -460 389 -480l117 585q79 395 403 395q391 0 291 -500q-110 -550 -724 -570l-72 -360h-105l72 360q-586 20 -476 570zM667 70q509 20 601 480q82 410 -201 410q-222 0 -283 -305z" />
<glyph unicode="&#x3c7;" horiz-adv-x="1050" d="M-178 -380l566 715l-280 715h125l238 -609l482 609h125l-565 -715l279 -715h-125l-238 609l-482 -609h-125z" />
<glyph unicode="&#x3c8;" horiz-adv-x="1610" d="M116 538l102 512h105l-102 -512q-87 -435 406 -457l193 969h106l-193 -969q501 22 588 457l102 512h105l-102 -512q-105 -525 -711 -547l-75 -371h-106l75 371q-598 22 -493 547z" />
<glyph unicode="&#x3c9;" horiz-adv-x="1675" d="M88 550q55 275 230 500h105q-175 -225 -230 -500q-92 -460 163 -460q305 0 452 735h105q-147 -735 158 -735q255 0 347 460q55 275 -30 500h105q85 -225 30 -500q-110 -550 -470 -550q-305 0 -282 389q-128 -389 -433 -389q-360 0 -250 550z" />
<glyph unicode="&#x3ca;" horiz-adv-x="465" d="M38 0l210 1050h105l-210 -1050h-105zM119 1280l26 130h135l-26 -130h-135zM439 1280l26 130h135l-26 -130h-135z" />
<glyph unicode="&#x3cb;" horiz-adv-x="1210" d="M96 438l122 612h105l-122 -612q-72 -358 278 -358t422 358l122 612h105l-122 -612q-90 -448 -545 -448t-365 448zM492 1280l26 130h135l-26 -130h-135zM812 1280l26 130h135l-26 -130h-135z" />
<glyph unicode="&#x3cc;" horiz-adv-x="1200" d="M63 525q105 525 605 525t395 -525q-105 -524 -605 -524q-498 0 -395 524zM169 529q-88 -439 307 -439t483 439q86 431 -309 431t-481 -431zM588 1191l212 239h159l-287 -239h-84z" />
<glyph unicode="&#x3cd;" horiz-adv-x="1210" d="M96 438l122 612h105l-122 -612q-72 -358 278 -358t422 358l122 612h105l-122 -612q-90 -448 -545 -448t-365 448zM593 1191l212 239h159l-287 -239h-84z" />
<glyph unicode="&#x3ce;" horiz-adv-x="1675" d="M88 550q55 275 230 500h105q-175 -225 -230 -500q-92 -460 163 -460q305 0 452 735h105q-147 -735 158 -735q255 0 347 460q55 275 -30 500h105q85 -225 30 -500q-110 -550 -470 -550q-305 0 -282 389q-128 -389 -433 -389q-360 0 -250 550zM826 1191l212 239h159 l-287 -239h-84z" />
<glyph unicode="&#x401;" horiz-adv-x="1248" d="M18 0l286 1430h939l-18 -90h-834l-114 -570h800l-18 -90h-800l-118 -590h848l-18 -90h-953zM583 1660l26 130h135l-26 -130h-135zM903 1660l26 130h135l-26 -130h-135z" />
<glyph unicode="&#x410;" horiz-adv-x="1492" d="M-107 0l933 1430h125l364 -1430h-118l-116 480h-601l49 90h531l-187 778l-861 -1348h-119z" />
<glyph unicode="&#x411;" horiz-adv-x="1301" d="M18 0l286 1430h1001l-18 -90h-895l-249 -1247h487q318 0 379 309q66 328 -306 328h-188l18 90h197q468 0 387 -407q-83 -413 -489 -413h-610z" />
<glyph unicode="&#x412;" horiz-adv-x="1330" d="M18 0l286 1430h610q350 0 350 -246q0 -40 -9 -87q-48 -244 -365 -349q256 -45 256 -253q0 -38 -9 -82q-83 -413 -530 -413h-589zM141 90h473q346 0 410 320q7 33 7 62q0 221 -383 221h-80l14 71q509 45 565 326q7 35 7 65q0 185 -265 185h-498z" />
<glyph unicode="&#x413;" horiz-adv-x="1013" d="M18 0l286 1430h853l-18 -90h-748l-268 -1340h-105z" />
<glyph unicode="&#x414;" horiz-adv-x="1619" d="M-218 -380l94 470h184q415 0 665 1250l18 90h760l-268 -1340h185l-94 -470h-105l76 380h-1335l-76 -380h-104zM294 90h836l250 1250h-550q-200 -999 -536 -1250z" />
<glyph unicode="&#x415;" horiz-adv-x="1248" d="M18 0l286 1430h939l-18 -90h-834l-114 -570h800l-18 -90h-800l-118 -590h848l-18 -90h-953z" />
<glyph unicode="&#x416;" horiz-adv-x="2039" d="M-72 0q459 546 569 645.5t188 112.5q-138 39 -217.5 310.5t-237.5 271.5h-79l18 90h107q188 0 288 -317t300 -317l-14 -73q-118 0 -224.5 -91.5t-553.5 -631.5h-144zM825 0l286 1430h105l-286 -1430h-105zM1195 723l14 73q200 0 427 317t415 317h107l-18 -90h-79 q-158 0 -346.5 -271.5t-340.5 -310.5q72 -13 142 -112.5t311 -645.5h-144q-231 540 -300.5 631.5t-187.5 91.5z" />
<glyph unicode="&#x417;" horiz-adv-x="1115" d="M-32 50l20 100q186 -70 386 -70q410 0 474 320q56 280 -276 280h-328l18 90h325q335 0 391 280q60 300 -350 300q-200 0 -414 -70l20 100q212 60 412 60q515 0 437 -390q-51 -256 -303 -325q225 -65 173 -325q-82 -410 -597 -410q-200 0 -388 60z" />
<glyph unicode="&#x418;" horiz-adv-x="1435" d="M18 0l286 1430h105l-254 -1272l1149 1272h115l-286 -1430h-105l254 1272l-1149 -1272h-115z" />
<glyph unicode="&#x419;" horiz-adv-x="1435" d="M18 0l286 1430h105l-254 -1272l1149 1272h115l-286 -1430h-105l254 1272l-1149 -1272h-115zM685 1784h85q-36 -180 134 -180t206 180h85q-52 -260 -307 -260t-203 260z" />
<glyph unicode="&#x41a;" horiz-adv-x="1232" d="M18 0l286 1430h105l-286 -1430h-105zM388 723l14 73q200 0 427 317t415 317h107l-18 -90h-79q-158 0 -356.5 -271.5t-330.5 -310.5q72 -13 142 -112.5t311 -645.5h-144q-231 540 -300.5 631.5t-187.5 91.5z" />
<glyph unicode="&#x41b;" horiz-adv-x="1434" d="M-142 0l18 90q414 0 556 710l126 630h860l-286 -1430h-105l268 1340h-650l-108 -540q-160 -800 -679 -800z" />
<glyph unicode="&#x41c;" horiz-adv-x="1770" d="M18 0l286 1430h105l384 -1307l866 1307h95l-286 -1430h-95l247 1237l-815 -1237h-86l-357 1247l-249 -1247h-95z" />
<glyph unicode="&#x41d;" horiz-adv-x="1425" d="M18 0l286 1430h105l-130 -650h895l130 650h105l-286 -1430h-105l138 690h-895l-138 -690h-105z" />
<glyph unicode="&#x41e;" horiz-adv-x="1645" d="M111 713q145 727 863 727q587 0 587 -501q0 -103 -25 -226q-145 -723 -852 -723q-597 0 -597 500q0 102 24 223zM227 719q-22 -112 -22 -204q0 -435 497 -435q592 0 720 639q22 111 22 202q0 429 -488 429q-603 0 -729 -631z" />
<glyph unicode="&#x41f;" horiz-adv-x="1425" d="M18 0l286 1430h1105l-286 -1430h-105l268 1340h-895l-268 -1340h-105z" />
<glyph unicode="&#x420;" horiz-adv-x="1263" d="M18 0l286 1430h600q352 0 352 -278q0 -53 -13 -115q-77 -387 -767 -493l1 96q586 79 648 389q10 50 10 91q0 217 -267 217h-478l-267 -1337h-105z" />
<glyph unicode="&#x421;" horiz-adv-x="1405" d="M115 735q141 705 891 705q205 0 388 -60l-18 -90q-183 60 -368 60q-665 0 -788 -615q-22 -108 -22 -198q0 -457 556 -457q185 0 392 60l-18 -90q-207 -60 -412 -60q-626 0 -626 519q0 103 25 226z" />
<glyph unicode="&#x422;" horiz-adv-x="1095" d="M136 1340l18 90h1075l-18 -90h-490l-268 -1340h-105l268 1340h-480z" />
<glyph unicode="&#x423;" horiz-adv-x="1307" d="M36 70l18 90q92 -70 212 -70q214 0 313 181l-385 1159h108l355 -1060l650 1060h119l-725 -1162q-168 -268 -443 -268q-128 0 -222 70z" />
<glyph unicode="&#x424;" horiz-adv-x="1644" d="M103 723q111 557 788 594l23 113h104l-22 -112q663 -34 551 -595q-116 -578 -793 -611l-22 -112h-104l23 113q-663 37 -548 610zM216 719q-96 -478 453 -515l204 1022q-563 -36 -657 -507zM773 203q562 34 659 516q95 475 -455 508z" />
<glyph unicode="&#x425;" horiz-adv-x="1320" d="M-107 0l706 715l-420 715h120l373 -636l627 636h130l-705 -715l419 -715h-119l-373 636l-627 -636h-131z" />
<glyph unicode="&#x426;" horiz-adv-x="1477" d="M18 0l286 1430h105l-268 -1340h822l268 1340h105l-268 -1340h185l-94 -470h-105l76 380h-1112z" />
<glyph unicode="&#x427;" horiz-adv-x="1318" d="M183 1001l86 429h105l-86 -432q-77 -384 322 -384q249 0 450 133l137 683h105l-286 -1430h-105l127 634q-219 -114 -452 -114q-499 0 -403 481z" />
<glyph unicode="&#x428;" horiz-adv-x="1775" d="M18 0l286 1430h105l-268 -1340h570l268 1340h105l-268 -1340h570l268 1340h105l-286 -1430h-1455z" />
<glyph unicode="&#x429;" horiz-adv-x="1900" d="M18 0l286 1430h105l-268 -1340h570l268 1340h105l-268 -1340h570l268 1340h105l-268 -1340h185l-94 -470h-105l76 380h-1535z" />
<glyph unicode="&#x42a;" horiz-adv-x="1710" d="M126 1340l18 90h687l-267 -1337h498q308 0 369 309q66 328 -296 328h-278l18 90h278q479 0 398 -407q-83 -413 -501 -413h-610l268 1340h-582z" />
<glyph unicode="&#x42b;" horiz-adv-x="1645" d="M18 0l286 1430h105l-267 -1337h498q318 0 379 309q66 328 -306 328h-278l18 90h278q479 0 398 -407q-83 -413 -501 -413h-610zM1238 0l286 1430h105l-286 -1430h-105z" />
<glyph unicode="&#x42c;" horiz-adv-x="1288" d="M18 0l286 1430h105l-267 -1337h498q318 0 379 309q66 328 -306 328h-278l18 90h277q480 0 399 -407q-83 -413 -501 -413h-610z" />
<glyph unicode="&#x42d;" horiz-adv-x="1375" d="M-7 50l20 100q171 -70 386 -70q612 0 762 600h-970l18 90h971q93 580 -527 580q-215 0 -414 -70l20 100q197 60 412 60q750 0 609 -705q-149 -745 -899 -745q-215 0 -388 60z" />
<glyph unicode="&#x42e;" horiz-adv-x="2012" d="M18 0l286 1430h104l-132 -660h495q158 670 710 670q577 0 434 -717q-147 -733 -724 -733q-562 0 -439 690h-494l-136 -680h-104zM864 719q-128 -639 345 -639q462 0 590 639q126 631 -336 631q-473 0 -599 -631z" />
<glyph unicode="&#x42f;" horiz-adv-x="1225" d="M-117 0l616 666q-396 124 -337 421q69 343 457 343h590l-286 -1430h-105l267 1337h-468q-288 0 -339 -258q-56 -280 371 -345l-14 -71l-608 -663h-144z" />
<glyph unicode="&#x430;" horiz-adv-x="1127" d="M72 521q106 529 591 529q213 0 363 -43l-201 -1007h-85l30 250q-208 -250 -444 -250q-277 0 -277 313q0 91 23 208zM175 523q-21 -105 -21 -184q0 -239 193 -239q244 0 444 254l115 578q-130 24 -270 24q-375 0 -461 -433z" />
<glyph unicode="&#x431;" horiz-adv-x="1187" d="M87 520l65 325q117 585 651 585q212 0 405 109l-21 -103q-172 -96 -405 -96q-421 0 -518 -485q160 195 422 195q458 0 357 -506l-5 -24q-106 -530 -574 -530q-483 0 -377 530zM197 520q-88 -440 285 -440q362 0 450 440q87 434 -265 434q-383 0 -470 -434z" />
<glyph unicode="&#x432;" horiz-adv-x="1116" d="M63 525q107 535 627 535q378 0 325 -263q-34 -173 -266 -252q223 -53 184 -252q-61 -303 -488 -303q-489 0 -382 535zM168 525q-89 -445 294 -445q316 0 358 210q40 200 -213 200h-160l16 81q403 15 446 229q34 170 -244 170q-408 0 -497 -445z" />
<glyph unicode="&#x433;" horiz-adv-x="980" d="M18 300q52 260 422 260h100q205 0 243 190q42 210 -260 210q-158 0 -345 -60l20 100q185 50 343 50q407 0 347 -300q-56 -280 -386 -280h-100q-245 0 -279 -170q-42 -210 259 -210q159 0 346 60l-20 -100q-185 -50 -344 -50q-406 0 -346 300z" />
<glyph unicode="&#x434;" horiz-adv-x="1140" d="M76 540q102 510 556 510q207 0 316 -100q-24 390 -416 390h-216l18 90h218q632 0 464 -840q-120 -600 -587 -600q-463 0 -353 550zM177 540q-92 -460 271 -460q361 0 462 506q23 116 33 254q-94 130 -318 130q-362 0 -448 -430z" />
<glyph unicode="&#x435;" horiz-adv-x="1075" d="M75 537q103 513 576 513q334 0 334 -209q0 -30 -7 -65q-57 -284 -427 -284h-380q-14 -71 -14 -129q0 -273 310 -273q209 0 376 140l-20 -100q-165 -130 -374 -130q-393 0 -393 359q0 80 19 178zM190 586h378q267 0 306 193q4 21 4 40q0 143 -245 143q-350 0 -443 -376z " />
<glyph unicode="&#x436;" horiz-adv-x="1976" d="M-36 30l18 90q84 -30 174 -30q235 0 324 445q85 425 -140 425q-100 0 -206 -80l18 90q106 80 216 80q310 0 207 -515l-7 -36l336 69l96 482h105l-92 -459l352 72q120 387 409 387q80 0 164 -30l-18 -90q-84 30 -174 30q-235 0 -324 -445q-85 -425 140 -425q100 0 206 80 l-18 -90q-106 -80 -216 -80q-310 0 -207 515q6 29 12 57l-344 -71l-100 -501h-105l96 478l-341 -70q-120 -408 -417 -408q-80 0 -164 30z" />
<glyph unicode="&#x437;" horiz-adv-x="925" d="M-32 50l20 100q166 -70 316 -70q290 0 336 230q36 180 -196 180h-288l18 90h285q235 0 273 188q40 202 -250 202q-150 0 -344 -70l20 100q192 60 342 60q395 0 337 -292q-31 -154 -185 -233q123 -75 93 -225q-64 -320 -459 -320q-150 0 -318 60z" />
<glyph unicode="&#x438;" d="M79 305l149 745h105l-149 -745q-42 -211 131 -211q279 0 528 333l125 623h105l-210 -1050h-105l63 314q-247 -314 -530 -314q-273 0 -212 305z" />
<glyph unicode="&#x439;" d="M79 305l149 745h105l-149 -745q-42 -211 131 -211q279 0 528 333l125 623h105l-210 -1050h-105l63 314q-247 -314 -530 -314q-273 0 -212 305zM472 1430h85q-36 -180 134 -180t206 180h85q-52 -260 -307 -260t-203 260z" />
<glyph unicode="&#x43a;" horiz-adv-x="989" d="M8 0l210 1050h105l-210 -1050h-105zM315 523l12 63q190 0 310 232t318 232h77l-18 -90h-79q-118 0 -215.5 -181.5t-229.5 -220.5q101 -31 214 -294l113 -264h-124l-98 246q-92 277 -280 277z" />
<glyph unicode="&#x43b;" horiz-adv-x="1127" d="M-142 0l18 90q237 0 303 330l55 275q71 355 431 355h380l-210 -1050h-105l192 960h-275q-255 0 -309 -270l-54 -270q-84 -420 -426 -420z" />
<glyph unicode="&#x43c;" horiz-adv-x="1420" d="M8 0l210 1050h105l273 -946l637 946h105l-210 -1050h-95l173 863l-591 -863h-86l-253 863l-173 -863h-95z" />
<glyph unicode="&#x43d;" horiz-adv-x="1125" d="M8 0l210 1050h105l-94 -470h615l94 470h105l-210 -1050h-105l98 490h-615l-98 -490h-105z" />
<glyph unicode="&#x43e;" horiz-adv-x="1160" d="M73 525q107 535 577 535t363 -535q-107 -534 -577 -534q-468 0 -363 534zM179 529q-90 -449 275 -449t455 449q88 441 -277 441t-453 -441z" />
<glyph unicode="&#x43f;" d="M18 0l210 1050h85l-43 -314q247 314 510 314q293 0 232 -305l-149 -745h-105l149 745q42 211 -151 211q-259 0 -508 -333l-125 -623h-105z" />
<glyph unicode="&#x440;" horiz-adv-x="1128" d="M-58 -380l286 1429h85l-30 -249q249 250 465 250q338 0 239 -494q-111 -556 -554 -556q-165 0 -305 23l-81 -403h-105zM148 123q165 -29 295 -29q350 0 444 469q77 387 -170 387q-214 0 -455 -254z" />
<glyph unicode="&#x441;" horiz-adv-x="1005" d="M75 535q103 515 593 515q150 0 274 -30l-18 -90q-134 30 -264 30q-385 0 -470 -425q-89 -445 246 -445q180 0 348 140l-20 -100q-156 -130 -356 -130q-440 0 -333 535z" />
<glyph unicode="&#x442;" horiz-adv-x="1795" d="M18 0l210 1050h85l-42 -312q204 312 452 312q290 0 229 -304q213 304 459 304q292 0 225 -335l-143 -715h-105l143 715q48 241 -140 241q-258 0 -454 -336l-124 -620h-105l143 715q48 241 -148 241q-246 0 -456 -336l-124 -620h-105z" />
<glyph unicode="&#x443;" d="M-10 -330l18 90q143 -50 336 -50q356 0 414 290l63 314q-247 -314 -530 -314q-273 0 -212 305l149 745h105l-149 -745q-42 -211 131 -211q279 0 528 333l125 623h105l-210 -1050q-76 -380 -539 -380q-194 0 -334 50z" />
<glyph unicode="&#x444;" horiz-adv-x="1831" d="M67 494q111 556 554 556q165 0 305 -23l81 403h105l-126 -630q249 250 465 250q338 0 239 -494q-111 -556 -554 -556q-165 0 -305 23l-81 -403h-105l126 630q-249 -250 -465 -250q-338 0 -239 494zM167 487q-77 -387 170 -387q214 0 455 254l114 573q-165 29 -295 29 q-350 0 -444 -469zM851 123q165 -29 295 -29q350 0 444 469q77 387 -170 387q-214 0 -455 -254z" />
<glyph unicode="&#x445;" horiz-adv-x="990" d="M-117 0l513 525l-303 525h120l256 -444l434 444h130l-512 -525l302 -525h-120l-256 444l-434 -444h-130z" />
<glyph unicode="&#x446;" horiz-adv-x="1240" d="M79 305l149 745h105l-149 -745q-42 -211 131 -211q279 0 528 333l125 623h105l-196 -980l189 20q-47 -235 -194 -470h-105q138 190 180 400l-169 -20l43 314q-247 -314 -530 -314q-273 0 -212 305z" />
<glyph unicode="&#x447;" horiz-adv-x="1138" d="M125 711l68 339h105l-68 -342q-63 -314 246 -314q219 0 370 133l105 523h105l-210 -1050h-105l83 414q-169 -114 -372 -114q-409 0 -327 411z" />
<glyph unicode="&#x448;" horiz-adv-x="1795" d="M85 335l143 715h105l-143 -715q-48 -241 140 -241q258 0 454 336l124 620h105l-143 -715q-48 -241 148 -241q246 0 456 336l124 620h105l-210 -1050h-85l42 312q-204 -312 -452 -312q-290 0 -229 304q-213 -304 -459 -304q-292 0 -225 335z" />
<glyph unicode="&#x449;" horiz-adv-x="1870" d="M85 335l143 715h105l-143 -715q-48 -241 140 -241q258 0 454 336l124 620h105l-143 -715q-48 -241 148 -241q246 0 456 336l124 620h105l-196 -980l189 20q-47 -235 -194 -470h-105q138 190 180 400l-169 -20l42 312q-204 -312 -452 -312q-290 0 -229 304 q-213 -304 -459 -304q-292 0 -225 335z" />
<glyph unicode="&#x44a;" horiz-adv-x="1352" d="M50 960l18 90h489l-146 -731q-45 -226 273 -226q338 0 383 229q40 197 -212 197h-268l18 90h268q359 0 300 -296q-63 -313 -511 -313q-420 0 -356 319l128 641h-384z" />
<glyph unicode="&#x44b;" horiz-adv-x="1450" d="M72 319l146 731h105l-146 -731q-45 -226 293 -226q318 0 363 229q40 197 -212 197h-268l18 90h267q360 0 301 -296q-63 -313 -491 -313q-440 0 -376 319zM1033 0l210 1050h125l-210 -1050h-125z" />
<glyph unicode="&#x44c;" horiz-adv-x="1168" d="M72 319l146 731h105l-146 -731q-45 -226 293 -226q318 0 363 229q40 197 -212 197h-268l18 90h267q360 0 301 -296q-63 -313 -491 -313q-440 0 -376 319z" />
<glyph unicode="&#x44d;" horiz-adv-x="970" d="M-36 30l18 90q124 -30 274 -30q359 0 460 401h-596l18 90h597q60 379 -315 379q-140 0 -276 -30l18 90q136 30 286 30q490 0 389 -505q-109 -545 -599 -545q-150 0 -274 30z" />
<glyph unicode="&#x44e;" horiz-adv-x="1702" d="M8 0l210 1050h104l-94 -470h426q123 480 561 480q457 0 350 -537q-107 -533 -564 -533q-449 0 -366 500h-425l-98 -490h-104zM756 529q-90 -449 263 -449q342 0 432 449q88 441 -254 441q-353 0 -441 -441z" />
<glyph unicode="&#x44f;" horiz-adv-x="1065" d="M-117 0l481 477q-280 69 -227 337q48 236 366 236h480l-210 -1050h-105l191 957h-378q-208 0 -243 -178q-36 -180 253 -235l-18 -91l-451 -453h-139z" />
<glyph unicode="&#x451;" horiz-adv-x="1075" d="M75 537q103 513 576 513q334 0 334 -209q0 -30 -7 -65q-57 -284 -427 -284h-380q-14 -71 -14 -129q0 -273 310 -273q209 0 376 140l-20 -100q-165 -130 -374 -130q-393 0 -393 359q0 80 19 178zM190 586h378q267 0 306 193q4 21 4 40q0 143 -245 143q-350 0 -443 -376z M434 1280l26 130h135l-26 -130h-135zM754 1280l26 130h135l-26 -130h-135z" />
<glyph unicode="&#x2000;" horiz-adv-x="927" />
<glyph unicode="&#x2001;" horiz-adv-x="1854" />
<glyph unicode="&#x2002;" horiz-adv-x="927" />
<glyph unicode="&#x2003;" horiz-adv-x="1854" />
<glyph unicode="&#x2004;" horiz-adv-x="618" />
<glyph unicode="&#x2005;" horiz-adv-x="463" />
<glyph unicode="&#x2006;" horiz-adv-x="309" />
<glyph unicode="&#x2007;" horiz-adv-x="309" />
<glyph unicode="&#x2008;" horiz-adv-x="231" />
<glyph unicode="&#x2009;" horiz-adv-x="370" />
<glyph unicode="&#x200a;" horiz-adv-x="103" />
<glyph unicode="&#x2010;" horiz-adv-x="720" d="M64 480l18 90h500l-18 -90h-500z" />
<glyph unicode="&#x2011;" horiz-adv-x="720" d="M64 480l18 90h500l-18 -90h-500z" />
<glyph unicode="&#x2012;" horiz-adv-x="720" d="M64 480l18 90h500l-18 -90h-500z" />
<glyph unicode="&#x2013;" horiz-adv-x="1220" d="M64 480l18 90h1000l-18 -90h-1000z" />
<glyph unicode="&#x2014;" horiz-adv-x="1720" d="M64 480l18 90h1500l-18 -90h-1500z" />
<glyph unicode="&#x2018;" horiz-adv-x="350" d="M117 995l237 435h115l-237 -435h-115z" />
<glyph unicode="&#x2019;" horiz-adv-x="375" d="M117 995l237 435h115l-237 -435h-115z" />
<glyph unicode="&#x201a;" horiz-adv-x="350" d="M-167 -250l237 435h115l-237 -435h-115z" />
<glyph unicode="&#x201c;" horiz-adv-x="650" d="M117 995l237 435h115l-237 -435h-115zM417 995l237 435h115l-237 -435h-115z" />
<glyph unicode="&#x201d;" horiz-adv-x="650" d="M117 995l237 435h115l-237 -435h-115zM417 995l237 435h115l-237 -435h-115z" />
<glyph unicode="&#x201e;" horiz-adv-x="650" d="M-167 -250l237 435h115l-237 -435h-115zM133 -250l237 435h115l-237 -435h-115z" />
<glyph unicode="&#x2020;" horiz-adv-x="1065" d="M110 960l18 90h420l76 380h105l-76 -380h420l-18 -90h-420l-268 -1340h-105l268 1340h-420z" />
<glyph unicode="&#x2021;" horiz-adv-x="1065" d="M-82 0l18 90h420l174 870h-420l18 90h420l76 380h105l-76 -380h420l-18 -90h-420l-174 -870h420l-18 -90h-420l-76 -380h-105l76 380h-420z" />
<glyph unicode="&#x2022;" horiz-adv-x="610" d="M113 725q39 195 234 195t156 -195t-234 -195t-156 195z" />
<glyph unicode="&#x2026;" horiz-adv-x="1055" d="M-32 0l25 125h135l-25 -125h-135zM318 0l25 125h135l-25 -125h-135zM668 0l25 125h135l-25 -125h-135z" />
<glyph unicode="&#x202f;" horiz-adv-x="370" />
<glyph unicode="&#x2030;" horiz-adv-x="2047" d="M-32 0l1303 1430h125l-1303 -1430h-125zM204 1180q52 260 330 260q274 0 222 -260q-52 -259 -326 -259q-278 0 -226 259zM304 1182q-35 -177 143 -177q174 0 209 177q35 174 -139 174q-178 0 -213 -174zM608 249q52 260 330 260q274 0 222 -260q-52 -259 -326 -259 q-278 0 -226 259zM708 251q-35 -177 143 -177q174 0 209 177q35 174 -139 174q-178 0 -213 -174zM1293 249q52 260 330 260q274 0 222 -260q-52 -259 -326 -259q-278 0 -226 259zM1393 251q-35 -177 143 -177q174 0 209 177q35 174 -139 174q-178 0 -213 -174z" />
<glyph unicode="&#x2039;" horiz-adv-x="550" d="M73 525l333 375h122l-333 -375l183 -375h-122z" />
<glyph unicode="&#x203a;" horiz-adv-x="550" d="M-52 150l333 375l-183 375h122l183 -375l-333 -375h-122z" />
<glyph unicode="&#x2044;" horiz-adv-x="1290" d="M-32 0l1231 1430h125l-1231 -1430h-125z" />
<glyph unicode="&#x205f;" horiz-adv-x="463" />
<glyph unicode="&#x20ac;" horiz-adv-x="1405" d="M115 735q141 705 891 705q215 0 388 -60l-20 -100q-171 70 -366 70q-568 0 -733 -438h833l-18 -90h-843l-34 -170h843l-18 -90h-833q-19 -482 549 -482q195 0 394 70l-20 -100q-197 -60 -412 -60q-750 0 -601 745z" />
<glyph unicode="&#x2122;" horiz-adv-x="1626" d="M290 1359l14 71h511l-14 -71h-212l-120 -602h-87l120 602h-212zM770 757l134 673h110l136 -561l354 561h106l-134 -673h-78l108 543l-347 -543h-69l-135 543l-108 -543h-77z" />
<glyph unicode="&#x2202;" horiz-adv-x="1237" d="M71 282q14 66 46 148q166 397 632 397h314q36 100 52 180q69 343 -223 343q-207 0 -413 -133l21 103q227 120 421 120q384 0 299 -427q-23 -113 -79 -256q-315 -767 -815 -767q-313 0 -255 292zM185 308q-46 -228 183 -228q381 0 653 650h-313q-362 0 -486 -300 q-27 -68 -37 -122z" />
<glyph unicode="&#x220f;" horiz-adv-x="1570" d="M-68 -380l362 1810h1270l-362 -1810h-95l344 1720h-1070l-344 -1720h-105z" />
<glyph unicode="&#x2211;" horiz-adv-x="1350" d="M-118 -380l18 90l745 850l-419 780l18 90h1150l-18 -90h-1040l424 -790l-740 -840h1030l-18 -90h-1150z" />
<glyph unicode="&#x221a;" horiz-adv-x="1370" d="M135 960l18 90h315l103 -923l898 1727h120l-992 -1861h-125l-107 967h-230z" />
<glyph unicode="&#x221e;" horiz-adv-x="1540" d="M73 525q59 295 349 295q210 0 326 -220q204 220 414 220q290 0 231 -295t-349 -295q-210 0 -326 220q-204 -220 -414 -220q-290 0 -231 295zM168 525q-43 -215 152 -215q150 0 363 215q-127 215 -277 215q-195 0 -238 -215zM783 525q127 -215 277 -215q195 0 238 215 t-152 215q-150 0 -363 -215z" />
<glyph unicode="&#x222b;" horiz-adv-x="529" d="M-150 -90l18 90q222 0 298 378q6 30 11 62l100 690q5 36 12 70q92 460 420 460l-18 -90q-222 0 -298 -378q-6 -30 -11 -62l-100 -690q-5 -36 -12 -70q-92 -460 -420 -460z" />
<glyph unicode="&#x2248;" horiz-adv-x="1070" d="M34 330l18 90q122 50 230 50q109 0 205 -50t200 -50t215 50l-18 -90q-121 -50 -230 -50t-205 50t-200 50q-103 0 -215 -50zM94 630l18 90q122 50 230 50q109 0 205 -50t200 -50t215 50l-18 -90q-121 -50 -230 -50t-205 50t-200 50q-103 0 -215 -50z" />
<glyph unicode="&#x22f2;" horiz-adv-x="1070" d="M34 330l18 90q122 50 230 50q109 0 205 -50t200 -50t215 50l-18 -90q-121 -50 -230 -50t-205 50t-200 50q-103 0 -215 -50zM94 630l18 90q122 50 230 50q109 0 205 -50t200 -50t215 50l-18 -90q-121 -50 -230 -50t-205 50t-200 50q-103 0 -215 -50z" />
<glyph unicode="&#x2260;" horiz-adv-x="970" d="M-32 0l273 330h-207l18 90h264l174 210h-396l18 90h453l273 330h90l-273 -330h207l-18 -90h-264l-174 -210h396l-18 -90h-453l-273 -330h-90z" />
<glyph unicode="&#x2264;" horiz-adv-x="970" d="M-32 0l18 90h750l-18 -90h-750zM94 630l18 90l820 350l-20 -100l-711 -292l593 -298l-20 -100z" />
<glyph unicode="&#x2265;" horiz-adv-x="970" d="M-32 0l18 90h750l-18 -90h-750zM24 280l20 100l713 298l-595 292l20 100l680 -350l-18 -90z" />
<glyph unicode="&#x25ca;" horiz-adv-x="1105" d="M61 715l583 715h105l297 -715l-583 -715h-105zM166 715l261 -635l514 635l-260 635z" />
<glyph unicode="&#xe012;" horiz-adv-x="1275" d="M78 523q107 537 635 537q517 0 410 -537q-107 -533 -624 -533q-528 0 -421 533zM194 529q-90 -449 323 -449q402 0 492 449q88 441 -314 441q-413 0 -501 -441z" />
<glyph unicode="&#xe013;" horiz-adv-x="854" d="M-37 0l18 90h300l166 831h-290l14 69l407 60l-192 -960h279l-18 -90h-684z" />
<glyph unicode="&#xe014;" horiz-adv-x="1100" d="M-37 0l18 90q834 397 883 640q48 240 -302 240q-200 0 -417 -110l20 100q215 100 415 100q455 0 389 -330q-54 -270 -815 -640h737l-18 -90h-910z" />
<glyph unicode="&#xe015;" horiz-adv-x="1110" d="M-86 -220l20 100q186 -70 376 -70q370 0 424 270t-278 270h-278l18 90h275q335 0 389 270q50 250 -320 250q-190 0 -404 -70l20 100q212 60 402 60q475 0 407 -340q-51 -256 -311 -315q237 -55 185 -315q-72 -360 -547 -360q-190 0 -378 60z" />
<glyph unicode="&#xe016;" d="M-76 29l18 90l781 930h114l-782 -930h639l108 538h105l-108 -538l181 -36l-11 -54h-188l-62 -309h-105l62 309h-752z" />
<glyph unicode="&#xe017;" horiz-adv-x="1145" d="M-33 -230l20 100q136 -70 326 -70q445 0 511 330q54 270 -341 270q-195 0 -400 -50l190 700h774l-18 -90h-687l-133 -502q193 32 292 32q500 0 428 -360q-84 -420 -644 -420q-180 0 -318 60z" />
<glyph unicode="&#xe018;" horiz-adv-x="1265" d="M82 520q105 526 829 853l23 -88q-414 -184 -607 -438q182 53 357 53q504 0 416 -440q-94 -470 -617 -470q-507 0 -401 530zM178 526q-89 -446 332 -446q413 0 489 380q70 350 -342 350q-204 0 -384 -48q-68 -100 -95 -236z" />
<glyph unicode="&#xe019;" horiz-adv-x="1060" d="M-1 -280l910 1240h-819l18 90h930l-18 -90l-890 -1240h-131z" />
<glyph unicode="&#xe020;" horiz-adv-x="1250" d="M48 374q50 253 348 331q-227 75 -181 303q67 336 537 336t403 -336q-46 -228 -308 -303q271 -78 221 -331q-77 -384 -587 -384t-433 384zM154 378q-60 -298 350 -298q400 0 460 298q54 272 -359 272q-397 0 -451 -272zM320 1008q-54 -268 316 -268q360 0 414 268 q48 242 -325 242q-357 0 -405 -242z" />
<glyph unicode="&#xe021;" horiz-adv-x="1265" d="M96 588q94 470 617 470q507 0 401 -530q-105 -526 -829 -853l-23 88q414 184 607 438q-182 -53 -357 -53q-504 0 -416 440zM197 588q-70 -350 342 -350q204 0 384 48q68 100 95 236q89 446 -332 446q-413 0 -489 -380z" />
<glyph unicode="&#xe029;" horiz-adv-x="1511" d="M18 0l184 920q106 530 771 530q253 0 537 -90l-16 -80l-606 -500h59q468 0 396 -360q-84 -422 -568 -422q-176 0 -328 70l18 90q163 -70 330 -70q377 0 443 332q54 271 -321 272h-176l16 78l626 522q-224 68 -428 68q-560 0 -648 -440l-184 -920h-105z" />
<glyph unicode="&#xf000;" horiz-adv-x="1724" d="M100 716l69 67l-55 82l82 54l-37 88l89 37l-19 94l94 19v96h97l19 96l95 -19l37 89l89 -37l53 80l81 -53l68 67l68 -67l81 53l53 -80l89 37l37 -89l94 19l20 -96h97v-96l94 -19l-19 -94l89 -37l-36 -90l81 -52l-54 -82l68 -67l-69 -69l55 -82l-82 -52l37 -90l-89 -37 l19 -94l-94 -19v-96h-97l-20 -96l-94 19l-37 -89l-89 37l-53 -80l-81 53l-68 -67l-68 67l-81 -53l-53 80l-89 -37l-37 89l-95 -19l-19 96h-97v96l-95 19l19 94l-90 39l37 88l-80 53l55 81zM230 716q0 -263 185 -448t447 -185t447 185t185 448q0 261 -185 446t-447 185 t-447 -185t-185 -446zM285 716q0 238 169 407.5t408 169.5t408 -169.5t169 -407.5q0 -240 -169 -409.5t-408 -169.5t-408 169.5t-169 409.5zM495 587h114l51 400h136v-540l-253 -13v-102h638v102l-253 13v540h135l51 -400h115l-38 511h-249l-80 -43l-79 43h-250z" />
</font>
</defs>
</svg>
