<?xml version="1.0" standalone="no"?>
<!DOCTYPE svg PUBLIC "-//W3C//DTD SVG 1.1//EN" "http://www.w3.org/Graphics/SVG/1.1/DTD/svg11.dtd" >
<svg xmlns="http://www.w3.org/2000/svg">
<metadata>
This is a custom SVG webfont generated by Font Squirrel.
Copyright   : Copyright c 2010 Yanone httpyanonedetypedesign All rights reservedThis Font Software is licensed under the SIL Open Font License Version 11This license is available with a FAQ at httpscriptssilorgOFL
Designer    : Yanone
Foundry     : Yanone
Foundry URL : httpyanonedetypedesign
</metadata>
<defs>
<font id="webfontpoCrsiC3" horiz-adv-x="909" >
<font-face units-per-em="2048" ascent="1638" descent="-410" />
<missing-glyph horiz-adv-x="376" />
<glyph unicode="&#xfb01;" horiz-adv-x="800" d="M23 961q0 43 4 55q2 8 20 8h143v135q0 98 21 166q18 63 53 105q31 37 78 57q49 22 86 24q49 4 92 5q84 0 133 -15q51 -14 52 -39q0 -16 -11 -41q-82 29 -176 29q-59 0 -92 -8q-43 -10 -80 -35q-45 -29 -65 -92q-23 -68 -23 -162v-129h199q0 -47 -2 -53q-4 -10 -21 -10 h-176v-938q0 -23 -22 -23h-46v961h-167zM602 0v987q0 27 12 33q8 4 56 4v-1001q0 -16 -8 -19q-13 -4 -60 -4z" />
<glyph unicode="&#xfb02;" horiz-adv-x="821" d="M20 961q0 49 3 55q2 8 22 8h143v135q0 117 29 197q27 76 80 106q51 31 90 39q45 10 94 10q119 0 207 -45v-1443q0 -23 -22 -23h-45v1425q-63 23 -138 23q-43 0 -57 -2q-27 -4 -57 -16q-35 -14 -58 -44q-25 -31 -39 -86q-16 -61 -16 -143v-133h238q0 -47 -2 -53 q-4 -10 -21 -10h-215v-938q0 -23 -23 -23h-45v961h-168z" />
<glyph horiz-adv-x="548" />
<glyph horiz-adv-x="548" />
<glyph unicode=" "  horiz-adv-x="376" />
<glyph unicode="&#x09;" horiz-adv-x="376" />
<glyph unicode="&#xa0;" horiz-adv-x="376" />
<glyph unicode="!" horiz-adv-x="374" d="M123 63q0 28 18 50q18 20 45 20q31 0 50 -20q18 -22 18 -50q0 -35 -18.5 -53t-49.5 -18q-63 -1 -63 71zM154 1427q0 6 4 11q2 2 14 6t23 4h34l-4 -1065q0 -31 -67 -31z" />
<glyph unicode="&#x22;" horiz-adv-x="458" d="M80 1505q0 94 6 101h72q4 -80 -8 -238q-12 -166 -17 -170l-41 -2q-12 57 -12 309zM303 1505q0 94 6 101h72q4 -84 -8 -238q-12 -166 -19 -170q-2 -6 -39 -2q-12 57 -12 309z" />
<glyph unicode="#" d="M94 422q0 45 2 51q4 10 21 10h125l16 287h-164q0 45 2 51q4 10 21 10h143l10 166q3 15 13 19q12 4 53 4l-10 -189h262l10 166q3 15 12 19q12 4 54 4l-11 -189h162q0 -39 -4 -51q-4 -10 -18 -10h-144l-14 -287h180q0 -39 -4 -51q-4 -10 -18 -10h-162l-8 -180 q-3 -15 -13 -19q-12 -4 -53 -4l10 203h-264l-8 -180q-3 -15 -12 -19q-12 -4 -54 -4l11 203h-146zM307 483h262l17 287h-264z" />
<glyph unicode="$" d="M158 70q0 8 10 24.5t22 22.5q70 -63 232 -64q270 0 270 258q0 70 -35 135q-33 61 -120 144l-230 201q-141 131 -141 241q0 96 74 158q76 63 204 72v208q0 23 13 29q16 8 49 8v-243q84 -4 129 -17q43 -12 76 -30q23 -12 22 -17q0 -37 -22 -53q-78 53 -228 53 q-250 0 -250 -172q0 -84 121 -194l256 -224q82 -72 117 -143q33 -66 33 -156q0 -297 -281 -321v-203q0 -20 -12 -27q-16 -8 -49 -8v234q-90 0 -148 16q-63 18 -87.5 37t-24.5 31z" />
<glyph unicode="%" horiz-adv-x="1490" d="M152 1071q0 379 290 379q137 0 205 -84q68 -83 68 -295q0 -186 -74 -280.5t-207 -94.5q-74 0 -119 13q-47 12 -88 53q-39 39 -57 115q-18 77 -18 194zM219 1061q0 -176 49 -241.5t158 -65.5q106 0 164 80q59 82 59 239q0 182 -51 248q-53 68 -156 68q-223 0 -223 -328z M270 12l893 1438q43 -8 43 -33l-893 -1433q-43 3 -43 28zM778 358q0 379 291 379q137 0 205 -84q68 -83 67 -295q0 -182 -73.5 -278t-206.5 -96q-66 0 -119 14q-51 14 -88 51q-39 39 -57 115q-19 77 -19 194zM846 348q0 -174 51 -242q49 -66 156 -65q104 0 163.5 82 t59.5 237q0 180 -51 246q-53 70 -156 70q-223 0 -223 -328z" />
<glyph unicode="&#x26;" horiz-adv-x="1067" d="M90 354q0 121 70 221q74 104 172 156q-174 279 -174 432q0 283 342 283q78 0 149.5 -16.5t102.5 -32.5q35 -18 34 -33q0 -31 -16 -47q-102 68 -268 67q-121 0 -199 -49q-76 -49 -76 -178q0 -135 170 -395q164 -250 385 -500q53 131 54 295q0 160 -61.5 285t-151.5 178 q117 10 200 10q121 0 199 -4q2 -6 2 -33q0 -14 -16.5 -20t-65.5 -6l-188 4q51 -45 100 -152q47 -102 47 -274q0 -201 -67 -340q127 -135 176 -168q-2 -14 -14.5 -34.5t-30.5 -20.5q-25 0 -170 155q-115 -158 -332 -157q-373 -1 -373 374zM160 348q0 -53 12 -102 q12 -51 43 -96q33 -49 92 -76q63 -29 150 -29q190 0 286 148q-215 242 -374 481q-86 -41 -147.5 -127t-61.5 -199z" />
<glyph unicode="'" horiz-adv-x="235" d="M80 1505q0 94 6 101h72q4 -80 -8 -238q-12 -166 -17 -170l-41 -2q-12 57 -12 309z" />
<glyph unicode="(" horiz-adv-x="602" d="M150 662q0 187 36 356q39 174 88 280q57 119 107 195q57 86 92 121q37 37 47 37q16 0 35 -47q-53 -57 -102 -127q-41 -59 -107 -187q-57 -113 -92 -278q-35 -168 -35 -348q0 -200 37 -381q37 -182 98 -312q63 -135 109 -207q51 -84 92 -126q-8 -45 -41 -46q-10 0 -49 46 q-45 53 -94 137t-103 215q-51 125 -84 301q-34 187 -34 371z" />
<glyph unicode=")" horiz-adv-x="602" d="M49 -362q43 47 94 129q53 84 109 204q59 133 96 312q39 190 39 381q0 180 -35 348q-34 163 -92 276q-53 102 -108 187q-47 70 -103 129q16 47 37 47q8 0 45 -37q35 -35 92 -121q49 -76 107 -195q49 -106 88 -280q37 -169 37 -356q0 -182 -35 -367q-33 -174 -84 -301 q-45 -113 -103 -217q-41 -76 -92 -139q-37 -45 -49 -46q-35 1 -43 46z" />
<glyph unicode="*" horiz-adv-x="966" d="M51 1069q-2 29 21 55q18 23 39 13l303 -152q2 -14 -6 -27q-6 -10 -19 -4zM168 590l244 291q16 23 39 -11l-213 -319q-16 -14 -37 0t-33 39zM440 1376q0 15 25 19t53 -13l-18 -350q-2 -25 -39 -18zM508 860q-12 20 22 33l228 -311q10 -12 -8 -35q-18 -22 -50 -25zM553 948 q-28 34 6 49l330 142q25 -14 31 -41q6 -31 -15 -37z" />
<glyph unicode="+" d="M98 543q0 47 2 55q2 12 21 12h305v303q0 14 10 19q12 4 56 4v-326h323q0 -39 -4 -55q-3 -12 -18 -12h-301v-301q0 -16 -11 -19q-16 -4 -55 -4v324h-328z" />
<glyph unicode="," horiz-adv-x="358" d="M104 -203q61 102 62 207q-33 18 -33 66q0 27 17 47q14 16 45 16q29 0 45 -16q14 -14 14 -60q0 -82 -45 -184q-45 -104 -72 -104q-10 0 -20 10q-10 9 -13 18z" />
<glyph unicode="-" horiz-adv-x="612" d="M98 543q0 47 2 55q2 12 21 12h395q0 -39 -4 -55q-3 -12 -18 -12h-396z" />
<glyph unicode="." horiz-adv-x="358" d="M121 63q0 28 18 50q18 20 45 20q33 0 52 -20q18 -22 18 -50q0 -31 -18.5 -51t-51.5 -20q-63 -1 -63 71z" />
<glyph unicode="/" horiz-adv-x="577" d="M20 -41l465 1583q2 16 17 21q16 4 57 4l-461 -1585q-6 -15 -18 -19q-17 -4 -60 -4z" />
<glyph unicode="0" d="M86 606q0 311 90 465q92 158 295 158q195 0 274 -146q78 -141 78 -469q0 -317 -88 -473q-90 -158 -284 -157q-193 0 -279 147t-86 475zM156 588q0 -281 71 -412q71 -129 222 -129q166 0 237 143q70 139 70 431q0 287 -61.5 415.5t-221.5 128.5q-168 0 -242 -145 q-75 -147 -75 -432z" />
<glyph unicode="1" d="M86 59q0 6 350 7l31 1089l-295 -57q-8 14 -8 59l16 4q16 4 62.5 13.5l91.5 19.5q169 37 178 37l23 -6l-25 -1159h207l106 4q0 -70 -4 -70h-731q-2 2 -2 59z" />
<glyph unicode="2" d="M86 35q0 18 4 24l19 27q2 4 11 16.5t13 18.5q55 88 168 213l191 207q78 82 145 202q66 119 65 228q0 92 -45 143q-43 49 -168 49q-227 0 -348 -86q-8 25 -8 53q0 16 39 37q49 27 127 43q86 18 186 19q169 0 228 -62q59 -63 59 -200q0 -94 -41 -193q-40 -95 -110 -184 q-76 -94 -144 -166q-96 -100 -162 -178q-80 -90 -141 -180h467l182 2q0 -68 -6 -68h-723q-8 8 -8 35z" />
<glyph unicode="3" d="M106 -123q0 27 11 57q92 -74 231 -73q168 0 277 133q106 131 106 328q0 66 -20 108q-23 49 -49 70q-31 25 -82 41q-55 16 -91 22q-49 8 -104 10l-2 54q299 184 299 364q0 68 -45 119q-47 53 -166 53q-219 0 -346 -90q-8 14 -8 51q0 18 39 43q41 25 125 43q86 18 188 19 q285 0 285 -236q0 -180 -262 -370q309 -25 309 -308q0 -227 -125 -372q-127 -147 -336 -148q-78 0 -129 15q-57 16 -82 34q-23 17 -23 33z" />
<glyph unicode="4" d="M96 393q0 117 152 395q152 276 323 435q15 12 37 12q10 0 35 -10l-6 -803h194l3 -29q0 -37 -21 -37h-176v-323q0 -25 -6 -29q-8 -4 -62 -4v356h-460q-13 12 -13 37zM162 422h407l13 721q-125 -131 -252 -334q-121 -194 -168 -387z" />
<glyph unicode="5" d="M88 -125q0 31 10 57q84 -72 240 -71q397 0 397 538q0 80 -28 144q-27 59 -70 96q-39 33 -100 55q-53 20 -105 27q-47 6 -96 6q-117 0 -225 -35l53 537h627q0 -46 -7 -55q-6 -10 -39 -11l-520 2l-43 -391h6q4 0 21 4q12 3 31 6q12 2 47 2q8 0 28.5 1t30.5 1q51 2 113 -4 q57 -6 121 -30q59 -23 112 -66q49 -39 80 -115q33 -78 33 -176q0 -289 -109 -446q-106 -156 -364 -156q-78 0 -133 15q-57 14 -84 32.5t-27 32.5z" />
<glyph unicode="6" d="M92 588q0 436 131 641t342 205q95 0 160 -13q66 -12 66 -39q0 -31 -7 -49q-98 35 -231 35q-160 0 -274 -178q-113 -178 -123 -520q51 109 141 168q88 57 209 57q147 0 233 -98q88 -100 88 -301q0 -514 -391 -514q-108 0 -178 43t-104 131q-35 90 -48 186q-14 119 -14 246 zM156 573q0 -106 10 -202q8 -80 36.5 -162t86.5 -121q59 -41 147 -41q158 0 242 117q84 119 84 315q0 350 -270 350q-106 0 -195 -67q-90 -68 -141 -189z" />
<glyph unicode="7" d="M119 1229h737q-436 -610 -610 -1397q-68 0 -68 14q100 438 250 766q156 342 311 553h-34q-8 0 -39 -1t-54 -1h-127h-163h-179q-24 0 -24 66z" />
<glyph unicode="8" d="M94 369q0 135 82 243q84 113 203 164q-90 43 -133 72q-137 88 -137 258q0 168 102 254q100 86 254 86q348 0 348 -330q0 -203 -266 -352q88 -45 141 -88q143 -119 143 -307q0 -182 -90 -284.5t-266 -102.5q-184 0 -282.5 104.5t-98.5 282.5zM160 369q0 -139 82 -232 q80 -90 231 -90q141 0 217 86q78 88 78 236q0 156 -141 274q-57 43 -168 96q-127 -41 -211 -141q-88 -106 -88 -229zM174 1108q0 -139 139 -229q23 -16 160 -78q115 47 199 131q78 78 78 182q0 266 -283 266q-123 0 -209 -69q-84 -68 -84 -203z" />
<glyph unicode="9" d="M86 727q0 522 393 522q205 0 275 -143q70 -141 69 -469q0 -848 -518 -848q-164 0 -164 35t6 47q70 -16 154 -16q428 0 457 694q-111 -219 -342 -219q-145 0 -238 100q-92 102 -92 297zM154 743q0 -178 75 -262q77 -86 203 -86q195 0 328 246q0 74 -4 168q-4 74 -21 145 q-16 70 -47 121q-27 45 -82 78q-53 31 -127 31q-325 -1 -325 -441z" />
<glyph unicode=":" horiz-adv-x="358" d="M119 63q0 28 18 50q18 20 47 20q31 0 49 -20q18 -22 19 -50q0 -31 -18.5 -51t-49.5 -20q-65 -1 -65 71zM119 793q0 28 18 49q18 20 47 20t49 -20q18 -18 18.5 -49t-18 -51.5t-49.5 -20.5q-65 0 -65 72z" />
<glyph unicode=";" horiz-adv-x="358" d="M100 -203q63 106 64 207q-35 18 -35 66q0 27 16 47q14 16 45 16q61 0 62 -76q0 -82 -45 -184q-46 -104 -74 -104q-23 -1 -33 28zM125 793q0 28 18 49q18 20 47 20t50 -20q18 -18 18 -49q0 -27 -20 -52q-18 -20 -48 -20q-65 0 -65 72z" />
<glyph unicode="&#x3c;" horiz-adv-x="817" d="M98 535q0 29 27 40l557 277q23 -27 23 -47q0 -18 -15 -25l-502 -248l525 -225q0 -29 -11 -41q-12 -14 -22 -14q-9 0 -43 12l-524 230q-15 21 -15 41z" />
<glyph unicode="=" d="M98 375q0 47 2 55q2 12 21 12h694q0 -41 -4 -57q-2 -10 -18 -10h-695zM98 711q0 49 2 57q2 10 21 10h694q0 -39 -4 -55q-3 -12 -18 -12h-695z" />
<glyph unicode="&#x3e;" horiz-adv-x="817" d="M104 786q3 28 13 43q8 14 20 15q8 0 43 -15l527 -229q12 -14 12 -41q0 -31 -25 -39l-559 -276q-23 27 -22.5 45t14.5 26l502 246z" />
<glyph unicode="?" horiz-adv-x="604" d="M59 1372q0 27 72 53q76 29 160 29q121 0 205 -65q82 -63 82 -228q0 -104 -43 -192q-45 -92 -117 -183q-78 -98 -90 -116q-49 -84 -49 -176q0 -16 4 -50q4 -29 6 -38q2 -12 0 -15q-10 -16 -60 -6q-18 41 -18 109q0 106 57 202q31 49 90 121q68 82 111 168q39 78 39 172 q0 229 -223 229q-129 0 -219 -67q-7 24 -7 53zM199 63q0 31 16 50q18 20 47 20q31 0 49 -20q18 -22 19 -50q0 -31 -18.5 -51t-49.5 -20q-63 -1 -63 71z" />
<glyph unicode="@" horiz-adv-x="1570" d="M119 543q0 862 727 862q317 0 464.5 -164t147.5 -524q0 -133 -16 -254q-16 -117 -37 -187q-23 -72 -55 -126q-29 -47 -62 -80q-27 -27 -63 -43q-34 -15 -56 -19q-14 -2 -41 -2q-80 0 -129 53q-82 -57 -233 -57q-127 -4 -195 59q-70 63 -63 244q6 184 96 254q94 72 250 72 q83 0 129 -13q0 23 1 68t3 66q4 111 -47 151.5t-149 40.5q-141 0 -234 -49q-6 14 -6 39q0 18 18 31q83 43 246 43q123 0 182 -56q57 -53 54 -190l-17 -465q-6 -145 -10 -186v-2q41 -43 102 -43q18 0 49 10t68 47q45 45 74 104q33 68 53 193q23 131 23 297q0 330 -129 477 q-131 150 -422 149q-657 0 -658 -808q0 -233 33 -390q35 -164 86 -251q55 -94 137 -142q90 -51 170 -63q82 -12 201 -13q258 0 479 123q18 -18 19 -59q0 -14 -58 -41q-68 -31 -178 -57q-115 -27 -256 -27q-115 0 -158 4q-72 6 -145 27q-76 20 -131 59q-45 33 -107 107 q-53 66 -86 168q-35 111 -51 237q-20 158 -20 326zM569 303q-4 -147 51.5 -196.5t159.5 -49.5q61 0 123 24.5t64 51.5l14 432q-68 10 -127 10q-131 0 -205 -61t-80 -211z" />
<glyph unicode="A" horiz-adv-x="890" d="M18 0l404 1436q0 8 18 8q20 0 27 -6l405 -1415q1 -4 1 -8q0 -17 -25 -17q-33 0 -43 2l-119 424h-479l-111 -410q-6 -16 -37 -16q-29 0 -41 2zM223 487h447l-125 451q-90 326 -101 405q-6 -55 -98 -405z" />
<glyph unicode="B" horiz-adv-x="827" d="M131 0v1401q0 33 51 33h205q342 0 342 -310q0 -168 -63.5 -243.5t-143.5 -87.5q43 -4 76 -15q39 -12 78 -41q43 -31 69 -94q27 -61 27 -154q0 -132 -31 -227q-29 -90 -75 -143q-45 -51 -105 -78q-66 -29 -100 -35q-40 -6 -86 -6h-244zM199 63h174q328 0 327 420 q0 92 -24 148q-27 59 -74 82q-59 29 -98 32q-49 6 -133 7h-172v-689zM199 815h198q262 0 262 303q0 254 -278 254h-182v-557z" />
<glyph unicode="C" horiz-adv-x="743" d="M92 641q0 212 25 369q27 164 59 239q37 82 94 133q51 47 105 60q49 12 110 12q82 0 136 -33q55 -33 55 -65q0 -25 -17 -43q-76 76 -174 76q-55 0 -94 -12.5t-84 -57.5q-41 -41 -74 -125q-31 -82 -49 -221q-20 -160 -20 -340q0 -137 16 -256q14 -98 43 -172q25 -59 64 -96 q41 -39 73 -48q37 -10 78 -10q70 0 137.5 37t96.5 78q16 -27 16 -47q0 -41 -80 -90t-176 -49q-43 0 -73.5 6t-73.5 24.5t-76 63.5q-35 47 -59 112q-29 72 -44 185q-14 108 -14 270z" />
<glyph unicode="D" horiz-adv-x="878" d="M135 0v1401q0 33 49 33h207q199 0 297 -154q100 -158 100 -485q0 -193 -22 -346q-20 -141 -59 -232q-35 -82 -93 -133q-59 -53 -110 -68q-59 -16 -127 -16h-242zM203 66h174q61 0 102 14q51 18 92 59q47 47 78 123q33 84 51 213q18 135 19 322q0 301 -80 436t-256 135 h-180v-1302z" />
<glyph unicode="E" horiz-adv-x="716" d="M137 0v1411q0 23 23 23h489q0 -49 -2 -56q-4 -10 -12 -10h-430v-551h401q-8 -59 -18 -63h-383v-688h446q0 -49 -2 -56q-4 -10 -16 -10h-496z" />
<glyph unicode="F" horiz-adv-x="692" d="M137 0v1411q0 23 23 23h489q0 -47 -2 -54q-4 -10 -12 -10h-430v-551h401q-6 -63 -18 -65h-383v-731q0 -23 -23 -23h-45z" />
<glyph unicode="G" horiz-adv-x="837" d="M92 705q0 224 31 374q31 154 88 232q59 82 131 112q71 31 172 31q88 0 150 -24q63 -25 63 -60q0 -22 -12 -43q-80 61 -191 62q-84 0 -147.5 -29t-114.5 -100.5t-76 -212.5q-27 -150 -26 -340q0 -172 18 -295q20 -133 43 -193q27 -66 72 -108q41 -39 84 -52q40 -12 98 -12 q84 0 137.5 33t69.5 65v586h-240v41q0 23 23 23h283v-680q-83 -135 -277 -135q-88 0 -152 28q-66 29 -119 100.5t-81 223.5q-27 142 -27 373z" />
<glyph unicode="H" horiz-adv-x="921" d="M131 0v1411q0 14 10 19q12 4 58 4v-615h526v592q0 16 8 19q12 4 60 4v-1411q0 -16 -9 -19q-12 -4 -59 -4v754h-526v-731q0 -16 -9 -19q-12 -4 -59 -4z" />
<glyph unicode="I" horiz-adv-x="327" d="M131 0v1395q0 29 10 35q6 4 58 4v-1411q0 -16 -9 -19q-12 -4 -59 -4z" />
<glyph unicode="J" horiz-adv-x="608" d="M43 76q0 29 18 47q68 -78 175 -78q63 0 100 25q35 23 51 82q18 66 21 100q4 61 4 125v1020q0 31 8 33q12 4 59 4v-1084q0 -77 -6 -129q-6 -57 -27 -115q-20 -59 -75 -94q-51 -33 -131 -32q-84 0 -140 30q-57 33 -57 66z" />
<glyph unicode="K" horiz-adv-x="800" d="M131 0v1411q0 16 8 19q12 4 60 4v-621l483 617q20 4 43 4q47 0 20 -33l-481 -596q301 -162 492 -776q2 -7 2 -13q0 -18 -25 -18q-31 0 -39 2q-102 295 -190 440.5t-191 247.5q-45 43 -114 70v-735q0 -16 -9 -19q-12 -4 -59 -4z" />
<glyph unicode="L" horiz-adv-x="692" d="M131 0v1401q0 25 10 29q12 4 62 4v-1371h450v-40q0 -23 -22 -23h-500z" />
<glyph unicode="M" horiz-adv-x="1036" d="M131 0v1411q0 23 23 23h39l245 -801l80 -260l38.5 132t28 90t9.5 30l244 786l4 6l6 13q2 4 12 4h45v-1411q0 -16 -8 -19q-12 -4 -59 -4l2 670q0 131 4 553l-62 -203l-77 -244q-33 -104 -33 -108l-125 -377q-6 -18 -23 -19h-37l-122 396q-14 29 -172 544q0 -444 6 -524 v-665q0 -16 -9 -19q-12 -4 -59 -4z" />
<glyph unicode="N" horiz-adv-x="952" d="M131 0v1411q0 23 23 23h41l258 -576q16 -53 303 -698v1251q0 16 8 19q12 4 59 4v-1411q0 -23 -22 -23h-41l-262 586q0 2 -7.5 16t-22.5 51t-32 72l-135 307l-106 246q4 -463 4 -752v-503q0 -16 -9 -19q-12 -4 -59 -4z" />
<glyph unicode="O" horiz-adv-x="940" d="M92 727q0 387 96.5 557t298.5 170q197 0 281 -164q82 -162 82 -563t-90 -575q-89 -172 -295 -172q-131 0 -213 69q-80 68 -121 232q-39 157 -39 446zM164 700q0 -360 69 -505q70 -147 232 -148q168 0 242 156q74 158 73 530q0 354 -69 506q-68 147 -226 147 q-166 0 -243 -157q-78 -160 -78 -529z" />
<glyph unicode="P" horiz-adv-x="772" d="M131 0v1411q0 23 23 23h221q182 0 262 -104.5t80 -272.5q0 -207 -94 -320q-92 -111 -263 -110h-161v-604q0 -16 -9 -19q-12 -4 -59 -4zM199 692h161q143 0 215 96.5t72 270.5q0 311 -276 311h-172v-678z" />
<glyph unicode="Q" horiz-adv-x="940" d="M92 727q0 387 96.5 557t298.5 170q197 0 281 -164q82 -162 82 -563q0 -375 -78 -549t-248 -194q23 -113 51 -150q31 -41 89 -41q88 0 135 35q14 -14 14 -41q0 -25 -49 -39q-45 -14 -111 -14q-80 0 -127 55q-49 59 -73 191q-193 2 -277 169.5t-84 577.5zM164 700 q0 -360 69 -505q70 -147 232 -148q168 0 242 156q74 158 73 530q0 354 -69 506q-68 147 -226 147q-166 0 -243 -157q-78 -160 -78 -529z" />
<glyph unicode="R" horiz-adv-x="782" d="M131 0v1411q0 23 23 23h221q182 0 262 -104.5t80 -272.5q0 -344 -240 -416q33 -41 74 -113q31 -53 84 -206q47 -137 63 -295q4 -16 -4 -20.5t-24 -6.5h-39q-55 418 -225 629q-10 -2 -46 -2h-161v-604q0 -16 -9 -19q-12 -4 -59 -4zM199 692h161q143 0 215 96.5t72 268.5 q0 313 -276 313h-172v-678z" />
<glyph unicode="S" horiz-adv-x="774" d="M80 78q0 29 29 47q84 -78 243 -78q141 0 213 78q70 76 70 209q0 101 -37 178q-37 78 -127 168l-233 223q-150 156 -150 287q0 117 90 190q89 74 246 74q72 0 139 -14q63 -12 86 -31q25 -18 25 -37q0 -27 -23 -43q-74 61 -235 62q-119 0 -187 -54q-72 -55 -71 -145 q0 -102 127 -236l260 -251q88 -88 122.5 -170t34.5 -191q0 -166 -88 -266q-86 -98 -264 -98q-89 0 -153 18q-63 18 -90 39t-27 41z" />
<glyph unicode="T" horiz-adv-x="739" d="M10 1368v43q0 23 23 23h696v-43q0 -23 -22 -23h-308v-1348q0 -16 -8 -18q-6 -2 -57 -2v1368h-324z" />
<glyph unicode="U" horiz-adv-x="974" d="M131 457v954q0 16 8 19q12 4 60 4v-977q0 -86 10 -158t37 -127q31 -63 96 -94q70 -33 162 -33q172 0 272 51v1317q0 12 10 17q12 4 60 4v-1387q-41 -25 -144 -47q-94 -20 -198 -20q-123 0 -201 36q-76 37 -113 111q-35 68 -47 147q-12 74 -12 183z" />
<glyph unicode="V" horiz-adv-x="860" d="M14 1401q-3 10 -2 17q0 16 15 16h49l274 -988q43 -147 92 -378q33 182 84 378l252 955q6 33 25 33h51l-383 -1450q-20 -4 -45 -4q-16 0 -51 118z" />
<glyph unicode="W" horiz-adv-x="1296" d="M12 1401q-1 8 0 13q0 20 13 20h51l221 -990q37 -170 65 -346h5q12 119 57 346l184 877q6 31 23 33h51l207 -910q31 -135 63 -342h6q41 279 56 342l200 957q6 33 25 33h51l-307 -1450q-25 -6 -43 -6.5t-39 96.5l-196 833l-58 322q-55 -313 -55 -318l-199 -927 q-20 -4 -47 -4q-14 0 -43 124z" />
<glyph unicode="X" horiz-adv-x="874" d="M23 0l372 750l-317 671q-6 9 6 13h68l122 -260l170 -375q52 126 172 375l115 247q4 10 14 11q2 0 11.5 1t25 1h31.5l-326 -691l363 -723q3 -7 3 -11q0 -9 -13 -9h-68l-162 336l-172 354l-170 -352l-164 -328q-6 -10 -20 -10h-61z" />
<glyph unicode="Y" horiz-adv-x="731" d="M12 1421q-4 10 11 13h63l115 -301l75 -201l68 -197q27 -78 27 -84q0 14 170 482l106 286q3 9 12 13q6 2 64 2l-320 -850v-561q0 -16 -8 -19q-12 -4 -59 -4v588z" />
<glyph unicode="Z" horiz-adv-x="815" d="M59 29q0 25 9 39l602 1300h-557v43q0 23 22 23h608q10 -10 11 -27q0 -23 -11 -41l-606 -1303h516q70 0 97 9v-49q0 -23 -23 -23h-653q-15 9 -15 29z" />
<glyph unicode="[" horiz-adv-x="899" d="M354 -403v2054q0 18 11 24q8 6 45 6h469q0 -40 -7 -49q-6 -10 -32 -10h-420v-1962h454q0 -29 -6 -45q-4 -12 -12 -16q-4 -2 -22 -2h-480z" />
<glyph unicode="\" horiz-adv-x="575" d="M23 1542q-2 18 6 21q12 4 57 4l469 -1606q4 -16 -8 -18q-16 -4 -55 -4z" />
<glyph unicode="]" horiz-adv-x="899" d="M23 -410q0 37 6 47.5t32 10.5h418v1972h-452q0 31 6 45t10 16t25 2h479v-2062q0 -20 -10 -27q-6 -4 -45 -4h-469z" />
<glyph unicode="^" horiz-adv-x="878" d="M133 481l311 291l283 -268q12 -9 12 -25q0 -34 -37 -37l-264 242l-233 -219q-29 -23 -39 -23q-31 0 -33 39z" />
<glyph unicode="_" horiz-adv-x="792" d="M39 -166q0 39 4 55q2 10 18 11h695q0 -37 -4 -54q-3 -12 -19 -12h-694z" />
<glyph unicode="`" horiz-adv-x="315" d="M0 1438q16 59 35 59q2 0 139 -117q141 -119 143 -123q-23 -41 -26 -40l-144 108q-145 111 -147 113z" />
<glyph unicode="a" horiz-adv-x="772" d="M86 279q0 106 26.5 173.5t80.5 102.5q45 29 104 43q51 12 121 12q119 0 182 -20v194q0 114 -49 154q-51 41 -143 41q-201 0 -312 -53q-10 20 -10 37q0 27 12 32q98 49 326 49q123 0 182.5 -57t59.5 -190v-131q0 -383 -11 -611q-125 -76 -272 -75q-11 -1 -22 -1 q-43 0 -87 9q-53 10 -94 35q-45 27 -69.5 92.5t-24.5 163.5zM156 281q0 -80 18 -134q18 -51 59 -73q39 -20 72 -27q23 -4 92 -4q59 0 115 18q57 20 76 37q12 154 12 434q-68 20 -164 21q-41 0 -86 -4q-34 -3 -74 -19q-35 -14 -63 -45q-27 -29 -41 -79q-16 -55 -16 -125z" />
<glyph unicode="b" horiz-adv-x="849" d="M135 41v1425q0 25 15 33q12 6 53 6v-553q121 92 286 92q133 -2 207 -92q74 -88 74 -293q0 -680 -397 -679q-158 0 -238 61zM203 88q51 -45 174 -45q324 0 323 590q0 190 -57 270q-55 76 -180 76q-160 0 -260 -100v-791z" />
<glyph unicode="c" horiz-adv-x="706" d="M96 489q0 150 23 246q23 100 59 162q33 55 88 92q57 37 99 45q51 10 104 10q63 0 119 -22q53 -23 53 -51q0 -25 -14 -45q-68 55 -170 55q-55 0 -100.5 -16.5t-92.5 -63.5q-46 -46 -74 -153q-27 -104 -26 -267q0 -137 18 -225q18 -92 54 -135q37 -46 79 -62 q45 -16 105 -16q135 0 211 76q12 -20 12 -45q0 -31 -70 -62q-76 -33 -167 -32q-74 0 -123 18q-55 20 -97 68q-45 51 -67 157q-23 108 -23 266z" />
<glyph unicode="d" horiz-adv-x="849" d="M96 492q0 272 103 411q104 141 264 141q119 0 184 -47v471q0 23 15 31q12 6 55 6v-1464q-106 -61 -287 -61q-66 0 -104 8q-47 10 -90 39q-51 35 -76 84q-27 51 -45 151q-19 95 -19 230zM168 494q0 -147 18 -240q18 -94 60 -137q39 -43 86 -60q41 -14 112 -14 q129 0 205 49l-2 836q-70 53 -172 53q-135 0 -221 -125t-86 -362z" />
<glyph unicode="e" horiz-adv-x="788" d="M92 453q0 164 23 268q23 109 59 174q31 55 86 94q49 35 98 45q47 10 101 10q256 0 256 -321q0 -143 -15 -227q-188 -37 -477 -37h-63v-10q0 -111 14 -181q16 -78 37 -118q20 -43 59 -68q37 -25 76 -31q37 -6 92 -6q162 0 258 76q10 -31 11 -51q0 -29 -84 -60 q-82 -31 -189 -30q-78 0 -137 16q-55 15 -104 61q-51 49 -76 146q-25 98 -25 250zM160 520q344 0 481 31q8 68 8 149q-2 137 -45 211q-39 70 -145 70q-57 0 -97 -12q-41 -12 -90 -56q-51 -45 -77 -141q-29 -102 -35 -252z" />
<glyph unicode="f" horiz-adv-x="495" d="M33 961q0 43 4 55q2 8 20 8h146v135q0 111 30 189q31 76 82 108q55 37 101 47q49 12 110.5 12.5t96.5 -8.5q43 -10 57 -18t14 -21q0 -6 -10 -41q-72 23 -156 23q-59 0 -92 -8q-43 -10 -80 -35q-43 -27 -63 -90q-23 -68 -23 -162v-131h240q0 -47 -2 -53q-4 -10 -21 -10 h-217v-938q0 -23 -22 -23h-45v961h-170z" />
<glyph unicode="g" horiz-adv-x="839" d="M84 -190q0 68 53 143q51 72 127 123q-145 41 -145 106q0 35 41 86q43 51 92 90q-133 80 -133 320q0 176 94 270q96 96 238 96q29 0 90 -10h258q6 -12 6 -28q0 -33 -37 -33q-66 0 -145 8q147 -65 147 -270q0 -176 -82 -285q-82 -111 -250 -111q-78 0 -137 19 q-43 -31 -78 -72t-35 -67q0 -61 344 -99q80 -12 103 -18q49 -14 86 -35q41 -23 63 -66q20 -39 21 -98q0 -115 -105 -201q-102 -84 -292 -84q-184 0 -254 58t-70 158zM154 -184q0 -74 53 -115t203 -41q158 0 241 64q86 63 86 151t-59 119q-57 31 -170 43q-104 10 -180 24 q-68 -43 -121 -114.5t-53 -130.5zM186 676q0 -139 52 -217q53 -82 206 -82q123 0 191 100q68 101 67 240q0 131 -65 201q-63 68 -186 67q-117 0 -191 -79.5t-74 -229.5z" />
<glyph unicode="h" horiz-adv-x="837" d="M129 0v1468q0 25 12.5 31t53.5 6v-555q125 94 286 94q147 0 199 -69q53 -72 53 -209v-743q0 -16 -8 -19q-12 -4 -59 -4v758q0 111 -43 166t-158 55q-164 0 -270 -107v-849q0 -16 -9 -19q-12 -4 -57 -4z" />
<glyph unicode="i" horiz-adv-x="339" d="M125 1389q2 68 47 67.5t45 -70.5q-4 -66 -49 -65q-46 3 -43 68zM135 0v987q0 25 14.5 31t57.5 6v-1001q0 -14 -10 -19q-13 -4 -62 -4z" />
<glyph unicode="j" horiz-adv-x="366" d="M-250 -313q0 23 14 43q88 -63 216 -64q109 0 139 64q31 65 31 215v1042q0 27 12 33q8 4 55 4v-1100q0 -162 -49 -241.5t-191 -79.5q-102 0 -163 26q-64 27 -64 58zM186 1456q45 0 45 -70q-4 -66 -49 -65q-43 3 -43 60q0 75 47 75z" />
<glyph unicode="k" horiz-adv-x="817" d="M135 0v1468q0 25 12.5 31t55.5 6v-612q66 72 155 111q94 41 162 40q182 0 182 -182q0 -68 -30 -129q-29 -57 -76 -98q-49 -43 -82 -64q-37 -25 -63 -36q9 1 18 1q72 0 154 -63q94 -74 118 -219q8 -39 9 -109q0 -68 -9 -118q-2 -18 -12 -23q-12 -4 -61 -4q10 96 10 137 q0 98 -29 185q-63 166 -235 165q-33 0 -66 -8l-145 -53v-403q0 -14 -8.5 -18.5t-59.5 -4.5zM203 489q430 133 430 365q0 125 -129 125q-163 0 -301 -160v-330z" />
<glyph unicode="l" horiz-adv-x="337" d="M135 0v1468q0 25 12.5 31t55.5 6v-1482q0 -14 -10 -19q-13 -4 -58 -4z" />
<glyph unicode="m" horiz-adv-x="1257" d="M135 0v977q164 68 299 67q160 0 205 -79q123 80 270 79q139 0 183 -71q45 -74 45 -234v-716q0 -16 -9 -19q-12 -4 -59 -4v752q0 126 -31 178q-31 51 -133 51q-125 0 -233 -72v-886v-13q0 -4 -8 -8q-4 -2 -19 -2h-39v805q-2 94 -35 135q-31 41 -135 41q-117 0 -233 -53 v-905q0 -14 -10 -19q-13 -4 -58 -4z" />
<glyph unicode="n" horiz-adv-x="849" d="M131 0v971q168 74 336 73q158 0 217 -69.5t59 -218.5v-733q0 -14 -10 -19q-12 -4 -59 -4v741q0 131 -41 185q-43 55 -166 55q-158 0 -270 -57v-901q0 -16 -9 -19q-12 -4 -57 -4z" />
<glyph unicode="o" horiz-adv-x="808" d="M76 508q0 537 342 536q164 0 241 -116q76 -115 76 -418q0 -530 -340 -530q-80 0 -133 18q-47 16 -96 72q-45 51 -68 161q-22 113 -22 277zM145 496q0 -261 62 -357q61 -96 190 -96q127 0 199 119q70 115 70 354q0 266 -62 365q-63 100 -188 100q-131 0 -201 -112.5 t-70 -372.5z" />
<glyph unicode="p" horiz-adv-x="843" d="M135 -377v1338q133 84 293 83q166 0 254 -100q86 -98 86 -340q0 -135 -18 -239q-20 -113 -48 -170q-25 -53 -67 -111q-29 -41 -80 -66q-41 -20 -78 -30q-31 -8 -71 -8q-72 0 -125 26q-59 29 -78 60v-463q-18 -6 -35 -6q-33 -1 -33 26zM203 160q68 -117 192 -117 q47 0 90 18q49 20 97 66q53 49 84 168q33 125 32 285q0 229 -67.5 315t-206.5 86q-120 0 -221 -61v-760z" />
<glyph unicode="q" horiz-adv-x="866" d="M94 457q0 291 109 440q108 147 301 147q137 0 227 -65v-1356q0 -22 -6 -24q-8 -4 -37 -5h-24v508q-90 -123 -261 -122q-309 0 -309 477zM166 451q0 -131 24 -218q27 -92 68 -126.5t84 -49t84 -14.5h10l125 37q70 41 103 117v741q-53 43 -170 43q-328 0 -328 -530z" />
<glyph unicode="r" horiz-adv-x="581" d="M131 0v954q127 90 268 90q70 0 113 -18q41 -18 41 -41q0 -29 -14 -43q-61 37 -131 37q-120 0 -209 -68v-888q0 -14 -11 -19q-12 -4 -57 -4z" />
<glyph unicode="s" horiz-adv-x="790" d="M96 55q0 31 19 47q88 -57 241 -57q266 0 267 186q0 133 -142 232l-229 141q-90 55 -121 103q-29 43 -29 112q0 102 92.5 163.5t239.5 61.5q82 0 146 -18q68 -18 92 -39q27 -20 26 -35q0 -18 -20 -45q-111 74 -242 74q-115 0 -188.5 -43t-73.5 -117q0 -43 25 -80 q23 -35 92 -82l250 -157q152 -111 151 -254q0 -131 -86 -199q-88 -70 -246 -69q-82 0 -143 12q-55 10 -90 28q-31 17 -31 35z" />
<glyph unicode="t" horiz-adv-x="618" d="M68 961q0 37 4 53q2 10 16 10h145v334q0 25 11 31q6 4 57 4v-369h277q0 -47 -3 -53q-4 -10 -14 -10h-260v-658q0 -82 2 -106q4 -39 12 -78q8 -37 35 -58q25 -18 62 -18q68 0 141 37q8 -14 8 -39q0 -29 -47 -45q-49 -16 -113 -16q-46 0 -79 18q-31 16 -50 41 q-16 23 -26 74q-6 31 -10 88q-2 27 -3 108v652h-165z" />
<glyph unicode="u" horiz-adv-x="892" d="M141 369v632q0 16 9 19q12 4 59 4v-668q0 -184 49 -247q49 -66 197 -66q133 0 231 55v903q0 14 10 19q12 4 58 4v-977q-139 -68 -314 -67q-176 0 -237.5 86t-61.5 303z" />
<glyph unicode="v" horiz-adv-x="747" d="M66 999q-2 6 -3 11q0 8 9 10q16 4 57 4l109 -379q86 -299 143 -563h2q63 307 137 565l96 354q3 15 13 19q12 4 59 4l-285 -1040q-2 -2 -41 -2q-8 0 -34 100z" />
<glyph unicode="w" horiz-adv-x="1150" d="M61 1001q-3 15 7 19q12 4 61 4l98 -408l117 -516h4l113 502l78 361q4 23 24 22h43l96 -391l121 -494h2q31 184 107 516l86 385q3 15 12 19q12 4 62 4q-242 -1040 -246 -1040q-18 -2 -39 -2q-12 0 -41 116l-37 142q-82 299 -154 612q-61 -295 -141 -614l-63 -254 q-25 -2 -45 -2q-12 0 -33 100z" />
<glyph unicode="x" horiz-adv-x="937" d="M57 0l371 543l-317 469q-6 10 10 10q10 2 61 2l125 -182l166 -252l172 256l115 166q12 12 18 12h66l-328 -479l361 -525q6 -9 5 -12q0 -6 -10 -6q-8 -2 -67 -2l-131 190l-205 304l-207 -308l-117 -172q-8 -14 -88 -14z" />
<glyph unicode="y" horiz-adv-x="778" d="M12 -350q0 28 19 43q49 -25 116 -25q147 0 220 299l-281 1032q-6 18 2 21q12 4 59 4l191 -696l63 -285q18 129 60 287l174 669q2 16 12 21q12 4 64 4l-287 -1094q-45 -174 -114.5 -249.5t-162.5 -75.5q-135 0 -135 45z" />
<glyph unicode="z" horiz-adv-x="792" d="M76 35q0 23 8 33l551 893h-279q-203 0 -268 -9q-2 12 -2 37q0 35 23 35h600q10 -10 10 -25q0 -20 -10 -41l-553 -892h286q199 0 273 12v-37q0 -41 -25 -41h-604q-10 15 -10 35z" />
<glyph unicode="{" horiz-adv-x="598" d="M125 610q0 33 27 45l59 39q16 10 32.5 53.5t16.5 108.5q0 94 -14.5 223t-14.5 207q0 238 318 238q12 -16 12 -41q0 -27 -22 -27q-117 -6 -179 -45q-59 -37 -59 -143q0 -20 14 -183q12 -138 13 -233q0 -182 -131 -234q63 -20 98 -65q33 -41 33 -127q0 -98 -13 -244 q-14 -168 -14 -200q0 -80 14.5 -123t55.5 -66q43 -25 71 -29q35 -6 109 -12q0 -6 1 -12t2 -9t1 -5q0 -35 -29 -35q-154 0 -225 61q-70 61 -70 211q0 78 14.5 213t14.5 234q0 141 -129 165q-6 12 -6 35z" />
<glyph unicode="|" horiz-adv-x="774" d="M354 -410v2055q0 16 11 20q12 4 55 4v-2056q0 -15 -12 -19q-17 -4 -54 -4z" />
<glyph unicode="}" horiz-adv-x="598" d="M39 -268q0 27 22 26q120 6 179 43t59 146q0 20 -14 182q-12 138 -13 233q0 180 131 236q-66 23 -98.5 63.5t-32.5 126.5q0 100 13 244q14 168 14 201q0 80 -14 123q-15 46 -56 67q-39 20 -71 27q-35 6 -109 12q0 6 -1 12.5t-2 9.5t-1 5q0 35 29 35q158 0 225 -60 q70 -61 70 -213q0 -78 -15 -213q-16 -154 -16 -233q0 -141 131 -166q6 -18 6 -35q0 -29 -26 -45q-37 -23 -60 -39q-12 -10 -33 -53q-18 -41 -18 -109q0 -76 16 -223q14 -129 15 -207q0 -238 -320 -237q-10 16 -10 41z" />
<glyph unicode="~" horiz-adv-x="817" d="M27 524q27 45 90 86t143 41q71 0 154 -55q82 -55 149 -55q114 0 172 92q14 16 32.5 8t27.5 -33q-96 -133 -238 -133q-82 0 -168 55.5t-135 55.5q-100 0 -178 -90q-12 -8 -27 0q-16 10 -22 28z" />
<glyph unicode="&#xa1;" horiz-adv-x="374" d="M123 970.5q0 26.5 20 51.5q18 20 50 20q63 0 63 -71q0 -29 -18 -51q-18 -20 -45 -21q-31 0 -50 21q-20 24 -20 50.5zM150 -406l4 1065q0 31 67 31l4 -1075q1 -21 -75 -21z" />
<glyph unicode="&#xa2;" d="M201 455q0 545 309 583v252q0 25 12.5 31t48.5 6v-285h2q59 0 117 -22q55 -20 55 -41q0 -33 -14 -53q-70 51 -153 51q-68 0 -109 -16q-49 -20 -96 -70q-49 -51 -74 -164q-27 -121 -27 -278q0 -109 13 -187q10 -59 34 -119q18 -43 58 -65q41 -23 72 -29q37 -6 94 -6 q92 0 192 76q12 -18 13 -47q0 -25 -66 -58q-70 -35 -145 -34h-5v-242q0 -25 -12 -31t-47 -6v281q-74 4 -115 20q-43 18 -81.5 65.5t-57.5 145.5q-18 95 -18 242z" />
<glyph unicode="&#xa3;" horiz-adv-x="811" d="M31 571q0 39 4 56q3 12 18 12h144v35q0 164 24 274q25 106 72 168q47 59 98 80q57 23 127 23q84 0 143.5 -27t59.5 -57q0 -29 -14 -50q-82 66 -189 66q-80 0 -131 -33t-88 -141q-35 -102 -35 -299v-39h332q0 -41 -4 -57q-2 -10 -19 -11h-309q0 -270 17 -501l419 -7 q8 -14 9 -32q0 -6 -4.5 -14.5t-12.5 -10.5q-4 -2 -8 -2t-8 -2q-6 -2 -21 -2h-22h-23h-20h-375q-18 341 -18 571h-166z" />
<glyph unicode="&#xa5;" d="M90 1421q-4 10 10 11l22 1q22 1 44 1l113 -301q137 -352 170 -476q18 66 169 476l107 286q2 8 14 13q6 2 64 2l-256 -678h217q0 -35 -6 -47.5t-29 -12.5h-205l-41 -108v-154h283q0 -35 -6 -47t-29 -12h-248v-352q0 -16 -8 -19q-12 -4 -59 -4v375h-289q0 35 6 47t27 12 h256v150l-45 112h-244q0 35 6 47.5t27 12.5h188z" />
<glyph unicode="&#xa6;" horiz-adv-x="456" d="M197 -399v825q0 29 32 29q16 0 35 -6v-830q0 -23 -35 -22q-16 0 -32 4zM197 686v807q0 27 32 27q18 0 35 -4v-811q0 -23 -35 -23q-16 0 -32 4z" />
<glyph unicode="&#xa7;" horiz-adv-x="782" d="M115 815q0 139 139 211l-23 23q-53 53 -75 92q-20 35 -21 94q0 92 78 149.5t215 57.5q86 0 154 -29q66 -29 77 -57q2 -4 3 -15q0 -27 -21 -41q-90 72 -219 72q-100 0 -157.5 -39t-57.5 -102q0 -43 18 -74q16 -29 60 -74q33 -33 137 -116q102 -82 149 -133 q53 -55 78 -102.5t25 -113.5q0 -137 -142 -210l25 -23q53 -53 76 -92q20 -35 20 -94q0 -92 -77.5 -149.5t-215.5 -57.5q-86 0 -155 28q-66 27 -76 58q-2 4 -2 14q0 27 20 41q90 -72 220 -72q100 0 157.5 39t57.5 103q0 47 -17 73q-12 23 -61 74q-33 33 -137 117 q-102 82 -150 133q-51 53 -78 105q-24 45 -24 110zM180 815q0 -82 80 -174q29 -33 225 -192q45 20 86 75q37 49 37 94q0 82 -80 175q-35 35 -57 53l-92 74l-78 63q-57 -23 -88 -72q-33 -51 -33 -96z" />
<glyph unicode="&#xa8;" horiz-adv-x="411" d="M0 1348q0 25 16 47q14 20 45 20q29 0 50 -20q18 -18 18 -47t-20.5 -49.5t-47.5 -20.5q-61 0 -61 70zM287 1348q0 25 16 47q14 20 45 20q29 0 49 -20q16 -16 16.5 -47t-18.5 -50q-20 -20 -47 -20q-61 0 -61 70z" />
<glyph unicode="&#xa9;" horiz-adv-x="935" d="M84 1104q0 455 397 455q190 0 283 -101q92 -102 92 -352q0 -219 -100.5 -334t-282.5 -115q-106 0 -164 17q-61 18 -118.5 65t-81.5 138q-25 89 -25 227zM143 1094q0 -209 78 -293t238 -84q158 0 248 102.5t90 290.5q0 215 -78 301q-80 88 -234 88q-342 1 -342 -405z M303 1077q0 106 16 166q18 70 50 96q33 31 59 39q31 10 68 11q29 0 63 -13q33 -12 33 -20q0 -4 -6 -22.5t-11 -22.5q-39 25 -69 24q-66 0 -107 -53q-39 -51 -39 -205q0 -121 29 -159q29 -37 94 -37q39 0 95 30q16 -37 16 -39q0 -12 -39 -30q-33 -16 -78 -17q-92 0 -133 47 t-41 205z" />
<glyph unicode="&#xaa;" horiz-adv-x="704" d="M117 836q0 143 67.5 192t186.5 49q82 0 155 -22v194q0 86 -47 115q-45 27 -119 27q-115 0 -217 -56q-14 10 -16 28.5t8 29.5q83 61 246 61q209 0 209 -188v-617q-94 -57 -242 -57q-111 0 -170 47q-61 50 -61 197zM176 827q0 -104 49 -141t140 -37q98 0 161 37v309 q-90 23 -137 23q-45 0 -86 -4q-35 -4 -65.5 -20.5t-47.5 -59.5q-14 -37 -14 -107z" />
<glyph unicode="&#xab;" horiz-adv-x="854" d="M76 524q0 16 76 142q55 90 155 241l78 117q14 0 23 -8q12 -12 16 -19l4 -8q0 -33 -287 -465q295 -451 295 -479q-14 -45 -37 -45q-323 483 -323 524zM391 512q0 14 78 133q100 152 154 227l77 111q14 0 23 -8q12 -12 14 -19l4 -8q0 -34 -282 -436q293 -401 293 -424 q-14 -45 -37 -45q-324 428 -324 469z" />
<glyph unicode="&#xac;" horiz-adv-x="817" d="M68 555q0 35 28 35h631v-363q-14 -6 -33 -6q-35 0 -35 29v272h-585q-6 15 -6 33z" />
<glyph unicode="&#xad;" horiz-adv-x="612" d="M98 543q0 47 2 55q2 12 21 12h395q0 -39 -4 -55q-3 -12 -18 -12h-396z" />
<glyph unicode="&#xae;" horiz-adv-x="935" d="M84 1104q0 455 397 455q190 0 283 -101q92 -102 92 -352q0 -219 -100.5 -334t-282.5 -115q-106 0 -164 17q-61 18 -118.5 65t-81.5 138q-25 89 -25 227zM143 1094q0 -209 78 -293t238 -84q158 0 248 102.5t90 290.5q0 215 -78 301q-80 88 -234 88q-342 1 -342 -405z M344 836v550q0 8 10 9h111q172 0 172 -148q0 -121 -96 -155q88 -94 108 -240q0 -16 -14 -16h-39q-31 160 -115 243h-84v-227q0 -16 -53 -16zM397 1126h58q131 0 131 119q0 100 -129 101h-60v-220z" />
<glyph unicode="&#xaf;" horiz-adv-x="501" d="M0 1331q4 35 29 35h471q4 -20 4 -35q-2 -33 -29 -33h-471q-4 17 -4 33z" />
<glyph unicode="&#xb0;" horiz-adv-x="780" d="M221 1341q0 86 47 131.5t135 45.5q84 0 123 -39q41 -41 41 -138q0 -82 -47 -129q-45 -45 -131 -45t-127 35t-41 139zM281 1335q0 -111 108 -110q119 0 119 118q0 61 -25 91q-25 27 -80 26q-59 0 -92 -28q-30 -27 -30 -97z" />
<glyph unicode="&#xb1;" d="M98 20q0 47 2 56q2 12 21 12h694q0 -41 -4 -57q-2 -10 -18 -11h-695zM98 557q0 49 2 57q2 10 21 11h305v303q0 14 10 18q12 4 56 4v-325h323q0 -39 -4 -56q-3 -12 -18 -12h-301v-301q0 -18 -11 -20q-8 -2 -55 -3v324h-328z" />
<glyph unicode="&#xb2;" horiz-adv-x="849" d="M125 623q0 31 16 47q74 74 154 143l158 139q61 55 110 129t49 144q0 78 -39 118q-41 43 -143 43q-135 0 -256 -104q-20 20 -20 45q0 33 94 80t196 47q137 0 189 -61q53 -63 53 -162q0 -78 -49 -158q-45 -74 -113 -137l-159 -141q-104 -90 -146 -138h502q6 -18 6 -30 q0 -35 -27 -35h-569q-6 13 -6 31z" />
<glyph unicode="&#xb3;" horiz-adv-x="897" d="M152 659q0 23 24 41q76 -63 230 -63q125 0 198.5 55.5t73.5 147.5q0 68 -43 110.5t-115 55.5q-72 10 -186 10q-8 8 -8 31q0 31 28 30q82 0 156 -8q129 80 129 188q0 49 -43 91q-45 41 -145 41q-162 0 -265 -91q-16 16 -16 37t12 29q96 90 277 90q137 0 192 -53 q57 -55 58 -133q0 -132 -123 -215q76 -23 116 -76q43 -55 43 -129q0 -133 -94 -205t-256 -72q-176 0 -233 64q-10 10 -10 24z" />
<glyph unicode="&#xb4;" horiz-adv-x="315" d="M0 1241l127 115l113 94q39 33 43 33q14 0 34 -60q-10 -10 -45 -37l-110 -86l-135 -100z" />
<glyph unicode="&#xb5;" horiz-adv-x="897" d="M141 -393v1397q0 29 33 28q16 0 33 -4v-766q0 -217 237 -217q133 0 244 47v909q0 31 33 31q16 0 33 -4v-981q-157 -68 -308 -67q-169 0 -239 92v-445q0 -25 -37 -24q-4 0 -29 4z" />
<glyph unicode="&#x3bc;" horiz-adv-x="897" d="M141 -393v1397q0 29 33 28q16 0 33 -4v-766q0 -217 237 -217q133 0 244 47v909q0 31 33 31q16 0 33 -4v-981q-157 -68 -308 -67q-169 0 -239 92v-445q0 -25 -37 -24q-4 0 -29 4z" />
<glyph unicode="&#xb6;" horiz-adv-x="1126" d="M104 868q0 279 107 430q108 154 301 154q133 0 229 -51v-1381q0 -27 -36 -26q-18 0 -31 6v428q-78 -41 -201 -41q-162 0 -264 109q-105 110 -105 372zM172 870q0 -231 88 -325t223 -94q111 -3 191 43v862q-47 33 -170 33q-160 0 -246 -135.5t-86 -383.5zM918 2v1382 q0 27 34 27q12 0 33 -4v-1387q0 -23 -35 -22q-16 0 -32 4z" />
<glyph unicode="&#xb7;" horiz-adv-x="403" d="M129 553q0 28 18 49q18 20 48 21q31 0 49 -18.5t18 -51.5q0 -27 -20 -51q-18 -20 -47 -21q-66 0 -66 72z" />
<glyph unicode="&#xb8;" horiz-adv-x="233" d="M0 -358q4 39 16 53q12 4 19 2q2 0 12 -3t19 -5q22 -6 36 -6q76 0 76 75q0 74 -74 74l-73 -12l39 186h57l-27 -131q12 4 37 4q37 0 70 -29q29 -27 29 -79q0 -78 -39 -111t-95 -33q-18 0 -51 4l-24 5l-15 4z" />
<glyph unicode="&#xb9;" horiz-adv-x="876" d="M152 621q0 37 26 36h266v721l-276 -59q-10 16 -10 33q0 25 28 34q270 68 297 68q12 0 29 -4v-793h211q4 -16 4 -32q0 -33 -25 -33h-544q-6 13 -6 29z" />
<glyph unicode="&#xba;" horiz-adv-x="729" d="M98 1020q0 221 74 327.5t205 106.5q133 0 194.5 -94t61.5 -340q0 -426 -277 -426q-63 0 -106 18q-47 20 -80 62q-37 47 -55 131q-17 76 -17 215zM162 1010q0 -201 47 -279q45 -76 147.5 -76t157.5 95q57 98 57 276q0 203 -47 285q-45 80 -143 80q-219 0 -219 -381z" />
<glyph unicode="&#xbb;" horiz-adv-x="847" d="M104 86q0 25 295 426q-285 401 -284 436q0 8 10 19q10 12 20 14l11 2q309 -432 309 -471q0 -18 -80 -135l-162 -227l-80 -109q-39 8 -39 45zM414 45q0 9 73 129l148 236l72 114q-285 428 -285 465q0 8 10 19q12 12 23 14l10 2q309 -459 309 -500q0 -39 -321 -524 q-39 8 -39 45z" />
<glyph unicode="&#xbc;" horiz-adv-x="1806" d="M152 621q0 37 26 36h266v721l-276 -59q-10 16 -10 33q0 25 28 34q270 68 297 68q12 0 29 -4v-793h211q4 -16 4 -32q0 -33 -25 -33h-544q-6 13 -6 29zM465 16l924 1426q8 14 22 14q27 0 41 -31l-926 -1431q-4 -10 -18 -10q-33 -1 -43 32zM1004 186q0 6 16 60 q43 135 162 313q119 180 229 285q18 18 47 18q12 0 29 -4v-633h162q6 -12 6 -35q0 -31 -19 -30h-149v-140q0 -29 -41 -28q-18 0 -25 2v166h-409q-8 14 -8 26zM1081 223h340l2 539q-90 -84 -196.5 -244t-145.5 -295z" />
<glyph unicode="&#xbd;" horiz-adv-x="1884" d="M152 621q0 37 26 36h266v721l-276 -59q-10 16 -10 33q0 25 28 34q270 68 297 68q12 0 29 -4v-793h211q4 -16 4 -32q0 -33 -25 -33h-544q-6 13 -6 29zM465 16l924 1426q8 14 22 14q27 0 41 -31l-926 -1431q-4 -10 -18 -10q-33 -1 -43 32zM1133 31q0 31 16 47 q74 74 154 143l157 139q61 55 110.5 129t49.5 144q0 78 -39 119q-41 43 -143 43q-135 0 -256 -105q-20 20 -21 45q0 33 94.5 80t196.5 47q138 0 190 -61q51 -59 52 -162q0 -74 -52 -158q-45 -74 -112 -137l-158 -141q-90 -78 -145 -137h502q6 -18 6 -31q0 -35 -27 -35h-569 q-6 13 -6 31z" />
<glyph unicode="&#xbe;" horiz-adv-x="1800" d="M152 659q0 23 24 41q76 -63 230 -63q125 0 198.5 55.5t73.5 147.5q0 68 -43 110.5t-115 55.5q-72 10 -186 10q-8 8 -8 31q0 31 28 30q82 0 156 -8q129 80 129 188q0 49 -43 91q-45 41 -145 41q-162 0 -265 -91q-16 16 -16 37t12 29q96 90 277 90q137 0 192 -53 q57 -55 58 -133q0 -132 -123 -215q76 -23 116 -76q43 -55 43 -129q0 -133 -94 -205t-256 -72q-176 0 -233 64q-10 10 -10 24zM494 16l923 1426q8 14 23 14q27 0 41 -31l-926 -1431q-4 -10 -18 -10q-33 -1 -43 32zM997 186q0 16 17 60q43 135 162 313q119 180 229 285 q18 18 47 18q12 0 29 -4v-633h161q6 -12 7 -35q0 -31 -19 -30h-149v-140q0 -29 -41 -28q-18 0 -25 2v166h-409q-9 14 -9 26zM1075 223h340l2 539q-90 -84 -196.5 -244t-145.5 -295z" />
<glyph unicode="&#xbf;" horiz-adv-x="608" d="M29 -104q0 104 43 192q41 86 118 182q70 86 89 117q49 84 49 176q0 35 -2 51q-3 25 -7 37t-2 15q9 15 62 6q18 -43 18 -109q0 -102 -59 -203q-27 -45 -90 -122q-71 -86 -111 -166q-39 -78 -39 -172q0 -229 226 -230q127 0 217 66q6 -18 6 -51q0 -25 -74 -54 q-76 -29 -158 -28q-121 0 -204 65q-82 64 -82 228zM276 967q0 29 19 51q18 20 49 20q63 0 64 -71q0 -31 -17 -49q-18 -20 -47 -20.5t-49 20.5q-19 18 -19 49z" />
<glyph unicode="&#xc0;" horiz-adv-x="890" d="M18 0l404 1436q0 8 18 8q20 0 27 -6l405 -1415q6 -25 -24 -25q-33 0 -43 2l-119 424h-479l-111 -410q-6 -16 -37 -16q-29 0 -41 2zM213 1847q16 59 35 60q2 0 139 -117q141 -119 143 -123q-23 -41 -26 -41l-144 109q-145 110 -147 112zM223 487h447l-125 451 q-90 326 -101 405q-6 -55 -98 -405z" />
<glyph unicode="&#xc1;" horiz-adv-x="890" d="M18 0l404 1436q0 8 18 8q20 0 27 -6l405 -1415q6 -25 -24 -25q-33 0 -43 2l-119 424h-479l-111 -410q-6 -16 -37 -16q-29 0 -41 2zM223 487h447l-125 451q-90 326 -101 405q-6 -55 -98 -405zM371 1651q82 78 127 116q25 23 112 93q39 33 43 32q12 0 35 -59 q-18 -18 -45 -39l-111 -86l-135 -98z" />
<glyph unicode="&#xc2;" horiz-adv-x="890" d="M18 0l404 1436q0 8 18 8q20 0 27 -6l405 -1415q6 -25 -24 -25q-33 0 -43 2l-119 424h-479l-111 -410q-6 -16 -37 -16q-29 0 -41 2zM201 1645l225 217q12 4 20 4q16 0 31 -17q199 -197 199 -202l-6 -11q-4 -4 -23 -16q-14 -8 -29 -8q-174 186 -174 188 q-178 -186 -194 -186q-40 0 -49 31zM223 487h447l-125 451q-90 326 -101 405q-6 -55 -98 -405z" />
<glyph unicode="&#xc3;" horiz-adv-x="890" d="M18 0l404 1436q0 8 18 8q20 0 27 -6l405 -1415q6 -25 -24 -25q-33 0 -43 2l-119 424h-479l-111 -410q-6 -16 -37 -16q-29 0 -41 2zM156 1688q47 80 88 102q43 25 102 25q51 0 100.5 -55.5t94.5 -55.5q49 0 82 25q29 20 47 51q16 27 22 26.5t17 -10.5q12 -12 14 -18l4 -11 q-63 -131 -190 -131q-53 0 -88 29q-43 35 -64 61q-23 29 -53 29q-33 0 -66 -26.5t-47 -51.5q-14 -27 -22 -26q-21 0 -41 37zM223 487h447l-125 451q-90 326 -101 405q-6 -55 -98 -405z" />
<glyph unicode="&#xc4;" horiz-adv-x="890" d="M18 0l404 1436q0 8 18 8q20 0 27 -6l405 -1415q6 -25 -24 -25q-33 0 -43 2l-119 424h-479l-111 -410q-6 -16 -37 -16q-29 0 -41 2zM223 487h447l-125 451q-90 326 -101 405q-6 -55 -98 -405zM238 1757q0 25 16 47q14 20 45 20.5t49.5 -18t18.5 -49.5q0 -33 -18.5 -51 t-49.5 -18q-61 -1 -61 69zM524 1757q0 25 17 47q14 20 44.5 20.5t49.5 -18.5q16 -16 16 -49t-18.5 -51t-46.5 -18q-62 -1 -62 69z" />
<glyph unicode="&#xc5;" horiz-adv-x="890" d="M18 0l404 1436q0 8 18 8q20 0 27 -6l405 -1415q6 -25 -24 -25q-33 0 -43 2l-119 424h-479l-111 -410q-6 -16 -37 -16q-29 0 -41 2zM223 487h447l-125 451q-90 326 -101 405q-6 -55 -98 -405zM270 1778q0 90 49.5 133t131.5 43q86 0 124.5 -39t38.5 -137q0 -82 -47 -129 q-45 -45 -131 -45q-166 0 -166 174zM330 1774q0 -111 108 -111q117 0 117 117q0 63 -25 88q-27 27 -77 26q-63 0 -93 -26q-30 -28 -30 -94z" />
<glyph unicode="&#xc6;" horiz-adv-x="1361" d="M39 0l731 1419q2 14 23 15h499q0 -49 -2 -56q-4 -10 -12 -10h-430v-551h403q-8 -59 -18 -63h-385v-688h446q0 -49 -2 -56q-4 -10 -16 -10h-496v424h-452l-213 -410q-6 -16 -37 -16q-27 0 -39 2zM360 487h420v844q-61 -139 -190 -401z" />
<glyph unicode="&#xc7;" horiz-adv-x="743" d="M92 641q0 212 25 369q27 164 59 239q37 82 94 133q51 47 105 60q49 12 110 12q82 0 136 -33q55 -33 55 -65q0 -25 -17 -43q-76 76 -174 76q-55 0 -94 -12.5t-84 -57.5q-41 -41 -74 -125q-31 -82 -49 -221q-20 -160 -20 -340q0 -137 16 -256q14 -98 43 -172q25 -59 64 -96 q41 -39 73 -48q37 -10 78 -10q70 0 137.5 37t96.5 78q16 -27 16 -47q0 -41 -72 -86q-76 -47 -167 -53l-21 -105q12 4 37 4q35 0 67 -29q31 -28 31 -79q0 -76 -41 -111q-39 -33 -92 -33q-18 0 -51 4q-8 0 -37 9l-14 2q4 39 16 53q12 4 18 2q2 0 12.5 -3t18.5 -5q22 -6 37 -6 q76 0 76 75q0 74 -74 74l-74 -12l33 162q-43 2 -84 16q-37 12 -78 53q-45 45 -71 111q-29 72 -47 190q-19 123 -19 289z" />
<glyph unicode="&#xc8;" horiz-adv-x="716" d="M137 0v1411q0 23 23 23h489q0 -49 -2 -56q-4 -10 -12 -10h-430v-551h401q-8 -59 -18 -63h-383v-688h446q0 -49 -2 -56q-4 -10 -16 -10h-496zM184 1847q16 59 35 60q3 0 141.5 -117t141.5 -123q-23 -41 -27 -41q-2 0 -145 109q-138 104 -146 112z" />
<glyph unicode="&#xc9;" horiz-adv-x="716" d="M137 0v1411q0 23 23 23h489q0 -49 -2 -56q-4 -10 -12 -10h-430v-551h401q-8 -59 -18 -63h-383v-688h446q0 -49 -2 -56q-4 -10 -16 -10h-496zM344 1651q82 78 127 116l113 93q39 33 43 32q12 0 35 -59q-18 -18 -46 -39l-110 -86l-135 -98z" />
<glyph unicode="&#xca;" horiz-adv-x="716" d="M137 0v1411q0 23 23 23h489q0 -49 -2 -56q-4 -10 -12 -10h-430v-551h401q-8 -59 -18 -63h-383v-688h446q0 -49 -2 -56q-4 -10 -16 -10h-496zM174 1645l225 217q12 4 21 4q16 0 31 -17q199 -197 198 -202l-2 -4q-4 -5 -6 -7q-4 -6 -20 -16q-14 -8 -29 -8 q-174 186 -174 188q-178 -186 -195 -186q-40 0 -49 31z" />
<glyph unicode="&#xcb;" horiz-adv-x="716" d="M137 0v1411q0 23 23 23h489q0 -49 -2 -56q-4 -10 -12 -10h-430v-551h401q-8 -59 -18 -63h-383v-688h446q0 -49 -2 -56q-4 -10 -16 -10h-496zM211 1757q0 25 16 47q14 20 45 20.5t49.5 -18t18.5 -49.5t-21 -51q-18 -18 -47 -18q-61 -1 -61 69zM498 1757q0 25 16 47 q14 20 45 20.5t49 -18.5q16 -16 16.5 -49t-18 -51t-47.5 -18q-61 -1 -61 69z" />
<glyph unicode="&#xcc;" horiz-adv-x="327" d="M-68 1847q16 59 35 60l139 -117q141 -119 144 -123q-23 -41 -27 -41l-143 109l-135 102q-11 8 -13 10zM131 0v1395q0 29 10 35q6 4 58 4v-1411q0 -16 -9 -19q-12 -4 -59 -4z" />
<glyph unicode="&#xcd;" horiz-adv-x="327" d="M92 1651q82 78 127 116l113 93q39 33 43 32q12 0 35 -59q-18 -18 -45 -39l-111 -86l-135 -98zM131 0v1395q0 29 10 35q6 4 58 4v-1411q0 -16 -9 -19q-12 -4 -59 -4z" />
<glyph unicode="&#xce;" horiz-adv-x="327" d="M-80 1645l225 217q12 4 21 4q16 0 31 -17q199 -197 198 -202l-2 -4q-4 -5 -6 -7q-4 -6 -20 -16q-14 -8 -29 -8q-174 186 -174 188q-178 -186 -195 -186q-40 0 -49 31zM131 0v1395q0 29 10 35q6 4 58 4v-1411q0 -16 -9 -19q-12 -4 -59 -4z" />
<glyph unicode="&#xcf;" horiz-adv-x="327" d="M-41 1757q0 25 16 47q14 20 45 20.5t49.5 -18t18.5 -49.5t-20 -51q-18 -18 -48 -18q-61 -1 -61 69zM131 0v1395q0 29 10 35q6 4 58 4v-1411q0 -16 -9 -19q-12 -4 -59 -4zM246 1757q0 25 16 47q14 20 45 20.5t49 -18.5q16 -16 16.5 -49t-18 -51t-47.5 -18q-61 -1 -61 69z " />
<glyph unicode="&#xd0;" horiz-adv-x="878" d="M37 727q0 39 4 55q2 10 18 11h76v608q0 33 49 33h207q199 0 297 -152q100 -154 100 -485q0 -193 -22 -346q-20 -141 -59 -232q-37 -86 -93 -135q-59 -53 -110 -68q-59 -16 -127 -16h-242v727h-98zM203 66h174q61 0 102 14q51 18 92 59q47 47 78 123q33 84 51 213 q18 135 19 322q0 301 -80 436t-256 135h-180v-575h254q0 -45 -2 -54q-4 -12 -21 -12h-231v-661z" />
<glyph unicode="&#xd1;" horiz-adv-x="952" d="M131 0v1411q0 23 23 23h41l258 -576q16 -53 303 -698v1251q0 16 8 19q12 4 59 4v-1411q0 -23 -22 -23h-41l-262 586q0 2 -7.5 16t-22.5 51t-32 72l-135 307l-106 246q4 -463 4 -752v-503q0 -16 -9 -19q-12 -4 -59 -4zM209 1688q47 80 88 102q43 25 102 25 q49 0 98.5 -55.5t96.5 -55.5q49 0 82 25q31 23 49 51q16 27 20 26q6 0 17 -10q12 -12 14 -18l4 -11q-63 -131 -190 -131q-53 0 -88 29q-37 31 -62 61q-23 29 -55.5 29t-65 -26.5t-47.5 -51.5q-14 -27 -22 -26q-21 0 -41 37z" />
<glyph unicode="&#xd2;" horiz-adv-x="940" d="M92 727q0 387 96.5 557t298.5 170q197 0 281 -164q82 -162 82 -563t-90 -575q-89 -172 -295 -172q-131 0 -213 69q-80 68 -121 232q-39 157 -39 446zM164 700q0 -360 69 -505q70 -147 232 -148q168 0 242 156q74 158 73 530q0 354 -69 506q-68 147 -226 147 q-166 0 -243 -157q-78 -160 -78 -529zM262 1847q16 59 35 60q2 0 139 -117q131 -111 144 -123q-23 -41 -27 -41q-2 0 -145 109q-138 104 -146 112z" />
<glyph unicode="&#xd3;" horiz-adv-x="940" d="M92 727q0 387 96.5 557t298.5 170q197 0 281 -164q82 -162 82 -563t-90 -575q-89 -172 -295 -172q-131 0 -213 69q-80 68 -121 232q-39 157 -39 446zM164 700q0 -360 69 -505q70 -147 232 -148q168 0 242 156q74 158 73 530q0 354 -69 506q-68 147 -226 147 q-166 0 -243 -157q-78 -160 -78 -529zM420 1651q82 78 127 116q25 23 112 93q39 33 43 32q12 0 35 -59q-18 -18 -45 -39l-110 -86l-136 -98z" />
<glyph unicode="&#xd4;" horiz-adv-x="940" d="M92 727q0 387 96.5 557t298.5 170q197 0 281 -164q82 -162 82 -563t-90 -575q-89 -172 -295 -172q-131 0 -213 69q-80 68 -121 232q-39 157 -39 446zM164 700q0 -360 69 -505q70 -147 232 -148q168 0 242 156q74 158 73 530q0 354 -69 506q-68 147 -226 147 q-166 0 -243 -157q-78 -160 -78 -529zM250 1645l225 217q12 4 21 4q16 0 30 -17q199 -197 199 -202l-6 -11q-4 -4 -23 -16q-14 -8 -28 -8q-174 186 -174 188q-178 -186 -195 -186q-40 0 -49 31z" />
<glyph unicode="&#xd5;" horiz-adv-x="940" d="M92 727q0 387 96.5 557t298.5 170q197 0 281 -164q82 -162 82 -563t-90 -575q-89 -172 -295 -172q-131 0 -213 69q-80 68 -121 232q-39 157 -39 446zM164 700q0 -360 69 -505q70 -147 232 -148q168 0 242 156q74 158 73 530q0 354 -69 506q-68 147 -226 147 q-166 0 -243 -157q-78 -160 -78 -529zM205 1688q47 80 88 102q43 25 102 25q49 0 98.5 -55.5t96.5 -55.5q49 0 82 25q31 23 49 51q16 27 20 26q6 0 17 -10q12 -12 14 -18l4 -11q-63 -131 -190 -131q-53 0 -88 29q-37 31 -62 61q-23 29 -55.5 29t-65 -26.5t-47.5 -51.5 q-14 -27 -22 -26q-21 0 -41 37z" />
<glyph unicode="&#xd6;" horiz-adv-x="940" d="M92 727q0 387 96.5 557t298.5 170q197 0 281 -164q82 -162 82 -563t-90 -575q-89 -172 -295 -172q-131 0 -213 69q-80 68 -121 232q-39 157 -39 446zM164 700q0 -360 69 -505q70 -147 232 -148q168 0 242 156q74 158 73 530q0 354 -69 506q-68 147 -226 147 q-166 0 -243 -157q-78 -160 -78 -529zM287 1757q0 25 16 47q14 20 45 20.5t49.5 -18t18.5 -49.5q0 -33 -18.5 -51t-49.5 -18q-61 -1 -61 69zM573 1757q0 25 17 47q14 20 45 21q29 0 47 -18.5t18 -49.5q0 -33 -18 -51t-47 -18q-62 -1 -62 69z" />
<glyph unicode="&#xd7;" d="M207 346l201 229l-201 232q29 29 41 37q6 4 20 -6l185 -211l186 211q16 10 23 6q12 -8 40 -37l-204 -232l202 -229q-25 -27 -38 -37q-6 -4 -25 6l-184 209l-183 -209q-16 -10 -22 -6q-12 8 -41 37z" />
<glyph unicode="&#xd8;" horiz-adv-x="952" d="M98 727q0 389 95 557q96 170 294 170q150 0 232 -88l43 107q46 -3 49 -25q0 -8 -51 -135q96 -162 96 -586q0 -408 -90 -575q-92 -172 -295 -172q-160 0 -240 92q-45 -102 -45 -107q-43 0 -49 25q0 2 10 28l25 60l21 49q-95 162 -95 600zM168 700q0 -356 72 -510l438 1115 q-63 82 -189 81q-166 0 -243 -157q-78 -160 -78 -529zM274 133q68 -86 193 -86q170 0 244 154q76 158 75 532q0 369 -73 514z" />
<glyph unicode="&#xd9;" horiz-adv-x="974" d="M131 457v954q0 16 8 19q12 4 60 4v-977q0 -86 10 -158t37 -127q31 -63 96 -94q70 -33 162 -33q172 0 272 51v1317q0 12 10 17q12 4 60 4v-1387q-41 -25 -144 -47q-94 -20 -198 -20q-123 0 -201 36q-76 37 -113 111q-35 68 -47 147q-12 74 -12 183zM272 1847q16 59 35 60 q3 0 141.5 -117t141.5 -123q-23 -41 -27 -41q-2 0 -145 109q-138 104 -146 112z" />
<glyph unicode="&#xda;" horiz-adv-x="974" d="M131 457v954q0 16 8 19q12 4 60 4v-977q0 -86 10 -158t37 -127q31 -63 96 -94q70 -33 162 -33q172 0 272 51v1317q0 12 10 17q12 4 60 4v-1387q-41 -25 -144 -47q-94 -20 -198 -20q-123 0 -201 36q-76 37 -113 111q-35 68 -47 147q-12 74 -12 183zM432 1651 q82 78 127 116l113 93q39 33 43 32q12 0 35 -59q-18 -18 -45 -39l-111 -86l-135 -98z" />
<glyph unicode="&#xdb;" horiz-adv-x="974" d="M131 457v954q0 16 8 19q12 4 60 4v-977q0 -86 10 -158t37 -127q31 -63 96 -94q70 -33 162 -33q172 0 272 51v1317q0 12 10 17q12 4 60 4v-1387q-41 -25 -144 -47q-94 -20 -198 -20q-123 0 -201 36q-76 37 -113 111q-35 68 -47 147q-12 74 -12 183zM262 1645l225 217 q12 4 21 4q16 0 31 -17q199 -197 198 -202l-2 -4q-4 -5 -6 -7q-4 -6 -20 -16q-14 -8 -29 -8q-174 186 -174 188q-178 -186 -195 -186q-40 0 -49 31z" />
<glyph unicode="&#xdc;" horiz-adv-x="974" d="M131 457v954q0 16 8 19q12 4 60 4v-977q0 -86 10 -158t37 -127q31 -63 96 -94q70 -33 162 -33q172 0 272 51v1317q0 12 10 17q12 4 60 4v-1387q-41 -25 -144 -47q-94 -20 -198 -20q-123 0 -201 36q-76 37 -113 111q-35 68 -47 147q-12 74 -12 183zM299 1757q0 25 16 47 q14 20 45 20.5t49.5 -18t18.5 -49.5t-20 -51q-18 -18 -48 -18q-61 -1 -61 69zM586 1757q0 25 16 47q14 20 45 20.5t49 -18.5q16 -16 16.5 -49t-18 -51t-47.5 -18q-61 -1 -61 69z" />
<glyph unicode="&#xdd;" horiz-adv-x="731" d="M12 1421q-4 10 11 13h63l115 -301l75 -201l68 -197q27 -78 27 -84q0 14 170 482l106 286q3 9 12 13q6 2 64 2l-320 -850v-561q0 -16 -8 -19q-12 -4 -59 -4v588zM301 1651q82 78 127 116l113 93q39 33 43 32q12 0 34 -59q-18 -18 -45 -39l-110 -86l-135 -98z" />
<glyph unicode="&#xde;" horiz-adv-x="772" d="M131 0v1413q0 20 47 21h21v-273h176q182 0 262 -104.5t80 -272.5q0 -209 -94 -321q-90 -109 -263 -109h-161v-331q0 -16 -9 -19q-12 -4 -59 -4zM199 422h49h76l36 -2q143 0 215 96t72 270q0 311 -276 312h-172v-676z" />
<glyph unicode="&#xdf;" horiz-adv-x="970" d="M119 -2q14 29 14 78v1048q0 317 313 318q197 0 293.5 -92.5t96.5 -196.5q0 -61 -48 -115q-43 -47 -102 -77q-51 -25 -100 -72q-47 -43 -47 -90q0 -39 41 -84q33 -37 100 -82l115 -84q59 -47 100 -119t41 -156q0 -143 -82 -217q-86 -76 -229 -75q-66 0 -127 16 q-57 14 -84 32.5t-27 35.5q0 37 23 49q76 -70 211 -70q109 0 178 57q68 55 67 168q0 72 -41 138q-37 59 -100 106l-115 86q-63 47 -100 92q-41 51 -41 105q0 63 45 110q45 49 104 78q51 25 103 74q45 43 45 94q0 83 -80 154q-82 72 -231 71q-129 0 -193 -69 q-61 -68 -61 -228v-1052q0 -45 -39 -45q-10 0 -23 4q-4 2 -8 5t-6 3z" />
<glyph unicode="&#xe0;" horiz-adv-x="772" d="M86 279q0 106 26.5 173.5t80.5 102.5q45 29 104 43q51 12 121 12q119 0 182 -20v194q0 114 -49 154q-51 41 -143 41q-201 0 -312 -53q-10 20 -10 37q0 27 12 32q98 49 326 49q123 0 182.5 -57t59.5 -190v-131q0 -383 -11 -611q-125 -76 -272 -75q-55 -2 -108.5 8 t-94.5 35q-45 27 -69.5 92.5t-24.5 163.5zM156 281q0 -80 18 -134q18 -51 59 -73q39 -20 72 -27q23 -4 92 -4q59 0 115 18q57 20 76 37q12 154 12 434q-68 20 -164 21q-41 0 -86 -4q-34 -3 -74 -19q-35 -14 -63 -45q-27 -29 -41 -79q-16 -55 -16 -125zM162 1438q16 59 35 59 q3 0 141 -116.5t141 -123.5q-23 -41 -26 -40l-144 108q-145 111 -147 113z" />
<glyph unicode="&#xe1;" horiz-adv-x="772" d="M86 279q0 106 26.5 173.5t80.5 102.5q45 29 104 43q51 12 121 12q119 0 182 -20v194q0 114 -49 154q-51 41 -143 41q-201 0 -312 -53q-10 20 -10 37q0 27 12 32q98 49 326 49q123 0 182.5 -57t59.5 -190v-131q0 -383 -11 -611q-125 -76 -272 -75q-55 -2 -108.5 8 t-94.5 35q-45 27 -69.5 92.5t-24.5 163.5zM156 281q0 -80 18 -134q18 -51 59 -73q39 -20 72 -27q23 -4 92 -4q59 0 115 18q57 20 76 37q12 154 12 434q-68 20 -164 21q-41 0 -86 -4q-34 -3 -74 -19q-35 -14 -63 -45q-27 -29 -41 -79q-16 -55 -16 -125zM319 1241l127 115 l113 94q39 33 43 33q14 0 35 -60q-10 -10 -45 -37l-111 -86l-135 -100z" />
<glyph unicode="&#xe2;" horiz-adv-x="772" d="M86 279q0 106 26.5 173.5t80.5 102.5q45 29 104 43q51 12 121 12q119 0 182 -20v194q0 114 -49 154q-51 41 -143 41q-201 0 -312 -53q-10 20 -10 37q0 27 12 32q98 49 326 49q123 0 182.5 -57t59.5 -190v-131q0 -383 -11 -611q-125 -76 -272 -75q-55 -2 -108.5 8 t-94.5 35q-45 27 -69.5 92.5t-24.5 163.5zM150 1235l225 217q12 4 20 4q14 0 31 -16q199 -197 199 -203l-7 -10q-4 -4 -22 -17q-14 -8 -29 -8q-174 186 -174 189q-178 -186 -194 -187q-40 0 -49 31zM156 281q0 -80 18 -134q18 -51 59 -73q39 -20 72 -27q23 -4 92 -4 q59 0 115 18q57 20 76 37q12 154 12 434q-68 20 -164 21q-41 0 -86 -4q-34 -3 -74 -19q-35 -14 -63 -45q-27 -29 -41 -79q-16 -55 -16 -125z" />
<glyph unicode="&#xe3;" horiz-adv-x="772" d="M86 279q0 106 26.5 173.5t80.5 102.5q45 29 104 43q51 12 121 12q119 0 182 -20v194q0 114 -49 154q-51 41 -143 41q-201 0 -312 -53q-10 20 -10 37q0 27 12 32q98 49 326 49q123 0 182.5 -57t59.5 -190v-131q0 -383 -11 -611q-125 -76 -272 -75q-55 -2 -108.5 8 t-94.5 35q-45 27 -69.5 92.5t-24.5 163.5zM104 1278q47 80 89 102q43 25 102 25q49 0 98 -55.5t96 -55.5q45 0 82 27q29 20 47 51q16 25 23 25q8 0 18 -11q8 -8 13 -20l4 -8q-63 -131 -191 -131q-53 0 -90 30q-41 35 -61 60q-23 29 -53 29q-37 0 -68 -25q-29 -23 -45 -53 q-14 -27 -23 -27q-18 0 -41 37zM156 281q0 -80 18 -134q18 -51 59 -73q39 -20 72 -27q23 -4 92 -4q59 0 115 18q57 20 76 37q12 154 12 434q-68 20 -164 21q-41 0 -86 -4q-34 -3 -74 -19q-35 -14 -63 -45q-27 -29 -41 -79q-16 -55 -16 -125z" />
<glyph unicode="&#xe4;" horiz-adv-x="772" d="M86 279q0 106 26.5 173.5t80.5 102.5q45 29 104 43q51 12 121 12q119 0 182 -20v194q0 114 -49 154q-51 41 -143 41q-201 0 -312 -53q-10 20 -10 37q0 27 12 32q98 49 326 49q123 0 182.5 -57t59.5 -190v-131q0 -383 -11 -611q-125 -76 -272 -75q-55 -2 -108.5 8 t-94.5 35q-45 27 -69.5 92.5t-24.5 163.5zM156 281q0 -80 18 -134q18 -51 59 -73q39 -20 72 -27q23 -4 92 -4q59 0 115 18q57 20 76 37q12 154 12 434q-68 20 -164 21q-41 0 -86 -4q-34 -3 -74 -19q-35 -14 -63 -45q-27 -29 -41 -79q-16 -55 -16 -125zM186 1348q0 25 17 47 q14 20 45 20q29 0 49 -20q18 -18 18 -47t-20.5 -49.5t-46.5 -20.5q-62 0 -62 70zM473 1348q0 25 16 47q14 20 46 20q29 0 49 -20q16 -16 16 -47t-18 -50q-20 -20 -47 -20q-62 0 -62 70z" />
<glyph unicode="&#xe5;" horiz-adv-x="772" d="M86 279q0 106 26.5 173.5t80.5 102.5q45 29 104 43q51 12 121 12q119 0 182 -20v194q0 114 -49 154q-51 41 -143 41q-201 0 -312 -53q-10 20 -10 37q0 27 12 32q98 49 326 49q123 0 182.5 -57t59.5 -190v-131q0 -383 -11 -611q-125 -76 -272 -75q-55 -2 -108.5 8 t-94.5 35q-45 27 -69.5 92.5t-24.5 163.5zM156 281q0 -80 18 -134q18 -51 59 -73q39 -20 72 -27q23 -4 92 -4q59 0 115 18q57 20 76 37q12 154 12 434q-68 20 -164 21q-41 0 -86 -4q-34 -3 -74 -19q-35 -14 -63 -45q-27 -29 -41 -79q-16 -55 -16 -125zM219 1368q0 90 47 131 q51 45 133 45q84 0 125 -41q39 -39 39 -135q0 -82 -47 -129q-45 -45 -131 -45q-166 0 -166 174zM279 1364q0 -111 108 -111q117 0 117 117q0 63 -25 88q-27 27 -78 27q-63 0 -92 -27q-30 -28 -30 -94z" />
<glyph unicode="&#xe6;" horiz-adv-x="1335" d="M86 281q0 106 26.5 173.5t80.5 102.5q49 33 104 45q51 12 121 12q119 0 182 -20v192q0 115 -51 154q-53 41 -154 41q-186 0 -291 -61q-10 20 -10 38q0 25 19 33q94 53 307 53q113 0 172 -47q57 -45 67 -159q47 127 125 166q82 41 189 40q256 0 256 -311q0 -164 -17 -237 q-78 -14 -184 -15q-172 0 -356 37v-69q0 -121 20 -218q18 -86 62 -122q41 -35 84 -47.5t110 -12.5q166 0 260 74q12 -29 13 -64q0 -12 -37 -30q-25 -12 -103 -31q-59 -14 -133 -14q-104 0 -178 28q-72 29 -108 111v-78q-96 -61 -279 -61q-68 -4 -111 6q-49 10 -90 35 q-49 29 -71 90q-25 65 -25 166zM156 274q0 -80 18.5 -129t56.5 -69q37 -20 74 -27q34 -6 92 -6q59 0 121 16q63 16 82 35v443q-68 20 -164 20q-66 0 -104 -8q-47 -10 -88 -35q-43 -27 -66 -86q-22 -62 -22 -154zM676 578q213 -39 344 -39q72 0 133 12q8 68 8 158 q-4 143 -43 206q-41 66 -147 66q-51 0 -72 -4q-37 -8 -72 -29q-45 -27 -69 -63q-27 -39 -51 -119q-21 -65 -31 -188z" />
<glyph unicode="&#xe7;" horiz-adv-x="706" d="M96 489q0 150 23 246q23 100 59 162q33 55 88 92q57 37 99 45q51 10 104 10q63 0 119 -22q53 -23 53 -51q0 -25 -14 -45q-68 55 -170 55q-55 0 -100.5 -16.5t-92.5 -63.5q-46 -46 -74 -153q-27 -104 -26 -267q0 -137 18 -225q18 -92 54 -135q37 -46 79 -62 q45 -16 105 -16q135 0 211 76q12 -20 12 -45q0 -29 -61 -60q-63 -33 -152 -34l-20 -105q12 4 36 4q35 0 68 -29q31 -28 31 -79q0 -78 -39 -111t-94 -33q-16 0 -50 4q-12 2 -38 9l-15 2q2 39 17 53q12 4 18 2q4 0 14.5 -3t16.5 -5q23 -6 37 -6q76 0 75 75q0 74 -73 74 l-74 -12l33 162q-61 2 -109 24q-49 23 -88 74q-37 47 -59 156q-21 95 -21 253z" />
<glyph unicode="&#xe8;" horiz-adv-x="788" d="M92 453q0 164 23 268q23 109 59 174q31 55 86 94q49 35 98 45q47 10 101 10q256 0 256 -321q0 -143 -15 -227q-188 -37 -477 -37h-63v-10q0 -111 14 -181q16 -78 37 -118q20 -43 59 -68q37 -25 76 -31q37 -6 92 -6q162 0 258 76q10 -31 11 -51q0 -29 -84 -60 q-82 -31 -189 -30q-78 0 -137 16q-55 15 -104 61q-51 49 -76 146q-25 98 -25 250zM160 520q344 0 481 31q8 68 8 149q-2 137 -45 211q-39 70 -145 70q-57 0 -97 -12q-41 -12 -90 -56q-51 -45 -77 -141q-29 -102 -35 -252zM215 1438q16 59 35 59l139 -117q141 -119 143 -123 q-23 -41 -26 -40l-144 108q-145 111 -147 113z" />
<glyph unicode="&#xe9;" horiz-adv-x="788" d="M92 453q0 164 23 268q23 109 59 174q31 55 86 94q49 35 98 45q47 10 101 10q256 0 256 -321q0 -143 -15 -227q-188 -37 -477 -37h-63v-10q0 -111 14 -181q16 -78 37 -118q20 -43 59 -68q37 -25 76 -31q37 -6 92 -6q162 0 258 76q10 -31 11 -51q0 -29 -84 -60 q-82 -31 -189 -30q-78 0 -137 16q-55 15 -104 61q-51 49 -76 146q-25 98 -25 250zM160 520q344 0 481 31q8 68 8 149q-2 137 -45 211q-39 70 -145 70q-57 0 -97 -12q-41 -12 -90 -56q-51 -45 -77 -141q-29 -102 -35 -252zM375 1241l127 115l112 94q39 33 43 33q14 0 35 -60 q-10 -10 -45 -37l-110 -86l-136 -100z" />
<glyph unicode="&#xea;" horiz-adv-x="788" d="M92 453q0 164 23 268q23 109 59 174q31 55 86 94q49 35 98 45q47 10 101 10q256 0 256 -321q0 -143 -15 -227q-188 -37 -477 -37h-63v-10q0 -111 14 -181q16 -78 37 -118q20 -43 59 -68q37 -25 76 -31q37 -6 92 -6q162 0 258 76q10 -31 11 -51q0 -29 -84 -60 q-82 -31 -189 -30q-78 0 -137 16q-55 15 -104 61q-51 49 -76 146q-25 98 -25 250zM160 520q344 0 481 31q8 68 8 149q-2 137 -45 211q-39 70 -145 70q-57 0 -97 -12q-41 -12 -90 -56q-51 -45 -77 -141q-29 -102 -35 -252zM203 1235l225 217q12 4 21 4q14 0 30 -16 q199 -197 199 -203l-6 -10q-4 -4 -23 -17q-14 -8 -28 -8q-170 182 -175 189q-178 -186 -194 -187q-40 0 -49 31z" />
<glyph unicode="&#xeb;" horiz-adv-x="788" d="M92 453q0 164 23 268q23 109 59 174q31 55 86 94q49 35 98 45q47 10 101 10q256 0 256 -321q0 -143 -15 -227q-188 -37 -477 -37h-63v-10q0 -111 14 -181q16 -78 37 -118q20 -43 59 -68q37 -25 76 -31q37 -6 92 -6q162 0 258 76q10 -31 11 -51q0 -29 -84 -60 q-82 -31 -189 -30q-78 0 -137 16q-55 15 -104 61q-51 49 -76 146q-25 98 -25 250zM160 520q344 0 481 31q8 68 8 149q-2 137 -45 211q-39 70 -145 70q-57 0 -97 -12q-41 -12 -90 -56q-51 -45 -77 -141q-29 -102 -35 -252zM240 1348q0 25 16 47q14 20 45 20q29 0 49 -20 q18 -18 19 -47q0 -31 -19 -50q-20 -20 -49 -20q-61 0 -61 70zM526 1348q0 25 17 47q14 20 45 20q29 0 49 -20q16 -16 16 -47t-18 -50q-20 -20 -47 -20q-62 0 -62 70z" />
<glyph unicode="&#xec;" horiz-adv-x="339" d="M-61 1438q16 59 34 59q2 0 140 -117q141 -119 143 -123q-23 -41 -27 -40l-143 108q-145 111 -147 113zM135 0v987q0 25 14.5 31t57.5 6v-1001q0 -14 -10 -19q-13 -4 -62 -4z" />
<glyph unicode="&#xed;" horiz-adv-x="339" d="M98 1241l127 115l113 94q39 33 43 33q14 0 35 -60q-10 -10 -45 -37l-111 -86l-135 -100zM135 0v987q0 25 14.5 31t57.5 6v-1001q0 -14 -10 -19q-13 -4 -62 -4z" />
<glyph unicode="&#xee;" horiz-adv-x="339" d="M-74 1235l226 217q12 4 20 4q14 0 31 -16q199 -197 198 -203l-2 -4q-4 -5 -6 -6q-4 -6 -20 -17q-14 -8 -29 -8q-174 186 -174 189q-178 -186 -195 -187q-40 0 -49 31zM135 0v987q0 25 14.5 31t57.5 6v-1001q0 -14 -10 -19q-13 -4 -62 -4z" />
<glyph unicode="&#xef;" horiz-adv-x="339" d="M-35 1348q0 25 17 47q14 20 45 20q29 0 49 -20q18 -18 18 -47t-20.5 -49.5t-46.5 -20.5q-62 0 -62 70zM135 0v987q0 25 14.5 31t57.5 6v-1001q0 -14 -10 -19q-13 -4 -62 -4zM252 1348q0 25 16 47q14 20 45 20q29 0 49 -20q16 -16 16.5 -47t-18.5 -50q-20 -20 -47 -20 q-61 0 -61 70z" />
<glyph unicode="&#xf0;" horiz-adv-x="911" d="M96 524q0 254 94.5 385t274.5 131q174 0 262 -116q-53 227 -199 391l-194 -78q-14 37 -15 49q0 10 13 21l147 59q-53 53 -145 121q10 35 43 35q18 0 31 -13q70 -49 137 -116l168 67q16 -43 16 -51q0 -10 -12 -18l-123 -50q236 -272 235 -749q0 -117 -14 -232 q-12 -98 -49 -190t-110.5 -141t-188.5 -49q-184 0 -277 131q-94 134 -94 413zM164 520q0 -477 303 -477q66 0 113 20q53 23 82 64q29 39 51 92q20 49 30 121q12 98 15 129q4 82 4 141q0 100 -12 193q-100 174 -277 174q-147 0 -227 -117q-82 -119 -82 -340z" />
<glyph unicode="&#xf1;" horiz-adv-x="849" d="M131 0v971q168 74 336 73q158 0 217 -69.5t59 -218.5v-733q0 -14 -10 -19q-12 -4 -59 -4v741q0 131 -41 185q-43 55 -166 55q-158 0 -270 -57v-901q0 -16 -9 -19q-12 -4 -57 -4zM172 1278q47 80 88 102q43 25 102 25q49 0 98.5 -55.5t96.5 -55.5q45 0 82 27q29 20 47 51 q14 25 23 25q6 0 16 -11q12 -10 14 -20l4 -8q-63 -131 -190 -131q-51 0 -88 30q-41 35 -62 60q-23 29 -55 29q-37 0 -67 -25q-29 -23 -45 -53q-14 -27 -23 -27q-21 0 -41 37z" />
<glyph unicode="&#xf2;" horiz-adv-x="808" d="M76 508q0 537 342 536q164 0 241 -116q76 -115 76 -418q0 -530 -340 -530q-80 0 -133 18q-47 16 -96 72q-45 51 -68 161q-22 113 -22 277zM145 496q0 -261 62 -357q61 -96 190 -96q127 0 199 119q70 115 70 354q0 266 -62 365q-63 100 -188 100q-131 0 -201 -112.5 t-70 -372.5zM186 1438q16 59 35 59q3 0 141.5 -116.5t141.5 -123.5q-23 -41 -27 -40q-2 0 -145 108q-138 105 -146 113z" />
<glyph unicode="&#xf3;" horiz-adv-x="808" d="M76 508q0 537 342 536q164 0 241 -116q76 -115 76 -418q0 -530 -340 -530q-80 0 -133 18q-47 16 -96 72q-45 51 -68 161q-22 113 -22 277zM145 496q0 -261 62 -357q61 -96 190 -96q127 0 199 119q70 115 70 354q0 266 -62 365q-63 100 -188 100q-131 0 -201 -112.5 t-70 -372.5zM346 1241l127 115l113 94q39 33 43 33q14 0 35 -60q-10 -10 -46 -37l-110 -86l-135 -100z" />
<glyph unicode="&#xf4;" horiz-adv-x="808" d="M76 508q0 537 342 536q164 0 241 -116q76 -115 76 -418q0 -530 -340 -530q-80 0 -133 18q-47 16 -96 72q-45 51 -68 161q-22 113 -22 277zM145 496q0 -261 62 -357q61 -96 190 -96q127 0 199 119q70 115 70 354q0 266 -62 365q-63 100 -188 100q-131 0 -201 -112.5 t-70 -372.5zM174 1235l225 217q12 4 21 4q14 0 31 -16q199 -197 198 -203l-2 -4q-4 -5 -6 -6q-4 -6 -20 -17q-14 -8 -29 -8q-174 186 -174 189q-178 -186 -195 -187q-40 0 -49 31z" />
<glyph unicode="&#xf5;" horiz-adv-x="808" d="M76 508q0 537 342 536q164 0 241 -116q76 -115 76 -418q0 -530 -340 -530q-80 0 -133 18q-47 16 -96 72q-45 51 -68 161q-22 113 -22 277zM131 1278q47 80 88 102q43 25 103 25q51 0 100 -55.5t94 -55.5t82 27q31 23 49 51q16 25 21 25q6 0 16 -11q12 -10 14 -20l4 -8 q-63 -131 -190 -131q-51 0 -88 30q-41 35 -62 60q-23 29 -55 29q-37 0 -67 -25q-29 -23 -45 -53q-14 -27 -23 -27q-21 0 -41 37zM145 496q0 -261 62 -357q61 -96 190 -96q127 0 199 119q70 115 70 354q0 266 -62 365q-63 100 -188 100q-131 0 -201 -112.5t-70 -372.5z" />
<glyph unicode="&#xf6;" horiz-adv-x="808" d="M76 508q0 537 342 536q164 0 241 -116q76 -115 76 -418q0 -530 -340 -530q-80 0 -133 18q-47 16 -96 72q-45 51 -68 161q-22 113 -22 277zM145 496q0 -261 62 -357q61 -96 190 -96q127 0 199 119q70 115 70 354q0 266 -62 365q-63 100 -188 100q-131 0 -201 -112.5 t-70 -372.5zM213 1348q0 25 16 47q14 20 45 20q29 0 50 -20q18 -18 18 -47t-20.5 -49.5t-47.5 -20.5q-61 0 -61 70zM500 1348q0 25 16 47q14 20 45 20q29 0 49 -20q16 -16 16.5 -47t-18.5 -50q-20 -20 -47 -20q-61 0 -61 70z" />
<glyph unicode="&#xf7;" d="M98 543q0 47 2 55q2 12 21 12h694q0 -39 -4 -55q-3 -12 -18 -12h-695zM385 303q0 31 18.5 49.5t45.5 18.5q31 0 49 -19q16 -16 16 -49t-18.5 -51.5t-46.5 -18.5q-64 0 -64 70zM385 840q0 31 18.5 49t45.5 18q29 0 49 -20q16 -16 16 -47q0 -33 -18.5 -51.5t-46.5 -18.5 q-64 0 -64 70z" />
<glyph unicode="&#xf8;" horiz-adv-x="886" d="M78 -6q0 4 94 156q-45 123 -45 358q0 537 338 536q160 0 229 -100l78 125q45 -8 45 -33q0 -4 -90 -149q57 -123 57 -377q0 -264 -86 -397t-239 -133q-187 0 -258 110l-33 -53q-10 -16 -19.5 -29.5t-15.5 -23.5l-12 -23q-8 0 -15 2q-12 4 -18 10q-10 11 -10 21zM197 496 q0 -184 32 -289l418 684q-55 90 -180 90q-131 0 -200.5 -112.5t-69.5 -372.5zM252 147q55 -104 197 -104q126 0 196 117q70 115 70 356q0 207 -41 320z" />
<glyph unicode="&#xf9;" horiz-adv-x="892" d="M141 369v632q0 16 9 19q12 4 59 4v-668q0 -184 49 -247q49 -66 197 -66q133 0 231 55v903q0 14 10 19q12 4 58 4v-977q-139 -68 -314 -67q-176 0 -237.5 86t-61.5 303zM223 1438q16 59 35 59q3 0 141.5 -116.5t141.5 -123.5q-23 -41 -27 -40q-2 0 -145 108 q-138 105 -146 113z" />
<glyph unicode="&#xfa;" horiz-adv-x="892" d="M141 369v632q0 16 9 19q12 4 59 4v-668q0 -184 49 -247q49 -66 197 -66q133 0 231 55v903q0 14 10 19q12 4 58 4v-977q-139 -68 -314 -67q-176 0 -237.5 86t-61.5 303zM383 1241q33 31 129 115q100 86 111 94q39 33 43 33q14 0 34 -60q-10 -10 -45 -37l-110 -86 l-135 -100z" />
<glyph unicode="&#xfb;" horiz-adv-x="892" d="M141 369v632q0 16 9 19q12 4 59 4v-668q0 -184 49 -247q49 -66 197 -66q133 0 231 55v903q0 14 10 19q12 4 58 4v-977q-139 -68 -314 -67q-176 0 -237.5 86t-61.5 303zM213 1235l225 217q12 4 21 4q14 0 30 -16q199 -197 199 -203l-6 -10q-4 -4 -23 -17q-14 -8 -28 -8 q-174 186 -174 189q-178 -186 -195 -187q-40 0 -49 31z" />
<glyph unicode="&#xfc;" horiz-adv-x="892" d="M141 369v632q0 16 9 19q12 4 59 4v-668q0 -184 49 -247q49 -66 197 -66q133 0 231 55v903q0 14 10 19q12 4 58 4v-977q-139 -68 -314 -67q-176 0 -237.5 86t-61.5 303zM250 1348q0 25 16 47q14 20 45 20q29 0 49 -20q18 -18 19 -47q0 -31 -19 -50q-20 -20 -49 -20 q-61 0 -61 70zM537 1348q0 25 16 47q14 20 45 20q29 0 49 -20q16 -16 16.5 -47t-18.5 -50q-20 -20 -47 -20q-61 0 -61 70z" />
<glyph unicode="&#xfd;" horiz-adv-x="778" d="M12 -350q0 28 19 43q49 -25 116 -25q147 0 220 299l-281 1032q-6 18 2 21q12 4 59 4l191 -696l63 -285q18 129 60 287l174 669q2 16 12 21q12 4 64 4l-287 -1094q-45 -174 -114.5 -249.5t-162.5 -75.5q-135 0 -135 45zM334 1241l127 115l112 94q39 33 43 33q14 0 35 -60 q-10 -10 -45 -37l-110 -86l-136 -100z" />
<glyph unicode="&#xfe;" horiz-adv-x="843" d="M135 -387v1855q0 25 12.5 31t55.5 6v-506q96 43 225 43q168 0 254 -100q86 -101 86 -350q0 -158 -26.5 -270.5t-69.5 -178.5q-41 -61 -97 -102q-55 -40 -98 -49q-47 -10 -86 -10q-127 0 -188 73v-461q-16 -4 -37 -4q-16 0 -25 4q-6 4 -6 19zM203 137q61 -92 178 -92 q29 0 70 10q35 8 84 45q51 37 81 88q33 53 57.5 155.5t24.5 236.5q0 227 -67.5 313t-200.5 86q-131 0 -227 -64v-778z" />
<glyph unicode="&#xff;" horiz-adv-x="778" d="M12 -350q0 28 19 43q49 -25 116 -25q147 0 220 299l-281 1032q-6 18 2 21q12 4 59 4l191 -696q2 -6 9 -38l22.5 -102.5l31.5 -142.5q23 131 60 285l174 669q2 16 12 21q12 4 64 4l-287 -1094q-45 -174 -114.5 -249.5t-162.5 -75.5q-135 0 -135 45zM201 1348q0 25 16 47 q14 20 45 20q29 0 49 -20q18 -18 19 -47q0 -31 -19 -50q-20 -20 -49 -20q-61 0 -61 70zM487 1348q0 25 17 47q14 20 45 20q29 0 49 -20q16 -16 16 -47t-18 -50q-20 -20 -47 -20q-62 0 -62 70z" />
<glyph unicode="&#x131;" horiz-adv-x="339" d="M135 0v987q0 25 14.5 31t57.5 6v-1001q0 -14 -10 -19q-13 -4 -62 -4z" />
<glyph unicode="&#x141;" horiz-adv-x="692" d="M25 715q0 10 12 18l94 35v633q0 25 10 29q12 4 62 4v-637l219 84q14 -37 14 -52q0 -10 -14 -18l-219 -84v-664h450v-40q0 -23 -22 -23h-500v698l-94 -34q-12 41 -12 51z" />
<glyph unicode="&#x142;" horiz-adv-x="337" d="M2 678q0 12 14 20l119 45v725q0 25 12.5 31t55.5 6v-737l119 47q14 -37 14 -49t-14 -21l-119 -47v-675q0 -14 -8.5 -18.5t-59.5 -4.5v674l-119 -45q-14 47 -14 49z" />
<glyph unicode="&#x152;" horiz-adv-x="1345" d="M92 727q0 389 94 557q96 170 295 170q209 0 287 -192v149q0 23 23 23h485q0 -49 -2 -56q-4 -10 -12 -10h-431v-551h404q-8 -59 -18 -63h-386v-688h449q-10 -63 -20 -66h-492v197q-43 -114 -117 -166q-72 -51 -188 -51q-199 0 -285 165.5t-86 581.5zM162 700 q0 -350 71 -503q70 -150 230 -150q166 0 233 152q66 150 66 534q0 369 -61.5 512.5t-217.5 143.5q-168 0 -243 -158q-78 -162 -78 -531z" />
<glyph unicode="&#x153;" horiz-adv-x="1390" d="M94 508q0 537 338 536q117 0 186 -55q74 -57 107 -182q25 78 61 131q35 49 86 72q55 25 86 28q41 6 95 6q256 0 256 -311q0 -158 -15 -237q-188 -37 -477 -37h-63v-10q0 -121 20 -218q18 -88 62 -125q45 -37 84 -49q43 -12 110 -12q164 0 260 76q10 -31 10 -66 q0 -12 -36 -30q-25 -12 -103 -31q-59 -14 -133 -14q-127 0 -207 45q-76 43 -110 176q-76 -221 -285 -221q-86 0 -141 18q-53 18 -101 72q-49 55 -69 161q-21 103 -21 277zM164 496q0 -261 61 -357t191 -96q125 0 194 111q71 111 74 338v24q0 266 -61 365q-63 100 -189 100 q-131 0 -200.5 -112.5t-69.5 -372.5zM754 520q344 0 481 31q8 68 8 158q-2 139 -45 206q-41 66 -147 66q-35 0 -76 -4q-31 -4 -76 -29q-41 -23 -70 -71q-29 -47 -49 -138q-24 -102 -26 -219z" />
<glyph unicode="&#x160;" horiz-adv-x="774" d="M80 78q0 29 29 47q84 -78 243 -78q141 0 213 78q70 76 70 209q0 101 -37 178q-37 78 -127 168l-233 223q-150 156 -150 287q0 117 90 190q89 74 246 74q72 0 139 -14q63 -12 86 -31q25 -18 25 -37q0 -27 -23 -43q-74 61 -235 62q-119 0 -187 -54q-72 -55 -71 -145 q0 -102 127 -236l260 -251q88 -88 122.5 -170t34.5 -191q0 -166 -88 -266q-86 -98 -264 -98q-89 0 -153 18q-63 18 -90 39t-27 41zM168 1858q2 4 16 22q12 16 25 16q8 0 61 -53l33 -32.5l38 -37t32 -32.5l47 -53q74 96 190 219q31 -23 31 -39q0 -14 -102 -133 q-100 -115 -119 -115q-20 0 -131 111q-113 113 -121 127z" />
<glyph unicode="&#x161;" horiz-adv-x="790" d="M96 55q0 31 19 47q88 -57 241 -57q266 0 267 186q0 133 -142 232l-229 141q-90 55 -121 103q-29 43 -29 112q0 102 92.5 163.5t239.5 61.5q82 0 146 -18q68 -18 92 -39q27 -20 26 -35q0 -18 -20 -45q-111 74 -242 74q-115 0 -188.5 -43t-73.5 -117q0 -43 25 -80 q23 -35 92 -82l250 -157q152 -111 151 -254q0 -131 -86 -199q-88 -70 -246 -69q-82 0 -143 12q-55 10 -90 28q-31 17 -31 35zM186 1448q4 12 15 25q12 14 26 14q8 0 62 -53l100 -105l49 -51q74 96 191 219q31 -23 30 -39q0 -14 -102 -133q-100 -115 -119 -115 q-16 0 -129 113q-115 115 -123 125z" />
<glyph unicode="&#x178;" horiz-adv-x="731" d="M12 1421q-4 10 11 13h63l115 -301l75 -201l68 -197q27 -78 27 -84q0 14 170 482l106 286q3 9 12 13q6 2 64 2l-320 -850v-561q0 -16 -8 -19q-12 -4 -59 -4v588zM168 1757q0 25 16 47q14 20 45 20.5t49.5 -18t18.5 -49.5t-21 -51q-18 -18 -47 -18q-61 -1 -61 69zM455 1757 q0 25 16 47q14 20 45 20.5t49 -18.5q16 -16 16.5 -49t-18 -51t-47.5 -18q-61 -1 -61 69z" />
<glyph unicode="&#x17d;" horiz-adv-x="815" d="M59 29q0 25 9 39l602 1300h-557v43q0 23 22 23h608q10 -10 11 -27q0 -23 -11 -41l-606 -1303h516q70 0 97 9v-49q0 -23 -23 -23h-653q-15 9 -15 29zM201 1858q2 8 14 22q12 16 27 16q8 0 61 -53l100 -102l50 -53q74 96 190 219q31 -23 31 -39q0 -18 -100.5 -133 t-121 -115t-130.5 111q-113 113 -121 127z" />
<glyph unicode="&#x17e;" horiz-adv-x="792" d="M76 35q0 23 8 33l551 893h-279q-203 0 -268 -9q-2 12 -2 37q0 35 23 35h600q10 -10 10 -25q0 -20 -10 -41l-553 -892h286q199 0 273 12v-37q0 -41 -25 -41h-604q-10 15 -10 35zM162 1448q4 12 14 25q12 14 27 14q8 0 61 -53l103 -105l47 -51q74 96 190 219q31 -23 31 -39 q0 -14 -103 -133q-100 -115 -118.5 -115t-130.5 113q-115 115 -121 125z" />
<glyph unicode="&#x17f;" horiz-adv-x="352" d="M129 0q14 29 14 98v1104q0 168 82 238q84 72 242 71q63 0 125 -16q66 -16 86 -31q27 -18 27 -30q0 -31 -21 -52q-82 66 -217 66q-131 0 -195 -59q-61 -57 -61 -211v-1162q0 -20 -8 -26q-10 -6 -33 -6q-25 0 -41 16z" />
<glyph unicode="&#x192;" horiz-adv-x="991" d="M39 -358q0 20 10 47q74 -25 156 -25q53 0 71 2q35 4 68 17q40 15 62 43q23 29 40 84q16 49 17 135v1011h-301q0 39 4 56q3 12 18 12h279v145q0 92 22 164q20 66 50 101q27 33 79 51q49 16 84 20q45 4 90 4q57 0 115 -14q51 -12 51 -27q0 -20 -10 -47q-72 23 -156 23 q-53 0 -71 -2q-35 -4 -68 -17q-43 -16 -63 -43q-18 -25 -39 -84q-16 -49 -17 -135v-139h349q0 -41 -5 -57q-2 -10 -18 -11h-326v-1015q0 -92 -22 -164q-20 -61 -51 -101q-27 -33 -78 -51q-45 -16 -84 -20q-45 -4 -90 -4q-59 0 -117 14q-49 13 -49 27z" />
<glyph unicode="&#x237;" horiz-adv-x="366" d="M-250 -313q0 23 14 43q88 -63 216 -64q109 0 139 64q31 65 31 215v1042q0 27 12 33q8 4 55 4v-1100q0 -162 -49 -241.5t-191 -79.5q-102 0 -163 26q-64 27 -64 58z" />
<glyph unicode="&#x2c6;" horiz-adv-x="473" d="M0 1235l225 217q12 4 21 4q14 0 30 -16q199 -197 199 -203l-6 -10q-4 -4 -23 -17q-14 -8 -28 -8q-174 186 -174 189q-178 -186 -195 -187q-40 0 -49 31z" />
<glyph unicode="&#x2c7;" horiz-adv-x="471" d="M0 1448q2 6 16 25q12 14 25 14q8 0 61 -53l103 -105l47 -51q74 96 190 219q31 -23 31 -39q0 -14 -102 -133q-100 -115 -119 -115t-131 113q-115 115 -121 125z" />
<glyph unicode="&#x2d8;" horiz-adv-x="475" d="M0 1434q0 29 45 36q68 -195 193 -194q37 0 69.5 16.5t52.5 44.5q8 12 31 52q8 16 27 61q10 25 33 14q25 -10 26 -32q-68 -221 -239 -222q-104 0 -170 84q-68 87 -68 140z" />
<glyph unicode="&#x2d9;" horiz-adv-x="92" d="M2 1389q2 68 47 67.5t45 -70.5q-4 -66 -49 -65q-46 3 -43 68z" />
<glyph unicode="&#x2da;" horiz-adv-x="342" d="M0 1368q0 90 47 131q51 45 133 45q84 0 125 -41q39 -39 39 -135q0 -82 -47 -129q-45 -45 -131 -45q-166 0 -166 174zM59 1364q0 -111 109 -111q117 0 117 117q0 61 -27 88t-76 27q-63 0 -92 -27q-31 -28 -31 -94z" />
<glyph unicode="&#x2db;" horiz-adv-x="235" d="M0 -240q0 80 51 156t119 104q25 16 35 13q29 0 31 -33q-70 -35 -121.5 -100.5t-51.5 -135.5q0 -104 93 -104q34 0 67 18q6 -6 10 -22q2 -8 3 -18q-2 -37 -89 -37q-147 -1 -147 159z" />
<glyph unicode="&#x2dc;" horiz-adv-x="569" d="M0 1278q47 80 88 102q43 25 102 25q49 0 98.5 -55.5t96.5 -55.5q45 0 82 27q29 20 47 51q14 25 22.5 25t18.5 -11q8 -8 12 -20l4 -8q-63 -131 -190 -131q-51 0 -88 30q-41 35 -62 60q-23 29 -55 29q-37 0 -67 -25q-29 -23 -46 -53q-14 -27 -22 -27q-21 0 -41 37z" />
<glyph unicode="&#x2dd;" horiz-adv-x="561" d="M31 1202l211 309q8 14 24 15q14 0 29 -15q12 -12 16 -34l-229 -299q-6 -6 -16 -7q-33 0 -35 31zM233 1202l226 305q6 14 24 15q12 0 29 -13q12 -10 16 -32l-243 -297q-6 -8 -19 -9q-25 0 -33 31z" />
<glyph unicode="&#x394;" horiz-adv-x="919" d="M66 0l356 1391q12 49 55 49q20 0 31 -8l375 -1432h-817zM150 66h651l-328 1253h-4z" />
<glyph unicode="&#x2206;" horiz-adv-x="919" d="M66 0l356 1391q12 49 55 49q20 0 31 -8l375 -1432h-817zM150 66h651l-328 1253h-4z" />
<glyph unicode="&#x3a9;" horiz-adv-x="985" d="M111 29q0 37 30 37h156q-180 256 -180 692q0 362 96 530q94 166 299 166q197 0 276 -156q82 -160 82 -530q0 -254 -59 -430q-61 -182 -133 -272h188q6 -12 6 -31q0 -35 -28 -35h-283q92 98 166 305q76 211 76 428q0 360 -67.5 505.5t-229.5 145.5q-168 0 -244 -149 q-78 -152 -78 -506q0 -223 70 -432q72 -217 158 -297h-295q0 6 -2 12q-4 13 -4 17z" />
<glyph unicode="&#x2126;" horiz-adv-x="985" d="M111 29q0 37 30 37h156q-180 256 -180 692q0 362 96 530q94 166 299 166q197 0 276 -156q82 -160 82 -530q0 -254 -59 -430q-61 -182 -133 -272h188q6 -12 6 -31q0 -35 -28 -35h-283q92 98 166 305q76 211 76 428q0 360 -67.5 505.5t-229.5 145.5q-168 0 -244 -149 q-78 -152 -78 -506q0 -223 70 -432q72 -217 158 -297h-295q0 6 -2 12q-4 13 -4 17z" />
<glyph unicode="&#x3c0;" d="M78 985q0 39 31 39h714q6 -25 6 -35q0 -33 -30 -33h-103v-940q0 -23 -32 -22q-6 0 -35 4v958h-357v-940q0 -23 -32 -22q-6 0 -35 4v958h-121q-6 25 -6 29z" />
<glyph unicode="&#x2000;" horiz-adv-x="976" />
<glyph unicode="&#x2001;" horiz-adv-x="1953" />
<glyph unicode="&#x2002;" horiz-adv-x="976" />
<glyph unicode="&#x2003;" horiz-adv-x="1953" />
<glyph unicode="&#x2004;" horiz-adv-x="649" />
<glyph unicode="&#x2005;" horiz-adv-x="487" />
<glyph unicode="&#x2006;" horiz-adv-x="323" />
<glyph unicode="&#x2007;" horiz-adv-x="323" />
<glyph unicode="&#x2008;" horiz-adv-x="243" />
<glyph unicode="&#x2009;" horiz-adv-x="389" />
<glyph unicode="&#x200a;" horiz-adv-x="106" />
<glyph unicode="&#x2010;" horiz-adv-x="612" d="M98 543q0 47 2 55q2 12 21 12h395q0 -39 -4 -55q-3 -12 -18 -12h-396z" />
<glyph unicode="&#x2011;" horiz-adv-x="612" d="M98 543q0 47 2 55q2 12 21 12h395q0 -39 -4 -55q-3 -12 -18 -12h-396z" />
<glyph unicode="&#x2012;" horiz-adv-x="612" d="M98 543q0 47 2 55q2 12 21 12h395q0 -39 -4 -55q-3 -12 -18 -12h-396z" />
<glyph unicode="&#x2013;" horiz-adv-x="911" d="M98 543q0 47 2 55q2 12 21 12h694q0 -39 -4 -55q-3 -12 -18 -12h-695z" />
<glyph unicode="&#x2014;" horiz-adv-x="1431" d="M12 543q0 47 2 55q2 12 21 12h1386q0 -39 -4 -55q-3 -12 -18 -12h-1387z" />
<glyph unicode="&#x2018;" horiz-adv-x="296" d="M84 1270q0 78 39 215q37 129 59 129q10 0 21 -10q9 -9 12 -19q-47 -111 -43 -262q33 -18 33 -66q0 -27 -17 -47q-14 -16 -45 -16q-29 0 -45 16q-14 15 -14 60z" />
<glyph unicode="&#x2019;" horiz-adv-x="296" d="M84 1204q47 111 43 262q-33 20 -33 66q0 31 17 47q18 18 45 18q61 0 61 -77q0 -88 -39 -213q-40 -129 -61 -129q-29 -1 -33 26z" />
<glyph unicode="&#x201a;" horiz-adv-x="296" d="M84 -199q47 111 43 262q-33 20 -33 66q0 31 17 47q18 18 45 19q61 0 61 -78q0 -88 -39 -213q-41 -131 -61 -131q-10 0 -21 10q-9 9 -12 18z" />
<glyph unicode="&#x201c;" horiz-adv-x="561" d="M84 1270q0 78 39 215q37 129 59 129q10 0 21 -10q9 -9 12 -19q-47 -111 -43 -262q33 -18 33 -66q0 -27 -17 -47q-14 -16 -45 -16q-29 0 -45 16q-14 15 -14 60zM348 1270q0 86 37 215t61 129q10 0 21 -10q9 -9 12 -19q-47 -111 -43 -262q33 -18 33 -66q0 -27 -16 -47 q-14 -16 -45 -16q-29 0 -46 16q-14 15 -14 60z" />
<glyph unicode="&#x201d;" horiz-adv-x="561" d="M84 1204q47 111 43 262q-33 20 -33 66q0 31 17 47q18 18 45 18q61 0 61 -77q0 -88 -39 -213q-40 -129 -61 -129q-29 -1 -33 26zM348 1204q47 111 43 262q-33 20 -33 66q0 31 17 47q18 18 45 18q29 0 45 -16q14 -14 14 -61q0 -78 -39 -213q-37 -129 -59 -129 q-29 -1 -33 26z" />
<glyph unicode="&#x201e;" horiz-adv-x="561" d="M84 -199q47 111 43 262q-33 20 -33 66q0 31 17 47q18 18 45 19q61 0 61 -78q0 -88 -39 -213q-41 -131 -61 -131q-10 0 -21 10q-9 9 -12 18zM348 -199q47 111 43 262q-33 20 -33 66q0 31 17 47q18 18 45 19q29 0 45 -17q14 -14 14 -61q0 -76 -39 -213q-37 -131 -59 -131 q-10 0 -21 10q-9 9 -12 18z" />
<glyph unicode="&#x2020;" horiz-adv-x="882" d="M88 999q0 25 18 41l269 -16q12 -2 16 -18q2 -14 -8 -29l-262 -14q-12 -2 -23 10q-10 14 -10 26zM403 8l17 928q0 15 18 18q16 2 29 -10l14 -921q2 -12 -10 -23q-14 -10 -27 -10q-29 0 -41 18zM403 1415q0 33 41 33q23 0 39 -18l-16 -373q-2 -12 -18 -17q-14 -2 -29 9z M496 995q-2 12 8 29l262 14q12 2 22 -10q10 -14 11 -29q0 -27 -19 -38l-268 16q-12 2 -16 18z" />
<glyph unicode="&#x2021;" horiz-adv-x="882" d="M88 440q0 23 16 39l269 -16q14 -2 16 -17q4 -16 -6 -28l-262 -17q-14 -2 -23 9q-10 14 -10 30zM88 999q0 25 18 41l269 -16q12 -2 16 -18q2 -14 -8 -29l-262 -14q-12 -2 -23 10q-10 14 -10 26zM403 12l17 371q0 12 8 14q12 4 18 2q12 -4 19 -8l16 -362q2 -12 -10 -23 q-14 -10 -31 -10q-21 0 -37 16zM403 1415q0 33 41 33q23 0 39 -18l-16 -373q-2 -12 -18 -17q-14 -2 -29 9zM416 492v432q0 18 14 24t39 -4v-430q0 -38 -53 -22zM494 434q-2 14 8 29l264 16q12 0 22 -12q10 -14 11 -27q0 -23 -19 -41l-268 17q-15 3 -18 18zM496 995 q-2 12 8 29l262 14q12 2 22 -10q10 -14 11 -29q0 -27 -19 -38l-268 16q-12 2 -16 18z" />
<glyph unicode="&#x2022;" horiz-adv-x="417" d="M123 575q0 49 27 78q29 33 73.5 33t75.5 -30.5t31 -80.5q0 -47 -31 -81q-31 -33 -76 -33q-46 0 -73 31q-27 28 -27 83z" />
<glyph unicode="&#x2026;" horiz-adv-x="937" d="M102 63q0 31 17 50q18 20 47 20q33 0 51 -20q18 -22 19 -50q0 -31 -18.5 -51t-51.5 -20q-64 -1 -64 71zM403 63q0 31 17 50q18 20 47 20q33 0 51 -20q18 -22 19 -50q0 -31 -18.5 -51t-51.5 -20q-64 -1 -64 71zM702 63q0 31 17 50q18 20 47 20q33 0 51 -20q18 -22 19 -50 q0 -31 -18.5 -51t-51.5 -20q-64 -1 -64 71z" />
<glyph unicode="&#x202f;" horiz-adv-x="389" />
<glyph unicode="&#x2030;" horiz-adv-x="2082" d="M152 1073q0 379 290 379q137 0 205 -84q68 -83 68 -295q0 -184 -74 -280q-74 -94 -207 -95q-145 0 -213 74q-69 76 -69 301zM219 1063q0 -178 49 -242q49 -66 158 -65q104 0 163.5 82t59.5 237q0 182 -51 248q-53 68 -156 68q-223 0 -223 -328zM240 8l895 1444 q43 -10 43 -33l-895 -1439q-43 3 -43 28zM750 358q0 379 288 379q137 0 205 -84q68 -83 68 -295q0 -182 -74 -278t-207 -96q-143 0 -213 75q-67 74 -67 299zM815 348q0 -176 49 -241.5t158 -65.5q104 0 163.5 82t59.5 237q0 180 -51 246q-53 70 -154 70q-225 0 -225 -328z M1372 358q0 379 289 379q137 0 205 -84q68 -83 67 -295q0 -182 -73.5 -278t-206.5 -96q-143 0 -213 75q-68 74 -68 299zM1438 348q0 -174 51 -242q49 -66 156 -65q104 0 163.5 82t59.5 237q0 180 -51 246q-53 70 -154 70q-225 0 -225 -328z" />
<glyph unicode="&#x2039;" horiz-adv-x="540" d="M76 512q0 16 76 143q49 84 155 248l78 121q14 0 23 -8q12 -12 16 -19l4 -8q0 -33 -287 -477q295 -439 295 -467q-14 -45 -37 -45q-323 471 -323 512z" />
<glyph unicode="&#x203a;" horiz-adv-x="540" d="M104 45q0 10 74 127l148 227l73 113q-285 440 -284 477q0 8 10 19q12 12 20 14l13 2q309 -471 309 -512q0 -16 -80 -145q-94 -150 -162 -248l-80 -119q-41 10 -41 45z" />
<glyph unicode="&#x2044;" horiz-adv-x="399" d="M-274 14l923 1426q6 14 23 14q25 0 41 -31l-926 -1431q-4 -10 -18 -10q-33 -1 -43 32z" />
<glyph unicode="&#x205f;" horiz-adv-x="487" />
<glyph unicode="&#x2074;" horiz-adv-x="860" d="M125 778q0 6 16 60q43 135 162 313q119 180 229 285q18 18 48 18q12 0 28 -4v-633h162q6 -12 6 -35q0 -31 -18 -30h-150v-140q0 -29 -41 -28q-18 0 -24 2v166h-410q-8 14 -8 26zM203 815h340l2 539q-90 -84 -196.5 -244t-145.5 -295z" />
<glyph unicode="&#x20ac;" d="M53 451q0 35 6.5 47t28.5 12h154v37q0 127 8 198h-197q0 35 6.5 47.5t28.5 12.5h168q18 137 57 227q39 88 97 133q53 41 106 58q55 16 115 16q51 0 100 -16q45 -14 68 -35q23 -18 22 -25q0 -37 -18 -47q-70 57 -162 58q-61 0 -94 -11q-37 -12 -86 -47q-47 -35 -80 -112 q-37 -88 -51 -199h366q0 -35 -6 -47.5t-26 -12.5h-342q-8 -72 -9 -204v-31h301q0 -35 -6 -47t-28 -12h-265q6 -137 33 -220q29 -90 72 -125q41 -33 86 -47q40 -12 98 -12q61 0 121 27q63 29 92 63q16 -29 17 -51q0 -27 -76 -66q-78 -41 -162 -40q-47 0 -84 6q-39 6 -76 20 q-41 16 -71 49q-25 27 -56 82q-31 53 -45 131q-18 92 -20 183h-191z" />
<glyph unicode="&#x2122;" horiz-adv-x="1126" d="M78 1380v33q0 16 20 21h437v-33q0 -20 -21 -21h-172v-575q0 -14 -6 -17q-4 -2 -47 -2v594h-211zM582 786v627q0 20 20 21h29l114 -306l58 -139q46 129 49 135l111 289q0 20 20 21h35v-627q0 -15 -6 -19q-4 -2 -49 -2v238v6q0 6 1 17.5t1 23.5t1 47t1 58v94q0 -4 -27 -70 q-16 -41 -27 -63l-8 -25l-76 -197q-6 -10 -12 -10h-43l-80 207l-59 150v-78q0 -20 1 -57t1 -54v-51v-215q0 -15 -6 -19q-4 -2 -49 -2z" />
<glyph unicode="&#x2202;" horiz-adv-x="911" d="M96 524q0 254 94.5 385t274.5 131q170 0 264 -118q-82 346 -395 563q9 37 43 37q18 0 31 -13q217 -156 319 -377t102 -540q0 -117 -14 -232q-12 -98 -49 -190t-110.5 -141t-188.5 -49q-184 0 -277 131q-94 134 -94 413zM164 520q0 -477 303 -477q66 0 113 20q53 23 82 64 q29 39 51 92q20 49 30 121q12 98 15 129q4 82 4 141q0 100 -12 193q-100 174 -277 174q-147 0 -227 -117q-82 -119 -82 -340z" />
<glyph unicode="&#x220f;" d="M78 1395q0 39 31 39h714q6 -25 6 -35q0 -33 -30 -33h-103v-1737q0 -23 -32 -22q-6 0 -35 4v1755h-357v-1737q0 -23 -32 -22q-6 0 -35 4v1755h-121q-6 25 -6 29z" />
<glyph unicode="&#x2211;" horiz-adv-x="858" d="M137 -389l357 817l-355 1006h553q4 -20 4 -25q0 -41 -32 -41h-418l321 -946l-327 -746h465q4 -20 4 -28q0 -37 -27 -37h-545z" />
<glyph unicode="&#x2212;" d="M98 543q0 47 2 55q2 12 21 12h694q0 -39 -4 -55q-3 -12 -18 -12h-695z" />
<glyph unicode="&#x221a;" horiz-adv-x="948" d="M125 459q16 16 41 16q29 0 31 -20l190 -680l234 1659h282q6 -31 6 -33q0 -33 -24 -33h-205l-246 -1724q-6 -37 -41 -37q-2 0 -33 6z" />
<glyph unicode="&#x221e;" horiz-adv-x="1302" d="M125 559q0 53 10 92q12 45 39 90q27 43 86 72q61 29 137 29t129 -33q55 -33 82 -70q28 -37 56 -92q51 90 110 144q57 51 156 51q115 0 182 -74q66 -72 66 -211q0 -144 -68 -221q-66 -74 -188 -78q-34 -3 -80 12q-135 39 -197 205q-114 -203 -264 -203q-127 0 -191 82 q-65 84 -65 205zM193 559q0 -90 47 -155.5t137 -65.5q47 0 84 18q41 20 67 56q33 43 50 69q25 43 47 88v2q-31 88 -86.5 143.5t-130.5 59.5q-66 0 -109 -20q-106 -50 -106 -195zM684 549q28 -95 86 -160q59 -66 141 -65q90 0 145.5 59t55.5 174q0 76 -33 129q-35 57 -84 78 q-39 12 -71 10q-65 0 -99 -24q-41 -29 -69 -72q-19 -27 -72 -129z" />
<glyph unicode="&#x222b;" horiz-adv-x="991" d="M39 -358q0 20 10 47q74 -25 156 -25q53 0 71 2q35 4 68 17q40 15 62 43q23 29 40 84q16 49 17 135v1224q0 92 22 164q20 66 50 101q27 33 79 51q49 16 84 20q45 4 90 4q57 0 115 -14q51 -12 51 -27q0 -20 -10 -47q-72 23 -156 23q-53 0 -71 -2q-35 -4 -68 -17 q-43 -16 -63 -43q-18 -25 -39 -84q-16 -49 -17 -135v-1222q0 -92 -22 -164q-20 -61 -51 -101q-27 -33 -78 -51q-45 -16 -84 -20q-45 -4 -90 -4q-59 0 -117 14q-49 13 -49 27z" />
<glyph unicode="&#x2248;" horiz-adv-x="817" d="M29 395q27 43 88 86q59 41 141 41q70 0 152 -55t151 -55q113 0 180 92q12 12 26.5 6t25.5 -31q-90 -133 -236 -133q-83 0 -166 55q-84 55 -137 56q-109 0 -170 -88q-16 -16 -32.5 -6.5t-22.5 32.5zM29 647q84 127 231 127q68 0 152 -55t149 -55q111 0 174 92q14 16 27 12 q18 -6 26 -25q-2 -2 -8 -18q-2 -4 -5 -12l-5 -13q-84 -102 -213 -102q-80 0 -166 55.5t-137 55.5q-96 0 -178 -88q-10 -10 -27 -5q-12 6 -20 31z" />
<glyph unicode="&#x2260;" horiz-adv-x="817" d="M49 313q0 47 2 56q2 12 21 12h243l103 268h-369q0 47 2 56q2 12 21 12h372l117 303q6 16 25 16q20 0 41 -24l-113 -295h252q0 -47 -2 -55q-2 -12 -21 -13h-256l-102 -268h381q0 -41 -4 -57q-2 -10 -19 -11h-385l-118 -311q-2 -14 -23 -14q-25 0 -43 24l115 301h-240z" />
<glyph unicode="&#x2264;" horiz-adv-x="862" d="M117 559q0 23 26 39l557 276q18 -18 25 -47q0 -14 -16 -24l-500 -248l522 -223q0 -27 -10 -43q-8 -14 -21 -15q-16 0 -45 15l-524 229q-14 14 -14 41zM137 0q0 47 2 55q2 10 21 11h585q0 -37 -4 -54q-3 -12 -18 -12h-586z" />
<glyph unicode="&#x2265;" horiz-adv-x="847" d="M117 809q3 28 12 43q8 14 21 14q8 0 43 -14l526 -229q12 -16 12 -41q0 -29 -24 -39l-560 -277q-23 27 -22.5 45.5t14.5 26.5l502 246zM135 0q0 47 2 55q2 10 21 11h567q0 -37 -4 -54q-3 -12 -19 -12h-567z" />
<glyph unicode="&#x25ca;" horiz-adv-x="980" d="M84 717l412 725l409 -725l-409 -725zM158 717l338 -590l335 590l-335 594z" />
<glyph unicode="&#xe000;" horiz-adv-x="1025" d="M0 1025h1025v-1025h-1025v1025z" />
<glyph unicode="&#xfb00;" horiz-adv-x="948" d="M33 961q0 43 4 55q2 8 20 8h146v158q0 89 24 153q25 63 58 95q39 35 82 51q45 16 82 20q41 4 71 4q126 0 221 -73q78 84 242 84q166 0 166 -54q0 -10 -10 -35q-72 23 -156 23q-57 0 -90 -8q-43 -10 -80 -35q-45 -29 -65 -90q-23 -68 -23 -162v-131h240q0 -41 -4 -53 q-4 -10 -19 -10h-217v-938q0 -23 -23 -23h-45v961h-387v-938q0 -23 -22 -23h-45v961h-170zM270 1024h387v135q0 141 45 219q-76 63 -196 64q-41 0 -72 -6q-37 -8 -74 -29q-39 -23 -65 -84q-25 -57 -25 -145v-154z" />
<glyph unicode="&#xfb03;" horiz-adv-x="1275" d="M37 961q0 43 4 55q2 8 18 8h146v158q0 89 24 153q25 63 58 95q39 35 82 51q45 16 82 20q41 4 71 4q117 0 217 -69q76 80 250 80q90 0 135 -15q49 -14 50 -39q0 -16 -11 -41q-82 29 -176 29q-57 0 -90 -8q-45 -12 -82 -35q-45 -29 -65 -92q-23 -68 -23 -162v-129h199 q0 -47 -2 -53q-4 -10 -21 -10h-176v-938q0 -23 -22 -23h-46v961h-387v-938q0 -23 -22 -23h-45v961h-168zM272 1024h387v135q0 138 43 221q-76 61 -192 62q-41 0 -72 -6q-37 -8 -73 -29q-43 -25 -68 -82q-25 -58 -25 -147v-154zM1071 0v987q0 27 12 33q8 4 56 4v-1001 q0 -16 -9 -19q-12 -4 -59 -4z" />
<glyph unicode="&#xfb04;" horiz-adv-x="1294" d="M37 961q0 43 4 55q2 8 18 8h146v158q0 89 24 153q25 63 58 95q39 35 82 51q45 16 82 20q41 4 71 4q113 0 213 -67q63 76 217 75q123 0 207 -45v-1445q0 -16 -8 -19q-12 -4 -59 -4v1425q-63 23 -138 23q-51 0 -82 -6q-35 -6 -69 -29q-39 -25 -57.5 -86t-18.5 -160v-143 h199q0 -47 -2 -53q-4 -10 -21 -10h-176v-938q0 -23 -22 -23h-46v961h-387v-938q0 -23 -22 -23h-45v961h-168zM272 1024h387v135q0 145 39 225q-70 57 -188 58q-41 0 -72 -6q-37 -8 -73 -29q-43 -25 -68 -82q-25 -58 -25 -147v-154z" />
<glyph horiz-adv-x="1413" d="M68 961q0 37 4 53q2 10 16 10h145v334q0 25 11 31q6 4 57 4v-369h277q0 -47 -3 -53q-4 -10 -14 -10h-260v-658q0 -82 2 -106q4 -39 12 -78q8 -37 35 -58q25 -18 62 -18q68 0 141 37q8 -14 8 -39q0 -29 -47 -45q-49 -16 -113 -16q-46 0 -79 18q-31 16 -50 41 q-16 23 -26 74q-6 31 -10 88q-2 27 -3 108v652h-165zM696 35q0 23 9 33l550 893h-278q-203 0 -268 -9q-2 12 -2 37q0 35 22 35h600q10 -10 10 -25q0 -20 -10 -41l-553 -892h287q199 0 272 12v-37q0 -41 -24 -41h-604q-11 15 -11 35z" />
<glyph horiz-adv-x="866" d="M104 481q0 166 35 277q37 119 101 176q68 61 131 84q68 25 145 24q141 0 219 -81v-1061q0 -156 -94 -234q-90 -76 -242 -76q-119 0 -190 27q-74 27 -74 57q0 23 19 41l59 -30q14 -6 72 -21q43 -10 118 -10q102 0 185 57q80 55 80 199v180q-39 -41 -111 -76 q-68 -33 -149 -32q-137 0 -222 108q-82 106 -82 391zM174 469q0 -424 242 -424q166 0 252 137v738q-18 27 -62 43q-45 18 -106.5 18t-108.5 -20q-53 -23 -102 -70q-53 -49 -84 -158q-31 -107 -31 -264z" />
<glyph horiz-adv-x="495" d="M33 961q0 43 4 55q2 8 18 8h146v258q0 135 61 180q63 47 150 47q125 0 125 -45q0 -20 -9 -37q-39 20 -114 21q-66 0 -107 -35q-39 -33 -39 -141v-248h240q0 -47 -2 -53q-4 -10 -21 -10h-217v-938q0 -23 -22 -23h-45v961h-168z" />
<glyph horiz-adv-x="948" d="M106 434q0 127 66 205q72 84 174 111q-74 0 -143 65q-66 63 -66 178q0 150 103 240q100 88 260 94v221q0 20 12 26.5t49 6.5v-256q92 -6 168 -41q74 -33 102 -65q31 -35 31 -52q0 -37 -26 -57q-98 150 -308 150q-139 0 -229 -68t-90 -199q0 -197 248 -196q119 0 143 10 l-14 -72q-207 -6 -310 -90q-100 -82 -100 -211q0 -106 78 -180q80 -76 227 -76q240 0 353 168q31 -31 30 -53q0 -4 -10 -25q-8 -16 -35 -43q-25 -25 -59 -47q-37 -23 -92 -41q-57 -18 -127 -24v-209q0 -23 -11 -29q-12 -6 -51 -6v242q-193 0 -283 88t-90 235z" />
<glyph horiz-adv-x="1384" d="M104 813q0 311 88.5 454.5t294.5 143.5q39 0 76 -12.5t74 -42.5q35 -29 57 -96q20 -61 21 -160q0 -6 -1 -18.5l-3 -36l-4 -48.5q-6 -84 -11 -88l260 31v264q0 33 13 41q14 10 57 10v-307l252 39q0 -61 -25 -63q-131 -25 -227 -35v-578q0 -158 23 -213q20 -51 90 -51 q55 0 80 4q39 6 53 12l14 7q4 -29 4 -41q0 -43 -157 -43q-102 0 -139.5 61.5t-37.5 269.5v564q-479 -68 -782 -68q0 -115 16 -203q14 -82 37 -125q23 -45 62 -65q43 -25 73 -27q41 -4 89 -4q53 0 102 17q41 14 74 49q29 31 43 53q10 14 30 53q25 -29 25 -57q0 -12 -16.5 -41 t-46.5 -60q-37 -37 -89 -55q-61 -23 -131 -22q-80 0 -139 16q-53 14 -102 63.5t-74 149.5q-23 92 -23 258zM176 872q205 0 457 31q4 2 10 76t6 96q0 162 -45 219q-47 59 -131 60q-37 0 -67 -6q-29 -6 -74 -35t-74 -76q-33 -51 -55.5 -141.5t-26.5 -223.5z" />
<glyph horiz-adv-x="995" d="M129 0q14 29 14 98v1106q0 168 82 236q83 68 252 67q66 0 117 -14q59 -16 84 -33q27 -18 27 -28q0 -12 -5 -21q-8 -16 -12 -22l-4 -11q-82 66 -217 66q-133 0 -194.5 -61.5t-61.5 -221.5v-137h709q18 -23 -9 -63l-329 -449q92 -4 166 -33q76 -31 137 -106q61 -78 61 -193 q0 -209 -104.5 -334t-290.5 -125q-88 0 -139.5 14.5t-69.5 33t-18 34.5q0 20 16 47q41 -29 90 -47q37 -14 119 -14q158 0 244 105q84 102 84 278q0 205 -191 262q-86 27 -223 27l368 500h-620v-936q0 -25 -8 -33t-33 -8t-41 16z" />
<glyph horiz-adv-x="757" d="M63 961q0 49 3 55q2 8 14 8h586q18 -23 -9 -63l-329 -449q66 -4 123 -20q59 -18 118 -56q58 -37 93 -104q33 -66 32 -152q0 -203 -106 -332q-104 -127 -291 -127q-88 0 -137 17q-53 18 -74 35q-16 14 -16 30q0 20 16 47q41 -29 90 -47q37 -14 119 -14q158 0 244 104.5 t86 278.5q0 201 -193 262q-82 27 -221 27l367 500h-515z" />
<glyph horiz-adv-x="1079" d="M2 961q0 45 2 53q2 10 16 10h203v334q0 25 10 31q6 4 56 4v-369h702q16 -20 -8 -63l-330 -449q66 -4 123 -20q59 -18 119 -56q55 -35 90 -104.5t35 -151.5q0 -211 -102 -334q-104 -125 -291 -125q-76 0 -135 17q-57 16 -74 32.5t-17 30.5q0 25 17 47q39 -25 57 -32 q23 -10 57 -19q33 -8 93 -8q156 0 241 105q84 102 84 278q0 201 -192 262q-82 27 -221 27l366 500h-614v-924q0 -31 -8 -33q-12 -4 -58 -4v961h-221z" />
<glyph horiz-adv-x="1705" d="M117 717q0 336 202 536q205 201 535 201t535 -201q203 -201 202.5 -536.5t-202.5 -536.5q-205 -201 -535 -200.5t-535 200.5q-202 201 -202 537zM387 637q0 -37 43 -37h10q2 0 5.5 1t5.5 1q8 0 10 -2l119 -192v-70q0 -16 -13 -16q-4 0 -12 4q-4 2 -14 2q-37 0 -37 -39 q0 -35 43 -35q8 0 36.5 4t34.5 4q4 0 37 -4t37 -4q45 0 45 37t-32 37q-12 0 -19 -2l-12 -4q-12 0 -12 16v74l118 186q2 6 8 6q4 0 8.5 -1t6.5 -1h12q25 0 33 19q16 -18 31 -19h16q4 0 7 1l3 1q12 0 13 -26v-232q0 -25 -13 -24q-6 0 -12 2t-14 2q-35 0 -35 -35q0 -37 41 -37 q2 0 7 1t12 2t16 1q37 4 41 4q10 0 38 -4q6 0 12.5 -1t10.5 -2t6 -1q43 0 43 35q0 37 -35 37q-8 0 -14 -2t-12 -2q-12 0 -13 26v199l140 -252q27 -49 63 -49q55 0 55 90v242q0 25 15 24h10q39 0 39 35q0 39 -41 39q-18 0 -33 -2q-29 -4 -33 -4q-6 0 -34 4q-14 2 -31 2 q-23 0 -35 -12q-10 -10 -10 -27q0 -35 37 -35h16q23 0 23 -24v-201l-144 262l-4 12q-2 25 -39 25q-14 0 -24.5 -2t-28.5 -2t-30.5 2t-22.5 2q-25 0 -35 -23q-10 23 -35 23q-18 0 -35 -2q-33 -4 -39 -4t-34 4q-14 2 -31 2q-39 0 -39 -39q0 -37 39 -37q6 0 10 2 q-2 -4 -13 -23.5l-20 -35.5q-27 -45 -28 -54l-70 113h4q45 0 45 35q0 39 -41 39q-8 0 -32.5 -4t-30.5 -4q-4 0 -37 4t-35 4q-41 0 -41 -39zM477 795q0 -41 43 -41q25 0 45 6q14 4 35 4q18 0 31 -4q18 -6 37 -6q43 0 43 41q0 35 -35 34l-5 -1q-5 -1 -9 -1h-15q-10 0 -10 25 v229q0 25 10 25h15q4 0 9 -1l5 -1q10 0 24 10q10 8 11 25q0 37 -43 37q-18 0 -33 -2q-29 -4 -37 -5q-10 0 -39 5q-14 2 -35 2q-47 0 -47 -37q0 -10 12.5 -22.5t24.5 -12.5q2 0 7 1t9 1h13q10 0 10 -25v-229q0 -25 -10 -25h-13q-4 0 -9 1t-7 1q-37 1 -37 -34zM748 1057 q0 -63 38 -111q47 -59 111 -108q76 -59 113 -109q37 49 112 109q74 57 113 106q39 47 39 113q0 61 -37 94q-39 35 -90 35q-88 0 -137 -90q-49 90 -138 90q-49 0 -88 -35q-36 -33 -36 -94z" />
<glyph horiz-adv-x="376" />
</font>
</defs>
</svg>
